G04 #@! TF.GenerationSoftware,KiCad,Pcbnew,(5.1.4)-1*
G04 #@! TF.CreationDate,2020-02-22T23:02:46+01:00*
G04 #@! TF.ProjectId,PCBRuler,50434252-756c-4657-922e-6b696361645f,1.0*
G04 #@! TF.SameCoordinates,Original*
G04 #@! TF.FileFunction,Legend,Top*
G04 #@! TF.FilePolarity,Positive*
%FSLAX46Y46*%
G04 Gerber Fmt 4.6, Leading zero omitted, Abs format (unit mm)*
G04 Created by KiCad (PCBNEW (5.1.4)-1) date 2020-02-22 23:02:46*
%MOMM*%
%LPD*%
G04 APERTURE LIST*
%ADD10C,0.150000*%
%ADD11C,0.200000*%
%ADD12C,0.250000*%
%ADD13C,0.120000*%
G04 APERTURE END LIST*
D10*
X175828571Y-124731071D02*
X175876190Y-124588214D01*
X175923809Y-124540595D01*
X176019047Y-124492976D01*
X176161904Y-124492976D01*
X176257142Y-124540595D01*
X176304761Y-124588214D01*
X176352380Y-124683452D01*
X176352380Y-125064404D01*
X175352380Y-125064404D01*
X175352380Y-124731071D01*
X175400000Y-124635833D01*
X175447619Y-124588214D01*
X175542857Y-124540595D01*
X175638095Y-124540595D01*
X175733333Y-124588214D01*
X175780952Y-124635833D01*
X175828571Y-124731071D01*
X175828571Y-125064404D01*
X176352380Y-123635833D02*
X175828571Y-123635833D01*
X175733333Y-123683452D01*
X175685714Y-123778690D01*
X175685714Y-123969166D01*
X175733333Y-124064404D01*
X176304761Y-123635833D02*
X176352380Y-123731071D01*
X176352380Y-123969166D01*
X176304761Y-124064404D01*
X176209523Y-124112023D01*
X176114285Y-124112023D01*
X176019047Y-124064404D01*
X175971428Y-123969166D01*
X175971428Y-123731071D01*
X175923809Y-123635833D01*
X176304761Y-123207261D02*
X176352380Y-123112023D01*
X176352380Y-122921547D01*
X176304761Y-122826309D01*
X176209523Y-122778690D01*
X176161904Y-122778690D01*
X176066666Y-122826309D01*
X176019047Y-122921547D01*
X176019047Y-123064404D01*
X175971428Y-123159642D01*
X175876190Y-123207261D01*
X175828571Y-123207261D01*
X175733333Y-123159642D01*
X175685714Y-123064404D01*
X175685714Y-122921547D01*
X175733333Y-122826309D01*
X176304761Y-121969166D02*
X176352380Y-122064404D01*
X176352380Y-122254880D01*
X176304761Y-122350119D01*
X176209523Y-122397738D01*
X175828571Y-122397738D01*
X175733333Y-122350119D01*
X175685714Y-122254880D01*
X175685714Y-122064404D01*
X175733333Y-121969166D01*
X175828571Y-121921547D01*
X175923809Y-121921547D01*
X176019047Y-122397738D01*
X176352380Y-121064404D02*
X175352380Y-121064404D01*
X176304761Y-121064404D02*
X176352380Y-121159642D01*
X176352380Y-121350119D01*
X176304761Y-121445357D01*
X176257142Y-121492976D01*
X176161904Y-121540595D01*
X175876190Y-121540595D01*
X175780952Y-121492976D01*
X175733333Y-121445357D01*
X175685714Y-121350119D01*
X175685714Y-121159642D01*
X175733333Y-121064404D01*
X176352380Y-119683452D02*
X176304761Y-119778690D01*
X176257142Y-119826309D01*
X176161904Y-119873928D01*
X175876190Y-119873928D01*
X175780952Y-119826309D01*
X175733333Y-119778690D01*
X175685714Y-119683452D01*
X175685714Y-119540595D01*
X175733333Y-119445357D01*
X175780952Y-119397738D01*
X175876190Y-119350119D01*
X176161904Y-119350119D01*
X176257142Y-119397738D01*
X176304761Y-119445357D01*
X176352380Y-119540595D01*
X176352380Y-119683452D01*
X175685714Y-118921547D02*
X176352380Y-118921547D01*
X175780952Y-118921547D02*
X175733333Y-118873928D01*
X175685714Y-118778690D01*
X175685714Y-118635833D01*
X175733333Y-118540595D01*
X175828571Y-118492976D01*
X176352380Y-118492976D01*
X175352380Y-116969166D02*
X176066666Y-116969166D01*
X176209523Y-117016785D01*
X176304761Y-117112023D01*
X176352380Y-117254880D01*
X176352380Y-117350119D01*
X175828571Y-116159642D02*
X175876190Y-116016785D01*
X175923809Y-115969166D01*
X176019047Y-115921547D01*
X176161904Y-115921547D01*
X176257142Y-115969166D01*
X176304761Y-116016785D01*
X176352380Y-116112023D01*
X176352380Y-116492976D01*
X175352380Y-116492976D01*
X175352380Y-116159642D01*
X175400000Y-116064404D01*
X175447619Y-116016785D01*
X175542857Y-115969166D01*
X175638095Y-115969166D01*
X175733333Y-116016785D01*
X175780952Y-116064404D01*
X175828571Y-116159642D01*
X175828571Y-116492976D01*
X175685714Y-115635833D02*
X175685714Y-115254880D01*
X175352380Y-115492976D02*
X176209523Y-115492976D01*
X176304761Y-115445357D01*
X176352380Y-115350119D01*
X176352380Y-115254880D01*
X176352380Y-114921547D02*
X175685714Y-114921547D01*
X175876190Y-114921547D02*
X175780952Y-114873928D01*
X175733333Y-114826309D01*
X175685714Y-114731071D01*
X175685714Y-114635833D01*
X176352380Y-114159642D02*
X176304761Y-114254880D01*
X176257142Y-114302500D01*
X176161904Y-114350119D01*
X175876190Y-114350119D01*
X175780952Y-114302500D01*
X175733333Y-114254880D01*
X175685714Y-114159642D01*
X175685714Y-114016785D01*
X175733333Y-113921547D01*
X175780952Y-113873928D01*
X175876190Y-113826309D01*
X176161904Y-113826309D01*
X176257142Y-113873928D01*
X176304761Y-113921547D01*
X176352380Y-114016785D01*
X176352380Y-114159642D01*
X175685714Y-113397738D02*
X176352380Y-113397738D01*
X175780952Y-113397738D02*
X175733333Y-113350119D01*
X175685714Y-113254880D01*
X175685714Y-113112023D01*
X175733333Y-113016785D01*
X175828571Y-112969166D01*
X176352380Y-112969166D01*
X176352380Y-112492976D02*
X175685714Y-112492976D01*
X175352380Y-112492976D02*
X175400000Y-112540595D01*
X175447619Y-112492976D01*
X175400000Y-112445357D01*
X175352380Y-112492976D01*
X175447619Y-112492976D01*
X176304761Y-111588214D02*
X176352380Y-111683452D01*
X176352380Y-111873928D01*
X176304761Y-111969166D01*
X176257142Y-112016785D01*
X176161904Y-112064404D01*
X175876190Y-112064404D01*
X175780952Y-112016785D01*
X175733333Y-111969166D01*
X175685714Y-111873928D01*
X175685714Y-111683452D01*
X175733333Y-111588214D01*
X176304761Y-111207261D02*
X176352380Y-111112023D01*
X176352380Y-110921547D01*
X176304761Y-110826309D01*
X176209523Y-110778690D01*
X176161904Y-110778690D01*
X176066666Y-110826309D01*
X176019047Y-110921547D01*
X176019047Y-111064404D01*
X175971428Y-111159642D01*
X175876190Y-111207261D01*
X175828571Y-111207261D01*
X175733333Y-111159642D01*
X175685714Y-111064404D01*
X175685714Y-110921547D01*
X175733333Y-110826309D01*
X175685714Y-109683452D02*
X176352380Y-109492976D01*
X175876190Y-109302500D01*
X176352380Y-109112023D01*
X175685714Y-108921547D01*
X176352380Y-108397738D02*
X176304761Y-108492976D01*
X176257142Y-108540595D01*
X176161904Y-108588214D01*
X175876190Y-108588214D01*
X175780952Y-108540595D01*
X175733333Y-108492976D01*
X175685714Y-108397738D01*
X175685714Y-108254880D01*
X175733333Y-108159642D01*
X175780952Y-108112023D01*
X175876190Y-108064404D01*
X176161904Y-108064404D01*
X176257142Y-108112023D01*
X176304761Y-108159642D01*
X176352380Y-108254880D01*
X176352380Y-108397738D01*
X176352380Y-107635833D02*
X175685714Y-107635833D01*
X175876190Y-107635833D02*
X175780952Y-107588214D01*
X175733333Y-107540595D01*
X175685714Y-107445357D01*
X175685714Y-107350119D01*
X176352380Y-107016785D02*
X175352380Y-107016785D01*
X175971428Y-106921547D02*
X176352380Y-106635833D01*
X175685714Y-106635833D02*
X176066666Y-107016785D01*
X174252380Y-125064404D02*
X173252380Y-125064404D01*
X173252380Y-124826309D01*
X173300000Y-124683452D01*
X173395238Y-124588214D01*
X173490476Y-124540595D01*
X173680952Y-124492976D01*
X173823809Y-124492976D01*
X174014285Y-124540595D01*
X174109523Y-124588214D01*
X174204761Y-124683452D01*
X174252380Y-124826309D01*
X174252380Y-125064404D01*
X174204761Y-123683452D02*
X174252380Y-123778690D01*
X174252380Y-123969166D01*
X174204761Y-124064404D01*
X174109523Y-124112023D01*
X173728571Y-124112023D01*
X173633333Y-124064404D01*
X173585714Y-123969166D01*
X173585714Y-123778690D01*
X173633333Y-123683452D01*
X173728571Y-123635833D01*
X173823809Y-123635833D01*
X173919047Y-124112023D01*
X174204761Y-123254880D02*
X174252380Y-123159642D01*
X174252380Y-122969166D01*
X174204761Y-122873928D01*
X174109523Y-122826309D01*
X174061904Y-122826309D01*
X173966666Y-122873928D01*
X173919047Y-122969166D01*
X173919047Y-123112023D01*
X173871428Y-123207261D01*
X173776190Y-123254880D01*
X173728571Y-123254880D01*
X173633333Y-123207261D01*
X173585714Y-123112023D01*
X173585714Y-122969166D01*
X173633333Y-122873928D01*
X174252380Y-122397738D02*
X173585714Y-122397738D01*
X173252380Y-122397738D02*
X173300000Y-122445357D01*
X173347619Y-122397738D01*
X173300000Y-122350119D01*
X173252380Y-122397738D01*
X173347619Y-122397738D01*
X173585714Y-121492976D02*
X174395238Y-121492976D01*
X174490476Y-121540595D01*
X174538095Y-121588214D01*
X174585714Y-121683452D01*
X174585714Y-121826309D01*
X174538095Y-121921547D01*
X174204761Y-121492976D02*
X174252380Y-121588214D01*
X174252380Y-121778690D01*
X174204761Y-121873928D01*
X174157142Y-121921547D01*
X174061904Y-121969166D01*
X173776190Y-121969166D01*
X173680952Y-121921547D01*
X173633333Y-121873928D01*
X173585714Y-121778690D01*
X173585714Y-121588214D01*
X173633333Y-121492976D01*
X173585714Y-121016785D02*
X174252380Y-121016785D01*
X173680952Y-121016785D02*
X173633333Y-120969166D01*
X173585714Y-120873928D01*
X173585714Y-120731071D01*
X173633333Y-120635833D01*
X173728571Y-120588214D01*
X174252380Y-120588214D01*
X174204761Y-119731071D02*
X174252380Y-119826309D01*
X174252380Y-120016785D01*
X174204761Y-120112023D01*
X174109523Y-120159642D01*
X173728571Y-120159642D01*
X173633333Y-120112023D01*
X173585714Y-120016785D01*
X173585714Y-119826309D01*
X173633333Y-119731071D01*
X173728571Y-119683452D01*
X173823809Y-119683452D01*
X173919047Y-120159642D01*
X174252380Y-118826309D02*
X173252380Y-118826309D01*
X174204761Y-118826309D02*
X174252380Y-118921547D01*
X174252380Y-119112023D01*
X174204761Y-119207261D01*
X174157142Y-119254880D01*
X174061904Y-119302500D01*
X173776190Y-119302500D01*
X173680952Y-119254880D01*
X173633333Y-119207261D01*
X173585714Y-119112023D01*
X173585714Y-118921547D01*
X173633333Y-118826309D01*
X174252380Y-117588214D02*
X173252380Y-117588214D01*
X173633333Y-117588214D02*
X173585714Y-117492976D01*
X173585714Y-117302500D01*
X173633333Y-117207261D01*
X173680952Y-117159642D01*
X173776190Y-117112023D01*
X174061904Y-117112023D01*
X174157142Y-117159642D01*
X174204761Y-117207261D01*
X174252380Y-117302500D01*
X174252380Y-117492976D01*
X174204761Y-117588214D01*
X173585714Y-116778690D02*
X174252380Y-116540595D01*
X173585714Y-116302500D02*
X174252380Y-116540595D01*
X174490476Y-116635833D01*
X174538095Y-116683452D01*
X174585714Y-116778690D01*
X174252380Y-115159642D02*
X173252380Y-115159642D01*
X173252380Y-114778690D01*
X173300000Y-114683452D01*
X173347619Y-114635833D01*
X173442857Y-114588214D01*
X173585714Y-114588214D01*
X173680952Y-114635833D01*
X173728571Y-114683452D01*
X173776190Y-114778690D01*
X173776190Y-115159642D01*
X174252380Y-113731071D02*
X173728571Y-113731071D01*
X173633333Y-113778690D01*
X173585714Y-113873928D01*
X173585714Y-114064404D01*
X173633333Y-114159642D01*
X174204761Y-113731071D02*
X174252380Y-113826309D01*
X174252380Y-114064404D01*
X174204761Y-114159642D01*
X174109523Y-114207261D01*
X174014285Y-114207261D01*
X173919047Y-114159642D01*
X173871428Y-114064404D01*
X173871428Y-113826309D01*
X173823809Y-113731071D01*
X174252380Y-113254880D02*
X173252380Y-113254880D01*
X173633333Y-113254880D02*
X173585714Y-113159642D01*
X173585714Y-112969166D01*
X173633333Y-112873928D01*
X173680952Y-112826309D01*
X173776190Y-112778690D01*
X174061904Y-112778690D01*
X174157142Y-112826309D01*
X174204761Y-112873928D01*
X174252380Y-112969166D01*
X174252380Y-113159642D01*
X174204761Y-113254880D01*
X174252380Y-112207261D02*
X174204761Y-112302500D01*
X174109523Y-112350119D01*
X173252380Y-112350119D01*
X174252380Y-111683452D02*
X174204761Y-111778690D01*
X174157142Y-111826309D01*
X174061904Y-111873928D01*
X173776190Y-111873928D01*
X173680952Y-111826309D01*
X173633333Y-111778690D01*
X173585714Y-111683452D01*
X173585714Y-111540595D01*
X173633333Y-111445357D01*
X173680952Y-111397738D01*
X173776190Y-111350119D01*
X174061904Y-111350119D01*
X174157142Y-111397738D01*
X174204761Y-111445357D01*
X174252380Y-111540595D01*
X174252380Y-111683452D01*
X174252380Y-109588214D02*
X173776190Y-109921547D01*
X174252380Y-110159642D02*
X173252380Y-110159642D01*
X173252380Y-109778690D01*
X173300000Y-109683452D01*
X173347619Y-109635833D01*
X173442857Y-109588214D01*
X173585714Y-109588214D01*
X173680952Y-109635833D01*
X173728571Y-109683452D01*
X173776190Y-109778690D01*
X173776190Y-110159642D01*
X174252380Y-109016785D02*
X174204761Y-109112023D01*
X174157142Y-109159642D01*
X174061904Y-109207261D01*
X173776190Y-109207261D01*
X173680952Y-109159642D01*
X173633333Y-109112023D01*
X173585714Y-109016785D01*
X173585714Y-108873928D01*
X173633333Y-108778690D01*
X173680952Y-108731071D01*
X173776190Y-108683452D01*
X174061904Y-108683452D01*
X174157142Y-108731071D01*
X174204761Y-108778690D01*
X174252380Y-108873928D01*
X174252380Y-109016785D01*
X174252380Y-108254880D02*
X173585714Y-108254880D01*
X173252380Y-108254880D02*
X173300000Y-108302500D01*
X173347619Y-108254880D01*
X173300000Y-108207261D01*
X173252380Y-108254880D01*
X173347619Y-108254880D01*
X173585714Y-107350119D02*
X174395238Y-107350119D01*
X174490476Y-107397738D01*
X174538095Y-107445357D01*
X174585714Y-107540595D01*
X174585714Y-107683452D01*
X174538095Y-107778690D01*
X174204761Y-107350119D02*
X174252380Y-107445357D01*
X174252380Y-107635833D01*
X174204761Y-107731071D01*
X174157142Y-107778690D01*
X174061904Y-107826309D01*
X173776190Y-107826309D01*
X173680952Y-107778690D01*
X173633333Y-107731071D01*
X173585714Y-107635833D01*
X173585714Y-107445357D01*
X173633333Y-107350119D01*
D11*
X123178571Y-121542857D02*
X123235714Y-121600000D01*
X123292857Y-121771428D01*
X123292857Y-121885714D01*
X123235714Y-122057142D01*
X123121428Y-122171428D01*
X123007142Y-122228571D01*
X122778571Y-122285714D01*
X122607142Y-122285714D01*
X122378571Y-122228571D01*
X122264285Y-122171428D01*
X122150000Y-122057142D01*
X122092857Y-121885714D01*
X122092857Y-121771428D01*
X122150000Y-121600000D01*
X122207142Y-121542857D01*
X123292857Y-120857142D02*
X123235714Y-120971428D01*
X123178571Y-121028571D01*
X123064285Y-121085714D01*
X122721428Y-121085714D01*
X122607142Y-121028571D01*
X122550000Y-120971428D01*
X122492857Y-120857142D01*
X122492857Y-120685714D01*
X122550000Y-120571428D01*
X122607142Y-120514285D01*
X122721428Y-120457142D01*
X123064285Y-120457142D01*
X123178571Y-120514285D01*
X123235714Y-120571428D01*
X123292857Y-120685714D01*
X123292857Y-120857142D01*
X123292857Y-119942857D02*
X122492857Y-119942857D01*
X122607142Y-119942857D02*
X122550000Y-119885714D01*
X122492857Y-119771428D01*
X122492857Y-119600000D01*
X122550000Y-119485714D01*
X122664285Y-119428571D01*
X123292857Y-119428571D01*
X122664285Y-119428571D02*
X122550000Y-119371428D01*
X122492857Y-119257142D01*
X122492857Y-119085714D01*
X122550000Y-118971428D01*
X122664285Y-118914285D01*
X123292857Y-118914285D01*
X123292857Y-118342857D02*
X122492857Y-118342857D01*
X122607142Y-118342857D02*
X122550000Y-118285714D01*
X122492857Y-118171428D01*
X122492857Y-118000000D01*
X122550000Y-117885714D01*
X122664285Y-117828571D01*
X123292857Y-117828571D01*
X122664285Y-117828571D02*
X122550000Y-117771428D01*
X122492857Y-117657142D01*
X122492857Y-117485714D01*
X122550000Y-117371428D01*
X122664285Y-117314285D01*
X123292857Y-117314285D01*
X123292857Y-116571428D02*
X123235714Y-116685714D01*
X123178571Y-116742857D01*
X123064285Y-116800000D01*
X122721428Y-116800000D01*
X122607142Y-116742857D01*
X122550000Y-116685714D01*
X122492857Y-116571428D01*
X122492857Y-116400000D01*
X122550000Y-116285714D01*
X122607142Y-116228571D01*
X122721428Y-116171428D01*
X123064285Y-116171428D01*
X123178571Y-116228571D01*
X123235714Y-116285714D01*
X123292857Y-116400000D01*
X123292857Y-116571428D01*
X122492857Y-115657142D02*
X123292857Y-115657142D01*
X122607142Y-115657142D02*
X122550000Y-115600000D01*
X122492857Y-115485714D01*
X122492857Y-115314285D01*
X122550000Y-115200000D01*
X122664285Y-115142857D01*
X123292857Y-115142857D01*
X123292857Y-113657142D02*
X122092857Y-113657142D01*
X122092857Y-113200000D01*
X122150000Y-113085714D01*
X122207142Y-113028571D01*
X122321428Y-112971428D01*
X122492857Y-112971428D01*
X122607142Y-113028571D01*
X122664285Y-113085714D01*
X122721428Y-113200000D01*
X122721428Y-113657142D01*
X123292857Y-111942857D02*
X122664285Y-111942857D01*
X122550000Y-112000000D01*
X122492857Y-112114285D01*
X122492857Y-112342857D01*
X122550000Y-112457142D01*
X123235714Y-111942857D02*
X123292857Y-112057142D01*
X123292857Y-112342857D01*
X123235714Y-112457142D01*
X123121428Y-112514285D01*
X123007142Y-112514285D01*
X122892857Y-112457142D01*
X122835714Y-112342857D01*
X122835714Y-112057142D01*
X122778571Y-111942857D01*
X123235714Y-110857142D02*
X123292857Y-110971428D01*
X123292857Y-111200000D01*
X123235714Y-111314285D01*
X123178571Y-111371428D01*
X123064285Y-111428571D01*
X122721428Y-111428571D01*
X122607142Y-111371428D01*
X122550000Y-111314285D01*
X122492857Y-111200000D01*
X122492857Y-110971428D01*
X122550000Y-110857142D01*
X123292857Y-110342857D02*
X122092857Y-110342857D01*
X122835714Y-110228571D02*
X123292857Y-109885714D01*
X122492857Y-109885714D02*
X122950000Y-110342857D01*
X123292857Y-108857142D02*
X122664285Y-108857142D01*
X122550000Y-108914285D01*
X122492857Y-109028571D01*
X122492857Y-109257142D01*
X122550000Y-109371428D01*
X123235714Y-108857142D02*
X123292857Y-108971428D01*
X123292857Y-109257142D01*
X123235714Y-109371428D01*
X123121428Y-109428571D01*
X123007142Y-109428571D01*
X122892857Y-109371428D01*
X122835714Y-109257142D01*
X122835714Y-108971428D01*
X122778571Y-108857142D01*
X122492857Y-107771428D02*
X123464285Y-107771428D01*
X123578571Y-107828571D01*
X123635714Y-107885714D01*
X123692857Y-108000000D01*
X123692857Y-108171428D01*
X123635714Y-108285714D01*
X123235714Y-107771428D02*
X123292857Y-107885714D01*
X123292857Y-108114285D01*
X123235714Y-108228571D01*
X123178571Y-108285714D01*
X123064285Y-108342857D01*
X122721428Y-108342857D01*
X122607142Y-108285714D01*
X122550000Y-108228571D01*
X122492857Y-108114285D01*
X122492857Y-107885714D01*
X122550000Y-107771428D01*
X123235714Y-106742857D02*
X123292857Y-106857142D01*
X123292857Y-107085714D01*
X123235714Y-107200000D01*
X123121428Y-107257142D01*
X122664285Y-107257142D01*
X122550000Y-107200000D01*
X122492857Y-107085714D01*
X122492857Y-106857142D01*
X122550000Y-106742857D01*
X122664285Y-106685714D01*
X122778571Y-106685714D01*
X122892857Y-107257142D01*
X123235714Y-106228571D02*
X123292857Y-106114285D01*
X123292857Y-105885714D01*
X123235714Y-105771428D01*
X123121428Y-105714285D01*
X123064285Y-105714285D01*
X122950000Y-105771428D01*
X122892857Y-105885714D01*
X122892857Y-106057142D01*
X122835714Y-106171428D01*
X122721428Y-106228571D01*
X122664285Y-106228571D01*
X122550000Y-106171428D01*
X122492857Y-106057142D01*
X122492857Y-105885714D01*
X122550000Y-105771428D01*
D10*
X156250000Y-125250000D02*
X156250000Y-104250000D01*
X172250000Y-125250000D02*
X156250000Y-125250000D01*
X172250000Y-104250000D02*
X172250000Y-125250000D01*
X156250000Y-104250000D02*
X172250000Y-104250000D01*
X146500000Y-125250000D02*
X146500000Y-104250000D01*
X155500000Y-125250000D02*
X146500000Y-125250000D01*
X155500000Y-104250000D02*
X155500000Y-125250000D01*
X146500000Y-104250000D02*
X155500000Y-104250000D01*
X123750000Y-125250000D02*
X123750000Y-104250000D01*
X145750000Y-125250000D02*
X123750000Y-125250000D01*
X145750000Y-104250000D02*
X145750000Y-125250000D01*
X123750000Y-104250000D02*
X145750000Y-104250000D01*
X139904761Y-123402380D02*
X140000000Y-123402380D01*
X140095238Y-123450000D01*
X140142857Y-123497619D01*
X140190476Y-123592857D01*
X140238095Y-123783333D01*
X140238095Y-124021428D01*
X140190476Y-124211904D01*
X140142857Y-124307142D01*
X140095238Y-124354761D01*
X140000000Y-124402380D01*
X139904761Y-124402380D01*
X139809523Y-124354761D01*
X139761904Y-124307142D01*
X139714285Y-124211904D01*
X139666666Y-124021428D01*
X139666666Y-123783333D01*
X139714285Y-123592857D01*
X139761904Y-123497619D01*
X139809523Y-123450000D01*
X139904761Y-123402380D01*
X140666666Y-124307142D02*
X140714285Y-124354761D01*
X140666666Y-124402380D01*
X140619047Y-124354761D01*
X140666666Y-124307142D01*
X140666666Y-124402380D01*
X141619047Y-123402380D02*
X141142857Y-123402380D01*
X141095238Y-123878571D01*
X141142857Y-123830952D01*
X141238095Y-123783333D01*
X141476190Y-123783333D01*
X141571428Y-123830952D01*
X141619047Y-123878571D01*
X141666666Y-123973809D01*
X141666666Y-124211904D01*
X141619047Y-124307142D01*
X141571428Y-124354761D01*
X141476190Y-124402380D01*
X141238095Y-124402380D01*
X141142857Y-124354761D01*
X141095238Y-124307142D01*
X142095238Y-124402380D02*
X142095238Y-123735714D01*
X142095238Y-123830952D02*
X142142857Y-123783333D01*
X142238095Y-123735714D01*
X142380952Y-123735714D01*
X142476190Y-123783333D01*
X142523809Y-123878571D01*
X142523809Y-124402380D01*
X142523809Y-123878571D02*
X142571428Y-123783333D01*
X142666666Y-123735714D01*
X142809523Y-123735714D01*
X142904761Y-123783333D01*
X142952380Y-123878571D01*
X142952380Y-124402380D01*
X143428571Y-124402380D02*
X143428571Y-123735714D01*
X143428571Y-123830952D02*
X143476190Y-123783333D01*
X143571428Y-123735714D01*
X143714285Y-123735714D01*
X143809523Y-123783333D01*
X143857142Y-123878571D01*
X143857142Y-124402380D01*
X143857142Y-123878571D02*
X143904761Y-123783333D01*
X144000000Y-123735714D01*
X144142857Y-123735714D01*
X144238095Y-123783333D01*
X144285714Y-123878571D01*
X144285714Y-124402380D01*
X133404761Y-123402380D02*
X133500000Y-123402380D01*
X133595238Y-123450000D01*
X133642857Y-123497619D01*
X133690476Y-123592857D01*
X133738095Y-123783333D01*
X133738095Y-124021428D01*
X133690476Y-124211904D01*
X133642857Y-124307142D01*
X133595238Y-124354761D01*
X133500000Y-124402380D01*
X133404761Y-124402380D01*
X133309523Y-124354761D01*
X133261904Y-124307142D01*
X133214285Y-124211904D01*
X133166666Y-124021428D01*
X133166666Y-123783333D01*
X133214285Y-123592857D01*
X133261904Y-123497619D01*
X133309523Y-123450000D01*
X133404761Y-123402380D01*
X134166666Y-124307142D02*
X134214285Y-124354761D01*
X134166666Y-124402380D01*
X134119047Y-124354761D01*
X134166666Y-124307142D01*
X134166666Y-124402380D01*
X135071428Y-123735714D02*
X135071428Y-124402380D01*
X134833333Y-123354761D02*
X134595238Y-124069047D01*
X135214285Y-124069047D01*
X135595238Y-124402380D02*
X135595238Y-123735714D01*
X135595238Y-123830952D02*
X135642857Y-123783333D01*
X135738095Y-123735714D01*
X135880952Y-123735714D01*
X135976190Y-123783333D01*
X136023809Y-123878571D01*
X136023809Y-124402380D01*
X136023809Y-123878571D02*
X136071428Y-123783333D01*
X136166666Y-123735714D01*
X136309523Y-123735714D01*
X136404761Y-123783333D01*
X136452380Y-123878571D01*
X136452380Y-124402380D01*
X136928571Y-124402380D02*
X136928571Y-123735714D01*
X136928571Y-123830952D02*
X136976190Y-123783333D01*
X137071428Y-123735714D01*
X137214285Y-123735714D01*
X137309523Y-123783333D01*
X137357142Y-123878571D01*
X137357142Y-124402380D01*
X137357142Y-123878571D02*
X137404761Y-123783333D01*
X137500000Y-123735714D01*
X137642857Y-123735714D01*
X137738095Y-123783333D01*
X137785714Y-123878571D01*
X137785714Y-124402380D01*
D11*
X147424971Y-103736714D02*
X147596400Y-103793857D01*
X147882114Y-103793857D01*
X147996400Y-103736714D01*
X148053542Y-103679571D01*
X148110685Y-103565285D01*
X148110685Y-103451000D01*
X148053542Y-103336714D01*
X147996400Y-103279571D01*
X147882114Y-103222428D01*
X147653542Y-103165285D01*
X147539257Y-103108142D01*
X147482114Y-103051000D01*
X147424971Y-102936714D01*
X147424971Y-102822428D01*
X147482114Y-102708142D01*
X147539257Y-102651000D01*
X147653542Y-102593857D01*
X147939257Y-102593857D01*
X148110685Y-102651000D01*
X148853542Y-102593857D02*
X149082114Y-102593857D01*
X149196400Y-102651000D01*
X149310685Y-102765285D01*
X149367828Y-102993857D01*
X149367828Y-103393857D01*
X149310685Y-103622428D01*
X149196400Y-103736714D01*
X149082114Y-103793857D01*
X148853542Y-103793857D01*
X148739257Y-103736714D01*
X148624971Y-103622428D01*
X148567828Y-103393857D01*
X148567828Y-102993857D01*
X148624971Y-102765285D01*
X148739257Y-102651000D01*
X148853542Y-102593857D01*
X149882114Y-103793857D02*
X149882114Y-102593857D01*
X150339257Y-102593857D01*
X150453542Y-102651000D01*
X150510685Y-102708142D01*
X150567828Y-102822428D01*
X150567828Y-102993857D01*
X150510685Y-103108142D01*
X150453542Y-103165285D01*
X150339257Y-103222428D01*
X149882114Y-103222428D01*
X157321428Y-103735714D02*
X157492857Y-103792857D01*
X157778571Y-103792857D01*
X157892857Y-103735714D01*
X157950000Y-103678571D01*
X158007142Y-103564285D01*
X158007142Y-103450000D01*
X157950000Y-103335714D01*
X157892857Y-103278571D01*
X157778571Y-103221428D01*
X157550000Y-103164285D01*
X157435714Y-103107142D01*
X157378571Y-103050000D01*
X157321428Y-102935714D01*
X157321428Y-102821428D01*
X157378571Y-102707142D01*
X157435714Y-102650000D01*
X157550000Y-102592857D01*
X157835714Y-102592857D01*
X158007142Y-102650000D01*
X158750000Y-102592857D02*
X158978571Y-102592857D01*
X159092857Y-102650000D01*
X159207142Y-102764285D01*
X159264285Y-102992857D01*
X159264285Y-103392857D01*
X159207142Y-103621428D01*
X159092857Y-103735714D01*
X158978571Y-103792857D01*
X158750000Y-103792857D01*
X158635714Y-103735714D01*
X158521428Y-103621428D01*
X158464285Y-103392857D01*
X158464285Y-102992857D01*
X158521428Y-102764285D01*
X158635714Y-102650000D01*
X158750000Y-102592857D01*
X159607142Y-102592857D02*
X160292857Y-102592857D01*
X159950000Y-103792857D02*
X159950000Y-102592857D01*
D10*
X139140476Y-109657142D02*
X139188095Y-109704761D01*
X139140476Y-109752380D01*
X139092857Y-109704761D01*
X139140476Y-109657142D01*
X139140476Y-109752380D01*
X140092857Y-108752380D02*
X139616666Y-108752380D01*
X139569047Y-109228571D01*
X139616666Y-109180952D01*
X139711904Y-109133333D01*
X139950000Y-109133333D01*
X140045238Y-109180952D01*
X140092857Y-109228571D01*
X140140476Y-109323809D01*
X140140476Y-109561904D01*
X140092857Y-109657142D01*
X140045238Y-109704761D01*
X139950000Y-109752380D01*
X139711904Y-109752380D01*
X139616666Y-109704761D01*
X139569047Y-109657142D01*
X140569047Y-109752380D02*
X140569047Y-109085714D01*
X140569047Y-109180952D02*
X140616666Y-109133333D01*
X140711904Y-109085714D01*
X140854761Y-109085714D01*
X140950000Y-109133333D01*
X140997619Y-109228571D01*
X140997619Y-109752380D01*
X140997619Y-109228571D02*
X141045238Y-109133333D01*
X141140476Y-109085714D01*
X141283333Y-109085714D01*
X141378571Y-109133333D01*
X141426190Y-109228571D01*
X141426190Y-109752380D01*
X141902380Y-109752380D02*
X141902380Y-109085714D01*
X141902380Y-109180952D02*
X141950000Y-109133333D01*
X142045238Y-109085714D01*
X142188095Y-109085714D01*
X142283333Y-109133333D01*
X142330952Y-109228571D01*
X142330952Y-109752380D01*
X142330952Y-109228571D02*
X142378571Y-109133333D01*
X142473809Y-109085714D01*
X142616666Y-109085714D01*
X142711904Y-109133333D01*
X142759523Y-109228571D01*
X142759523Y-109752380D01*
D11*
X125715714Y-103907142D02*
X125601428Y-103850000D01*
X125487142Y-103735714D01*
X125315714Y-103564285D01*
X125201428Y-103507142D01*
X125087142Y-103507142D01*
X125144285Y-103792857D02*
X125030000Y-103735714D01*
X124915714Y-103621428D01*
X124858571Y-103392857D01*
X124858571Y-102992857D01*
X124915714Y-102764285D01*
X125030000Y-102650000D01*
X125144285Y-102592857D01*
X125372857Y-102592857D01*
X125487142Y-102650000D01*
X125601428Y-102764285D01*
X125658571Y-102992857D01*
X125658571Y-103392857D01*
X125601428Y-103621428D01*
X125487142Y-103735714D01*
X125372857Y-103792857D01*
X125144285Y-103792857D01*
X126572857Y-103164285D02*
X126172857Y-103164285D01*
X126172857Y-103792857D02*
X126172857Y-102592857D01*
X126744285Y-102592857D01*
X127201428Y-103792857D02*
X127201428Y-102592857D01*
X127658571Y-102592857D01*
X127772857Y-102650000D01*
X127830000Y-102707142D01*
X127887142Y-102821428D01*
X127887142Y-102992857D01*
X127830000Y-103107142D01*
X127772857Y-103164285D01*
X127658571Y-103221428D01*
X127201428Y-103221428D01*
D10*
X117547619Y-108871428D02*
X117547619Y-109442857D01*
X116547619Y-109157142D02*
X117547619Y-109157142D01*
X116547619Y-109776190D02*
X117214285Y-109776190D01*
X117023809Y-109776190D02*
X117119047Y-109823809D01*
X117166666Y-109871428D01*
X117214285Y-109966666D01*
X117214285Y-110061904D01*
X116547619Y-110823809D02*
X117071428Y-110823809D01*
X117166666Y-110776190D01*
X117214285Y-110680952D01*
X117214285Y-110490476D01*
X117166666Y-110395238D01*
X116595238Y-110823809D02*
X116547619Y-110728571D01*
X116547619Y-110490476D01*
X116595238Y-110395238D01*
X116690476Y-110347619D01*
X116785714Y-110347619D01*
X116880952Y-110395238D01*
X116928571Y-110490476D01*
X116928571Y-110728571D01*
X116976190Y-110823809D01*
X116595238Y-111728571D02*
X116547619Y-111633333D01*
X116547619Y-111442857D01*
X116595238Y-111347619D01*
X116642857Y-111300000D01*
X116738095Y-111252380D01*
X117023809Y-111252380D01*
X117119047Y-111300000D01*
X117166666Y-111347619D01*
X117214285Y-111442857D01*
X117214285Y-111633333D01*
X117166666Y-111728571D01*
X116547619Y-112157142D02*
X117547619Y-112157142D01*
X116928571Y-112252380D02*
X116547619Y-112538095D01*
X117214285Y-112538095D02*
X116833333Y-112157142D01*
X116595238Y-114157142D02*
X116547619Y-114061904D01*
X116547619Y-113871428D01*
X116595238Y-113776190D01*
X116642857Y-113728571D01*
X116738095Y-113680952D01*
X117023809Y-113680952D01*
X117119047Y-113728571D01*
X117166666Y-113776190D01*
X117214285Y-113871428D01*
X117214285Y-114061904D01*
X117166666Y-114157142D01*
X117214285Y-115014285D02*
X116547619Y-115014285D01*
X117214285Y-114585714D02*
X116690476Y-114585714D01*
X116595238Y-114633333D01*
X116547619Y-114728571D01*
X116547619Y-114871428D01*
X116595238Y-114966666D01*
X116642857Y-115014285D01*
X116547619Y-115490476D02*
X117214285Y-115490476D01*
X117023809Y-115490476D02*
X117119047Y-115538095D01*
X117166666Y-115585714D01*
X117214285Y-115680952D01*
X117214285Y-115776190D01*
X116547619Y-116109523D02*
X117214285Y-116109523D01*
X117023809Y-116109523D02*
X117119047Y-116157142D01*
X117166666Y-116204761D01*
X117214285Y-116300000D01*
X117214285Y-116395238D01*
X116595238Y-117109523D02*
X116547619Y-117014285D01*
X116547619Y-116823809D01*
X116595238Y-116728571D01*
X116690476Y-116680952D01*
X117071428Y-116680952D01*
X117166666Y-116728571D01*
X117214285Y-116823809D01*
X117214285Y-117014285D01*
X117166666Y-117109523D01*
X117071428Y-117157142D01*
X116976190Y-117157142D01*
X116880952Y-116680952D01*
X117214285Y-117585714D02*
X116547619Y-117585714D01*
X117119047Y-117585714D02*
X117166666Y-117633333D01*
X117214285Y-117728571D01*
X117214285Y-117871428D01*
X117166666Y-117966666D01*
X117071428Y-118014285D01*
X116547619Y-118014285D01*
X117214285Y-118347619D02*
X117214285Y-118728571D01*
X117547619Y-118490476D02*
X116690476Y-118490476D01*
X116595238Y-118538095D01*
X116547619Y-118633333D01*
X116547619Y-118728571D01*
X86252380Y-119609523D02*
X86252380Y-119038095D01*
X87252380Y-119323809D02*
X86252380Y-119323809D01*
X87252380Y-118704761D02*
X86585714Y-118704761D01*
X86776190Y-118704761D02*
X86680952Y-118657142D01*
X86633333Y-118609523D01*
X86585714Y-118514285D01*
X86585714Y-118419047D01*
X87252380Y-117657142D02*
X86728571Y-117657142D01*
X86633333Y-117704761D01*
X86585714Y-117800000D01*
X86585714Y-117990476D01*
X86633333Y-118085714D01*
X87204761Y-117657142D02*
X87252380Y-117752380D01*
X87252380Y-117990476D01*
X87204761Y-118085714D01*
X87109523Y-118133333D01*
X87014285Y-118133333D01*
X86919047Y-118085714D01*
X86871428Y-117990476D01*
X86871428Y-117752380D01*
X86823809Y-117657142D01*
X87204761Y-116752380D02*
X87252380Y-116847619D01*
X87252380Y-117038095D01*
X87204761Y-117133333D01*
X87157142Y-117180952D01*
X87061904Y-117228571D01*
X86776190Y-117228571D01*
X86680952Y-117180952D01*
X86633333Y-117133333D01*
X86585714Y-117038095D01*
X86585714Y-116847619D01*
X86633333Y-116752380D01*
X87252380Y-116323809D02*
X86252380Y-116323809D01*
X86871428Y-116228571D02*
X87252380Y-115942857D01*
X86585714Y-115942857D02*
X86966666Y-116323809D01*
X86204761Y-114800000D02*
X87490476Y-115657142D01*
X86585714Y-114561904D02*
X87252380Y-114323809D01*
X86585714Y-114085714D01*
X87252380Y-113704761D02*
X86585714Y-113704761D01*
X86252380Y-113704761D02*
X86300000Y-113752380D01*
X86347619Y-113704761D01*
X86300000Y-113657142D01*
X86252380Y-113704761D01*
X86347619Y-113704761D01*
X87252380Y-112800000D02*
X86728571Y-112800000D01*
X86633333Y-112847619D01*
X86585714Y-112942857D01*
X86585714Y-113133333D01*
X86633333Y-113228571D01*
X87204761Y-112800000D02*
X87252380Y-112895238D01*
X87252380Y-113133333D01*
X87204761Y-113228571D01*
X87109523Y-113276190D01*
X87014285Y-113276190D01*
X86919047Y-113228571D01*
X86871428Y-113133333D01*
X86871428Y-112895238D01*
X86823809Y-112800000D01*
X86585714Y-111657142D02*
X87252380Y-111466666D01*
X86776190Y-111276190D01*
X87252380Y-111085714D01*
X86585714Y-110895238D01*
X87252380Y-110514285D02*
X86585714Y-110514285D01*
X86252380Y-110514285D02*
X86300000Y-110561904D01*
X86347619Y-110514285D01*
X86300000Y-110466666D01*
X86252380Y-110514285D01*
X86347619Y-110514285D01*
X87252380Y-109609523D02*
X86252380Y-109609523D01*
X87204761Y-109609523D02*
X87252380Y-109704761D01*
X87252380Y-109895238D01*
X87204761Y-109990476D01*
X87157142Y-110038095D01*
X87061904Y-110085714D01*
X86776190Y-110085714D01*
X86680952Y-110038095D01*
X86633333Y-109990476D01*
X86585714Y-109895238D01*
X86585714Y-109704761D01*
X86633333Y-109609523D01*
X86585714Y-109276190D02*
X86585714Y-108895238D01*
X86252380Y-109133333D02*
X87109523Y-109133333D01*
X87204761Y-109085714D01*
X87252380Y-108990476D01*
X87252380Y-108895238D01*
X87252380Y-108561904D02*
X86252380Y-108561904D01*
X87252380Y-108133333D02*
X86728571Y-108133333D01*
X86633333Y-108180952D01*
X86585714Y-108276190D01*
X86585714Y-108419047D01*
X86633333Y-108514285D01*
X86680952Y-108561904D01*
X184200000Y-98600000D02*
X184400000Y-98600000D01*
X184400000Y-98600000D02*
X184400000Y-98800000D01*
X184000000Y-99000000D02*
X184400000Y-98600000D01*
X184000000Y-100000000D02*
X184000000Y-99000000D01*
X184234523Y-106125000D02*
X184234523Y-106610714D01*
X184234523Y-106367857D02*
X183384523Y-106367857D01*
X183505952Y-106448809D01*
X183586904Y-106529761D01*
X183627380Y-106610714D01*
X184234523Y-105113095D02*
X183667857Y-105113095D01*
X183748809Y-105113095D02*
X183708333Y-105072619D01*
X183667857Y-104991666D01*
X183667857Y-104870238D01*
X183708333Y-104789285D01*
X183789285Y-104748809D01*
X184234523Y-104748809D01*
X183789285Y-104748809D02*
X183708333Y-104708333D01*
X183667857Y-104627380D01*
X183667857Y-104505952D01*
X183708333Y-104425000D01*
X183789285Y-104384523D01*
X184234523Y-104384523D01*
X184234523Y-103979761D02*
X183667857Y-103979761D01*
X183748809Y-103979761D02*
X183708333Y-103939285D01*
X183667857Y-103858333D01*
X183667857Y-103736904D01*
X183708333Y-103655952D01*
X183789285Y-103615476D01*
X184234523Y-103615476D01*
X183789285Y-103615476D02*
X183708333Y-103575000D01*
X183667857Y-103494047D01*
X183667857Y-103372619D01*
X183708333Y-103291666D01*
X183789285Y-103251190D01*
X184234523Y-103251190D01*
X184234523Y-101834523D02*
X183789285Y-101834523D01*
X183708333Y-101875000D01*
X183667857Y-101955952D01*
X183667857Y-102117857D01*
X183708333Y-102198809D01*
X184194047Y-101834523D02*
X184234523Y-101915476D01*
X184234523Y-102117857D01*
X184194047Y-102198809D01*
X184113095Y-102239285D01*
X184032142Y-102239285D01*
X183951190Y-102198809D01*
X183910714Y-102117857D01*
X183910714Y-101915476D01*
X183870238Y-101834523D01*
X184234523Y-101429761D02*
X183667857Y-101429761D01*
X183829761Y-101429761D02*
X183748809Y-101389285D01*
X183708333Y-101348809D01*
X183667857Y-101267857D01*
X183667857Y-101186904D01*
X184194047Y-100539285D02*
X184234523Y-100620238D01*
X184234523Y-100782142D01*
X184194047Y-100863095D01*
X184153571Y-100903571D01*
X184072619Y-100944047D01*
X183829761Y-100944047D01*
X183748809Y-100903571D01*
X183708333Y-100863095D01*
X183667857Y-100782142D01*
X183667857Y-100620238D01*
X183708333Y-100539285D01*
X160080952Y-114904761D02*
X160223809Y-114952380D01*
X160461904Y-114952380D01*
X160557142Y-114904761D01*
X160604761Y-114857142D01*
X160652380Y-114761904D01*
X160652380Y-114666666D01*
X160604761Y-114571428D01*
X160557142Y-114523809D01*
X160461904Y-114476190D01*
X160271428Y-114428571D01*
X160176190Y-114380952D01*
X160128571Y-114333333D01*
X160080952Y-114238095D01*
X160080952Y-114142857D01*
X160128571Y-114047619D01*
X160176190Y-114000000D01*
X160271428Y-113952380D01*
X160509523Y-113952380D01*
X160652380Y-114000000D01*
X161271428Y-113952380D02*
X161461904Y-113952380D01*
X161557142Y-114000000D01*
X161652380Y-114095238D01*
X161700000Y-114285714D01*
X161700000Y-114619047D01*
X161652380Y-114809523D01*
X161557142Y-114904761D01*
X161461904Y-114952380D01*
X161271428Y-114952380D01*
X161176190Y-114904761D01*
X161080952Y-114809523D01*
X161033333Y-114619047D01*
X161033333Y-114285714D01*
X161080952Y-114095238D01*
X161176190Y-114000000D01*
X161271428Y-113952380D01*
X161985714Y-113952380D02*
X162557142Y-113952380D01*
X162271428Y-114952380D02*
X162271428Y-113952380D01*
X162795238Y-113952380D02*
X163414285Y-113952380D01*
X163080952Y-114333333D01*
X163223809Y-114333333D01*
X163319047Y-114380952D01*
X163366666Y-114428571D01*
X163414285Y-114523809D01*
X163414285Y-114761904D01*
X163366666Y-114857142D01*
X163319047Y-114904761D01*
X163223809Y-114952380D01*
X162938095Y-114952380D01*
X162842857Y-114904761D01*
X162795238Y-114857142D01*
X163795238Y-114047619D02*
X163842857Y-114000000D01*
X163938095Y-113952380D01*
X164176190Y-113952380D01*
X164271428Y-114000000D01*
X164319047Y-114047619D01*
X164366666Y-114142857D01*
X164366666Y-114238095D01*
X164319047Y-114380952D01*
X163747619Y-114952380D01*
X164366666Y-114952380D01*
X164700000Y-113952380D02*
X165319047Y-113952380D01*
X164985714Y-114333333D01*
X165128571Y-114333333D01*
X165223809Y-114380952D01*
X165271428Y-114428571D01*
X165319047Y-114523809D01*
X165319047Y-114761904D01*
X165271428Y-114857142D01*
X165223809Y-114904761D01*
X165128571Y-114952380D01*
X164842857Y-114952380D01*
X164747619Y-114904761D01*
X164700000Y-114857142D01*
X127452380Y-108477380D02*
X128119047Y-108477380D01*
X127690476Y-109477380D01*
X128404761Y-109477380D02*
X128928571Y-108810714D01*
X128404761Y-108810714D02*
X128928571Y-109477380D01*
X129214285Y-108477380D02*
X129880952Y-108477380D01*
X129452380Y-109477380D01*
X130261904Y-109477380D02*
X130261904Y-108810714D01*
X130261904Y-108905952D02*
X130309523Y-108858333D01*
X130404761Y-108810714D01*
X130547619Y-108810714D01*
X130642857Y-108858333D01*
X130690476Y-108953571D01*
X130690476Y-109477380D01*
X130690476Y-108953571D02*
X130738095Y-108858333D01*
X130833333Y-108810714D01*
X130976190Y-108810714D01*
X131071428Y-108858333D01*
X131119047Y-108953571D01*
X131119047Y-109477380D01*
X131595238Y-109477380D02*
X131595238Y-108810714D01*
X131595238Y-108905952D02*
X131642857Y-108858333D01*
X131738095Y-108810714D01*
X131880952Y-108810714D01*
X131976190Y-108858333D01*
X132023809Y-108953571D01*
X132023809Y-109477380D01*
X132023809Y-108953571D02*
X132071428Y-108858333D01*
X132166666Y-108810714D01*
X132309523Y-108810714D01*
X132404761Y-108858333D01*
X132452380Y-108953571D01*
X132452380Y-109477380D01*
X127904761Y-110127380D02*
X128000000Y-110127380D01*
X128095238Y-110175000D01*
X128142857Y-110222619D01*
X128190476Y-110317857D01*
X128238095Y-110508333D01*
X128238095Y-110746428D01*
X128190476Y-110936904D01*
X128142857Y-111032142D01*
X128095238Y-111079761D01*
X128000000Y-111127380D01*
X127904761Y-111127380D01*
X127809523Y-111079761D01*
X127761904Y-111032142D01*
X127714285Y-110936904D01*
X127666666Y-110746428D01*
X127666666Y-110508333D01*
X127714285Y-110317857D01*
X127761904Y-110222619D01*
X127809523Y-110175000D01*
X127904761Y-110127380D01*
X128666666Y-111032142D02*
X128714285Y-111079761D01*
X128666666Y-111127380D01*
X128619047Y-111079761D01*
X128666666Y-111032142D01*
X128666666Y-111127380D01*
X129285714Y-110555952D02*
X129190476Y-110508333D01*
X129142857Y-110460714D01*
X129095238Y-110365476D01*
X129095238Y-110317857D01*
X129142857Y-110222619D01*
X129190476Y-110175000D01*
X129285714Y-110127380D01*
X129476190Y-110127380D01*
X129571428Y-110175000D01*
X129619047Y-110222619D01*
X129666666Y-110317857D01*
X129666666Y-110365476D01*
X129619047Y-110460714D01*
X129571428Y-110508333D01*
X129476190Y-110555952D01*
X129285714Y-110555952D01*
X129190476Y-110603571D01*
X129142857Y-110651190D01*
X129095238Y-110746428D01*
X129095238Y-110936904D01*
X129142857Y-111032142D01*
X129190476Y-111079761D01*
X129285714Y-111127380D01*
X129476190Y-111127380D01*
X129571428Y-111079761D01*
X129619047Y-111032142D01*
X129666666Y-110936904D01*
X129666666Y-110746428D01*
X129619047Y-110651190D01*
X129571428Y-110603571D01*
X129476190Y-110555952D01*
X130095238Y-111127380D02*
X130095238Y-110460714D01*
X130095238Y-110555952D02*
X130142857Y-110508333D01*
X130238095Y-110460714D01*
X130380952Y-110460714D01*
X130476190Y-110508333D01*
X130523809Y-110603571D01*
X130523809Y-111127380D01*
X130523809Y-110603571D02*
X130571428Y-110508333D01*
X130666666Y-110460714D01*
X130809523Y-110460714D01*
X130904761Y-110508333D01*
X130952380Y-110603571D01*
X130952380Y-111127380D01*
X131428571Y-111127380D02*
X131428571Y-110460714D01*
X131428571Y-110555952D02*
X131476190Y-110508333D01*
X131571428Y-110460714D01*
X131714285Y-110460714D01*
X131809523Y-110508333D01*
X131857142Y-110603571D01*
X131857142Y-111127380D01*
X131857142Y-110603571D02*
X131904761Y-110508333D01*
X132000000Y-110460714D01*
X132142857Y-110460714D01*
X132238095Y-110508333D01*
X132285714Y-110603571D01*
X132285714Y-111127380D01*
D11*
X106965020Y-102318420D02*
X106965020Y-102318420D01*
X106965020Y-125318420D02*
X106965020Y-102318420D01*
X99040900Y-102340600D02*
X99040900Y-125314900D01*
X115965020Y-104818420D02*
X87801400Y-104818420D01*
D12*
X88174556Y-103020800D02*
X88793604Y-103020800D01*
X88412651Y-103401753D01*
X88555508Y-103401753D01*
X88644794Y-103449372D01*
X88686461Y-103496991D01*
X88722175Y-103592229D01*
X88692413Y-103830324D01*
X88632889Y-103925562D01*
X88579318Y-103973181D01*
X88478127Y-104020800D01*
X88192413Y-104020800D01*
X88103127Y-103973181D01*
X88061461Y-103925562D01*
X89698366Y-103020800D02*
X89222175Y-103020800D01*
X89115032Y-103496991D01*
X89168604Y-103449372D01*
X89269794Y-103401753D01*
X89507889Y-103401753D01*
X89597175Y-103449372D01*
X89638842Y-103496991D01*
X89674556Y-103592229D01*
X89644794Y-103830324D01*
X89585270Y-103925562D01*
X89531699Y-103973181D01*
X89430508Y-104020800D01*
X89192413Y-104020800D01*
X89103127Y-103973181D01*
X89061461Y-103925562D01*
X90132889Y-103354134D02*
X90007889Y-104354134D01*
X90543604Y-103877943D02*
X90579318Y-103973181D01*
X90668604Y-104020800D01*
X90067413Y-103877943D02*
X90103127Y-103973181D01*
X90192413Y-104020800D01*
X90382889Y-104020800D01*
X90484080Y-103973181D01*
X90543604Y-103877943D01*
X90609080Y-103354134D01*
X91097175Y-104020800D02*
X91180508Y-103354134D01*
X91168604Y-103449372D02*
X91222175Y-103401753D01*
X91323366Y-103354134D01*
X91466223Y-103354134D01*
X91555508Y-103401753D01*
X91591223Y-103496991D01*
X91525747Y-104020800D01*
X91591223Y-103496991D02*
X91650747Y-103401753D01*
X91751937Y-103354134D01*
X91894794Y-103354134D01*
X91984080Y-103401753D01*
X92019794Y-103496991D01*
X91954318Y-104020800D01*
X92668604Y-104401753D02*
X92626937Y-104354134D01*
X92549556Y-104211277D01*
X92513842Y-104116039D01*
X92484080Y-103973181D01*
X92466223Y-103735086D01*
X92490032Y-103544610D01*
X92567413Y-103306515D01*
X92632889Y-103163658D01*
X92692413Y-103068420D01*
X92805508Y-102925562D01*
X92859080Y-102877943D01*
X93620985Y-104020800D02*
X93049556Y-104020800D01*
X93335270Y-104020800D02*
X93460270Y-103020800D01*
X93347175Y-103163658D01*
X93240032Y-103258896D01*
X93138842Y-103306515D01*
X94192413Y-104020800D02*
X94103127Y-103973181D01*
X94061461Y-103925562D01*
X94025747Y-103830324D01*
X94061461Y-103544610D01*
X94120985Y-103449372D01*
X94174556Y-103401753D01*
X94275747Y-103354134D01*
X94418604Y-103354134D01*
X94507889Y-103401753D01*
X94549556Y-103449372D01*
X94585270Y-103544610D01*
X94549556Y-103830324D01*
X94490032Y-103925562D01*
X94436461Y-103973181D01*
X94335270Y-104020800D01*
X94192413Y-104020800D01*
X94942413Y-103354134D02*
X95466223Y-103354134D01*
X94859080Y-104020800D01*
X95382889Y-104020800D01*
X97109080Y-103925562D02*
X97055508Y-103973181D01*
X96906699Y-104020800D01*
X96811461Y-104020800D01*
X96674556Y-103973181D01*
X96591223Y-103877943D01*
X96555508Y-103782705D01*
X96531699Y-103592229D01*
X96549556Y-103449372D01*
X96620985Y-103258896D01*
X96680508Y-103163658D01*
X96787651Y-103068420D01*
X96936461Y-103020800D01*
X97031699Y-103020800D01*
X97168604Y-103068420D01*
X97210270Y-103116039D01*
X98037651Y-103354134D02*
X97954318Y-104020800D01*
X97609080Y-103354134D02*
X97543604Y-103877943D01*
X97579318Y-103973181D01*
X97668604Y-104020800D01*
X97811461Y-104020800D01*
X97912651Y-103973181D01*
X97966223Y-103925562D01*
X98287651Y-104401753D02*
X98341223Y-104354134D01*
X98454318Y-104211277D01*
X98513842Y-104116039D01*
X98579318Y-103973181D01*
X98656699Y-103735086D01*
X98680508Y-103544610D01*
X98662651Y-103306515D01*
X98632889Y-103163658D01*
X98597175Y-103068420D01*
X98519794Y-102925562D01*
X98478127Y-102877943D01*
D11*
X115965020Y-124818420D02*
X115965020Y-124818420D01*
X115965020Y-125318420D02*
X115965020Y-124818420D01*
X87801400Y-125327600D02*
X115965020Y-125318420D01*
X115965020Y-102318420D02*
X115965020Y-124818420D01*
X87801400Y-102318420D02*
X115965020Y-102318420D01*
D12*
X107893591Y-121866039D02*
X107941210Y-121818420D01*
X108036448Y-121770800D01*
X108274543Y-121770800D01*
X108369781Y-121818420D01*
X108417400Y-121866039D01*
X108465020Y-121961277D01*
X108465020Y-122056515D01*
X108417400Y-122199372D01*
X107845972Y-122770800D01*
X108465020Y-122770800D01*
X108893591Y-122675562D02*
X108941210Y-122723181D01*
X108893591Y-122770800D01*
X108845972Y-122723181D01*
X108893591Y-122675562D01*
X108893591Y-122770800D01*
X109893591Y-122770800D02*
X109322162Y-122770800D01*
X109607877Y-122770800D02*
X109607877Y-121770800D01*
X109512639Y-121913658D01*
X109417400Y-122008896D01*
X109322162Y-122056515D01*
X110274543Y-122485086D02*
X110750734Y-122485086D01*
X110179305Y-122770800D02*
X110512639Y-121770800D01*
X110845972Y-122770800D01*
X111893591Y-121723181D02*
X111036448Y-123008896D01*
X112655496Y-122104134D02*
X112655496Y-122770800D01*
X112417400Y-121723181D02*
X112179305Y-122437467D01*
X112798353Y-122437467D01*
X113179305Y-122675562D02*
X113226924Y-122723181D01*
X113179305Y-122770800D01*
X113131686Y-122723181D01*
X113179305Y-122675562D01*
X113179305Y-122770800D01*
X114179305Y-122770800D02*
X113607877Y-122770800D01*
X113893591Y-122770800D02*
X113893591Y-121770800D01*
X113798353Y-121913658D01*
X113703115Y-122008896D01*
X113607877Y-122056515D01*
X114560258Y-122485086D02*
X115036448Y-122485086D01*
X114465020Y-122770800D02*
X114798353Y-121770800D01*
X115131686Y-122770800D01*
X107893591Y-120366039D02*
X107941210Y-120318420D01*
X108036448Y-120270800D01*
X108274543Y-120270800D01*
X108369781Y-120318420D01*
X108417400Y-120366039D01*
X108465020Y-120461277D01*
X108465020Y-120556515D01*
X108417400Y-120699372D01*
X107845972Y-121270800D01*
X108465020Y-121270800D01*
X108893591Y-121175562D02*
X108941210Y-121223181D01*
X108893591Y-121270800D01*
X108845972Y-121223181D01*
X108893591Y-121175562D01*
X108893591Y-121270800D01*
X109560258Y-120270800D02*
X109655496Y-120270800D01*
X109750734Y-120318420D01*
X109798353Y-120366039D01*
X109845972Y-120461277D01*
X109893591Y-120651753D01*
X109893591Y-120889848D01*
X109845972Y-121080324D01*
X109798353Y-121175562D01*
X109750734Y-121223181D01*
X109655496Y-121270800D01*
X109560258Y-121270800D01*
X109465020Y-121223181D01*
X109417400Y-121175562D01*
X109369781Y-121080324D01*
X109322162Y-120889848D01*
X109322162Y-120651753D01*
X109369781Y-120461277D01*
X109417400Y-120366039D01*
X109465020Y-120318420D01*
X109560258Y-120270800D01*
X110274543Y-120985086D02*
X110750734Y-120985086D01*
X110179305Y-121270800D02*
X110512639Y-120270800D01*
X110845972Y-121270800D01*
X111893591Y-120223181D02*
X111036448Y-121508896D01*
X112655496Y-120604134D02*
X112655496Y-121270800D01*
X112417400Y-120223181D02*
X112179305Y-120937467D01*
X112798353Y-120937467D01*
X113179305Y-121175562D02*
X113226924Y-121223181D01*
X113179305Y-121270800D01*
X113131686Y-121223181D01*
X113179305Y-121175562D01*
X113179305Y-121270800D01*
X113845972Y-120270800D02*
X113941210Y-120270800D01*
X114036448Y-120318420D01*
X114084067Y-120366039D01*
X114131686Y-120461277D01*
X114179305Y-120651753D01*
X114179305Y-120889848D01*
X114131686Y-121080324D01*
X114084067Y-121175562D01*
X114036448Y-121223181D01*
X113941210Y-121270800D01*
X113845972Y-121270800D01*
X113750734Y-121223181D01*
X113703115Y-121175562D01*
X113655496Y-121080324D01*
X113607877Y-120889848D01*
X113607877Y-120651753D01*
X113655496Y-120461277D01*
X113703115Y-120366039D01*
X113750734Y-120318420D01*
X113845972Y-120270800D01*
X114560258Y-120985086D02*
X115036448Y-120985086D01*
X114465020Y-121270800D02*
X114798353Y-120270800D01*
X115131686Y-121270800D01*
X108465020Y-119770800D02*
X107893591Y-119770800D01*
X108179305Y-119770800D02*
X108179305Y-118770800D01*
X108084067Y-118913658D01*
X107988829Y-119008896D01*
X107893591Y-119056515D01*
X108893591Y-119675562D02*
X108941210Y-119723181D01*
X108893591Y-119770800D01*
X108845972Y-119723181D01*
X108893591Y-119675562D01*
X108893591Y-119770800D01*
X109417400Y-119770800D02*
X109607877Y-119770800D01*
X109703115Y-119723181D01*
X109750734Y-119675562D01*
X109845972Y-119532705D01*
X109893591Y-119342229D01*
X109893591Y-118961277D01*
X109845972Y-118866039D01*
X109798353Y-118818420D01*
X109703115Y-118770800D01*
X109512639Y-118770800D01*
X109417400Y-118818420D01*
X109369781Y-118866039D01*
X109322162Y-118961277D01*
X109322162Y-119199372D01*
X109369781Y-119294610D01*
X109417400Y-119342229D01*
X109512639Y-119389848D01*
X109703115Y-119389848D01*
X109798353Y-119342229D01*
X109845972Y-119294610D01*
X109893591Y-119199372D01*
X110274543Y-119485086D02*
X110750734Y-119485086D01*
X110179305Y-119770800D02*
X110512639Y-118770800D01*
X110845972Y-119770800D01*
X111893591Y-118723181D02*
X111036448Y-120008896D01*
X112131686Y-118770800D02*
X112750734Y-118770800D01*
X112417400Y-119151753D01*
X112560258Y-119151753D01*
X112655496Y-119199372D01*
X112703115Y-119246991D01*
X112750734Y-119342229D01*
X112750734Y-119580324D01*
X112703115Y-119675562D01*
X112655496Y-119723181D01*
X112560258Y-119770800D01*
X112274543Y-119770800D01*
X112179305Y-119723181D01*
X112131686Y-119675562D01*
X113179305Y-119675562D02*
X113226924Y-119723181D01*
X113179305Y-119770800D01*
X113131686Y-119723181D01*
X113179305Y-119675562D01*
X113179305Y-119770800D01*
X113798353Y-119199372D02*
X113703115Y-119151753D01*
X113655496Y-119104134D01*
X113607877Y-119008896D01*
X113607877Y-118961277D01*
X113655496Y-118866039D01*
X113703115Y-118818420D01*
X113798353Y-118770800D01*
X113988829Y-118770800D01*
X114084067Y-118818420D01*
X114131686Y-118866039D01*
X114179305Y-118961277D01*
X114179305Y-119008896D01*
X114131686Y-119104134D01*
X114084067Y-119151753D01*
X113988829Y-119199372D01*
X113798353Y-119199372D01*
X113703115Y-119246991D01*
X113655496Y-119294610D01*
X113607877Y-119389848D01*
X113607877Y-119580324D01*
X113655496Y-119675562D01*
X113703115Y-119723181D01*
X113798353Y-119770800D01*
X113988829Y-119770800D01*
X114084067Y-119723181D01*
X114131686Y-119675562D01*
X114179305Y-119580324D01*
X114179305Y-119389848D01*
X114131686Y-119294610D01*
X114084067Y-119246991D01*
X113988829Y-119199372D01*
X114560258Y-119485086D02*
X115036448Y-119485086D01*
X114465020Y-119770800D02*
X114798353Y-118770800D01*
X115131686Y-119770800D01*
X108465020Y-118270800D02*
X107893591Y-118270800D01*
X108179305Y-118270800D02*
X108179305Y-117270800D01*
X108084067Y-117413658D01*
X107988829Y-117508896D01*
X107893591Y-117556515D01*
X108893591Y-118175562D02*
X108941210Y-118223181D01*
X108893591Y-118270800D01*
X108845972Y-118223181D01*
X108893591Y-118175562D01*
X108893591Y-118270800D01*
X109274543Y-117270800D02*
X109941210Y-117270800D01*
X109512639Y-118270800D01*
X110274543Y-117985086D02*
X110750734Y-117985086D01*
X110179305Y-118270800D02*
X110512639Y-117270800D01*
X110845972Y-118270800D01*
X111893591Y-117223181D02*
X111036448Y-118508896D01*
X112131686Y-117270800D02*
X112750734Y-117270800D01*
X112417400Y-117651753D01*
X112560258Y-117651753D01*
X112655496Y-117699372D01*
X112703115Y-117746991D01*
X112750734Y-117842229D01*
X112750734Y-118080324D01*
X112703115Y-118175562D01*
X112655496Y-118223181D01*
X112560258Y-118270800D01*
X112274543Y-118270800D01*
X112179305Y-118223181D01*
X112131686Y-118175562D01*
X113179305Y-118175562D02*
X113226924Y-118223181D01*
X113179305Y-118270800D01*
X113131686Y-118223181D01*
X113179305Y-118175562D01*
X113179305Y-118270800D01*
X114084067Y-117604134D02*
X114084067Y-118270800D01*
X113845972Y-117223181D02*
X113607877Y-117937467D01*
X114226924Y-117937467D01*
X114560258Y-117985086D02*
X115036448Y-117985086D01*
X114465020Y-118270800D02*
X114798353Y-117270800D01*
X115131686Y-118270800D01*
X108465020Y-115270800D02*
X107893591Y-115270800D01*
X108179305Y-115270800D02*
X108179305Y-114270800D01*
X108084067Y-114413658D01*
X107988829Y-114508896D01*
X107893591Y-114556515D01*
X108893591Y-115175562D02*
X108941210Y-115223181D01*
X108893591Y-115270800D01*
X108845972Y-115223181D01*
X108893591Y-115175562D01*
X108893591Y-115270800D01*
X109798353Y-114604134D02*
X109798353Y-115270800D01*
X109560258Y-114223181D02*
X109322162Y-114937467D01*
X109941210Y-114937467D01*
X110274543Y-114985086D02*
X110750734Y-114985086D01*
X110179305Y-115270800D02*
X110512639Y-114270800D01*
X110845972Y-115270800D01*
X111893591Y-114223181D02*
X111036448Y-115508896D01*
X112179305Y-114366039D02*
X112226924Y-114318420D01*
X112322162Y-114270800D01*
X112560258Y-114270800D01*
X112655496Y-114318420D01*
X112703115Y-114366039D01*
X112750734Y-114461277D01*
X112750734Y-114556515D01*
X112703115Y-114699372D01*
X112131686Y-115270800D01*
X112750734Y-115270800D01*
X113179305Y-115175562D02*
X113226924Y-115223181D01*
X113179305Y-115270800D01*
X113131686Y-115223181D01*
X113179305Y-115175562D01*
X113179305Y-115270800D01*
X113798353Y-114699372D02*
X113703115Y-114651753D01*
X113655496Y-114604134D01*
X113607877Y-114508896D01*
X113607877Y-114461277D01*
X113655496Y-114366039D01*
X113703115Y-114318420D01*
X113798353Y-114270800D01*
X113988829Y-114270800D01*
X114084067Y-114318420D01*
X114131686Y-114366039D01*
X114179305Y-114461277D01*
X114179305Y-114508896D01*
X114131686Y-114604134D01*
X114084067Y-114651753D01*
X113988829Y-114699372D01*
X113798353Y-114699372D01*
X113703115Y-114746991D01*
X113655496Y-114794610D01*
X113607877Y-114889848D01*
X113607877Y-115080324D01*
X113655496Y-115175562D01*
X113703115Y-115223181D01*
X113798353Y-115270800D01*
X113988829Y-115270800D01*
X114084067Y-115223181D01*
X114131686Y-115175562D01*
X114179305Y-115080324D01*
X114179305Y-114889848D01*
X114131686Y-114794610D01*
X114084067Y-114746991D01*
X113988829Y-114699372D01*
X114560258Y-114985086D02*
X115036448Y-114985086D01*
X114465020Y-115270800D02*
X114798353Y-114270800D01*
X115131686Y-115270800D01*
X108465020Y-113770800D02*
X107893591Y-113770800D01*
X108179305Y-113770800D02*
X108179305Y-112770800D01*
X108084067Y-112913658D01*
X107988829Y-113008896D01*
X107893591Y-113056515D01*
X108893591Y-113675562D02*
X108941210Y-113723181D01*
X108893591Y-113770800D01*
X108845972Y-113723181D01*
X108893591Y-113675562D01*
X108893591Y-113770800D01*
X109322162Y-112866039D02*
X109369781Y-112818420D01*
X109465020Y-112770800D01*
X109703115Y-112770800D01*
X109798353Y-112818420D01*
X109845972Y-112866039D01*
X109893591Y-112961277D01*
X109893591Y-113056515D01*
X109845972Y-113199372D01*
X109274543Y-113770800D01*
X109893591Y-113770800D01*
X110274543Y-113485086D02*
X110750734Y-113485086D01*
X110179305Y-113770800D02*
X110512639Y-112770800D01*
X110845972Y-113770800D01*
X111893591Y-112723181D02*
X111036448Y-114008896D01*
X112179305Y-112866039D02*
X112226924Y-112818420D01*
X112322162Y-112770800D01*
X112560258Y-112770800D01*
X112655496Y-112818420D01*
X112703115Y-112866039D01*
X112750734Y-112961277D01*
X112750734Y-113056515D01*
X112703115Y-113199372D01*
X112131686Y-113770800D01*
X112750734Y-113770800D01*
X113179305Y-113675562D02*
X113226924Y-113723181D01*
X113179305Y-113770800D01*
X113131686Y-113723181D01*
X113179305Y-113675562D01*
X113179305Y-113770800D01*
X114131686Y-112770800D02*
X113655496Y-112770800D01*
X113607877Y-113246991D01*
X113655496Y-113199372D01*
X113750734Y-113151753D01*
X113988829Y-113151753D01*
X114084067Y-113199372D01*
X114131686Y-113246991D01*
X114179305Y-113342229D01*
X114179305Y-113580324D01*
X114131686Y-113675562D01*
X114084067Y-113723181D01*
X113988829Y-113770800D01*
X113750734Y-113770800D01*
X113655496Y-113723181D01*
X113607877Y-113675562D01*
X114560258Y-113485086D02*
X115036448Y-113485086D01*
X114465020Y-113770800D02*
X114798353Y-112770800D01*
X115131686Y-113770800D01*
X108465020Y-112270800D02*
X107893591Y-112270800D01*
X108179305Y-112270800D02*
X108179305Y-111270800D01*
X108084067Y-111413658D01*
X107988829Y-111508896D01*
X107893591Y-111556515D01*
X108893591Y-112175562D02*
X108941210Y-112223181D01*
X108893591Y-112270800D01*
X108845972Y-112223181D01*
X108893591Y-112175562D01*
X108893591Y-112270800D01*
X109893591Y-112270800D02*
X109322162Y-112270800D01*
X109607877Y-112270800D02*
X109607877Y-111270800D01*
X109512639Y-111413658D01*
X109417400Y-111508896D01*
X109322162Y-111556515D01*
X110274543Y-111985086D02*
X110750734Y-111985086D01*
X110179305Y-112270800D02*
X110512639Y-111270800D01*
X110845972Y-112270800D01*
X111893591Y-111223181D02*
X111036448Y-112508896D01*
X112179305Y-111366039D02*
X112226924Y-111318420D01*
X112322162Y-111270800D01*
X112560258Y-111270800D01*
X112655496Y-111318420D01*
X112703115Y-111366039D01*
X112750734Y-111461277D01*
X112750734Y-111556515D01*
X112703115Y-111699372D01*
X112131686Y-112270800D01*
X112750734Y-112270800D01*
X113179305Y-112175562D02*
X113226924Y-112223181D01*
X113179305Y-112270800D01*
X113131686Y-112223181D01*
X113179305Y-112175562D01*
X113179305Y-112270800D01*
X113560258Y-111270800D02*
X114179305Y-111270800D01*
X113845972Y-111651753D01*
X113988829Y-111651753D01*
X114084067Y-111699372D01*
X114131686Y-111746991D01*
X114179305Y-111842229D01*
X114179305Y-112080324D01*
X114131686Y-112175562D01*
X114084067Y-112223181D01*
X113988829Y-112270800D01*
X113703115Y-112270800D01*
X113607877Y-112223181D01*
X113560258Y-112175562D01*
X114560258Y-111985086D02*
X115036448Y-111985086D01*
X114465020Y-112270800D02*
X114798353Y-111270800D01*
X115131686Y-112270800D01*
X108465020Y-110770800D02*
X107893591Y-110770800D01*
X108179305Y-110770800D02*
X108179305Y-109770800D01*
X108084067Y-109913658D01*
X107988829Y-110008896D01*
X107893591Y-110056515D01*
X108893591Y-110675562D02*
X108941210Y-110723181D01*
X108893591Y-110770800D01*
X108845972Y-110723181D01*
X108893591Y-110675562D01*
X108893591Y-110770800D01*
X109560258Y-109770800D02*
X109655496Y-109770800D01*
X109750734Y-109818420D01*
X109798353Y-109866039D01*
X109845972Y-109961277D01*
X109893591Y-110151753D01*
X109893591Y-110389848D01*
X109845972Y-110580324D01*
X109798353Y-110675562D01*
X109750734Y-110723181D01*
X109655496Y-110770800D01*
X109560258Y-110770800D01*
X109465020Y-110723181D01*
X109417400Y-110675562D01*
X109369781Y-110580324D01*
X109322162Y-110389848D01*
X109322162Y-110151753D01*
X109369781Y-109961277D01*
X109417400Y-109866039D01*
X109465020Y-109818420D01*
X109560258Y-109770800D01*
X110274543Y-110485086D02*
X110750734Y-110485086D01*
X110179305Y-110770800D02*
X110512639Y-109770800D01*
X110845972Y-110770800D01*
X111893591Y-109723181D02*
X111036448Y-111008896D01*
X112179305Y-109866039D02*
X112226924Y-109818420D01*
X112322162Y-109770800D01*
X112560258Y-109770800D01*
X112655496Y-109818420D01*
X112703115Y-109866039D01*
X112750734Y-109961277D01*
X112750734Y-110056515D01*
X112703115Y-110199372D01*
X112131686Y-110770800D01*
X112750734Y-110770800D01*
X113179305Y-110675562D02*
X113226924Y-110723181D01*
X113179305Y-110770800D01*
X113131686Y-110723181D01*
X113179305Y-110675562D01*
X113179305Y-110770800D01*
X113845972Y-109770800D02*
X113941210Y-109770800D01*
X114036448Y-109818420D01*
X114084067Y-109866039D01*
X114131686Y-109961277D01*
X114179305Y-110151753D01*
X114179305Y-110389848D01*
X114131686Y-110580324D01*
X114084067Y-110675562D01*
X114036448Y-110723181D01*
X113941210Y-110770800D01*
X113845972Y-110770800D01*
X113750734Y-110723181D01*
X113703115Y-110675562D01*
X113655496Y-110580324D01*
X113607877Y-110389848D01*
X113607877Y-110151753D01*
X113655496Y-109961277D01*
X113703115Y-109866039D01*
X113750734Y-109818420D01*
X113845972Y-109770800D01*
X114560258Y-110485086D02*
X115036448Y-110485086D01*
X114465020Y-110770800D02*
X114798353Y-109770800D01*
X115131686Y-110770800D01*
X108131686Y-106770800D02*
X108226924Y-106770800D01*
X108322162Y-106818420D01*
X108369781Y-106866039D01*
X108417400Y-106961277D01*
X108465020Y-107151753D01*
X108465020Y-107389848D01*
X108417400Y-107580324D01*
X108369781Y-107675562D01*
X108322162Y-107723181D01*
X108226924Y-107770800D01*
X108131686Y-107770800D01*
X108036448Y-107723181D01*
X107988829Y-107675562D01*
X107941210Y-107580324D01*
X107893591Y-107389848D01*
X107893591Y-107151753D01*
X107941210Y-106961277D01*
X107988829Y-106866039D01*
X108036448Y-106818420D01*
X108131686Y-106770800D01*
X108893591Y-107675562D02*
X108941210Y-107723181D01*
X108893591Y-107770800D01*
X108845972Y-107723181D01*
X108893591Y-107675562D01*
X108893591Y-107770800D01*
X109512639Y-107199372D02*
X109417400Y-107151753D01*
X109369781Y-107104134D01*
X109322162Y-107008896D01*
X109322162Y-106961277D01*
X109369781Y-106866039D01*
X109417400Y-106818420D01*
X109512639Y-106770800D01*
X109703115Y-106770800D01*
X109798353Y-106818420D01*
X109845972Y-106866039D01*
X109893591Y-106961277D01*
X109893591Y-107008896D01*
X109845972Y-107104134D01*
X109798353Y-107151753D01*
X109703115Y-107199372D01*
X109512639Y-107199372D01*
X109417400Y-107246991D01*
X109369781Y-107294610D01*
X109322162Y-107389848D01*
X109322162Y-107580324D01*
X109369781Y-107675562D01*
X109417400Y-107723181D01*
X109512639Y-107770800D01*
X109703115Y-107770800D01*
X109798353Y-107723181D01*
X109845972Y-107675562D01*
X109893591Y-107580324D01*
X109893591Y-107389848D01*
X109845972Y-107294610D01*
X109798353Y-107246991D01*
X109703115Y-107199372D01*
X110274543Y-107485086D02*
X110750734Y-107485086D01*
X110179305Y-107770800D02*
X110512639Y-106770800D01*
X110845972Y-107770800D01*
X111893591Y-106723181D02*
X111036448Y-108008896D01*
X112750734Y-107770800D02*
X112179305Y-107770800D01*
X112465020Y-107770800D02*
X112465020Y-106770800D01*
X112369781Y-106913658D01*
X112274543Y-107008896D01*
X112179305Y-107056515D01*
X113179305Y-107675562D02*
X113226924Y-107723181D01*
X113179305Y-107770800D01*
X113131686Y-107723181D01*
X113179305Y-107675562D01*
X113179305Y-107770800D01*
X114131686Y-106770800D02*
X113655496Y-106770800D01*
X113607877Y-107246991D01*
X113655496Y-107199372D01*
X113750734Y-107151753D01*
X113988829Y-107151753D01*
X114084067Y-107199372D01*
X114131686Y-107246991D01*
X114179305Y-107342229D01*
X114179305Y-107580324D01*
X114131686Y-107675562D01*
X114084067Y-107723181D01*
X113988829Y-107770800D01*
X113750734Y-107770800D01*
X113655496Y-107723181D01*
X113607877Y-107675562D01*
X114560258Y-107485086D02*
X115036448Y-107485086D01*
X114465020Y-107770800D02*
X114798353Y-106770800D01*
X115131686Y-107770800D01*
X108131686Y-105270800D02*
X108226924Y-105270800D01*
X108322162Y-105318420D01*
X108369781Y-105366039D01*
X108417400Y-105461277D01*
X108465020Y-105651753D01*
X108465020Y-105889848D01*
X108417400Y-106080324D01*
X108369781Y-106175562D01*
X108322162Y-106223181D01*
X108226924Y-106270800D01*
X108131686Y-106270800D01*
X108036448Y-106223181D01*
X107988829Y-106175562D01*
X107941210Y-106080324D01*
X107893591Y-105889848D01*
X107893591Y-105651753D01*
X107941210Y-105461277D01*
X107988829Y-105366039D01*
X108036448Y-105318420D01*
X108131686Y-105270800D01*
X108893591Y-106175562D02*
X108941210Y-106223181D01*
X108893591Y-106270800D01*
X108845972Y-106223181D01*
X108893591Y-106175562D01*
X108893591Y-106270800D01*
X109798353Y-105270800D02*
X109607877Y-105270800D01*
X109512639Y-105318420D01*
X109465020Y-105366039D01*
X109369781Y-105508896D01*
X109322162Y-105699372D01*
X109322162Y-106080324D01*
X109369781Y-106175562D01*
X109417400Y-106223181D01*
X109512639Y-106270800D01*
X109703115Y-106270800D01*
X109798353Y-106223181D01*
X109845972Y-106175562D01*
X109893591Y-106080324D01*
X109893591Y-105842229D01*
X109845972Y-105746991D01*
X109798353Y-105699372D01*
X109703115Y-105651753D01*
X109512639Y-105651753D01*
X109417400Y-105699372D01*
X109369781Y-105746991D01*
X109322162Y-105842229D01*
X110274543Y-105985086D02*
X110750734Y-105985086D01*
X110179305Y-106270800D02*
X110512639Y-105270800D01*
X110845972Y-106270800D01*
X111893591Y-105223181D02*
X111036448Y-106508896D01*
X112750734Y-106270800D02*
X112179305Y-106270800D01*
X112465020Y-106270800D02*
X112465020Y-105270800D01*
X112369781Y-105413658D01*
X112274543Y-105508896D01*
X112179305Y-105556515D01*
X113179305Y-106175562D02*
X113226924Y-106223181D01*
X113179305Y-106270800D01*
X113131686Y-106223181D01*
X113179305Y-106175562D01*
X113179305Y-106270800D01*
X113607877Y-105366039D02*
X113655496Y-105318420D01*
X113750734Y-105270800D01*
X113988829Y-105270800D01*
X114084067Y-105318420D01*
X114131686Y-105366039D01*
X114179305Y-105461277D01*
X114179305Y-105556515D01*
X114131686Y-105699372D01*
X113560258Y-106270800D01*
X114179305Y-106270800D01*
X114560258Y-105985086D02*
X115036448Y-105985086D01*
X114465020Y-106270800D02*
X114798353Y-105270800D01*
X115131686Y-106270800D01*
X107893591Y-123366039D02*
X107941210Y-123318420D01*
X108036448Y-123270800D01*
X108274543Y-123270800D01*
X108369781Y-123318420D01*
X108417400Y-123366039D01*
X108465020Y-123461277D01*
X108465020Y-123556515D01*
X108417400Y-123699372D01*
X107845972Y-124270800D01*
X108465020Y-124270800D01*
X108893591Y-124175562D02*
X108941210Y-124223181D01*
X108893591Y-124270800D01*
X108845972Y-124223181D01*
X108893591Y-124175562D01*
X108893591Y-124270800D01*
X109798353Y-123604134D02*
X109798353Y-124270800D01*
X109560258Y-123223181D02*
X109322162Y-123937467D01*
X109941210Y-123937467D01*
X110274543Y-123985086D02*
X110750734Y-123985086D01*
X110179305Y-124270800D02*
X110512639Y-123270800D01*
X110845972Y-124270800D01*
X111893591Y-123223181D02*
X111036448Y-124508896D01*
X112655496Y-123604134D02*
X112655496Y-124270800D01*
X112417400Y-123223181D02*
X112179305Y-123937467D01*
X112798353Y-123937467D01*
X113179305Y-124175562D02*
X113226924Y-124223181D01*
X113179305Y-124270800D01*
X113131686Y-124223181D01*
X113179305Y-124175562D01*
X113179305Y-124270800D01*
X113703115Y-124270800D02*
X113893591Y-124270800D01*
X113988829Y-124223181D01*
X114036448Y-124175562D01*
X114131686Y-124032705D01*
X114179305Y-123842229D01*
X114179305Y-123461277D01*
X114131686Y-123366039D01*
X114084067Y-123318420D01*
X113988829Y-123270800D01*
X113798353Y-123270800D01*
X113703115Y-123318420D01*
X113655496Y-123366039D01*
X113607877Y-123461277D01*
X113607877Y-123699372D01*
X113655496Y-123794610D01*
X113703115Y-123842229D01*
X113798353Y-123889848D01*
X113988829Y-123889848D01*
X114084067Y-123842229D01*
X114131686Y-123794610D01*
X114179305Y-123699372D01*
X114560258Y-123985086D02*
X115036448Y-123985086D01*
X114465020Y-124270800D02*
X114798353Y-123270800D01*
X115131686Y-124270800D01*
X107774543Y-103639848D02*
X108536448Y-103639848D01*
X108155496Y-104020800D02*
X108155496Y-103258896D01*
X109536448Y-104020800D02*
X108965020Y-104020800D01*
X109250734Y-104020800D02*
X109250734Y-103020800D01*
X109155496Y-103163658D01*
X109060258Y-103258896D01*
X108965020Y-103306515D01*
X110155496Y-103020800D02*
X110250734Y-103020800D01*
X110345972Y-103068420D01*
X110393591Y-103116039D01*
X110441210Y-103211277D01*
X110488829Y-103401753D01*
X110488829Y-103639848D01*
X110441210Y-103830324D01*
X110393591Y-103925562D01*
X110345972Y-103973181D01*
X110250734Y-104020800D01*
X110155496Y-104020800D01*
X110060258Y-103973181D01*
X110012639Y-103925562D01*
X109965020Y-103830324D01*
X109917400Y-103639848D01*
X109917400Y-103401753D01*
X109965020Y-103211277D01*
X110012639Y-103116039D01*
X110060258Y-103068420D01*
X110155496Y-103020800D01*
X111631686Y-102973181D02*
X110774543Y-104258896D01*
X112441210Y-103020800D02*
X111965020Y-103020800D01*
X111917400Y-103496991D01*
X111965020Y-103449372D01*
X112060258Y-103401753D01*
X112298353Y-103401753D01*
X112393591Y-103449372D01*
X112441210Y-103496991D01*
X112488829Y-103592229D01*
X112488829Y-103830324D01*
X112441210Y-103925562D01*
X112393591Y-103973181D01*
X112298353Y-104020800D01*
X112060258Y-104020800D01*
X111965020Y-103973181D01*
X111917400Y-103925562D01*
X113107877Y-103020800D02*
X113203115Y-103020800D01*
X113298353Y-103068420D01*
X113345972Y-103116039D01*
X113393591Y-103211277D01*
X113441210Y-103401753D01*
X113441210Y-103639848D01*
X113393591Y-103830324D01*
X113345972Y-103925562D01*
X113298353Y-103973181D01*
X113203115Y-104020800D01*
X113107877Y-104020800D01*
X113012639Y-103973181D01*
X112965020Y-103925562D01*
X112917400Y-103830324D01*
X112869781Y-103639848D01*
X112869781Y-103401753D01*
X112917400Y-103211277D01*
X112965020Y-103116039D01*
X113012639Y-103068420D01*
X113107877Y-103020800D01*
X114012639Y-103020800D02*
X113917400Y-103068420D01*
X113869781Y-103163658D01*
X113917400Y-103258896D01*
X114012639Y-103306515D01*
X114107877Y-103258896D01*
X114155496Y-103163658D01*
X114107877Y-103068420D01*
X114012639Y-103020800D01*
X115203115Y-103925562D02*
X115155496Y-103973181D01*
X115012639Y-104020800D01*
X114917400Y-104020800D01*
X114774543Y-103973181D01*
X114679305Y-103877943D01*
X114631686Y-103782705D01*
X114584067Y-103592229D01*
X114584067Y-103449372D01*
X114631686Y-103258896D01*
X114679305Y-103163658D01*
X114774543Y-103068420D01*
X114917400Y-103020800D01*
X115012639Y-103020800D01*
X115155496Y-103068420D01*
X115203115Y-103116039D01*
X108465020Y-116770800D02*
X107893591Y-116770800D01*
X108179305Y-116770800D02*
X108179305Y-115770800D01*
X108084067Y-115913658D01*
X107988829Y-116008896D01*
X107893591Y-116056515D01*
X108893591Y-116675562D02*
X108941210Y-116723181D01*
X108893591Y-116770800D01*
X108845972Y-116723181D01*
X108893591Y-116675562D01*
X108893591Y-116770800D01*
X109845972Y-115770800D02*
X109369781Y-115770800D01*
X109322162Y-116246991D01*
X109369781Y-116199372D01*
X109465020Y-116151753D01*
X109703115Y-116151753D01*
X109798353Y-116199372D01*
X109845972Y-116246991D01*
X109893591Y-116342229D01*
X109893591Y-116580324D01*
X109845972Y-116675562D01*
X109798353Y-116723181D01*
X109703115Y-116770800D01*
X109465020Y-116770800D01*
X109369781Y-116723181D01*
X109322162Y-116675562D01*
X110274543Y-116485086D02*
X110750734Y-116485086D01*
X110179305Y-116770800D02*
X110512639Y-115770800D01*
X110845972Y-116770800D01*
X111893591Y-115723181D02*
X111036448Y-117008896D01*
X112131686Y-115770800D02*
X112750734Y-115770800D01*
X112417400Y-116151753D01*
X112560258Y-116151753D01*
X112655496Y-116199372D01*
X112703115Y-116246991D01*
X112750734Y-116342229D01*
X112750734Y-116580324D01*
X112703115Y-116675562D01*
X112655496Y-116723181D01*
X112560258Y-116770800D01*
X112274543Y-116770800D01*
X112179305Y-116723181D01*
X112131686Y-116675562D01*
X113179305Y-116675562D02*
X113226924Y-116723181D01*
X113179305Y-116770800D01*
X113131686Y-116723181D01*
X113179305Y-116675562D01*
X113179305Y-116770800D01*
X113845972Y-115770800D02*
X113941210Y-115770800D01*
X114036448Y-115818420D01*
X114084067Y-115866039D01*
X114131686Y-115961277D01*
X114179305Y-116151753D01*
X114179305Y-116389848D01*
X114131686Y-116580324D01*
X114084067Y-116675562D01*
X114036448Y-116723181D01*
X113941210Y-116770800D01*
X113845972Y-116770800D01*
X113750734Y-116723181D01*
X113703115Y-116675562D01*
X113655496Y-116580324D01*
X113607877Y-116389848D01*
X113607877Y-116151753D01*
X113655496Y-115961277D01*
X113703115Y-115866039D01*
X113750734Y-115818420D01*
X113845972Y-115770800D01*
X114560258Y-116485086D02*
X115036448Y-116485086D01*
X114465020Y-116770800D02*
X114798353Y-115770800D01*
X115131686Y-116770800D01*
X108131686Y-108270800D02*
X108226924Y-108270800D01*
X108322162Y-108318420D01*
X108369781Y-108366039D01*
X108417400Y-108461277D01*
X108465020Y-108651753D01*
X108465020Y-108889848D01*
X108417400Y-109080324D01*
X108369781Y-109175562D01*
X108322162Y-109223181D01*
X108226924Y-109270800D01*
X108131686Y-109270800D01*
X108036448Y-109223181D01*
X107988829Y-109175562D01*
X107941210Y-109080324D01*
X107893591Y-108889848D01*
X107893591Y-108651753D01*
X107941210Y-108461277D01*
X107988829Y-108366039D01*
X108036448Y-108318420D01*
X108131686Y-108270800D01*
X108893591Y-109175562D02*
X108941210Y-109223181D01*
X108893591Y-109270800D01*
X108845972Y-109223181D01*
X108893591Y-109175562D01*
X108893591Y-109270800D01*
X109417400Y-109270800D02*
X109607877Y-109270800D01*
X109703115Y-109223181D01*
X109750734Y-109175562D01*
X109845972Y-109032705D01*
X109893591Y-108842229D01*
X109893591Y-108461277D01*
X109845972Y-108366039D01*
X109798353Y-108318420D01*
X109703115Y-108270800D01*
X109512639Y-108270800D01*
X109417400Y-108318420D01*
X109369781Y-108366039D01*
X109322162Y-108461277D01*
X109322162Y-108699372D01*
X109369781Y-108794610D01*
X109417400Y-108842229D01*
X109512639Y-108889848D01*
X109703115Y-108889848D01*
X109798353Y-108842229D01*
X109845972Y-108794610D01*
X109893591Y-108699372D01*
X110274543Y-108985086D02*
X110750734Y-108985086D01*
X110179305Y-109270800D02*
X110512639Y-108270800D01*
X110845972Y-109270800D01*
X111893591Y-108223181D02*
X111036448Y-109508896D01*
X112750734Y-109270800D02*
X112179305Y-109270800D01*
X112465020Y-109270800D02*
X112465020Y-108270800D01*
X112369781Y-108413658D01*
X112274543Y-108508896D01*
X112179305Y-108556515D01*
X113179305Y-109175562D02*
X113226924Y-109223181D01*
X113179305Y-109270800D01*
X113131686Y-109223181D01*
X113179305Y-109175562D01*
X113179305Y-109270800D01*
X113798353Y-108699372D02*
X113703115Y-108651753D01*
X113655496Y-108604134D01*
X113607877Y-108508896D01*
X113607877Y-108461277D01*
X113655496Y-108366039D01*
X113703115Y-108318420D01*
X113798353Y-108270800D01*
X113988829Y-108270800D01*
X114084067Y-108318420D01*
X114131686Y-108366039D01*
X114179305Y-108461277D01*
X114179305Y-108508896D01*
X114131686Y-108604134D01*
X114084067Y-108651753D01*
X113988829Y-108699372D01*
X113798353Y-108699372D01*
X113703115Y-108746991D01*
X113655496Y-108794610D01*
X113607877Y-108889848D01*
X113607877Y-109080324D01*
X113655496Y-109175562D01*
X113703115Y-109223181D01*
X113798353Y-109270800D01*
X113988829Y-109270800D01*
X114084067Y-109223181D01*
X114131686Y-109175562D01*
X114179305Y-109080324D01*
X114179305Y-108889848D01*
X114131686Y-108794610D01*
X114084067Y-108746991D01*
X113988829Y-108699372D01*
X114560258Y-108985086D02*
X115036448Y-108985086D01*
X114465020Y-109270800D02*
X114798353Y-108270800D01*
X115131686Y-109270800D01*
X100488829Y-123604134D02*
X100488829Y-124270800D01*
X100250734Y-123223181D02*
X100012639Y-123937467D01*
X100631686Y-123937467D01*
X101203115Y-123270800D02*
X101298353Y-123270800D01*
X101393591Y-123318420D01*
X101441210Y-123366039D01*
X101488829Y-123461277D01*
X101536448Y-123651753D01*
X101536448Y-123889848D01*
X101488829Y-124080324D01*
X101441210Y-124175562D01*
X101393591Y-124223181D01*
X101298353Y-124270800D01*
X101203115Y-124270800D01*
X101107877Y-124223181D01*
X101060258Y-124175562D01*
X101012639Y-124080324D01*
X100965020Y-123889848D01*
X100965020Y-123651753D01*
X101012639Y-123461277D01*
X101060258Y-123366039D01*
X101107877Y-123318420D01*
X101203115Y-123270800D01*
X102679305Y-123223181D02*
X101822162Y-124508896D01*
X103536448Y-124270800D02*
X102965020Y-124270800D01*
X103250734Y-124270800D02*
X103250734Y-123270800D01*
X103155496Y-123413658D01*
X103060258Y-123508896D01*
X102965020Y-123556515D01*
X103965020Y-124175562D02*
X104012639Y-124223181D01*
X103965020Y-124270800D01*
X103917400Y-124223181D01*
X103965020Y-124175562D01*
X103965020Y-124270800D01*
X104631686Y-123270800D02*
X104726924Y-123270800D01*
X104822162Y-123318420D01*
X104869781Y-123366039D01*
X104917400Y-123461277D01*
X104965020Y-123651753D01*
X104965020Y-123889848D01*
X104917400Y-124080324D01*
X104869781Y-124175562D01*
X104822162Y-124223181D01*
X104726924Y-124270800D01*
X104631686Y-124270800D01*
X104536448Y-124223181D01*
X104488829Y-124175562D01*
X104441210Y-124080324D01*
X104393591Y-123889848D01*
X104393591Y-123651753D01*
X104441210Y-123461277D01*
X104488829Y-123366039D01*
X104536448Y-123318420D01*
X104631686Y-123270800D01*
X105584067Y-123270800D02*
X105679305Y-123270800D01*
X105774543Y-123318420D01*
X105822162Y-123366039D01*
X105869781Y-123461277D01*
X105917400Y-123651753D01*
X105917400Y-123889848D01*
X105869781Y-124080324D01*
X105822162Y-124175562D01*
X105774543Y-124223181D01*
X105679305Y-124270800D01*
X105584067Y-124270800D01*
X105488829Y-124223181D01*
X105441210Y-124175562D01*
X105393591Y-124080324D01*
X105345972Y-123889848D01*
X105345972Y-123651753D01*
X105393591Y-123461277D01*
X105441210Y-123366039D01*
X105488829Y-123318420D01*
X105584067Y-123270800D01*
X99965020Y-121770800D02*
X100584067Y-121770800D01*
X100250734Y-122151753D01*
X100393591Y-122151753D01*
X100488829Y-122199372D01*
X100536448Y-122246991D01*
X100584067Y-122342229D01*
X100584067Y-122580324D01*
X100536448Y-122675562D01*
X100488829Y-122723181D01*
X100393591Y-122770800D01*
X100107877Y-122770800D01*
X100012639Y-122723181D01*
X99965020Y-122675562D01*
X100965020Y-121866039D02*
X101012639Y-121818420D01*
X101107877Y-121770800D01*
X101345972Y-121770800D01*
X101441210Y-121818420D01*
X101488829Y-121866039D01*
X101536448Y-121961277D01*
X101536448Y-122056515D01*
X101488829Y-122199372D01*
X100917400Y-122770800D01*
X101536448Y-122770800D01*
X102679305Y-121723181D02*
X101822162Y-123008896D01*
X103203115Y-121770800D02*
X103298353Y-121770800D01*
X103393591Y-121818420D01*
X103441210Y-121866039D01*
X103488829Y-121961277D01*
X103536448Y-122151753D01*
X103536448Y-122389848D01*
X103488829Y-122580324D01*
X103441210Y-122675562D01*
X103393591Y-122723181D01*
X103298353Y-122770800D01*
X103203115Y-122770800D01*
X103107877Y-122723181D01*
X103060258Y-122675562D01*
X103012639Y-122580324D01*
X102965020Y-122389848D01*
X102965020Y-122151753D01*
X103012639Y-121961277D01*
X103060258Y-121866039D01*
X103107877Y-121818420D01*
X103203115Y-121770800D01*
X103965020Y-122675562D02*
X104012639Y-122723181D01*
X103965020Y-122770800D01*
X103917400Y-122723181D01*
X103965020Y-122675562D01*
X103965020Y-122770800D01*
X104584067Y-122199372D02*
X104488829Y-122151753D01*
X104441210Y-122104134D01*
X104393591Y-122008896D01*
X104393591Y-121961277D01*
X104441210Y-121866039D01*
X104488829Y-121818420D01*
X104584067Y-121770800D01*
X104774543Y-121770800D01*
X104869781Y-121818420D01*
X104917400Y-121866039D01*
X104965020Y-121961277D01*
X104965020Y-122008896D01*
X104917400Y-122104134D01*
X104869781Y-122151753D01*
X104774543Y-122199372D01*
X104584067Y-122199372D01*
X104488829Y-122246991D01*
X104441210Y-122294610D01*
X104393591Y-122389848D01*
X104393591Y-122580324D01*
X104441210Y-122675562D01*
X104488829Y-122723181D01*
X104584067Y-122770800D01*
X104774543Y-122770800D01*
X104869781Y-122723181D01*
X104917400Y-122675562D01*
X104965020Y-122580324D01*
X104965020Y-122389848D01*
X104917400Y-122294610D01*
X104869781Y-122246991D01*
X104774543Y-122199372D01*
X105584067Y-121770800D02*
X105679305Y-121770800D01*
X105774543Y-121818420D01*
X105822162Y-121866039D01*
X105869781Y-121961277D01*
X105917400Y-122151753D01*
X105917400Y-122389848D01*
X105869781Y-122580324D01*
X105822162Y-122675562D01*
X105774543Y-122723181D01*
X105679305Y-122770800D01*
X105584067Y-122770800D01*
X105488829Y-122723181D01*
X105441210Y-122675562D01*
X105393591Y-122580324D01*
X105345972Y-122389848D01*
X105345972Y-122151753D01*
X105393591Y-121961277D01*
X105441210Y-121866039D01*
X105488829Y-121818420D01*
X105584067Y-121770800D01*
X99965020Y-120270800D02*
X100584067Y-120270800D01*
X100250734Y-120651753D01*
X100393591Y-120651753D01*
X100488829Y-120699372D01*
X100536448Y-120746991D01*
X100584067Y-120842229D01*
X100584067Y-121080324D01*
X100536448Y-121175562D01*
X100488829Y-121223181D01*
X100393591Y-121270800D01*
X100107877Y-121270800D01*
X100012639Y-121223181D01*
X99965020Y-121175562D01*
X101203115Y-120270800D02*
X101298353Y-120270800D01*
X101393591Y-120318420D01*
X101441210Y-120366039D01*
X101488829Y-120461277D01*
X101536448Y-120651753D01*
X101536448Y-120889848D01*
X101488829Y-121080324D01*
X101441210Y-121175562D01*
X101393591Y-121223181D01*
X101298353Y-121270800D01*
X101203115Y-121270800D01*
X101107877Y-121223181D01*
X101060258Y-121175562D01*
X101012639Y-121080324D01*
X100965020Y-120889848D01*
X100965020Y-120651753D01*
X101012639Y-120461277D01*
X101060258Y-120366039D01*
X101107877Y-120318420D01*
X101203115Y-120270800D01*
X102679305Y-120223181D02*
X101822162Y-121508896D01*
X103203115Y-120270800D02*
X103298353Y-120270800D01*
X103393591Y-120318420D01*
X103441210Y-120366039D01*
X103488829Y-120461277D01*
X103536448Y-120651753D01*
X103536448Y-120889848D01*
X103488829Y-121080324D01*
X103441210Y-121175562D01*
X103393591Y-121223181D01*
X103298353Y-121270800D01*
X103203115Y-121270800D01*
X103107877Y-121223181D01*
X103060258Y-121175562D01*
X103012639Y-121080324D01*
X102965020Y-120889848D01*
X102965020Y-120651753D01*
X103012639Y-120461277D01*
X103060258Y-120366039D01*
X103107877Y-120318420D01*
X103203115Y-120270800D01*
X103965020Y-121175562D02*
X104012639Y-121223181D01*
X103965020Y-121270800D01*
X103917400Y-121223181D01*
X103965020Y-121175562D01*
X103965020Y-121270800D01*
X104345972Y-120270800D02*
X105012639Y-120270800D01*
X104584067Y-121270800D01*
X105822162Y-120270800D02*
X105631686Y-120270800D01*
X105536448Y-120318420D01*
X105488829Y-120366039D01*
X105393591Y-120508896D01*
X105345972Y-120699372D01*
X105345972Y-121080324D01*
X105393591Y-121175562D01*
X105441210Y-121223181D01*
X105536448Y-121270800D01*
X105726924Y-121270800D01*
X105822162Y-121223181D01*
X105869781Y-121175562D01*
X105917400Y-121080324D01*
X105917400Y-120842229D01*
X105869781Y-120746991D01*
X105822162Y-120699372D01*
X105726924Y-120651753D01*
X105536448Y-120651753D01*
X105441210Y-120699372D01*
X105393591Y-120746991D01*
X105345972Y-120842229D01*
X100012639Y-118866039D02*
X100060258Y-118818420D01*
X100155496Y-118770800D01*
X100393591Y-118770800D01*
X100488829Y-118818420D01*
X100536448Y-118866039D01*
X100584067Y-118961277D01*
X100584067Y-119056515D01*
X100536448Y-119199372D01*
X99965020Y-119770800D01*
X100584067Y-119770800D01*
X101155496Y-119199372D02*
X101060258Y-119151753D01*
X101012639Y-119104134D01*
X100965020Y-119008896D01*
X100965020Y-118961277D01*
X101012639Y-118866039D01*
X101060258Y-118818420D01*
X101155496Y-118770800D01*
X101345972Y-118770800D01*
X101441210Y-118818420D01*
X101488829Y-118866039D01*
X101536448Y-118961277D01*
X101536448Y-119008896D01*
X101488829Y-119104134D01*
X101441210Y-119151753D01*
X101345972Y-119199372D01*
X101155496Y-119199372D01*
X101060258Y-119246991D01*
X101012639Y-119294610D01*
X100965020Y-119389848D01*
X100965020Y-119580324D01*
X101012639Y-119675562D01*
X101060258Y-119723181D01*
X101155496Y-119770800D01*
X101345972Y-119770800D01*
X101441210Y-119723181D01*
X101488829Y-119675562D01*
X101536448Y-119580324D01*
X101536448Y-119389848D01*
X101488829Y-119294610D01*
X101441210Y-119246991D01*
X101345972Y-119199372D01*
X102679305Y-118723181D02*
X101822162Y-120008896D01*
X103203115Y-118770800D02*
X103298353Y-118770800D01*
X103393591Y-118818420D01*
X103441210Y-118866039D01*
X103488829Y-118961277D01*
X103536448Y-119151753D01*
X103536448Y-119389848D01*
X103488829Y-119580324D01*
X103441210Y-119675562D01*
X103393591Y-119723181D01*
X103298353Y-119770800D01*
X103203115Y-119770800D01*
X103107877Y-119723181D01*
X103060258Y-119675562D01*
X103012639Y-119580324D01*
X102965020Y-119389848D01*
X102965020Y-119151753D01*
X103012639Y-118961277D01*
X103060258Y-118866039D01*
X103107877Y-118818420D01*
X103203115Y-118770800D01*
X103965020Y-119675562D02*
X104012639Y-119723181D01*
X103965020Y-119770800D01*
X103917400Y-119723181D01*
X103965020Y-119675562D01*
X103965020Y-119770800D01*
X104345972Y-118770800D02*
X105012639Y-118770800D01*
X104584067Y-119770800D01*
X105584067Y-118770800D02*
X105679305Y-118770800D01*
X105774543Y-118818420D01*
X105822162Y-118866039D01*
X105869781Y-118961277D01*
X105917400Y-119151753D01*
X105917400Y-119389848D01*
X105869781Y-119580324D01*
X105822162Y-119675562D01*
X105774543Y-119723181D01*
X105679305Y-119770800D01*
X105584067Y-119770800D01*
X105488829Y-119723181D01*
X105441210Y-119675562D01*
X105393591Y-119580324D01*
X105345972Y-119389848D01*
X105345972Y-119151753D01*
X105393591Y-118961277D01*
X105441210Y-118866039D01*
X105488829Y-118818420D01*
X105584067Y-118770800D01*
X100012639Y-117366039D02*
X100060258Y-117318420D01*
X100155496Y-117270800D01*
X100393591Y-117270800D01*
X100488829Y-117318420D01*
X100536448Y-117366039D01*
X100584067Y-117461277D01*
X100584067Y-117556515D01*
X100536448Y-117699372D01*
X99965020Y-118270800D01*
X100584067Y-118270800D01*
X101441210Y-117604134D02*
X101441210Y-118270800D01*
X101203115Y-117223181D02*
X100965020Y-117937467D01*
X101584067Y-117937467D01*
X102679305Y-117223181D02*
X101822162Y-118508896D01*
X103203115Y-117270800D02*
X103298353Y-117270800D01*
X103393591Y-117318420D01*
X103441210Y-117366039D01*
X103488829Y-117461277D01*
X103536448Y-117651753D01*
X103536448Y-117889848D01*
X103488829Y-118080324D01*
X103441210Y-118175562D01*
X103393591Y-118223181D01*
X103298353Y-118270800D01*
X103203115Y-118270800D01*
X103107877Y-118223181D01*
X103060258Y-118175562D01*
X103012639Y-118080324D01*
X102965020Y-117889848D01*
X102965020Y-117651753D01*
X103012639Y-117461277D01*
X103060258Y-117366039D01*
X103107877Y-117318420D01*
X103203115Y-117270800D01*
X103965020Y-118175562D02*
X104012639Y-118223181D01*
X103965020Y-118270800D01*
X103917400Y-118223181D01*
X103965020Y-118175562D01*
X103965020Y-118270800D01*
X104869781Y-117270800D02*
X104679305Y-117270800D01*
X104584067Y-117318420D01*
X104536448Y-117366039D01*
X104441210Y-117508896D01*
X104393591Y-117699372D01*
X104393591Y-118080324D01*
X104441210Y-118175562D01*
X104488829Y-118223181D01*
X104584067Y-118270800D01*
X104774543Y-118270800D01*
X104869781Y-118223181D01*
X104917400Y-118175562D01*
X104965020Y-118080324D01*
X104965020Y-117842229D01*
X104917400Y-117746991D01*
X104869781Y-117699372D01*
X104774543Y-117651753D01*
X104584067Y-117651753D01*
X104488829Y-117699372D01*
X104441210Y-117746991D01*
X104393591Y-117842229D01*
X105584067Y-117270800D02*
X105679305Y-117270800D01*
X105774543Y-117318420D01*
X105822162Y-117366039D01*
X105869781Y-117461277D01*
X105917400Y-117651753D01*
X105917400Y-117889848D01*
X105869781Y-118080324D01*
X105822162Y-118175562D01*
X105774543Y-118223181D01*
X105679305Y-118270800D01*
X105584067Y-118270800D01*
X105488829Y-118223181D01*
X105441210Y-118175562D01*
X105393591Y-118080324D01*
X105345972Y-117889848D01*
X105345972Y-117651753D01*
X105393591Y-117461277D01*
X105441210Y-117366039D01*
X105488829Y-117318420D01*
X105584067Y-117270800D01*
X100012639Y-115866039D02*
X100060258Y-115818420D01*
X100155496Y-115770800D01*
X100393591Y-115770800D01*
X100488829Y-115818420D01*
X100536448Y-115866039D01*
X100584067Y-115961277D01*
X100584067Y-116056515D01*
X100536448Y-116199372D01*
X99965020Y-116770800D01*
X100584067Y-116770800D01*
X101203115Y-115770800D02*
X101298353Y-115770800D01*
X101393591Y-115818420D01*
X101441210Y-115866039D01*
X101488829Y-115961277D01*
X101536448Y-116151753D01*
X101536448Y-116389848D01*
X101488829Y-116580324D01*
X101441210Y-116675562D01*
X101393591Y-116723181D01*
X101298353Y-116770800D01*
X101203115Y-116770800D01*
X101107877Y-116723181D01*
X101060258Y-116675562D01*
X101012639Y-116580324D01*
X100965020Y-116389848D01*
X100965020Y-116151753D01*
X101012639Y-115961277D01*
X101060258Y-115866039D01*
X101107877Y-115818420D01*
X101203115Y-115770800D01*
X102679305Y-115723181D02*
X101822162Y-117008896D01*
X103203115Y-115770800D02*
X103298353Y-115770800D01*
X103393591Y-115818420D01*
X103441210Y-115866039D01*
X103488829Y-115961277D01*
X103536448Y-116151753D01*
X103536448Y-116389848D01*
X103488829Y-116580324D01*
X103441210Y-116675562D01*
X103393591Y-116723181D01*
X103298353Y-116770800D01*
X103203115Y-116770800D01*
X103107877Y-116723181D01*
X103060258Y-116675562D01*
X103012639Y-116580324D01*
X102965020Y-116389848D01*
X102965020Y-116151753D01*
X103012639Y-115961277D01*
X103060258Y-115866039D01*
X103107877Y-115818420D01*
X103203115Y-115770800D01*
X103965020Y-116675562D02*
X104012639Y-116723181D01*
X103965020Y-116770800D01*
X103917400Y-116723181D01*
X103965020Y-116675562D01*
X103965020Y-116770800D01*
X104917400Y-115770800D02*
X104441210Y-115770800D01*
X104393591Y-116246991D01*
X104441210Y-116199372D01*
X104536448Y-116151753D01*
X104774543Y-116151753D01*
X104869781Y-116199372D01*
X104917400Y-116246991D01*
X104965020Y-116342229D01*
X104965020Y-116580324D01*
X104917400Y-116675562D01*
X104869781Y-116723181D01*
X104774543Y-116770800D01*
X104536448Y-116770800D01*
X104441210Y-116723181D01*
X104393591Y-116675562D01*
X105584067Y-115770800D02*
X105679305Y-115770800D01*
X105774543Y-115818420D01*
X105822162Y-115866039D01*
X105869781Y-115961277D01*
X105917400Y-116151753D01*
X105917400Y-116389848D01*
X105869781Y-116580324D01*
X105822162Y-116675562D01*
X105774543Y-116723181D01*
X105679305Y-116770800D01*
X105584067Y-116770800D01*
X105488829Y-116723181D01*
X105441210Y-116675562D01*
X105393591Y-116580324D01*
X105345972Y-116389848D01*
X105345972Y-116151753D01*
X105393591Y-115961277D01*
X105441210Y-115866039D01*
X105488829Y-115818420D01*
X105584067Y-115770800D01*
X100584067Y-115270800D02*
X100012639Y-115270800D01*
X100298353Y-115270800D02*
X100298353Y-114270800D01*
X100203115Y-114413658D01*
X100107877Y-114508896D01*
X100012639Y-114556515D01*
X101155496Y-114699372D02*
X101060258Y-114651753D01*
X101012639Y-114604134D01*
X100965020Y-114508896D01*
X100965020Y-114461277D01*
X101012639Y-114366039D01*
X101060258Y-114318420D01*
X101155496Y-114270800D01*
X101345972Y-114270800D01*
X101441210Y-114318420D01*
X101488829Y-114366039D01*
X101536448Y-114461277D01*
X101536448Y-114508896D01*
X101488829Y-114604134D01*
X101441210Y-114651753D01*
X101345972Y-114699372D01*
X101155496Y-114699372D01*
X101060258Y-114746991D01*
X101012639Y-114794610D01*
X100965020Y-114889848D01*
X100965020Y-115080324D01*
X101012639Y-115175562D01*
X101060258Y-115223181D01*
X101155496Y-115270800D01*
X101345972Y-115270800D01*
X101441210Y-115223181D01*
X101488829Y-115175562D01*
X101536448Y-115080324D01*
X101536448Y-114889848D01*
X101488829Y-114794610D01*
X101441210Y-114746991D01*
X101345972Y-114699372D01*
X102679305Y-114223181D02*
X101822162Y-115508896D01*
X103203115Y-114270800D02*
X103298353Y-114270800D01*
X103393591Y-114318420D01*
X103441210Y-114366039D01*
X103488829Y-114461277D01*
X103536448Y-114651753D01*
X103536448Y-114889848D01*
X103488829Y-115080324D01*
X103441210Y-115175562D01*
X103393591Y-115223181D01*
X103298353Y-115270800D01*
X103203115Y-115270800D01*
X103107877Y-115223181D01*
X103060258Y-115175562D01*
X103012639Y-115080324D01*
X102965020Y-114889848D01*
X102965020Y-114651753D01*
X103012639Y-114461277D01*
X103060258Y-114366039D01*
X103107877Y-114318420D01*
X103203115Y-114270800D01*
X103965020Y-115175562D02*
X104012639Y-115223181D01*
X103965020Y-115270800D01*
X103917400Y-115223181D01*
X103965020Y-115175562D01*
X103965020Y-115270800D01*
X104869781Y-114604134D02*
X104869781Y-115270800D01*
X104631686Y-114223181D02*
X104393591Y-114937467D01*
X105012639Y-114937467D01*
X105869781Y-114270800D02*
X105393591Y-114270800D01*
X105345972Y-114746991D01*
X105393591Y-114699372D01*
X105488829Y-114651753D01*
X105726924Y-114651753D01*
X105822162Y-114699372D01*
X105869781Y-114746991D01*
X105917400Y-114842229D01*
X105917400Y-115080324D01*
X105869781Y-115175562D01*
X105822162Y-115223181D01*
X105726924Y-115270800D01*
X105488829Y-115270800D01*
X105393591Y-115223181D01*
X105345972Y-115175562D01*
X100584067Y-113770800D02*
X100012639Y-113770800D01*
X100298353Y-113770800D02*
X100298353Y-112770800D01*
X100203115Y-112913658D01*
X100107877Y-113008896D01*
X100012639Y-113056515D01*
X101441210Y-112770800D02*
X101250734Y-112770800D01*
X101155496Y-112818420D01*
X101107877Y-112866039D01*
X101012639Y-113008896D01*
X100965020Y-113199372D01*
X100965020Y-113580324D01*
X101012639Y-113675562D01*
X101060258Y-113723181D01*
X101155496Y-113770800D01*
X101345972Y-113770800D01*
X101441210Y-113723181D01*
X101488829Y-113675562D01*
X101536448Y-113580324D01*
X101536448Y-113342229D01*
X101488829Y-113246991D01*
X101441210Y-113199372D01*
X101345972Y-113151753D01*
X101155496Y-113151753D01*
X101060258Y-113199372D01*
X101012639Y-113246991D01*
X100965020Y-113342229D01*
X102679305Y-112723181D02*
X101822162Y-114008896D01*
X103203115Y-112770800D02*
X103298353Y-112770800D01*
X103393591Y-112818420D01*
X103441210Y-112866039D01*
X103488829Y-112961277D01*
X103536448Y-113151753D01*
X103536448Y-113389848D01*
X103488829Y-113580324D01*
X103441210Y-113675562D01*
X103393591Y-113723181D01*
X103298353Y-113770800D01*
X103203115Y-113770800D01*
X103107877Y-113723181D01*
X103060258Y-113675562D01*
X103012639Y-113580324D01*
X102965020Y-113389848D01*
X102965020Y-113151753D01*
X103012639Y-112961277D01*
X103060258Y-112866039D01*
X103107877Y-112818420D01*
X103203115Y-112770800D01*
X103965020Y-113675562D02*
X104012639Y-113723181D01*
X103965020Y-113770800D01*
X103917400Y-113723181D01*
X103965020Y-113675562D01*
X103965020Y-113770800D01*
X104869781Y-113104134D02*
X104869781Y-113770800D01*
X104631686Y-112723181D02*
X104393591Y-113437467D01*
X105012639Y-113437467D01*
X105584067Y-112770800D02*
X105679305Y-112770800D01*
X105774543Y-112818420D01*
X105822162Y-112866039D01*
X105869781Y-112961277D01*
X105917400Y-113151753D01*
X105917400Y-113389848D01*
X105869781Y-113580324D01*
X105822162Y-113675562D01*
X105774543Y-113723181D01*
X105679305Y-113770800D01*
X105584067Y-113770800D01*
X105488829Y-113723181D01*
X105441210Y-113675562D01*
X105393591Y-113580324D01*
X105345972Y-113389848D01*
X105345972Y-113151753D01*
X105393591Y-112961277D01*
X105441210Y-112866039D01*
X105488829Y-112818420D01*
X105584067Y-112770800D01*
X100584067Y-112270800D02*
X100012639Y-112270800D01*
X100298353Y-112270800D02*
X100298353Y-111270800D01*
X100203115Y-111413658D01*
X100107877Y-111508896D01*
X100012639Y-111556515D01*
X101441210Y-111604134D02*
X101441210Y-112270800D01*
X101203115Y-111223181D02*
X100965020Y-111937467D01*
X101584067Y-111937467D01*
X102679305Y-111223181D02*
X101822162Y-112508896D01*
X103203115Y-111270800D02*
X103298353Y-111270800D01*
X103393591Y-111318420D01*
X103441210Y-111366039D01*
X103488829Y-111461277D01*
X103536448Y-111651753D01*
X103536448Y-111889848D01*
X103488829Y-112080324D01*
X103441210Y-112175562D01*
X103393591Y-112223181D01*
X103298353Y-112270800D01*
X103203115Y-112270800D01*
X103107877Y-112223181D01*
X103060258Y-112175562D01*
X103012639Y-112080324D01*
X102965020Y-111889848D01*
X102965020Y-111651753D01*
X103012639Y-111461277D01*
X103060258Y-111366039D01*
X103107877Y-111318420D01*
X103203115Y-111270800D01*
X103965020Y-112175562D02*
X104012639Y-112223181D01*
X103965020Y-112270800D01*
X103917400Y-112223181D01*
X103965020Y-112175562D01*
X103965020Y-112270800D01*
X104345972Y-111270800D02*
X104965020Y-111270800D01*
X104631686Y-111651753D01*
X104774543Y-111651753D01*
X104869781Y-111699372D01*
X104917400Y-111746991D01*
X104965020Y-111842229D01*
X104965020Y-112080324D01*
X104917400Y-112175562D01*
X104869781Y-112223181D01*
X104774543Y-112270800D01*
X104488829Y-112270800D01*
X104393591Y-112223181D01*
X104345972Y-112175562D01*
X105869781Y-111270800D02*
X105393591Y-111270800D01*
X105345972Y-111746991D01*
X105393591Y-111699372D01*
X105488829Y-111651753D01*
X105726924Y-111651753D01*
X105822162Y-111699372D01*
X105869781Y-111746991D01*
X105917400Y-111842229D01*
X105917400Y-112080324D01*
X105869781Y-112175562D01*
X105822162Y-112223181D01*
X105726924Y-112270800D01*
X105488829Y-112270800D01*
X105393591Y-112223181D01*
X105345972Y-112175562D01*
X100584067Y-110770800D02*
X100012639Y-110770800D01*
X100298353Y-110770800D02*
X100298353Y-109770800D01*
X100203115Y-109913658D01*
X100107877Y-110008896D01*
X100012639Y-110056515D01*
X100965020Y-109866039D02*
X101012639Y-109818420D01*
X101107877Y-109770800D01*
X101345972Y-109770800D01*
X101441210Y-109818420D01*
X101488829Y-109866039D01*
X101536448Y-109961277D01*
X101536448Y-110056515D01*
X101488829Y-110199372D01*
X100917400Y-110770800D01*
X101536448Y-110770800D01*
X102679305Y-109723181D02*
X101822162Y-111008896D01*
X103203115Y-109770800D02*
X103298353Y-109770800D01*
X103393591Y-109818420D01*
X103441210Y-109866039D01*
X103488829Y-109961277D01*
X103536448Y-110151753D01*
X103536448Y-110389848D01*
X103488829Y-110580324D01*
X103441210Y-110675562D01*
X103393591Y-110723181D01*
X103298353Y-110770800D01*
X103203115Y-110770800D01*
X103107877Y-110723181D01*
X103060258Y-110675562D01*
X103012639Y-110580324D01*
X102965020Y-110389848D01*
X102965020Y-110151753D01*
X103012639Y-109961277D01*
X103060258Y-109866039D01*
X103107877Y-109818420D01*
X103203115Y-109770800D01*
X103965020Y-110675562D02*
X104012639Y-110723181D01*
X103965020Y-110770800D01*
X103917400Y-110723181D01*
X103965020Y-110675562D01*
X103965020Y-110770800D01*
X104345972Y-109770800D02*
X104965020Y-109770800D01*
X104631686Y-110151753D01*
X104774543Y-110151753D01*
X104869781Y-110199372D01*
X104917400Y-110246991D01*
X104965020Y-110342229D01*
X104965020Y-110580324D01*
X104917400Y-110675562D01*
X104869781Y-110723181D01*
X104774543Y-110770800D01*
X104488829Y-110770800D01*
X104393591Y-110723181D01*
X104345972Y-110675562D01*
X105584067Y-109770800D02*
X105679305Y-109770800D01*
X105774543Y-109818420D01*
X105822162Y-109866039D01*
X105869781Y-109961277D01*
X105917400Y-110151753D01*
X105917400Y-110389848D01*
X105869781Y-110580324D01*
X105822162Y-110675562D01*
X105774543Y-110723181D01*
X105679305Y-110770800D01*
X105584067Y-110770800D01*
X105488829Y-110723181D01*
X105441210Y-110675562D01*
X105393591Y-110580324D01*
X105345972Y-110389848D01*
X105345972Y-110151753D01*
X105393591Y-109961277D01*
X105441210Y-109866039D01*
X105488829Y-109818420D01*
X105584067Y-109770800D01*
X100584067Y-109270800D02*
X100012639Y-109270800D01*
X100298353Y-109270800D02*
X100298353Y-108270800D01*
X100203115Y-108413658D01*
X100107877Y-108508896D01*
X100012639Y-108556515D01*
X101203115Y-108270800D02*
X101298353Y-108270800D01*
X101393591Y-108318420D01*
X101441210Y-108366039D01*
X101488829Y-108461277D01*
X101536448Y-108651753D01*
X101536448Y-108889848D01*
X101488829Y-109080324D01*
X101441210Y-109175562D01*
X101393591Y-109223181D01*
X101298353Y-109270800D01*
X101203115Y-109270800D01*
X101107877Y-109223181D01*
X101060258Y-109175562D01*
X101012639Y-109080324D01*
X100965020Y-108889848D01*
X100965020Y-108651753D01*
X101012639Y-108461277D01*
X101060258Y-108366039D01*
X101107877Y-108318420D01*
X101203115Y-108270800D01*
X102679305Y-108223181D02*
X101822162Y-109508896D01*
X103203115Y-108270800D02*
X103298353Y-108270800D01*
X103393591Y-108318420D01*
X103441210Y-108366039D01*
X103488829Y-108461277D01*
X103536448Y-108651753D01*
X103536448Y-108889848D01*
X103488829Y-109080324D01*
X103441210Y-109175562D01*
X103393591Y-109223181D01*
X103298353Y-109270800D01*
X103203115Y-109270800D01*
X103107877Y-109223181D01*
X103060258Y-109175562D01*
X103012639Y-109080324D01*
X102965020Y-108889848D01*
X102965020Y-108651753D01*
X103012639Y-108461277D01*
X103060258Y-108366039D01*
X103107877Y-108318420D01*
X103203115Y-108270800D01*
X103965020Y-109175562D02*
X104012639Y-109223181D01*
X103965020Y-109270800D01*
X103917400Y-109223181D01*
X103965020Y-109175562D01*
X103965020Y-109270800D01*
X104393591Y-108366039D02*
X104441210Y-108318420D01*
X104536448Y-108270800D01*
X104774543Y-108270800D01*
X104869781Y-108318420D01*
X104917400Y-108366039D01*
X104965020Y-108461277D01*
X104965020Y-108556515D01*
X104917400Y-108699372D01*
X104345972Y-109270800D01*
X104965020Y-109270800D01*
X105869781Y-108270800D02*
X105393591Y-108270800D01*
X105345972Y-108746991D01*
X105393591Y-108699372D01*
X105488829Y-108651753D01*
X105726924Y-108651753D01*
X105822162Y-108699372D01*
X105869781Y-108746991D01*
X105917400Y-108842229D01*
X105917400Y-109080324D01*
X105869781Y-109175562D01*
X105822162Y-109223181D01*
X105726924Y-109270800D01*
X105488829Y-109270800D01*
X105393591Y-109223181D01*
X105345972Y-109175562D01*
X101179305Y-107199372D02*
X101084067Y-107151753D01*
X101036448Y-107104134D01*
X100988829Y-107008896D01*
X100988829Y-106961277D01*
X101036448Y-106866039D01*
X101084067Y-106818420D01*
X101179305Y-106770800D01*
X101369781Y-106770800D01*
X101465020Y-106818420D01*
X101512639Y-106866039D01*
X101560258Y-106961277D01*
X101560258Y-107008896D01*
X101512639Y-107104134D01*
X101465020Y-107151753D01*
X101369781Y-107199372D01*
X101179305Y-107199372D01*
X101084067Y-107246991D01*
X101036448Y-107294610D01*
X100988829Y-107389848D01*
X100988829Y-107580324D01*
X101036448Y-107675562D01*
X101084067Y-107723181D01*
X101179305Y-107770800D01*
X101369781Y-107770800D01*
X101465020Y-107723181D01*
X101512639Y-107675562D01*
X101560258Y-107580324D01*
X101560258Y-107389848D01*
X101512639Y-107294610D01*
X101465020Y-107246991D01*
X101369781Y-107199372D01*
X102703115Y-106723181D02*
X101845972Y-108008896D01*
X103226924Y-106770800D02*
X103322162Y-106770800D01*
X103417400Y-106818420D01*
X103465020Y-106866039D01*
X103512639Y-106961277D01*
X103560258Y-107151753D01*
X103560258Y-107389848D01*
X103512639Y-107580324D01*
X103465020Y-107675562D01*
X103417400Y-107723181D01*
X103322162Y-107770800D01*
X103226924Y-107770800D01*
X103131686Y-107723181D01*
X103084067Y-107675562D01*
X103036448Y-107580324D01*
X102988829Y-107389848D01*
X102988829Y-107151753D01*
X103036448Y-106961277D01*
X103084067Y-106866039D01*
X103131686Y-106818420D01*
X103226924Y-106770800D01*
X103988829Y-107675562D02*
X104036448Y-107723181D01*
X103988829Y-107770800D01*
X103941210Y-107723181D01*
X103988829Y-107675562D01*
X103988829Y-107770800D01*
X104417400Y-106866039D02*
X104465020Y-106818420D01*
X104560258Y-106770800D01*
X104798353Y-106770800D01*
X104893591Y-106818420D01*
X104941210Y-106866039D01*
X104988829Y-106961277D01*
X104988829Y-107056515D01*
X104941210Y-107199372D01*
X104369781Y-107770800D01*
X104988829Y-107770800D01*
X105607877Y-106770800D02*
X105703115Y-106770800D01*
X105798353Y-106818420D01*
X105845972Y-106866039D01*
X105893591Y-106961277D01*
X105941210Y-107151753D01*
X105941210Y-107389848D01*
X105893591Y-107580324D01*
X105845972Y-107675562D01*
X105798353Y-107723181D01*
X105703115Y-107770800D01*
X105607877Y-107770800D01*
X105512639Y-107723181D01*
X105465020Y-107675562D01*
X105417400Y-107580324D01*
X105369781Y-107389848D01*
X105369781Y-107151753D01*
X105417400Y-106961277D01*
X105465020Y-106866039D01*
X105512639Y-106818420D01*
X105607877Y-106770800D01*
X100179305Y-104020800D02*
X100179305Y-103354134D01*
X100179305Y-103449372D02*
X100226924Y-103401753D01*
X100322162Y-103354134D01*
X100465020Y-103354134D01*
X100560258Y-103401753D01*
X100607877Y-103496991D01*
X100607877Y-104020800D01*
X100607877Y-103496991D02*
X100655496Y-103401753D01*
X100750734Y-103354134D01*
X100893591Y-103354134D01*
X100988829Y-103401753D01*
X101036448Y-103496991D01*
X101036448Y-104020800D01*
X101512639Y-104020800D02*
X101512639Y-103354134D01*
X101512639Y-103020800D02*
X101465020Y-103068420D01*
X101512639Y-103116039D01*
X101560258Y-103068420D01*
X101512639Y-103020800D01*
X101512639Y-103116039D01*
X102131686Y-104020800D02*
X102036448Y-103973181D01*
X101988829Y-103877943D01*
X101988829Y-103020800D01*
X103226924Y-102973181D02*
X102369781Y-104258896D01*
X103560258Y-104020800D02*
X103560258Y-103354134D01*
X103560258Y-103449372D02*
X103607877Y-103401753D01*
X103703115Y-103354134D01*
X103845972Y-103354134D01*
X103941210Y-103401753D01*
X103988829Y-103496991D01*
X103988829Y-104020800D01*
X103988829Y-103496991D02*
X104036448Y-103401753D01*
X104131686Y-103354134D01*
X104274543Y-103354134D01*
X104369781Y-103401753D01*
X104417400Y-103496991D01*
X104417400Y-104020800D01*
X104893591Y-104020800D02*
X104893591Y-103354134D01*
X104893591Y-103449372D02*
X104941210Y-103401753D01*
X105036448Y-103354134D01*
X105179305Y-103354134D01*
X105274543Y-103401753D01*
X105322162Y-103496991D01*
X105322162Y-104020800D01*
X105322162Y-103496991D02*
X105369781Y-103401753D01*
X105465020Y-103354134D01*
X105607877Y-103354134D01*
X105703115Y-103401753D01*
X105750734Y-103496991D01*
X105750734Y-104020800D01*
X101465020Y-105270800D02*
X101274543Y-105270800D01*
X101179305Y-105318420D01*
X101131686Y-105366039D01*
X101036448Y-105508896D01*
X100988829Y-105699372D01*
X100988829Y-106080324D01*
X101036448Y-106175562D01*
X101084067Y-106223181D01*
X101179305Y-106270800D01*
X101369781Y-106270800D01*
X101465020Y-106223181D01*
X101512639Y-106175562D01*
X101560258Y-106080324D01*
X101560258Y-105842229D01*
X101512639Y-105746991D01*
X101465020Y-105699372D01*
X101369781Y-105651753D01*
X101179305Y-105651753D01*
X101084067Y-105699372D01*
X101036448Y-105746991D01*
X100988829Y-105842229D01*
X102703115Y-105223181D02*
X101845972Y-106508896D01*
X103226924Y-105270800D02*
X103322162Y-105270800D01*
X103417400Y-105318420D01*
X103465020Y-105366039D01*
X103512639Y-105461277D01*
X103560258Y-105651753D01*
X103560258Y-105889848D01*
X103512639Y-106080324D01*
X103465020Y-106175562D01*
X103417400Y-106223181D01*
X103322162Y-106270800D01*
X103226924Y-106270800D01*
X103131686Y-106223181D01*
X103084067Y-106175562D01*
X103036448Y-106080324D01*
X102988829Y-105889848D01*
X102988829Y-105651753D01*
X103036448Y-105461277D01*
X103084067Y-105366039D01*
X103131686Y-105318420D01*
X103226924Y-105270800D01*
X103988829Y-106175562D02*
X104036448Y-106223181D01*
X103988829Y-106270800D01*
X103941210Y-106223181D01*
X103988829Y-106175562D01*
X103988829Y-106270800D01*
X104988829Y-106270800D02*
X104417400Y-106270800D01*
X104703115Y-106270800D02*
X104703115Y-105270800D01*
X104607877Y-105413658D01*
X104512639Y-105508896D01*
X104417400Y-105556515D01*
X105893591Y-105270800D02*
X105417400Y-105270800D01*
X105369781Y-105746991D01*
X105417400Y-105699372D01*
X105512639Y-105651753D01*
X105750734Y-105651753D01*
X105845972Y-105699372D01*
X105893591Y-105746991D01*
X105941210Y-105842229D01*
X105941210Y-106080324D01*
X105893591Y-106175562D01*
X105845972Y-106223181D01*
X105750734Y-106270800D01*
X105512639Y-106270800D01*
X105417400Y-106223181D01*
X105369781Y-106175562D01*
D11*
X87801400Y-102318420D02*
X87801400Y-125327600D01*
D13*
X117800000Y-126400000D02*
G75*
G03X117800000Y-126400000I-700000J0D01*
G01*
D11*
X175850000Y-105200000D02*
G75*
G03X175850000Y-105200000I-850000J0D01*
G01*
D13*
X125615000Y-118390000D02*
X125140000Y-118390000D01*
X130360000Y-123610000D02*
X130360000Y-123135000D01*
X129885000Y-123610000D02*
X130360000Y-123610000D01*
X125140000Y-123610000D02*
X125140000Y-123135000D01*
X125615000Y-123610000D02*
X125140000Y-123610000D01*
X130360000Y-118390000D02*
X130360000Y-118865000D01*
X129885000Y-118390000D02*
X130360000Y-118390000D01*
X140865000Y-118340000D02*
X139890000Y-118340000D01*
X144110000Y-122560000D02*
X144110000Y-121585000D01*
X143135000Y-122560000D02*
X144110000Y-122560000D01*
X139890000Y-122560000D02*
X139890000Y-121585000D01*
X140865000Y-122560000D02*
X139890000Y-122560000D01*
X144110000Y-118340000D02*
X144110000Y-119315000D01*
X143135000Y-118340000D02*
X144110000Y-118340000D01*
X168900000Y-106390000D02*
X166450000Y-106390000D01*
X167100000Y-109610000D02*
X168900000Y-109610000D01*
X151800000Y-112900000D02*
X149500000Y-112900000D01*
X150200000Y-116100000D02*
X151800000Y-116100000D01*
X138240000Y-107140000D02*
X136925000Y-107140000D01*
X138240000Y-106690000D02*
X138240000Y-107140000D01*
X138690000Y-106690000D02*
X138240000Y-106690000D01*
X143460000Y-106690000D02*
X143460000Y-107140000D01*
X143010000Y-106690000D02*
X143460000Y-106690000D01*
X138240000Y-111910000D02*
X138240000Y-111460000D01*
X138690000Y-111910000D02*
X138240000Y-111910000D01*
X143460000Y-111910000D02*
X143460000Y-111460000D01*
X143010000Y-111910000D02*
X143460000Y-111910000D01*
X157850000Y-114480000D02*
X157190000Y-114480000D01*
X159510000Y-114480000D02*
X158850000Y-114480000D01*
X159510000Y-114480000D02*
X159510000Y-112450000D01*
X157190000Y-113070000D02*
X157190000Y-114480000D01*
X161780000Y-109700000D02*
X161780000Y-110900000D01*
X161780000Y-110900000D02*
X159080000Y-110900000D01*
X157780000Y-106100000D02*
X161780000Y-106100000D01*
X161780000Y-106100000D02*
X161780000Y-107300000D01*
D10*
X137650000Y-118300000D02*
X137650000Y-118925000D01*
X133350000Y-122600000D02*
X133350000Y-121975000D01*
X137650000Y-122600000D02*
X137650000Y-121975000D01*
X133350000Y-118300000D02*
X133975000Y-118300000D01*
X133350000Y-122600000D02*
X133975000Y-122600000D01*
X137650000Y-122600000D02*
X137025000Y-122600000D01*
X137650000Y-118300000D02*
X137025000Y-118300000D01*
X126325000Y-106725000D02*
X126325000Y-106950000D01*
X133575000Y-106725000D02*
X133575000Y-107050000D01*
X133575000Y-113975000D02*
X133575000Y-113650000D01*
X126325000Y-113975000D02*
X126325000Y-113650000D01*
X126325000Y-106725000D02*
X126650000Y-106725000D01*
X126325000Y-113975000D02*
X126650000Y-113975000D01*
X133575000Y-113975000D02*
X133250000Y-113975000D01*
X133575000Y-106725000D02*
X133250000Y-106725000D01*
X126325000Y-106950000D02*
X124900000Y-106950000D01*
X148925000Y-105425000D02*
X148925000Y-105475000D01*
X153075000Y-105425000D02*
X153075000Y-105570000D01*
X153075000Y-110575000D02*
X153075000Y-110430000D01*
X148925000Y-110575000D02*
X148925000Y-110430000D01*
X148925000Y-105425000D02*
X153075000Y-105425000D01*
X148925000Y-110575000D02*
X153075000Y-110575000D01*
X148925000Y-105475000D02*
X147525000Y-105475000D01*
D13*
X169360000Y-115580000D02*
X169360000Y-114650000D01*
X169360000Y-112420000D02*
X169360000Y-113350000D01*
X169360000Y-112420000D02*
X167200000Y-112420000D01*
X169360000Y-115580000D02*
X167900000Y-115580000D01*
X163510000Y-124160000D02*
X163510000Y-122900000D01*
X163510000Y-117340000D02*
X163510000Y-118600000D01*
X159750000Y-124160000D02*
X163510000Y-124160000D01*
X157500000Y-117340000D02*
X163510000Y-117340000D01*
X168850000Y-119250000D02*
X167150000Y-119250000D01*
X167150000Y-119250000D02*
X167150000Y-121800000D01*
X168850000Y-119250000D02*
X168850000Y-121800000D01*
D10*
X148800000Y-123975000D02*
X153200000Y-123975000D01*
X147225000Y-118450000D02*
X153200000Y-118450000D01*
X173836904Y-127689525D02*
X173836904Y-128146668D01*
X173836904Y-127918097D02*
X173036904Y-127918097D01*
X173151190Y-127994287D01*
X173227380Y-128070477D01*
X173265476Y-128146668D01*
X172998809Y-126775239D02*
X174027380Y-127460954D01*
X173379761Y-126394287D02*
X173341666Y-126470477D01*
X173303571Y-126508573D01*
X173227380Y-126546668D01*
X173189285Y-126546668D01*
X173113095Y-126508573D01*
X173075000Y-126470477D01*
X173036904Y-126394287D01*
X173036904Y-126241906D01*
X173075000Y-126165716D01*
X173113095Y-126127620D01*
X173189285Y-126089525D01*
X173227380Y-126089525D01*
X173303571Y-126127620D01*
X173341666Y-126165716D01*
X173379761Y-126241906D01*
X173379761Y-126394287D01*
X173417857Y-126470477D01*
X173455952Y-126508573D01*
X173532142Y-126546668D01*
X173684523Y-126546668D01*
X173760714Y-126508573D01*
X173798809Y-126470477D01*
X173836904Y-126394287D01*
X173836904Y-126241906D01*
X173798809Y-126165716D01*
X173760714Y-126127620D01*
X173684523Y-126089525D01*
X173532142Y-126089525D01*
X173455952Y-126127620D01*
X173417857Y-126165716D01*
X173379761Y-126241906D01*
X178607024Y-128427620D02*
X178607024Y-128884763D01*
X178607024Y-128656192D02*
X177807024Y-128656192D01*
X177921310Y-128732382D01*
X177997500Y-128808573D01*
X178035596Y-128884763D01*
X177768929Y-127513335D02*
X178797500Y-128199049D01*
X178607024Y-126827620D02*
X178607024Y-127284763D01*
X178607024Y-127056192D02*
X177807024Y-127056192D01*
X177921310Y-127132382D01*
X177997500Y-127208573D01*
X178035596Y-127284763D01*
X177807024Y-126141906D02*
X177807024Y-126294287D01*
X177845120Y-126370478D01*
X177883215Y-126408573D01*
X177997500Y-126484763D01*
X178149881Y-126522859D01*
X178454643Y-126522859D01*
X178530834Y-126484763D01*
X178568929Y-126446668D01*
X178607024Y-126370478D01*
X178607024Y-126218097D01*
X178568929Y-126141906D01*
X178530834Y-126103811D01*
X178454643Y-126065716D01*
X178264167Y-126065716D01*
X178187977Y-126103811D01*
X178149881Y-126141906D01*
X178111786Y-126218097D01*
X178111786Y-126370478D01*
X178149881Y-126446668D01*
X178187977Y-126484763D01*
X178264167Y-126522859D01*
D12*
X106385600Y-127899882D02*
X105457028Y-127899882D01*
X105957028Y-127328454D01*
X105742742Y-127328454D01*
X105599885Y-127257025D01*
X105528457Y-127185596D01*
X105457028Y-127042739D01*
X105457028Y-126685596D01*
X105528457Y-126542739D01*
X105599885Y-126471311D01*
X105742742Y-126399882D01*
X106171314Y-126399882D01*
X106314171Y-126471311D01*
X106385600Y-126542739D01*
X131714171Y-127757025D02*
X131642742Y-127828454D01*
X131499885Y-127899882D01*
X131142742Y-127899882D01*
X130999885Y-127828454D01*
X130928457Y-127757025D01*
X130857028Y-127614168D01*
X130857028Y-127471311D01*
X130928457Y-127257025D01*
X131785600Y-126399882D01*
X130857028Y-126399882D01*
X156257028Y-126399882D02*
X157114171Y-126399882D01*
X156685600Y-126399882D02*
X156685600Y-127899882D01*
X156828457Y-127685596D01*
X156971314Y-127542739D01*
X157114171Y-127471311D01*
X182157028Y-127899882D02*
X182014171Y-127899882D01*
X181871314Y-127828454D01*
X181799885Y-127757025D01*
X181728457Y-127614168D01*
X181657028Y-127328454D01*
X181657028Y-126971311D01*
X181728457Y-126685596D01*
X181799885Y-126542739D01*
X181871314Y-126471311D01*
X182014171Y-126399882D01*
X182157028Y-126399882D01*
X182299885Y-126471311D01*
X182371314Y-126542739D01*
X182442742Y-126685596D01*
X182514171Y-126971311D01*
X182514171Y-127328454D01*
X182442742Y-127614168D01*
X182371314Y-127757025D01*
X182299885Y-127828454D01*
X182157028Y-127899882D01*
X87928571Y-99678571D02*
X88071428Y-99678571D01*
X88214285Y-99750000D01*
X88285714Y-99821428D01*
X88357142Y-99964285D01*
X88428571Y-100250000D01*
X88428571Y-100607142D01*
X88357142Y-100892857D01*
X88285714Y-101035714D01*
X88214285Y-101107142D01*
X88071428Y-101178571D01*
X87928571Y-101178571D01*
X87785714Y-101107142D01*
X87714285Y-101035714D01*
X87642857Y-100892857D01*
X87571428Y-100607142D01*
X87571428Y-100250000D01*
X87642857Y-99964285D01*
X87714285Y-99821428D01*
X87785714Y-99750000D01*
X87928571Y-99678571D01*
X98428571Y-101178571D02*
X97571428Y-101178571D01*
X98000000Y-101178571D02*
X98000000Y-99678571D01*
X97857142Y-99892857D01*
X97714285Y-100035714D01*
X97571428Y-100107142D01*
X107571428Y-99821428D02*
X107642857Y-99750000D01*
X107785714Y-99678571D01*
X108142857Y-99678571D01*
X108285714Y-99750000D01*
X108357142Y-99821428D01*
X108428571Y-99964285D01*
X108428571Y-100107142D01*
X108357142Y-100321428D01*
X107500000Y-101178571D01*
X108428571Y-101178571D01*
X117500000Y-99678571D02*
X118428571Y-99678571D01*
X117928571Y-100250000D01*
X118142857Y-100250000D01*
X118285714Y-100321428D01*
X118357142Y-100392857D01*
X118428571Y-100535714D01*
X118428571Y-100892857D01*
X118357142Y-101035714D01*
X118285714Y-101107142D01*
X118142857Y-101178571D01*
X117714285Y-101178571D01*
X117571428Y-101107142D01*
X117500000Y-101035714D01*
X128285714Y-100178571D02*
X128285714Y-101178571D01*
X127928571Y-99607142D02*
X127571428Y-100678571D01*
X128500000Y-100678571D01*
X138357142Y-99678571D02*
X137642857Y-99678571D01*
X137571428Y-100392857D01*
X137642857Y-100321428D01*
X137785714Y-100250000D01*
X138142857Y-100250000D01*
X138285714Y-100321428D01*
X138357142Y-100392857D01*
X138428571Y-100535714D01*
X138428571Y-100892857D01*
X138357142Y-101035714D01*
X138285714Y-101107142D01*
X138142857Y-101178571D01*
X137785714Y-101178571D01*
X137642857Y-101107142D01*
X137571428Y-101035714D01*
X148285714Y-99678571D02*
X148000000Y-99678571D01*
X147857142Y-99750000D01*
X147785714Y-99821428D01*
X147642857Y-100035714D01*
X147571428Y-100321428D01*
X147571428Y-100892857D01*
X147642857Y-101035714D01*
X147714285Y-101107142D01*
X147857142Y-101178571D01*
X148142857Y-101178571D01*
X148285714Y-101107142D01*
X148357142Y-101035714D01*
X148428571Y-100892857D01*
X148428571Y-100535714D01*
X148357142Y-100392857D01*
X148285714Y-100321428D01*
X148142857Y-100250000D01*
X147857142Y-100250000D01*
X147714285Y-100321428D01*
X147642857Y-100392857D01*
X147571428Y-100535714D01*
X157500000Y-99678571D02*
X158500000Y-99678571D01*
X157857142Y-101178571D01*
X167857142Y-100321428D02*
X167714285Y-100250000D01*
X167642857Y-100178571D01*
X167571428Y-100035714D01*
X167571428Y-99964285D01*
X167642857Y-99821428D01*
X167714285Y-99750000D01*
X167857142Y-99678571D01*
X168142857Y-99678571D01*
X168285714Y-99750000D01*
X168357142Y-99821428D01*
X168428571Y-99964285D01*
X168428571Y-100035714D01*
X168357142Y-100178571D01*
X168285714Y-100250000D01*
X168142857Y-100321428D01*
X167857142Y-100321428D01*
X167714285Y-100392857D01*
X167642857Y-100464285D01*
X167571428Y-100607142D01*
X167571428Y-100892857D01*
X167642857Y-101035714D01*
X167714285Y-101107142D01*
X167857142Y-101178571D01*
X168142857Y-101178571D01*
X168285714Y-101107142D01*
X168357142Y-101035714D01*
X168428571Y-100892857D01*
X168428571Y-100607142D01*
X168357142Y-100464285D01*
X168285714Y-100392857D01*
X168142857Y-100321428D01*
X177714285Y-101178571D02*
X178000000Y-101178571D01*
X178142857Y-101107142D01*
X178214285Y-101035714D01*
X178357142Y-100821428D01*
X178428571Y-100535714D01*
X178428571Y-99964285D01*
X178357142Y-99821428D01*
X178285714Y-99750000D01*
X178142857Y-99678571D01*
X177857142Y-99678571D01*
X177714285Y-99750000D01*
X177642857Y-99821428D01*
X177571428Y-99964285D01*
X177571428Y-100321428D01*
X177642857Y-100464285D01*
X177714285Y-100535714D01*
X177857142Y-100607142D01*
X178142857Y-100607142D01*
X178285714Y-100535714D01*
X178357142Y-100464285D01*
X178428571Y-100321428D01*
D10*
X91119047Y-126428571D02*
X90785714Y-126428571D01*
X90785714Y-126952380D02*
X90785714Y-125952380D01*
X91261904Y-125952380D01*
X91642857Y-126952380D02*
X91642857Y-126285714D01*
X91642857Y-125952380D02*
X91595238Y-126000000D01*
X91642857Y-126047619D01*
X91690476Y-126000000D01*
X91642857Y-125952380D01*
X91642857Y-126047619D01*
X92547619Y-126952380D02*
X92547619Y-125952380D01*
X92547619Y-126904761D02*
X92452380Y-126952380D01*
X92261904Y-126952380D01*
X92166666Y-126904761D01*
X92119047Y-126857142D01*
X92071428Y-126761904D01*
X92071428Y-126476190D01*
X92119047Y-126380952D01*
X92166666Y-126333333D01*
X92261904Y-126285714D01*
X92452380Y-126285714D01*
X92547619Y-126333333D01*
X93452380Y-126285714D02*
X93452380Y-126952380D01*
X93023809Y-126285714D02*
X93023809Y-126809523D01*
X93071428Y-126904761D01*
X93166666Y-126952380D01*
X93309523Y-126952380D01*
X93404761Y-126904761D01*
X93452380Y-126857142D01*
X94357142Y-126904761D02*
X94261904Y-126952380D01*
X94071428Y-126952380D01*
X93976190Y-126904761D01*
X93928571Y-126857142D01*
X93880952Y-126761904D01*
X93880952Y-126476190D01*
X93928571Y-126380952D01*
X93976190Y-126333333D01*
X94071428Y-126285714D01*
X94261904Y-126285714D01*
X94357142Y-126333333D01*
X94785714Y-126952380D02*
X94785714Y-126285714D01*
X94785714Y-125952380D02*
X94738095Y-126000000D01*
X94785714Y-126047619D01*
X94833333Y-126000000D01*
X94785714Y-125952380D01*
X94785714Y-126047619D01*
X95690476Y-126952380D02*
X95690476Y-126428571D01*
X95642857Y-126333333D01*
X95547619Y-126285714D01*
X95357142Y-126285714D01*
X95261904Y-126333333D01*
X95690476Y-126904761D02*
X95595238Y-126952380D01*
X95357142Y-126952380D01*
X95261904Y-126904761D01*
X95214285Y-126809523D01*
X95214285Y-126714285D01*
X95261904Y-126619047D01*
X95357142Y-126571428D01*
X95595238Y-126571428D01*
X95690476Y-126523809D01*
X96309523Y-126952380D02*
X96214285Y-126904761D01*
X96166666Y-126809523D01*
X96166666Y-125952380D01*
X118392738Y-125852380D02*
X118964166Y-125852380D01*
X118678452Y-126852380D02*
X118678452Y-125852380D01*
X119678452Y-126804761D02*
X119583214Y-126852380D01*
X119392738Y-126852380D01*
X119297500Y-126804761D01*
X119249880Y-126709523D01*
X119249880Y-126328571D01*
X119297500Y-126233333D01*
X119392738Y-126185714D01*
X119583214Y-126185714D01*
X119678452Y-126233333D01*
X119726071Y-126328571D01*
X119726071Y-126423809D01*
X119249880Y-126519047D01*
X120107023Y-126804761D02*
X120202261Y-126852380D01*
X120392738Y-126852380D01*
X120487976Y-126804761D01*
X120535595Y-126709523D01*
X120535595Y-126661904D01*
X120487976Y-126566666D01*
X120392738Y-126519047D01*
X120249880Y-126519047D01*
X120154642Y-126471428D01*
X120107023Y-126376190D01*
X120107023Y-126328571D01*
X120154642Y-126233333D01*
X120249880Y-126185714D01*
X120392738Y-126185714D01*
X120487976Y-126233333D01*
X120821309Y-126185714D02*
X121202261Y-126185714D01*
X120964166Y-125852380D02*
X120964166Y-126709523D01*
X121011785Y-126804761D01*
X121107023Y-126852380D01*
X121202261Y-126852380D01*
X122297500Y-126185714D02*
X122297500Y-127185714D01*
X122297500Y-126233333D02*
X122392738Y-126185714D01*
X122583214Y-126185714D01*
X122678452Y-126233333D01*
X122726071Y-126280952D01*
X122773690Y-126376190D01*
X122773690Y-126661904D01*
X122726071Y-126757142D01*
X122678452Y-126804761D01*
X122583214Y-126852380D01*
X122392738Y-126852380D01*
X122297500Y-126804761D01*
X123345119Y-126852380D02*
X123249880Y-126804761D01*
X123202261Y-126757142D01*
X123154642Y-126661904D01*
X123154642Y-126376190D01*
X123202261Y-126280952D01*
X123249880Y-126233333D01*
X123345119Y-126185714D01*
X123487976Y-126185714D01*
X123583214Y-126233333D01*
X123630833Y-126280952D01*
X123678452Y-126376190D01*
X123678452Y-126661904D01*
X123630833Y-126757142D01*
X123583214Y-126804761D01*
X123487976Y-126852380D01*
X123345119Y-126852380D01*
X124107023Y-126852380D02*
X124107023Y-126185714D01*
X124107023Y-125852380D02*
X124059404Y-125900000D01*
X124107023Y-125947619D01*
X124154642Y-125900000D01*
X124107023Y-125852380D01*
X124107023Y-125947619D01*
X124583214Y-126185714D02*
X124583214Y-126852380D01*
X124583214Y-126280952D02*
X124630833Y-126233333D01*
X124726071Y-126185714D01*
X124868928Y-126185714D01*
X124964166Y-126233333D01*
X125011785Y-126328571D01*
X125011785Y-126852380D01*
X125345119Y-126185714D02*
X125726071Y-126185714D01*
X125487976Y-125852380D02*
X125487976Y-126709523D01*
X125535595Y-126804761D01*
X125630833Y-126852380D01*
X125726071Y-126852380D01*
D13*
X175128571Y-105291428D02*
X175152380Y-105314285D01*
X175176190Y-105382857D01*
X175176190Y-105428571D01*
X175152380Y-105497142D01*
X175104761Y-105542857D01*
X175057142Y-105565714D01*
X174961904Y-105588571D01*
X174890476Y-105588571D01*
X174795238Y-105565714D01*
X174747619Y-105542857D01*
X174700000Y-105497142D01*
X174676190Y-105428571D01*
X174676190Y-105382857D01*
X174700000Y-105314285D01*
X174723809Y-105291428D01*
X175128571Y-104811428D02*
X175152380Y-104834285D01*
X175176190Y-104902857D01*
X175176190Y-104948571D01*
X175152380Y-105017142D01*
X175104761Y-105062857D01*
X175057142Y-105085714D01*
X174961904Y-105108571D01*
X174890476Y-105108571D01*
X174795238Y-105085714D01*
X174747619Y-105062857D01*
X174700000Y-105017142D01*
X174676190Y-104948571D01*
X174676190Y-104902857D01*
X174700000Y-104834285D01*
X174723809Y-104811428D01*
D10*
X125607142Y-117727619D02*
X125511904Y-117680000D01*
X125416666Y-117584761D01*
X125273809Y-117441904D01*
X125178571Y-117394285D01*
X125083333Y-117394285D01*
X125130952Y-117632380D02*
X125035714Y-117584761D01*
X124940476Y-117489523D01*
X124892857Y-117299047D01*
X124892857Y-116965714D01*
X124940476Y-116775238D01*
X125035714Y-116680000D01*
X125130952Y-116632380D01*
X125321428Y-116632380D01*
X125416666Y-116680000D01*
X125511904Y-116775238D01*
X125559523Y-116965714D01*
X125559523Y-117299047D01*
X125511904Y-117489523D01*
X125416666Y-117584761D01*
X125321428Y-117632380D01*
X125130952Y-117632380D01*
X126321428Y-117108571D02*
X125988095Y-117108571D01*
X125988095Y-117632380D02*
X125988095Y-116632380D01*
X126464285Y-116632380D01*
X126845238Y-117632380D02*
X126845238Y-116632380D01*
X127416666Y-117632380D01*
X127416666Y-116632380D01*
X127892857Y-117251428D02*
X128654761Y-117251428D01*
X129035714Y-116632380D02*
X129654761Y-116632380D01*
X129321428Y-117013333D01*
X129464285Y-117013333D01*
X129559523Y-117060952D01*
X129607142Y-117108571D01*
X129654761Y-117203809D01*
X129654761Y-117441904D01*
X129607142Y-117537142D01*
X129559523Y-117584761D01*
X129464285Y-117632380D01*
X129178571Y-117632380D01*
X129083333Y-117584761D01*
X129035714Y-117537142D01*
X130035714Y-116727619D02*
X130083333Y-116680000D01*
X130178571Y-116632380D01*
X130416666Y-116632380D01*
X130511904Y-116680000D01*
X130559523Y-116727619D01*
X130607142Y-116822857D01*
X130607142Y-116918095D01*
X130559523Y-117060952D01*
X129988095Y-117632380D01*
X130607142Y-117632380D01*
X139857142Y-117697619D02*
X139761904Y-117650000D01*
X139666666Y-117554761D01*
X139523809Y-117411904D01*
X139428571Y-117364285D01*
X139333333Y-117364285D01*
X139380952Y-117602380D02*
X139285714Y-117554761D01*
X139190476Y-117459523D01*
X139142857Y-117269047D01*
X139142857Y-116935714D01*
X139190476Y-116745238D01*
X139285714Y-116650000D01*
X139380952Y-116602380D01*
X139571428Y-116602380D01*
X139666666Y-116650000D01*
X139761904Y-116745238D01*
X139809523Y-116935714D01*
X139809523Y-117269047D01*
X139761904Y-117459523D01*
X139666666Y-117554761D01*
X139571428Y-117602380D01*
X139380952Y-117602380D01*
X140571428Y-117078571D02*
X140238095Y-117078571D01*
X140238095Y-117602380D02*
X140238095Y-116602380D01*
X140714285Y-116602380D01*
X141095238Y-117602380D02*
X141095238Y-116602380D01*
X141666666Y-117602380D01*
X141666666Y-116602380D01*
X142142857Y-117221428D02*
X142904761Y-117221428D01*
X143904761Y-117602380D02*
X143333333Y-117602380D01*
X143619047Y-117602380D02*
X143619047Y-116602380D01*
X143523809Y-116745238D01*
X143428571Y-116840476D01*
X143333333Y-116888095D01*
X144761904Y-116602380D02*
X144571428Y-116602380D01*
X144476190Y-116650000D01*
X144428571Y-116697619D01*
X144333333Y-116840476D01*
X144285714Y-117030952D01*
X144285714Y-117411904D01*
X144333333Y-117507142D01*
X144380952Y-117554761D01*
X144476190Y-117602380D01*
X144666666Y-117602380D01*
X144761904Y-117554761D01*
X144809523Y-117507142D01*
X144857142Y-117411904D01*
X144857142Y-117173809D01*
X144809523Y-117078571D01*
X144761904Y-117030952D01*
X144666666Y-116983333D01*
X144476190Y-116983333D01*
X144380952Y-117030952D01*
X144333333Y-117078571D01*
X144285714Y-117173809D01*
X165011904Y-105654761D02*
X165154761Y-105702380D01*
X165392857Y-105702380D01*
X165488095Y-105654761D01*
X165535714Y-105607142D01*
X165583333Y-105511904D01*
X165583333Y-105416666D01*
X165535714Y-105321428D01*
X165488095Y-105273809D01*
X165392857Y-105226190D01*
X165202380Y-105178571D01*
X165107142Y-105130952D01*
X165059523Y-105083333D01*
X165011904Y-104988095D01*
X165011904Y-104892857D01*
X165059523Y-104797619D01*
X165107142Y-104750000D01*
X165202380Y-104702380D01*
X165440476Y-104702380D01*
X165583333Y-104750000D01*
X166202380Y-104702380D02*
X166392857Y-104702380D01*
X166488095Y-104750000D01*
X166583333Y-104845238D01*
X166630952Y-105035714D01*
X166630952Y-105369047D01*
X166583333Y-105559523D01*
X166488095Y-105654761D01*
X166392857Y-105702380D01*
X166202380Y-105702380D01*
X166107142Y-105654761D01*
X166011904Y-105559523D01*
X165964285Y-105369047D01*
X165964285Y-105035714D01*
X166011904Y-104845238D01*
X166107142Y-104750000D01*
X166202380Y-104702380D01*
X166916666Y-104702380D02*
X167488095Y-104702380D01*
X167202380Y-105702380D02*
X167202380Y-104702380D01*
X167773809Y-104797619D02*
X167821428Y-104750000D01*
X167916666Y-104702380D01*
X168154761Y-104702380D01*
X168250000Y-104750000D01*
X168297619Y-104797619D01*
X168345238Y-104892857D01*
X168345238Y-104988095D01*
X168297619Y-105130952D01*
X167726190Y-105702380D01*
X168345238Y-105702380D01*
X168678571Y-104702380D02*
X169297619Y-104702380D01*
X168964285Y-105083333D01*
X169107142Y-105083333D01*
X169202380Y-105130952D01*
X169250000Y-105178571D01*
X169297619Y-105273809D01*
X169297619Y-105511904D01*
X169250000Y-105607142D01*
X169202380Y-105654761D01*
X169107142Y-105702380D01*
X168821428Y-105702380D01*
X168726190Y-105654761D01*
X168678571Y-105607142D01*
X169726190Y-105321428D02*
X170488095Y-105321428D01*
X171440476Y-104702380D02*
X170964285Y-104702380D01*
X170916666Y-105178571D01*
X170964285Y-105130952D01*
X171059523Y-105083333D01*
X171297619Y-105083333D01*
X171392857Y-105130952D01*
X171440476Y-105178571D01*
X171488095Y-105273809D01*
X171488095Y-105511904D01*
X171440476Y-105607142D01*
X171392857Y-105654761D01*
X171297619Y-105702380D01*
X171059523Y-105702380D01*
X170964285Y-105654761D01*
X170916666Y-105607142D01*
X148119047Y-111502380D02*
X148690476Y-111502380D01*
X148404761Y-112502380D02*
X148404761Y-111502380D01*
X148976190Y-112454761D02*
X149119047Y-112502380D01*
X149357142Y-112502380D01*
X149452380Y-112454761D01*
X149500000Y-112407142D01*
X149547619Y-112311904D01*
X149547619Y-112216666D01*
X149500000Y-112121428D01*
X149452380Y-112073809D01*
X149357142Y-112026190D01*
X149166666Y-111978571D01*
X149071428Y-111930952D01*
X149023809Y-111883333D01*
X148976190Y-111788095D01*
X148976190Y-111692857D01*
X149023809Y-111597619D01*
X149071428Y-111550000D01*
X149166666Y-111502380D01*
X149404761Y-111502380D01*
X149547619Y-111550000D01*
X150166666Y-111502380D02*
X150357142Y-111502380D01*
X150452380Y-111550000D01*
X150547619Y-111645238D01*
X150595238Y-111835714D01*
X150595238Y-112169047D01*
X150547619Y-112359523D01*
X150452380Y-112454761D01*
X150357142Y-112502380D01*
X150166666Y-112502380D01*
X150071428Y-112454761D01*
X149976190Y-112359523D01*
X149928571Y-112169047D01*
X149928571Y-111835714D01*
X149976190Y-111645238D01*
X150071428Y-111550000D01*
X150166666Y-111502380D01*
X151023809Y-112502380D02*
X151023809Y-111502380D01*
X151404761Y-111502380D01*
X151500000Y-111550000D01*
X151547619Y-111597619D01*
X151595238Y-111692857D01*
X151595238Y-111835714D01*
X151547619Y-111930952D01*
X151500000Y-111978571D01*
X151404761Y-112026190D01*
X151023809Y-112026190D01*
X152023809Y-112121428D02*
X152785714Y-112121428D01*
X153690476Y-111502380D02*
X153500000Y-111502380D01*
X153404761Y-111550000D01*
X153357142Y-111597619D01*
X153261904Y-111740476D01*
X153214285Y-111930952D01*
X153214285Y-112311904D01*
X153261904Y-112407142D01*
X153309523Y-112454761D01*
X153404761Y-112502380D01*
X153595238Y-112502380D01*
X153690476Y-112454761D01*
X153738095Y-112407142D01*
X153785714Y-112311904D01*
X153785714Y-112073809D01*
X153738095Y-111978571D01*
X153690476Y-111930952D01*
X153595238Y-111883333D01*
X153404761Y-111883333D01*
X153309523Y-111930952D01*
X153261904Y-111978571D01*
X153214285Y-112073809D01*
X138235714Y-114802380D02*
X137759523Y-114802380D01*
X137759523Y-113802380D01*
X139235714Y-114897619D02*
X139140476Y-114850000D01*
X139045238Y-114754761D01*
X138902380Y-114611904D01*
X138807142Y-114564285D01*
X138711904Y-114564285D01*
X138759523Y-114802380D02*
X138664285Y-114754761D01*
X138569047Y-114659523D01*
X138521428Y-114469047D01*
X138521428Y-114135714D01*
X138569047Y-113945238D01*
X138664285Y-113850000D01*
X138759523Y-113802380D01*
X138950000Y-113802380D01*
X139045238Y-113850000D01*
X139140476Y-113945238D01*
X139188095Y-114135714D01*
X139188095Y-114469047D01*
X139140476Y-114659523D01*
X139045238Y-114754761D01*
X138950000Y-114802380D01*
X138759523Y-114802380D01*
X139950000Y-114278571D02*
X139616666Y-114278571D01*
X139616666Y-114802380D02*
X139616666Y-113802380D01*
X140092857Y-113802380D01*
X140473809Y-114802380D02*
X140473809Y-113802380D01*
X140854761Y-113802380D01*
X140950000Y-113850000D01*
X140997619Y-113897619D01*
X141045238Y-113992857D01*
X141045238Y-114135714D01*
X140997619Y-114230952D01*
X140950000Y-114278571D01*
X140854761Y-114326190D01*
X140473809Y-114326190D01*
X141473809Y-114421428D02*
X142235714Y-114421428D01*
X142616666Y-113802380D02*
X143235714Y-113802380D01*
X142902380Y-114183333D01*
X143045238Y-114183333D01*
X143140476Y-114230952D01*
X143188095Y-114278571D01*
X143235714Y-114373809D01*
X143235714Y-114611904D01*
X143188095Y-114707142D01*
X143140476Y-114754761D01*
X143045238Y-114802380D01*
X142759523Y-114802380D01*
X142664285Y-114754761D01*
X142616666Y-114707142D01*
X143616666Y-113897619D02*
X143664285Y-113850000D01*
X143759523Y-113802380D01*
X143997619Y-113802380D01*
X144092857Y-113850000D01*
X144140476Y-113897619D01*
X144188095Y-113992857D01*
X144188095Y-114088095D01*
X144140476Y-114230952D01*
X143569047Y-114802380D01*
X144188095Y-114802380D01*
X160088095Y-113454761D02*
X160230952Y-113502380D01*
X160469047Y-113502380D01*
X160564285Y-113454761D01*
X160611904Y-113407142D01*
X160659523Y-113311904D01*
X160659523Y-113216666D01*
X160611904Y-113121428D01*
X160564285Y-113073809D01*
X160469047Y-113026190D01*
X160278571Y-112978571D01*
X160183333Y-112930952D01*
X160135714Y-112883333D01*
X160088095Y-112788095D01*
X160088095Y-112692857D01*
X160135714Y-112597619D01*
X160183333Y-112550000D01*
X160278571Y-112502380D01*
X160516666Y-112502380D01*
X160659523Y-112550000D01*
X161659523Y-113407142D02*
X161611904Y-113454761D01*
X161469047Y-113502380D01*
X161373809Y-113502380D01*
X161230952Y-113454761D01*
X161135714Y-113359523D01*
X161088095Y-113264285D01*
X161040476Y-113073809D01*
X161040476Y-112930952D01*
X161088095Y-112740476D01*
X161135714Y-112645238D01*
X161230952Y-112550000D01*
X161373809Y-112502380D01*
X161469047Y-112502380D01*
X161611904Y-112550000D01*
X161659523Y-112597619D01*
X161992857Y-112502380D02*
X162659523Y-112502380D01*
X162230952Y-113502380D01*
X163230952Y-112502380D02*
X163326190Y-112502380D01*
X163421428Y-112550000D01*
X163469047Y-112597619D01*
X163516666Y-112692857D01*
X163564285Y-112883333D01*
X163564285Y-113121428D01*
X163516666Y-113311904D01*
X163469047Y-113407142D01*
X163421428Y-113454761D01*
X163326190Y-113502380D01*
X163230952Y-113502380D01*
X163135714Y-113454761D01*
X163088095Y-113407142D01*
X163040476Y-113311904D01*
X162992857Y-113121428D01*
X162992857Y-112883333D01*
X163040476Y-112692857D01*
X163088095Y-112597619D01*
X163135714Y-112550000D01*
X163230952Y-112502380D01*
X164707142Y-112454761D02*
X163850000Y-113740476D01*
X158307142Y-105654761D02*
X158450000Y-105702380D01*
X158688095Y-105702380D01*
X158783333Y-105654761D01*
X158830952Y-105607142D01*
X158878571Y-105511904D01*
X158878571Y-105416666D01*
X158830952Y-105321428D01*
X158783333Y-105273809D01*
X158688095Y-105226190D01*
X158497619Y-105178571D01*
X158402380Y-105130952D01*
X158354761Y-105083333D01*
X158307142Y-104988095D01*
X158307142Y-104892857D01*
X158354761Y-104797619D01*
X158402380Y-104750000D01*
X158497619Y-104702380D01*
X158735714Y-104702380D01*
X158878571Y-104750000D01*
X159497619Y-104702380D02*
X159688095Y-104702380D01*
X159783333Y-104750000D01*
X159878571Y-104845238D01*
X159926190Y-105035714D01*
X159926190Y-105369047D01*
X159878571Y-105559523D01*
X159783333Y-105654761D01*
X159688095Y-105702380D01*
X159497619Y-105702380D01*
X159402380Y-105654761D01*
X159307142Y-105559523D01*
X159259523Y-105369047D01*
X159259523Y-105035714D01*
X159307142Y-104845238D01*
X159402380Y-104750000D01*
X159497619Y-104702380D01*
X160211904Y-104702380D02*
X160783333Y-104702380D01*
X160497619Y-105702380D02*
X160497619Y-104702380D01*
X161259523Y-105130952D02*
X161164285Y-105083333D01*
X161116666Y-105035714D01*
X161069047Y-104940476D01*
X161069047Y-104892857D01*
X161116666Y-104797619D01*
X161164285Y-104750000D01*
X161259523Y-104702380D01*
X161450000Y-104702380D01*
X161545238Y-104750000D01*
X161592857Y-104797619D01*
X161640476Y-104892857D01*
X161640476Y-104940476D01*
X161592857Y-105035714D01*
X161545238Y-105083333D01*
X161450000Y-105130952D01*
X161259523Y-105130952D01*
X161164285Y-105178571D01*
X161116666Y-105226190D01*
X161069047Y-105321428D01*
X161069047Y-105511904D01*
X161116666Y-105607142D01*
X161164285Y-105654761D01*
X161259523Y-105702380D01*
X161450000Y-105702380D01*
X161545238Y-105654761D01*
X161592857Y-105607142D01*
X161640476Y-105511904D01*
X161640476Y-105321428D01*
X161592857Y-105226190D01*
X161545238Y-105178571D01*
X161450000Y-105130952D01*
X162116666Y-105702380D02*
X162307142Y-105702380D01*
X162402380Y-105654761D01*
X162450000Y-105607142D01*
X162545238Y-105464285D01*
X162592857Y-105273809D01*
X162592857Y-104892857D01*
X162545238Y-104797619D01*
X162497619Y-104750000D01*
X162402380Y-104702380D01*
X162211904Y-104702380D01*
X162116666Y-104750000D01*
X162069047Y-104797619D01*
X162021428Y-104892857D01*
X162021428Y-105130952D01*
X162069047Y-105226190D01*
X162116666Y-105273809D01*
X162211904Y-105321428D01*
X162402380Y-105321428D01*
X162497619Y-105273809D01*
X162545238Y-105226190D01*
X162592857Y-105130952D01*
X133357142Y-117747619D02*
X133261904Y-117700000D01*
X133166666Y-117604761D01*
X133023809Y-117461904D01*
X132928571Y-117414285D01*
X132833333Y-117414285D01*
X132880952Y-117652380D02*
X132785714Y-117604761D01*
X132690476Y-117509523D01*
X132642857Y-117319047D01*
X132642857Y-116985714D01*
X132690476Y-116795238D01*
X132785714Y-116700000D01*
X132880952Y-116652380D01*
X133071428Y-116652380D01*
X133166666Y-116700000D01*
X133261904Y-116795238D01*
X133309523Y-116985714D01*
X133309523Y-117319047D01*
X133261904Y-117509523D01*
X133166666Y-117604761D01*
X133071428Y-117652380D01*
X132880952Y-117652380D01*
X134071428Y-117128571D02*
X133738095Y-117128571D01*
X133738095Y-117652380D02*
X133738095Y-116652380D01*
X134214285Y-116652380D01*
X134595238Y-117652380D02*
X134595238Y-116652380D01*
X135166666Y-117652380D01*
X135166666Y-116652380D01*
X135642857Y-117271428D02*
X136404761Y-117271428D01*
X136833333Y-116747619D02*
X136880952Y-116700000D01*
X136976190Y-116652380D01*
X137214285Y-116652380D01*
X137309523Y-116700000D01*
X137357142Y-116747619D01*
X137404761Y-116842857D01*
X137404761Y-116938095D01*
X137357142Y-117080952D01*
X136785714Y-117652380D01*
X137404761Y-117652380D01*
X137976190Y-117080952D02*
X137880952Y-117033333D01*
X137833333Y-116985714D01*
X137785714Y-116890476D01*
X137785714Y-116842857D01*
X137833333Y-116747619D01*
X137880952Y-116700000D01*
X137976190Y-116652380D01*
X138166666Y-116652380D01*
X138261904Y-116700000D01*
X138309523Y-116747619D01*
X138357142Y-116842857D01*
X138357142Y-116890476D01*
X138309523Y-116985714D01*
X138261904Y-117033333D01*
X138166666Y-117080952D01*
X137976190Y-117080952D01*
X137880952Y-117128571D01*
X137833333Y-117176190D01*
X137785714Y-117271428D01*
X137785714Y-117461904D01*
X137833333Y-117557142D01*
X137880952Y-117604761D01*
X137976190Y-117652380D01*
X138166666Y-117652380D01*
X138261904Y-117604761D01*
X138309523Y-117557142D01*
X138357142Y-117461904D01*
X138357142Y-117271428D01*
X138309523Y-117176190D01*
X138261904Y-117128571D01*
X138166666Y-117080952D01*
X127309523Y-111802380D02*
X127880952Y-111802380D01*
X127595238Y-112802380D02*
X127595238Y-111802380D01*
X128880952Y-112897619D02*
X128785714Y-112850000D01*
X128690476Y-112754761D01*
X128547619Y-112611904D01*
X128452380Y-112564285D01*
X128357142Y-112564285D01*
X128404761Y-112802380D02*
X128309523Y-112754761D01*
X128214285Y-112659523D01*
X128166666Y-112469047D01*
X128166666Y-112135714D01*
X128214285Y-111945238D01*
X128309523Y-111850000D01*
X128404761Y-111802380D01*
X128595238Y-111802380D01*
X128690476Y-111850000D01*
X128785714Y-111945238D01*
X128833333Y-112135714D01*
X128833333Y-112469047D01*
X128785714Y-112659523D01*
X128690476Y-112754761D01*
X128595238Y-112802380D01*
X128404761Y-112802380D01*
X129595238Y-112278571D02*
X129261904Y-112278571D01*
X129261904Y-112802380D02*
X129261904Y-111802380D01*
X129738095Y-111802380D01*
X130119047Y-112802380D02*
X130119047Y-111802380D01*
X130500000Y-111802380D01*
X130595238Y-111850000D01*
X130642857Y-111897619D01*
X130690476Y-111992857D01*
X130690476Y-112135714D01*
X130642857Y-112230952D01*
X130595238Y-112278571D01*
X130500000Y-112326190D01*
X130119047Y-112326190D01*
X131023809Y-111802380D02*
X131642857Y-111802380D01*
X131309523Y-112183333D01*
X131452380Y-112183333D01*
X131547619Y-112230952D01*
X131595238Y-112278571D01*
X131642857Y-112373809D01*
X131642857Y-112611904D01*
X131595238Y-112707142D01*
X131547619Y-112754761D01*
X131452380Y-112802380D01*
X131166666Y-112802380D01*
X131071428Y-112754761D01*
X131023809Y-112707142D01*
X132023809Y-111897619D02*
X132071428Y-111850000D01*
X132166666Y-111802380D01*
X132404761Y-111802380D01*
X132500000Y-111850000D01*
X132547619Y-111897619D01*
X132595238Y-111992857D01*
X132595238Y-112088095D01*
X132547619Y-112230952D01*
X131976190Y-112802380D01*
X132595238Y-112802380D01*
X151454761Y-109973809D02*
X151502380Y-109830952D01*
X151502380Y-109592857D01*
X151454761Y-109497619D01*
X151407142Y-109450000D01*
X151311904Y-109402380D01*
X151216666Y-109402380D01*
X151121428Y-109450000D01*
X151073809Y-109497619D01*
X151026190Y-109592857D01*
X150978571Y-109783333D01*
X150930952Y-109878571D01*
X150883333Y-109926190D01*
X150788095Y-109973809D01*
X150692857Y-109973809D01*
X150597619Y-109926190D01*
X150550000Y-109878571D01*
X150502380Y-109783333D01*
X150502380Y-109545238D01*
X150550000Y-109402380D01*
X150502380Y-108783333D02*
X150502380Y-108592857D01*
X150550000Y-108497619D01*
X150645238Y-108402380D01*
X150835714Y-108354761D01*
X151169047Y-108354761D01*
X151359523Y-108402380D01*
X151454761Y-108497619D01*
X151502380Y-108592857D01*
X151502380Y-108783333D01*
X151454761Y-108878571D01*
X151359523Y-108973809D01*
X151169047Y-109021428D01*
X150835714Y-109021428D01*
X150645238Y-108973809D01*
X150550000Y-108878571D01*
X150502380Y-108783333D01*
X151502380Y-107926190D02*
X150502380Y-107926190D01*
X151407142Y-106878571D02*
X151454761Y-106926190D01*
X151502380Y-107069047D01*
X151502380Y-107164285D01*
X151454761Y-107307142D01*
X151359523Y-107402380D01*
X151264285Y-107450000D01*
X151073809Y-107497619D01*
X150930952Y-107497619D01*
X150740476Y-107450000D01*
X150645238Y-107402380D01*
X150550000Y-107307142D01*
X150502380Y-107164285D01*
X150502380Y-107069047D01*
X150550000Y-106926190D01*
X150597619Y-106878571D01*
X150930952Y-106307142D02*
X150883333Y-106402380D01*
X150835714Y-106450000D01*
X150740476Y-106497619D01*
X150692857Y-106497619D01*
X150597619Y-106450000D01*
X150550000Y-106402380D01*
X150502380Y-106307142D01*
X150502380Y-106116666D01*
X150550000Y-106021428D01*
X150597619Y-105973809D01*
X150692857Y-105926190D01*
X150740476Y-105926190D01*
X150835714Y-105973809D01*
X150883333Y-106021428D01*
X150930952Y-106116666D01*
X150930952Y-106307142D01*
X150978571Y-106402380D01*
X151026190Y-106450000D01*
X151121428Y-106497619D01*
X151311904Y-106497619D01*
X151407142Y-106450000D01*
X151454761Y-106402380D01*
X151502380Y-106307142D01*
X151502380Y-106116666D01*
X151454761Y-106021428D01*
X151407142Y-105973809D01*
X151311904Y-105926190D01*
X151121428Y-105926190D01*
X151026190Y-105973809D01*
X150978571Y-106021428D01*
X150930952Y-106116666D01*
X166457142Y-111654761D02*
X166600000Y-111702380D01*
X166838095Y-111702380D01*
X166933333Y-111654761D01*
X166980952Y-111607142D01*
X167028571Y-111511904D01*
X167028571Y-111416666D01*
X166980952Y-111321428D01*
X166933333Y-111273809D01*
X166838095Y-111226190D01*
X166647619Y-111178571D01*
X166552380Y-111130952D01*
X166504761Y-111083333D01*
X166457142Y-110988095D01*
X166457142Y-110892857D01*
X166504761Y-110797619D01*
X166552380Y-110750000D01*
X166647619Y-110702380D01*
X166885714Y-110702380D01*
X167028571Y-110750000D01*
X167647619Y-110702380D02*
X167838095Y-110702380D01*
X167933333Y-110750000D01*
X168028571Y-110845238D01*
X168076190Y-111035714D01*
X168076190Y-111369047D01*
X168028571Y-111559523D01*
X167933333Y-111654761D01*
X167838095Y-111702380D01*
X167647619Y-111702380D01*
X167552380Y-111654761D01*
X167457142Y-111559523D01*
X167409523Y-111369047D01*
X167409523Y-111035714D01*
X167457142Y-110845238D01*
X167552380Y-110750000D01*
X167647619Y-110702380D01*
X168361904Y-110702380D02*
X168933333Y-110702380D01*
X168647619Y-111702380D02*
X168647619Y-110702380D01*
X169219047Y-110797619D02*
X169266666Y-110750000D01*
X169361904Y-110702380D01*
X169600000Y-110702380D01*
X169695238Y-110750000D01*
X169742857Y-110797619D01*
X169790476Y-110892857D01*
X169790476Y-110988095D01*
X169742857Y-111130952D01*
X169171428Y-111702380D01*
X169790476Y-111702380D01*
X170123809Y-110702380D02*
X170742857Y-110702380D01*
X170409523Y-111083333D01*
X170552380Y-111083333D01*
X170647619Y-111130952D01*
X170695238Y-111178571D01*
X170742857Y-111273809D01*
X170742857Y-111511904D01*
X170695238Y-111607142D01*
X170647619Y-111654761D01*
X170552380Y-111702380D01*
X170266666Y-111702380D01*
X170171428Y-111654761D01*
X170123809Y-111607142D01*
X162004761Y-123369047D02*
X162052380Y-123226190D01*
X162052380Y-122988095D01*
X162004761Y-122892857D01*
X161957142Y-122845238D01*
X161861904Y-122797619D01*
X161766666Y-122797619D01*
X161671428Y-122845238D01*
X161623809Y-122892857D01*
X161576190Y-122988095D01*
X161528571Y-123178571D01*
X161480952Y-123273809D01*
X161433333Y-123321428D01*
X161338095Y-123369047D01*
X161242857Y-123369047D01*
X161147619Y-123321428D01*
X161100000Y-123273809D01*
X161052380Y-123178571D01*
X161052380Y-122940476D01*
X161100000Y-122797619D01*
X161052380Y-122178571D02*
X161052380Y-121988095D01*
X161100000Y-121892857D01*
X161195238Y-121797619D01*
X161385714Y-121750000D01*
X161719047Y-121750000D01*
X161909523Y-121797619D01*
X162004761Y-121892857D01*
X162052380Y-121988095D01*
X162052380Y-122178571D01*
X162004761Y-122273809D01*
X161909523Y-122369047D01*
X161719047Y-122416666D01*
X161385714Y-122416666D01*
X161195238Y-122369047D01*
X161100000Y-122273809D01*
X161052380Y-122178571D01*
X161052380Y-121464285D02*
X161052380Y-120892857D01*
X162052380Y-121178571D02*
X161052380Y-121178571D01*
X161147619Y-120607142D02*
X161100000Y-120559523D01*
X161052380Y-120464285D01*
X161052380Y-120226190D01*
X161100000Y-120130952D01*
X161147619Y-120083333D01*
X161242857Y-120035714D01*
X161338095Y-120035714D01*
X161480952Y-120083333D01*
X162052380Y-120654761D01*
X162052380Y-120035714D01*
X161147619Y-119654761D02*
X161100000Y-119607142D01*
X161052380Y-119511904D01*
X161052380Y-119273809D01*
X161100000Y-119178571D01*
X161147619Y-119130952D01*
X161242857Y-119083333D01*
X161338095Y-119083333D01*
X161480952Y-119130952D01*
X162052380Y-119702380D01*
X162052380Y-119083333D01*
X161052380Y-118750000D02*
X161052380Y-118130952D01*
X161433333Y-118464285D01*
X161433333Y-118321428D01*
X161480952Y-118226190D01*
X161528571Y-118178571D01*
X161623809Y-118130952D01*
X161861904Y-118130952D01*
X161957142Y-118178571D01*
X162004761Y-118226190D01*
X162052380Y-118321428D01*
X162052380Y-118607142D01*
X162004761Y-118702380D01*
X161957142Y-118750000D01*
X170254761Y-123488095D02*
X170302380Y-123345238D01*
X170302380Y-123107142D01*
X170254761Y-123011904D01*
X170207142Y-122964285D01*
X170111904Y-122916666D01*
X170016666Y-122916666D01*
X169921428Y-122964285D01*
X169873809Y-123011904D01*
X169826190Y-123107142D01*
X169778571Y-123297619D01*
X169730952Y-123392857D01*
X169683333Y-123440476D01*
X169588095Y-123488095D01*
X169492857Y-123488095D01*
X169397619Y-123440476D01*
X169350000Y-123392857D01*
X169302380Y-123297619D01*
X169302380Y-123059523D01*
X169350000Y-122916666D01*
X169302380Y-122297619D02*
X169302380Y-122107142D01*
X169350000Y-122011904D01*
X169445238Y-121916666D01*
X169635714Y-121869047D01*
X169969047Y-121869047D01*
X170159523Y-121916666D01*
X170254761Y-122011904D01*
X170302380Y-122107142D01*
X170302380Y-122297619D01*
X170254761Y-122392857D01*
X170159523Y-122488095D01*
X169969047Y-122535714D01*
X169635714Y-122535714D01*
X169445238Y-122488095D01*
X169350000Y-122392857D01*
X169302380Y-122297619D01*
X170302380Y-121440476D02*
X169302380Y-121440476D01*
X169302380Y-121202380D01*
X169350000Y-121059523D01*
X169445238Y-120964285D01*
X169540476Y-120916666D01*
X169730952Y-120869047D01*
X169873809Y-120869047D01*
X170064285Y-120916666D01*
X170159523Y-120964285D01*
X170254761Y-121059523D01*
X170302380Y-121202380D01*
X170302380Y-121440476D01*
X169302380Y-120535714D02*
X169302380Y-119916666D01*
X169683333Y-120250000D01*
X169683333Y-120107142D01*
X169730952Y-120011904D01*
X169778571Y-119964285D01*
X169873809Y-119916666D01*
X170111904Y-119916666D01*
X170207142Y-119964285D01*
X170254761Y-120011904D01*
X170302380Y-120107142D01*
X170302380Y-120392857D01*
X170254761Y-120488095D01*
X170207142Y-120535714D01*
X169397619Y-119535714D02*
X169350000Y-119488095D01*
X169302380Y-119392857D01*
X169302380Y-119154761D01*
X169350000Y-119059523D01*
X169397619Y-119011904D01*
X169492857Y-118964285D01*
X169588095Y-118964285D01*
X169730952Y-119011904D01*
X170302380Y-119583333D01*
X170302380Y-118964285D01*
X169302380Y-118630952D02*
X169302380Y-118011904D01*
X169683333Y-118345238D01*
X169683333Y-118202380D01*
X169730952Y-118107142D01*
X169778571Y-118059523D01*
X169873809Y-118011904D01*
X170111904Y-118011904D01*
X170207142Y-118059523D01*
X170254761Y-118107142D01*
X170302380Y-118202380D01*
X170302380Y-118488095D01*
X170254761Y-118583333D01*
X170207142Y-118630952D01*
X147166666Y-117202380D02*
X147738095Y-117202380D01*
X147452380Y-118202380D02*
X147452380Y-117202380D01*
X148023809Y-118154761D02*
X148166666Y-118202380D01*
X148404761Y-118202380D01*
X148500000Y-118154761D01*
X148547619Y-118107142D01*
X148595238Y-118011904D01*
X148595238Y-117916666D01*
X148547619Y-117821428D01*
X148500000Y-117773809D01*
X148404761Y-117726190D01*
X148214285Y-117678571D01*
X148119047Y-117630952D01*
X148071428Y-117583333D01*
X148023809Y-117488095D01*
X148023809Y-117392857D01*
X148071428Y-117297619D01*
X148119047Y-117250000D01*
X148214285Y-117202380D01*
X148452380Y-117202380D01*
X148595238Y-117250000D01*
X148976190Y-118154761D02*
X149119047Y-118202380D01*
X149357142Y-118202380D01*
X149452380Y-118154761D01*
X149500000Y-118107142D01*
X149547619Y-118011904D01*
X149547619Y-117916666D01*
X149500000Y-117821428D01*
X149452380Y-117773809D01*
X149357142Y-117726190D01*
X149166666Y-117678571D01*
X149071428Y-117630952D01*
X149023809Y-117583333D01*
X148976190Y-117488095D01*
X148976190Y-117392857D01*
X149023809Y-117297619D01*
X149071428Y-117250000D01*
X149166666Y-117202380D01*
X149404761Y-117202380D01*
X149547619Y-117250000D01*
X150166666Y-117202380D02*
X150357142Y-117202380D01*
X150452380Y-117250000D01*
X150547619Y-117345238D01*
X150595238Y-117535714D01*
X150595238Y-117869047D01*
X150547619Y-118059523D01*
X150452380Y-118154761D01*
X150357142Y-118202380D01*
X150166666Y-118202380D01*
X150071428Y-118154761D01*
X149976190Y-118059523D01*
X149928571Y-117869047D01*
X149928571Y-117535714D01*
X149976190Y-117345238D01*
X150071428Y-117250000D01*
X150166666Y-117202380D01*
X151023809Y-118202380D02*
X151023809Y-117202380D01*
X151404761Y-117202380D01*
X151500000Y-117250000D01*
X151547619Y-117297619D01*
X151595238Y-117392857D01*
X151595238Y-117535714D01*
X151547619Y-117630952D01*
X151500000Y-117678571D01*
X151404761Y-117726190D01*
X151023809Y-117726190D01*
X152023809Y-117821428D02*
X152785714Y-117821428D01*
X153785714Y-118202380D02*
X153214285Y-118202380D01*
X153500000Y-118202380D02*
X153500000Y-117202380D01*
X153404761Y-117345238D01*
X153309523Y-117440476D01*
X153214285Y-117488095D01*
X154642857Y-117202380D02*
X154452380Y-117202380D01*
X154357142Y-117250000D01*
X154309523Y-117297619D01*
X154214285Y-117440476D01*
X154166666Y-117630952D01*
X154166666Y-118011904D01*
X154214285Y-118107142D01*
X154261904Y-118154761D01*
X154357142Y-118202380D01*
X154547619Y-118202380D01*
X154642857Y-118154761D01*
X154690476Y-118107142D01*
X154738095Y-118011904D01*
X154738095Y-117773809D01*
X154690476Y-117678571D01*
X154642857Y-117630952D01*
X154547619Y-117583333D01*
X154357142Y-117583333D01*
X154261904Y-117630952D01*
X154214285Y-117678571D01*
X154166666Y-117773809D01*
M02*
