G04 #@! TF.GenerationSoftware,KiCad,Pcbnew,(5.1.4)-1*
G04 #@! TF.CreationDate,2020-02-23T21:57:18+01:00*
G04 #@! TF.ProjectId,PCBRuler,50434252-756c-4657-922e-6b696361645f,1.0*
G04 #@! TF.SameCoordinates,Original*
G04 #@! TF.FileFunction,Legend,Bot*
G04 #@! TF.FilePolarity,Positive*
%FSLAX46Y46*%
G04 Gerber Fmt 4.6, Leading zero omitted, Abs format (unit mm)*
G04 Created by KiCad (PCBNEW (5.1.4)-1) date 2020-02-23 21:57:18*
%MOMM*%
%LPD*%
G04 APERTURE LIST*
%ADD10C,0.150000*%
%ADD11C,0.200000*%
%ADD12C,0.120000*%
%ADD13C,0.250000*%
G04 APERTURE END LIST*
D10*
X178871428Y-107176190D02*
X178871428Y-106842857D01*
X178347619Y-106700000D02*
X178347619Y-107176190D01*
X179347619Y-107176190D01*
X179347619Y-106700000D01*
X178347619Y-106271428D02*
X179347619Y-106271428D01*
X178347619Y-105700000D01*
X179347619Y-105700000D01*
X178347619Y-105223809D02*
X179347619Y-105223809D01*
X179300000Y-104223809D02*
X179347619Y-104319047D01*
X179347619Y-104461904D01*
X179300000Y-104604761D01*
X179204761Y-104700000D01*
X179109523Y-104747619D01*
X178919047Y-104795238D01*
X178776190Y-104795238D01*
X178585714Y-104747619D01*
X178490476Y-104700000D01*
X178395238Y-104604761D01*
X178347619Y-104461904D01*
X178347619Y-104366666D01*
X178395238Y-104223809D01*
X178442857Y-104176190D01*
X178776190Y-104176190D01*
X178776190Y-104366666D01*
X178871428Y-124133333D02*
X178871428Y-124466666D01*
X178347619Y-124466666D02*
X179347619Y-124466666D01*
X179347619Y-123990476D01*
X178347619Y-123038095D02*
X178823809Y-123371428D01*
X178347619Y-123609523D02*
X179347619Y-123609523D01*
X179347619Y-123228571D01*
X179300000Y-123133333D01*
X179252380Y-123085714D01*
X179157142Y-123038095D01*
X179014285Y-123038095D01*
X178919047Y-123085714D01*
X178871428Y-123133333D01*
X178823809Y-123228571D01*
X178823809Y-123609523D01*
X179014285Y-122180952D02*
X178347619Y-122180952D01*
X179395238Y-122419047D02*
X178680952Y-122657142D01*
X178680952Y-122038095D01*
X177547619Y-119452380D02*
X177547619Y-120023809D01*
X177547619Y-119738095D02*
X178547619Y-119738095D01*
X178404761Y-119833333D01*
X178309523Y-119928571D01*
X178261904Y-120023809D01*
X178547619Y-118833333D02*
X178547619Y-118738095D01*
X178500000Y-118642857D01*
X178452380Y-118595238D01*
X178357142Y-118547619D01*
X178166666Y-118500000D01*
X177928571Y-118500000D01*
X177738095Y-118547619D01*
X177642857Y-118595238D01*
X177595238Y-118642857D01*
X177547619Y-118738095D01*
X177547619Y-118833333D01*
X177595238Y-118928571D01*
X177642857Y-118976190D01*
X177738095Y-119023809D01*
X177928571Y-119071428D01*
X178166666Y-119071428D01*
X178357142Y-119023809D01*
X178452380Y-118976190D01*
X178500000Y-118928571D01*
X178547619Y-118833333D01*
X178547619Y-117880952D02*
X178547619Y-117785714D01*
X178500000Y-117690476D01*
X178452380Y-117642857D01*
X178357142Y-117595238D01*
X178166666Y-117547619D01*
X177928571Y-117547619D01*
X177738095Y-117595238D01*
X177642857Y-117642857D01*
X177595238Y-117690476D01*
X177547619Y-117785714D01*
X177547619Y-117880952D01*
X177595238Y-117976190D01*
X177642857Y-118023809D01*
X177738095Y-118071428D01*
X177928571Y-118119047D01*
X178166666Y-118119047D01*
X178357142Y-118071428D01*
X178452380Y-118023809D01*
X178500000Y-117976190D01*
X178547619Y-117880952D01*
X177547619Y-117214285D02*
X178214285Y-116690476D01*
X178214285Y-117214285D02*
X177547619Y-116690476D01*
X178547619Y-116404761D02*
X178547619Y-115785714D01*
X178166666Y-116119047D01*
X178166666Y-115976190D01*
X178119047Y-115880952D01*
X178071428Y-115833333D01*
X177976190Y-115785714D01*
X177738095Y-115785714D01*
X177642857Y-115833333D01*
X177595238Y-115880952D01*
X177547619Y-115976190D01*
X177547619Y-116261904D01*
X177595238Y-116357142D01*
X177642857Y-116404761D01*
X178452380Y-115404761D02*
X178500000Y-115357142D01*
X178547619Y-115261904D01*
X178547619Y-115023809D01*
X178500000Y-114928571D01*
X178452380Y-114880952D01*
X178357142Y-114833333D01*
X178261904Y-114833333D01*
X178119047Y-114880952D01*
X177547619Y-115452380D01*
X177547619Y-114833333D01*
X177547619Y-114500000D02*
X178214285Y-113976190D01*
X178214285Y-114500000D02*
X177547619Y-113976190D01*
X177547619Y-113071428D02*
X177547619Y-113642857D01*
X177547619Y-113357142D02*
X178547619Y-113357142D01*
X178404761Y-113452380D01*
X178309523Y-113547619D01*
X178261904Y-113642857D01*
X177642857Y-112642857D02*
X177595238Y-112595238D01*
X177547619Y-112642857D01*
X177595238Y-112690476D01*
X177642857Y-112642857D01*
X177547619Y-112642857D01*
X178547619Y-111738095D02*
X178547619Y-111928571D01*
X178500000Y-112023809D01*
X178452380Y-112071428D01*
X178309523Y-112166666D01*
X178119047Y-112214285D01*
X177738095Y-112214285D01*
X177642857Y-112166666D01*
X177595238Y-112119047D01*
X177547619Y-112023809D01*
X177547619Y-111833333D01*
X177595238Y-111738095D01*
X177642857Y-111690476D01*
X177738095Y-111642857D01*
X177976190Y-111642857D01*
X178071428Y-111690476D01*
X178119047Y-111738095D01*
X178166666Y-111833333D01*
X178166666Y-112023809D01*
X178119047Y-112119047D01*
X178071428Y-112166666D01*
X177976190Y-112214285D01*
X177547619Y-111214285D02*
X178214285Y-111214285D01*
X178119047Y-111214285D02*
X178166666Y-111166666D01*
X178214285Y-111071428D01*
X178214285Y-110928571D01*
X178166666Y-110833333D01*
X178071428Y-110785714D01*
X177547619Y-110785714D01*
X178071428Y-110785714D02*
X178166666Y-110738095D01*
X178214285Y-110642857D01*
X178214285Y-110500000D01*
X178166666Y-110404761D01*
X178071428Y-110357142D01*
X177547619Y-110357142D01*
X177547619Y-109880952D02*
X178214285Y-109880952D01*
X178119047Y-109880952D02*
X178166666Y-109833333D01*
X178214285Y-109738095D01*
X178214285Y-109595238D01*
X178166666Y-109500000D01*
X178071428Y-109452380D01*
X177547619Y-109452380D01*
X178071428Y-109452380D02*
X178166666Y-109404761D01*
X178214285Y-109309523D01*
X178214285Y-109166666D01*
X178166666Y-109071428D01*
X178071428Y-109023809D01*
X177547619Y-109023809D01*
X177000000Y-125250000D02*
X177000000Y-104250000D01*
X161500000Y-125250000D02*
X177000000Y-125250000D01*
X161500000Y-104250000D02*
X161500000Y-125250000D01*
X177000000Y-104250000D02*
X161500000Y-104250000D01*
D11*
X177255714Y-102592857D02*
X176570000Y-102592857D01*
X176912857Y-103792857D02*
X176912857Y-102592857D01*
X176170000Y-103792857D02*
X176170000Y-102992857D01*
X176170000Y-103221428D02*
X176112857Y-103107142D01*
X176055714Y-103050000D01*
X175941428Y-102992857D01*
X175827142Y-102992857D01*
X174912857Y-103792857D02*
X174912857Y-103164285D01*
X174970000Y-103050000D01*
X175084285Y-102992857D01*
X175312857Y-102992857D01*
X175427142Y-103050000D01*
X174912857Y-103735714D02*
X175027142Y-103792857D01*
X175312857Y-103792857D01*
X175427142Y-103735714D01*
X175484285Y-103621428D01*
X175484285Y-103507142D01*
X175427142Y-103392857D01*
X175312857Y-103335714D01*
X175027142Y-103335714D01*
X174912857Y-103278571D01*
X174341428Y-102992857D02*
X174341428Y-103792857D01*
X174341428Y-103107142D02*
X174284285Y-103050000D01*
X174170000Y-102992857D01*
X173998571Y-102992857D01*
X173884285Y-103050000D01*
X173827142Y-103164285D01*
X173827142Y-103792857D01*
X173312857Y-103735714D02*
X173198571Y-103792857D01*
X172970000Y-103792857D01*
X172855714Y-103735714D01*
X172798571Y-103621428D01*
X172798571Y-103564285D01*
X172855714Y-103450000D01*
X172970000Y-103392857D01*
X173141428Y-103392857D01*
X173255714Y-103335714D01*
X173312857Y-103221428D01*
X173312857Y-103164285D01*
X173255714Y-103050000D01*
X173141428Y-102992857D01*
X172970000Y-102992857D01*
X172855714Y-103050000D01*
X172284285Y-103792857D02*
X172284285Y-102992857D01*
X172284285Y-102592857D02*
X172341428Y-102650000D01*
X172284285Y-102707142D01*
X172227142Y-102650000D01*
X172284285Y-102592857D01*
X172284285Y-102707142D01*
X171770000Y-103735714D02*
X171655714Y-103792857D01*
X171427142Y-103792857D01*
X171312857Y-103735714D01*
X171255714Y-103621428D01*
X171255714Y-103564285D01*
X171312857Y-103450000D01*
X171427142Y-103392857D01*
X171598571Y-103392857D01*
X171712857Y-103335714D01*
X171770000Y-103221428D01*
X171770000Y-103164285D01*
X171712857Y-103050000D01*
X171598571Y-102992857D01*
X171427142Y-102992857D01*
X171312857Y-103050000D01*
X170912857Y-102992857D02*
X170455714Y-102992857D01*
X170741428Y-102592857D02*
X170741428Y-103621428D01*
X170684285Y-103735714D01*
X170570000Y-103792857D01*
X170455714Y-103792857D01*
X169884285Y-103792857D02*
X169998571Y-103735714D01*
X170055714Y-103678571D01*
X170112857Y-103564285D01*
X170112857Y-103221428D01*
X170055714Y-103107142D01*
X169998571Y-103050000D01*
X169884285Y-102992857D01*
X169712857Y-102992857D01*
X169598571Y-103050000D01*
X169541428Y-103107142D01*
X169484285Y-103221428D01*
X169484285Y-103564285D01*
X169541428Y-103678571D01*
X169598571Y-103735714D01*
X169712857Y-103792857D01*
X169884285Y-103792857D01*
X168970000Y-103792857D02*
X168970000Y-102992857D01*
X168970000Y-103221428D02*
X168912857Y-103107142D01*
X168855714Y-103050000D01*
X168741428Y-102992857D01*
X168627142Y-102992857D01*
X167370000Y-103735714D02*
X167255714Y-103792857D01*
X167027142Y-103792857D01*
X166912857Y-103735714D01*
X166855714Y-103621428D01*
X166855714Y-103564285D01*
X166912857Y-103450000D01*
X167027142Y-103392857D01*
X167198571Y-103392857D01*
X167312857Y-103335714D01*
X167370000Y-103221428D01*
X167370000Y-103164285D01*
X167312857Y-103050000D01*
X167198571Y-102992857D01*
X167027142Y-102992857D01*
X166912857Y-103050000D01*
X166455714Y-102992857D02*
X166170000Y-103792857D01*
X165884285Y-102992857D02*
X166170000Y-103792857D01*
X166284285Y-104078571D01*
X166341428Y-104135714D01*
X166455714Y-104192857D01*
X165427142Y-103792857D02*
X165427142Y-102992857D01*
X165427142Y-103107142D02*
X165370000Y-103050000D01*
X165255714Y-102992857D01*
X165084285Y-102992857D01*
X164970000Y-103050000D01*
X164912857Y-103164285D01*
X164912857Y-103792857D01*
X164912857Y-103164285D02*
X164855714Y-103050000D01*
X164741428Y-102992857D01*
X164570000Y-102992857D01*
X164455714Y-103050000D01*
X164398571Y-103164285D01*
X164398571Y-103792857D01*
X163827142Y-103792857D02*
X163827142Y-102592857D01*
X163827142Y-103050000D02*
X163712857Y-102992857D01*
X163484285Y-102992857D01*
X163370000Y-103050000D01*
X163312857Y-103107142D01*
X163255714Y-103221428D01*
X163255714Y-103564285D01*
X163312857Y-103678571D01*
X163370000Y-103735714D01*
X163484285Y-103792857D01*
X163712857Y-103792857D01*
X163827142Y-103735714D01*
X162570000Y-103792857D02*
X162684285Y-103735714D01*
X162741428Y-103678571D01*
X162798571Y-103564285D01*
X162798571Y-103221428D01*
X162741428Y-103107142D01*
X162684285Y-103050000D01*
X162570000Y-102992857D01*
X162398571Y-102992857D01*
X162284285Y-103050000D01*
X162227142Y-103107142D01*
X162170000Y-103221428D01*
X162170000Y-103564285D01*
X162227142Y-103678571D01*
X162284285Y-103735714D01*
X162398571Y-103792857D01*
X162570000Y-103792857D01*
X161484285Y-103792857D02*
X161598571Y-103735714D01*
X161655714Y-103621428D01*
X161655714Y-102592857D01*
X161084285Y-103735714D02*
X160970000Y-103792857D01*
X160741428Y-103792857D01*
X160627142Y-103735714D01*
X160570000Y-103621428D01*
X160570000Y-103564285D01*
X160627142Y-103450000D01*
X160741428Y-103392857D01*
X160912857Y-103392857D01*
X161027142Y-103335714D01*
X161084285Y-103221428D01*
X161084285Y-103164285D01*
X161027142Y-103050000D01*
X160912857Y-102992857D01*
X160741428Y-102992857D01*
X160627142Y-103050000D01*
D10*
X110500000Y-104250000D02*
X110500000Y-125250000D01*
X121750000Y-104250000D02*
X110500000Y-104250000D01*
X121750000Y-125250000D02*
X121750000Y-104250000D01*
X110500000Y-125250000D02*
X121750000Y-125250000D01*
D11*
X159271428Y-121542857D02*
X159214285Y-121600000D01*
X159157142Y-121771428D01*
X159157142Y-121885714D01*
X159214285Y-122057142D01*
X159328571Y-122171428D01*
X159442857Y-122228571D01*
X159671428Y-122285714D01*
X159842857Y-122285714D01*
X160071428Y-122228571D01*
X160185714Y-122171428D01*
X160300000Y-122057142D01*
X160357142Y-121885714D01*
X160357142Y-121771428D01*
X160300000Y-121600000D01*
X160242857Y-121542857D01*
X159157142Y-120857142D02*
X159214285Y-120971428D01*
X159271428Y-121028571D01*
X159385714Y-121085714D01*
X159728571Y-121085714D01*
X159842857Y-121028571D01*
X159900000Y-120971428D01*
X159957142Y-120857142D01*
X159957142Y-120685714D01*
X159900000Y-120571428D01*
X159842857Y-120514285D01*
X159728571Y-120457142D01*
X159385714Y-120457142D01*
X159271428Y-120514285D01*
X159214285Y-120571428D01*
X159157142Y-120685714D01*
X159157142Y-120857142D01*
X159157142Y-119942857D02*
X159957142Y-119942857D01*
X159842857Y-119942857D02*
X159900000Y-119885714D01*
X159957142Y-119771428D01*
X159957142Y-119600000D01*
X159900000Y-119485714D01*
X159785714Y-119428571D01*
X159157142Y-119428571D01*
X159785714Y-119428571D02*
X159900000Y-119371428D01*
X159957142Y-119257142D01*
X159957142Y-119085714D01*
X159900000Y-118971428D01*
X159785714Y-118914285D01*
X159157142Y-118914285D01*
X159157142Y-118342857D02*
X159957142Y-118342857D01*
X159842857Y-118342857D02*
X159900000Y-118285714D01*
X159957142Y-118171428D01*
X159957142Y-118000000D01*
X159900000Y-117885714D01*
X159785714Y-117828571D01*
X159157142Y-117828571D01*
X159785714Y-117828571D02*
X159900000Y-117771428D01*
X159957142Y-117657142D01*
X159957142Y-117485714D01*
X159900000Y-117371428D01*
X159785714Y-117314285D01*
X159157142Y-117314285D01*
X159157142Y-116571428D02*
X159214285Y-116685714D01*
X159271428Y-116742857D01*
X159385714Y-116800000D01*
X159728571Y-116800000D01*
X159842857Y-116742857D01*
X159900000Y-116685714D01*
X159957142Y-116571428D01*
X159957142Y-116400000D01*
X159900000Y-116285714D01*
X159842857Y-116228571D01*
X159728571Y-116171428D01*
X159385714Y-116171428D01*
X159271428Y-116228571D01*
X159214285Y-116285714D01*
X159157142Y-116400000D01*
X159157142Y-116571428D01*
X159957142Y-115657142D02*
X159157142Y-115657142D01*
X159842857Y-115657142D02*
X159900000Y-115600000D01*
X159957142Y-115485714D01*
X159957142Y-115314285D01*
X159900000Y-115200000D01*
X159785714Y-115142857D01*
X159157142Y-115142857D01*
X159157142Y-113657142D02*
X160357142Y-113657142D01*
X160357142Y-113200000D01*
X160300000Y-113085714D01*
X160242857Y-113028571D01*
X160128571Y-112971428D01*
X159957142Y-112971428D01*
X159842857Y-113028571D01*
X159785714Y-113085714D01*
X159728571Y-113200000D01*
X159728571Y-113657142D01*
X159157142Y-111942857D02*
X159785714Y-111942857D01*
X159900000Y-112000000D01*
X159957142Y-112114285D01*
X159957142Y-112342857D01*
X159900000Y-112457142D01*
X159214285Y-111942857D02*
X159157142Y-112057142D01*
X159157142Y-112342857D01*
X159214285Y-112457142D01*
X159328571Y-112514285D01*
X159442857Y-112514285D01*
X159557142Y-112457142D01*
X159614285Y-112342857D01*
X159614285Y-112057142D01*
X159671428Y-111942857D01*
X159214285Y-110857142D02*
X159157142Y-110971428D01*
X159157142Y-111200000D01*
X159214285Y-111314285D01*
X159271428Y-111371428D01*
X159385714Y-111428571D01*
X159728571Y-111428571D01*
X159842857Y-111371428D01*
X159900000Y-111314285D01*
X159957142Y-111200000D01*
X159957142Y-110971428D01*
X159900000Y-110857142D01*
X159157142Y-110342857D02*
X160357142Y-110342857D01*
X159614285Y-110228571D02*
X159157142Y-109885714D01*
X159957142Y-109885714D02*
X159500000Y-110342857D01*
X159157142Y-108857142D02*
X159785714Y-108857142D01*
X159900000Y-108914285D01*
X159957142Y-109028571D01*
X159957142Y-109257142D01*
X159900000Y-109371428D01*
X159214285Y-108857142D02*
X159157142Y-108971428D01*
X159157142Y-109257142D01*
X159214285Y-109371428D01*
X159328571Y-109428571D01*
X159442857Y-109428571D01*
X159557142Y-109371428D01*
X159614285Y-109257142D01*
X159614285Y-108971428D01*
X159671428Y-108857142D01*
X159957142Y-107771428D02*
X158985714Y-107771428D01*
X158871428Y-107828571D01*
X158814285Y-107885714D01*
X158757142Y-108000000D01*
X158757142Y-108171428D01*
X158814285Y-108285714D01*
X159214285Y-107771428D02*
X159157142Y-107885714D01*
X159157142Y-108114285D01*
X159214285Y-108228571D01*
X159271428Y-108285714D01*
X159385714Y-108342857D01*
X159728571Y-108342857D01*
X159842857Y-108285714D01*
X159900000Y-108228571D01*
X159957142Y-108114285D01*
X159957142Y-107885714D01*
X159900000Y-107771428D01*
X159214285Y-106742857D02*
X159157142Y-106857142D01*
X159157142Y-107085714D01*
X159214285Y-107200000D01*
X159328571Y-107257142D01*
X159785714Y-107257142D01*
X159900000Y-107200000D01*
X159957142Y-107085714D01*
X159957142Y-106857142D01*
X159900000Y-106742857D01*
X159785714Y-106685714D01*
X159671428Y-106685714D01*
X159557142Y-107257142D01*
X159214285Y-106228571D02*
X159157142Y-106114285D01*
X159157142Y-105885714D01*
X159214285Y-105771428D01*
X159328571Y-105714285D01*
X159385714Y-105714285D01*
X159500000Y-105771428D01*
X159557142Y-105885714D01*
X159557142Y-106057142D01*
X159614285Y-106171428D01*
X159728571Y-106228571D01*
X159785714Y-106228571D01*
X159900000Y-106171428D01*
X159957142Y-106057142D01*
X159957142Y-105885714D01*
X159900000Y-105771428D01*
D10*
X137500000Y-104250000D02*
X137500000Y-125250000D01*
X158500000Y-104250000D02*
X137500000Y-104250000D01*
X158500000Y-125250000D02*
X158500000Y-104250000D01*
X137500000Y-125250000D02*
X158500000Y-125250000D01*
X139437976Y-108052380D02*
X139914166Y-108052380D01*
X139961785Y-108528571D01*
X139914166Y-108480952D01*
X139818928Y-108433333D01*
X139580833Y-108433333D01*
X139485595Y-108480952D01*
X139437976Y-108528571D01*
X139390357Y-108623809D01*
X139390357Y-108861904D01*
X139437976Y-108957142D01*
X139485595Y-109004761D01*
X139580833Y-109052380D01*
X139818928Y-109052380D01*
X139914166Y-109004761D01*
X139961785Y-108957142D01*
X138771309Y-108052380D02*
X138676071Y-108052380D01*
X138580833Y-108100000D01*
X138533214Y-108147619D01*
X138485595Y-108242857D01*
X138437976Y-108433333D01*
X138437976Y-108671428D01*
X138485595Y-108861904D01*
X138533214Y-108957142D01*
X138580833Y-109004761D01*
X138676071Y-109052380D01*
X138771309Y-109052380D01*
X138866547Y-109004761D01*
X138914166Y-108957142D01*
X138961785Y-108861904D01*
X139009404Y-108671428D01*
X139009404Y-108433333D01*
X138961785Y-108242857D01*
X138914166Y-108147619D01*
X138866547Y-108100000D01*
X138771309Y-108052380D01*
X145423928Y-108052380D02*
X145328690Y-108052380D01*
X145233452Y-108100000D01*
X145185833Y-108147619D01*
X145138214Y-108242857D01*
X145090595Y-108433333D01*
X145090595Y-108671428D01*
X145138214Y-108861904D01*
X145185833Y-108957142D01*
X145233452Y-109004761D01*
X145328690Y-109052380D01*
X145423928Y-109052380D01*
X145519166Y-109004761D01*
X145566785Y-108957142D01*
X145614404Y-108861904D01*
X145662023Y-108671428D01*
X145662023Y-108433333D01*
X145614404Y-108242857D01*
X145566785Y-108147619D01*
X145519166Y-108100000D01*
X145423928Y-108052380D01*
X144233452Y-108052380D02*
X144423928Y-108052380D01*
X144519166Y-108100000D01*
X144566785Y-108147619D01*
X144662023Y-108290476D01*
X144709642Y-108480952D01*
X144709642Y-108861904D01*
X144662023Y-108957142D01*
X144614404Y-109004761D01*
X144519166Y-109052380D01*
X144328690Y-109052380D01*
X144233452Y-109004761D01*
X144185833Y-108957142D01*
X144138214Y-108861904D01*
X144138214Y-108623809D01*
X144185833Y-108528571D01*
X144233452Y-108480952D01*
X144328690Y-108433333D01*
X144519166Y-108433333D01*
X144614404Y-108480952D01*
X144662023Y-108528571D01*
X144709642Y-108623809D01*
X143519166Y-108052380D02*
X143423928Y-108052380D01*
X143328690Y-108100000D01*
X143281071Y-108147619D01*
X143233452Y-108242857D01*
X143185833Y-108433333D01*
X143185833Y-108671428D01*
X143233452Y-108861904D01*
X143281071Y-108957142D01*
X143328690Y-109004761D01*
X143423928Y-109052380D01*
X143519166Y-109052380D01*
X143614404Y-109004761D01*
X143662023Y-108957142D01*
X143709642Y-108861904D01*
X143757261Y-108671428D01*
X143757261Y-108433333D01*
X143709642Y-108242857D01*
X143662023Y-108147619D01*
X143614404Y-108100000D01*
X143519166Y-108052380D01*
X142852500Y-108052380D02*
X142233452Y-108052380D01*
X142566785Y-108433333D01*
X142423928Y-108433333D01*
X142328690Y-108480952D01*
X142281071Y-108528571D01*
X142233452Y-108623809D01*
X142233452Y-108861904D01*
X142281071Y-108957142D01*
X142328690Y-109004761D01*
X142423928Y-109052380D01*
X142709642Y-109052380D01*
X142804880Y-109004761D01*
X142852500Y-108957142D01*
X140009404Y-106452380D02*
X139390357Y-106452380D01*
X139723690Y-106833333D01*
X139580833Y-106833333D01*
X139485595Y-106880952D01*
X139437976Y-106928571D01*
X139390357Y-107023809D01*
X139390357Y-107261904D01*
X139437976Y-107357142D01*
X139485595Y-107404761D01*
X139580833Y-107452380D01*
X139866547Y-107452380D01*
X139961785Y-107404761D01*
X140009404Y-107357142D01*
X138437976Y-107452380D02*
X139009404Y-107452380D01*
X138723690Y-107452380D02*
X138723690Y-106452380D01*
X138818928Y-106595238D01*
X138914166Y-106690476D01*
X139009404Y-106738095D01*
X140342738Y-112252380D02*
X140914166Y-112252380D01*
X140628452Y-112252380D02*
X140628452Y-111252380D01*
X140723690Y-111395238D01*
X140818928Y-111490476D01*
X140914166Y-111538095D01*
X139723690Y-111252380D02*
X139628452Y-111252380D01*
X139533214Y-111300000D01*
X139485595Y-111347619D01*
X139437976Y-111442857D01*
X139390357Y-111633333D01*
X139390357Y-111871428D01*
X139437976Y-112061904D01*
X139485595Y-112157142D01*
X139533214Y-112204761D01*
X139628452Y-112252380D01*
X139723690Y-112252380D01*
X139818928Y-112204761D01*
X139866547Y-112157142D01*
X139914166Y-112061904D01*
X139961785Y-111871428D01*
X139961785Y-111633333D01*
X139914166Y-111442857D01*
X139866547Y-111347619D01*
X139818928Y-111300000D01*
X139723690Y-111252380D01*
X138771309Y-111252380D02*
X138676071Y-111252380D01*
X138580833Y-111300000D01*
X138533214Y-111347619D01*
X138485595Y-111442857D01*
X138437976Y-111633333D01*
X138437976Y-111871428D01*
X138485595Y-112061904D01*
X138533214Y-112157142D01*
X138580833Y-112204761D01*
X138676071Y-112252380D01*
X138771309Y-112252380D01*
X138866547Y-112204761D01*
X138914166Y-112157142D01*
X138961785Y-112061904D01*
X139009404Y-111871428D01*
X139009404Y-111633333D01*
X138961785Y-111442857D01*
X138914166Y-111347619D01*
X138866547Y-111300000D01*
X138771309Y-111252380D01*
X140342738Y-110652380D02*
X140914166Y-110652380D01*
X140628452Y-110652380D02*
X140628452Y-109652380D01*
X140723690Y-109795238D01*
X140818928Y-109890476D01*
X140914166Y-109938095D01*
X139723690Y-109652380D02*
X139628452Y-109652380D01*
X139533214Y-109700000D01*
X139485595Y-109747619D01*
X139437976Y-109842857D01*
X139390357Y-110033333D01*
X139390357Y-110271428D01*
X139437976Y-110461904D01*
X139485595Y-110557142D01*
X139533214Y-110604761D01*
X139628452Y-110652380D01*
X139723690Y-110652380D01*
X139818928Y-110604761D01*
X139866547Y-110557142D01*
X139914166Y-110461904D01*
X139961785Y-110271428D01*
X139961785Y-110033333D01*
X139914166Y-109842857D01*
X139866547Y-109747619D01*
X139818928Y-109700000D01*
X139723690Y-109652380D01*
X138771309Y-109652380D02*
X138676071Y-109652380D01*
X138580833Y-109700000D01*
X138533214Y-109747619D01*
X138485595Y-109842857D01*
X138437976Y-110033333D01*
X138437976Y-110271428D01*
X138485595Y-110461904D01*
X138533214Y-110557142D01*
X138580833Y-110604761D01*
X138676071Y-110652380D01*
X138771309Y-110652380D01*
X138866547Y-110604761D01*
X138914166Y-110557142D01*
X138961785Y-110461904D01*
X139009404Y-110271428D01*
X139009404Y-110033333D01*
X138961785Y-109842857D01*
X138914166Y-109747619D01*
X138866547Y-109700000D01*
X138771309Y-109652380D01*
X140961785Y-122452380D02*
X140295119Y-122452380D01*
X140723690Y-123452380D01*
X139437976Y-122452380D02*
X139914166Y-122452380D01*
X139961785Y-122928571D01*
X139914166Y-122880952D01*
X139818928Y-122833333D01*
X139580833Y-122833333D01*
X139485595Y-122880952D01*
X139437976Y-122928571D01*
X139390357Y-123023809D01*
X139390357Y-123261904D01*
X139437976Y-123357142D01*
X139485595Y-123404761D01*
X139580833Y-123452380D01*
X139818928Y-123452380D01*
X139914166Y-123404761D01*
X139961785Y-123357142D01*
X138771309Y-122452380D02*
X138676071Y-122452380D01*
X138580833Y-122500000D01*
X138533214Y-122547619D01*
X138485595Y-122642857D01*
X138437976Y-122833333D01*
X138437976Y-123071428D01*
X138485595Y-123261904D01*
X138533214Y-123357142D01*
X138580833Y-123404761D01*
X138676071Y-123452380D01*
X138771309Y-123452380D01*
X138866547Y-123404761D01*
X138914166Y-123357142D01*
X138961785Y-123261904D01*
X139009404Y-123071428D01*
X139009404Y-122833333D01*
X138961785Y-122642857D01*
X138914166Y-122547619D01*
X138866547Y-122500000D01*
X138771309Y-122452380D01*
X140914166Y-115597619D02*
X140866547Y-115550000D01*
X140771309Y-115502380D01*
X140533214Y-115502380D01*
X140437976Y-115550000D01*
X140390357Y-115597619D01*
X140342738Y-115692857D01*
X140342738Y-115788095D01*
X140390357Y-115930952D01*
X140961785Y-116502380D01*
X140342738Y-116502380D01*
X139437976Y-115502380D02*
X139914166Y-115502380D01*
X139961785Y-115978571D01*
X139914166Y-115930952D01*
X139818928Y-115883333D01*
X139580833Y-115883333D01*
X139485595Y-115930952D01*
X139437976Y-115978571D01*
X139390357Y-116073809D01*
X139390357Y-116311904D01*
X139437976Y-116407142D01*
X139485595Y-116454761D01*
X139580833Y-116502380D01*
X139818928Y-116502380D01*
X139914166Y-116454761D01*
X139961785Y-116407142D01*
X138771309Y-115502380D02*
X138676071Y-115502380D01*
X138580833Y-115550000D01*
X138533214Y-115597619D01*
X138485595Y-115692857D01*
X138437976Y-115883333D01*
X138437976Y-116121428D01*
X138485595Y-116311904D01*
X138533214Y-116407142D01*
X138580833Y-116454761D01*
X138676071Y-116502380D01*
X138771309Y-116502380D01*
X138866547Y-116454761D01*
X138914166Y-116407142D01*
X138961785Y-116311904D01*
X139009404Y-116121428D01*
X139009404Y-115883333D01*
X138961785Y-115692857D01*
X138914166Y-115597619D01*
X138866547Y-115550000D01*
X138771309Y-115502380D01*
X140342738Y-114202380D02*
X140914166Y-114202380D01*
X140628452Y-114202380D02*
X140628452Y-113202380D01*
X140723690Y-113345238D01*
X140818928Y-113440476D01*
X140914166Y-113488095D01*
X139961785Y-113297619D02*
X139914166Y-113250000D01*
X139818928Y-113202380D01*
X139580833Y-113202380D01*
X139485595Y-113250000D01*
X139437976Y-113297619D01*
X139390357Y-113392857D01*
X139390357Y-113488095D01*
X139437976Y-113630952D01*
X140009404Y-114202380D01*
X139390357Y-114202380D01*
X138485595Y-113202380D02*
X138961785Y-113202380D01*
X139009404Y-113678571D01*
X138961785Y-113630952D01*
X138866547Y-113583333D01*
X138628452Y-113583333D01*
X138533214Y-113630952D01*
X138485595Y-113678571D01*
X138437976Y-113773809D01*
X138437976Y-114011904D01*
X138485595Y-114107142D01*
X138533214Y-114154761D01*
X138628452Y-114202380D01*
X138866547Y-114202380D01*
X138961785Y-114154761D01*
X139009404Y-114107142D01*
X140390357Y-118652380D02*
X140866547Y-118652380D01*
X140914166Y-119128571D01*
X140866547Y-119080952D01*
X140771309Y-119033333D01*
X140533214Y-119033333D01*
X140437976Y-119080952D01*
X140390357Y-119128571D01*
X140342738Y-119223809D01*
X140342738Y-119461904D01*
X140390357Y-119557142D01*
X140437976Y-119604761D01*
X140533214Y-119652380D01*
X140771309Y-119652380D01*
X140866547Y-119604761D01*
X140914166Y-119557142D01*
X139723690Y-118652380D02*
X139628452Y-118652380D01*
X139533214Y-118700000D01*
X139485595Y-118747619D01*
X139437976Y-118842857D01*
X139390357Y-119033333D01*
X139390357Y-119271428D01*
X139437976Y-119461904D01*
X139485595Y-119557142D01*
X139533214Y-119604761D01*
X139628452Y-119652380D01*
X139723690Y-119652380D01*
X139818928Y-119604761D01*
X139866547Y-119557142D01*
X139914166Y-119461904D01*
X139961785Y-119271428D01*
X139961785Y-119033333D01*
X139914166Y-118842857D01*
X139866547Y-118747619D01*
X139818928Y-118700000D01*
X139723690Y-118652380D01*
X138771309Y-118652380D02*
X138676071Y-118652380D01*
X138580833Y-118700000D01*
X138533214Y-118747619D01*
X138485595Y-118842857D01*
X138437976Y-119033333D01*
X138437976Y-119271428D01*
X138485595Y-119461904D01*
X138533214Y-119557142D01*
X138580833Y-119604761D01*
X138676071Y-119652380D01*
X138771309Y-119652380D01*
X138866547Y-119604761D01*
X138914166Y-119557142D01*
X138961785Y-119461904D01*
X139009404Y-119271428D01*
X139009404Y-119033333D01*
X138961785Y-118842857D01*
X138914166Y-118747619D01*
X138866547Y-118700000D01*
X138771309Y-118652380D01*
X140808452Y-105852380D02*
X140725119Y-105185714D01*
X140737023Y-105280952D02*
X140683452Y-105233333D01*
X140582261Y-105185714D01*
X140439404Y-105185714D01*
X140350119Y-105233333D01*
X140314404Y-105328571D01*
X140379880Y-105852380D01*
X140314404Y-105328571D02*
X140254880Y-105233333D01*
X140153690Y-105185714D01*
X140010833Y-105185714D01*
X139921547Y-105233333D01*
X139885833Y-105328571D01*
X139951309Y-105852380D01*
X139445357Y-104852380D02*
X139332261Y-105852380D01*
X139052500Y-105138095D01*
X138951309Y-105852380D01*
X138588214Y-104852380D01*
X145008452Y-105852380D02*
X144925119Y-105185714D01*
X144937023Y-105280952D02*
X144883452Y-105233333D01*
X144782261Y-105185714D01*
X144639404Y-105185714D01*
X144550119Y-105233333D01*
X144514404Y-105328571D01*
X144579880Y-105852380D01*
X144514404Y-105328571D02*
X144454880Y-105233333D01*
X144353690Y-105185714D01*
X144210833Y-105185714D01*
X144121547Y-105233333D01*
X144085833Y-105328571D01*
X144151309Y-105852380D01*
X143675119Y-105852380D02*
X143591785Y-105185714D01*
X143603690Y-105280952D02*
X143550119Y-105233333D01*
X143448928Y-105185714D01*
X143306071Y-105185714D01*
X143216785Y-105233333D01*
X143181071Y-105328571D01*
X143246547Y-105852380D01*
X143181071Y-105328571D02*
X143121547Y-105233333D01*
X143020357Y-105185714D01*
X142877500Y-105185714D01*
X142788214Y-105233333D01*
X142752500Y-105328571D01*
X142817976Y-105852380D01*
X145185833Y-122785714D02*
X145185833Y-123452380D01*
X145423928Y-122404761D02*
X145662023Y-123119047D01*
X145042976Y-123119047D01*
X144185833Y-122452380D02*
X144662023Y-122452380D01*
X144709642Y-122928571D01*
X144662023Y-122880952D01*
X144566785Y-122833333D01*
X144328690Y-122833333D01*
X144233452Y-122880952D01*
X144185833Y-122928571D01*
X144138214Y-123023809D01*
X144138214Y-123261904D01*
X144185833Y-123357142D01*
X144233452Y-123404761D01*
X144328690Y-123452380D01*
X144566785Y-123452380D01*
X144662023Y-123404761D01*
X144709642Y-123357142D01*
X143804880Y-122452380D02*
X143185833Y-122452380D01*
X143519166Y-122833333D01*
X143376309Y-122833333D01*
X143281071Y-122880952D01*
X143233452Y-122928571D01*
X143185833Y-123023809D01*
X143185833Y-123261904D01*
X143233452Y-123357142D01*
X143281071Y-123404761D01*
X143376309Y-123452380D01*
X143662023Y-123452380D01*
X143757261Y-123404761D01*
X143804880Y-123357142D01*
X142804880Y-122547619D02*
X142757261Y-122500000D01*
X142662023Y-122452380D01*
X142423928Y-122452380D01*
X142328690Y-122500000D01*
X142281071Y-122547619D01*
X142233452Y-122642857D01*
X142233452Y-122738095D01*
X142281071Y-122880952D01*
X142852500Y-123452380D01*
X142233452Y-123452380D01*
X145709642Y-118652380D02*
X145090595Y-118652380D01*
X145423928Y-119033333D01*
X145281071Y-119033333D01*
X145185833Y-119080952D01*
X145138214Y-119128571D01*
X145090595Y-119223809D01*
X145090595Y-119461904D01*
X145138214Y-119557142D01*
X145185833Y-119604761D01*
X145281071Y-119652380D01*
X145566785Y-119652380D01*
X145662023Y-119604761D01*
X145709642Y-119557142D01*
X144709642Y-118747619D02*
X144662023Y-118700000D01*
X144566785Y-118652380D01*
X144328690Y-118652380D01*
X144233452Y-118700000D01*
X144185833Y-118747619D01*
X144138214Y-118842857D01*
X144138214Y-118938095D01*
X144185833Y-119080952D01*
X144757261Y-119652380D01*
X144138214Y-119652380D01*
X143757261Y-118747619D02*
X143709642Y-118700000D01*
X143614404Y-118652380D01*
X143376309Y-118652380D01*
X143281071Y-118700000D01*
X143233452Y-118747619D01*
X143185833Y-118842857D01*
X143185833Y-118938095D01*
X143233452Y-119080952D01*
X143804880Y-119652380D01*
X143185833Y-119652380D01*
X142281071Y-118652380D02*
X142757261Y-118652380D01*
X142804880Y-119128571D01*
X142757261Y-119080952D01*
X142662023Y-119033333D01*
X142423928Y-119033333D01*
X142328690Y-119080952D01*
X142281071Y-119128571D01*
X142233452Y-119223809D01*
X142233452Y-119461904D01*
X142281071Y-119557142D01*
X142328690Y-119604761D01*
X142423928Y-119652380D01*
X142662023Y-119652380D01*
X142757261Y-119604761D01*
X142804880Y-119557142D01*
X145709642Y-115502380D02*
X145090595Y-115502380D01*
X145423928Y-115883333D01*
X145281071Y-115883333D01*
X145185833Y-115930952D01*
X145138214Y-115978571D01*
X145090595Y-116073809D01*
X145090595Y-116311904D01*
X145138214Y-116407142D01*
X145185833Y-116454761D01*
X145281071Y-116502380D01*
X145566785Y-116502380D01*
X145662023Y-116454761D01*
X145709642Y-116407142D01*
X144709642Y-115597619D02*
X144662023Y-115550000D01*
X144566785Y-115502380D01*
X144328690Y-115502380D01*
X144233452Y-115550000D01*
X144185833Y-115597619D01*
X144138214Y-115692857D01*
X144138214Y-115788095D01*
X144185833Y-115930952D01*
X144757261Y-116502380D01*
X144138214Y-116502380D01*
X143185833Y-116502380D02*
X143757261Y-116502380D01*
X143471547Y-116502380D02*
X143471547Y-115502380D01*
X143566785Y-115645238D01*
X143662023Y-115740476D01*
X143757261Y-115788095D01*
X142328690Y-115502380D02*
X142519166Y-115502380D01*
X142614404Y-115550000D01*
X142662023Y-115597619D01*
X142757261Y-115740476D01*
X142804880Y-115930952D01*
X142804880Y-116311904D01*
X142757261Y-116407142D01*
X142709642Y-116454761D01*
X142614404Y-116502380D01*
X142423928Y-116502380D01*
X142328690Y-116454761D01*
X142281071Y-116407142D01*
X142233452Y-116311904D01*
X142233452Y-116073809D01*
X142281071Y-115978571D01*
X142328690Y-115930952D01*
X142423928Y-115883333D01*
X142614404Y-115883333D01*
X142709642Y-115930952D01*
X142757261Y-115978571D01*
X142804880Y-116073809D01*
X145662023Y-113297619D02*
X145614404Y-113250000D01*
X145519166Y-113202380D01*
X145281071Y-113202380D01*
X145185833Y-113250000D01*
X145138214Y-113297619D01*
X145090595Y-113392857D01*
X145090595Y-113488095D01*
X145138214Y-113630952D01*
X145709642Y-114202380D01*
X145090595Y-114202380D01*
X144471547Y-113202380D02*
X144376309Y-113202380D01*
X144281071Y-113250000D01*
X144233452Y-113297619D01*
X144185833Y-113392857D01*
X144138214Y-113583333D01*
X144138214Y-113821428D01*
X144185833Y-114011904D01*
X144233452Y-114107142D01*
X144281071Y-114154761D01*
X144376309Y-114202380D01*
X144471547Y-114202380D01*
X144566785Y-114154761D01*
X144614404Y-114107142D01*
X144662023Y-114011904D01*
X144709642Y-113821428D01*
X144709642Y-113583333D01*
X144662023Y-113392857D01*
X144614404Y-113297619D01*
X144566785Y-113250000D01*
X144471547Y-113202380D01*
X143185833Y-114202380D02*
X143757261Y-114202380D01*
X143471547Y-114202380D02*
X143471547Y-113202380D01*
X143566785Y-113345238D01*
X143662023Y-113440476D01*
X143757261Y-113488095D01*
X142804880Y-113297619D02*
X142757261Y-113250000D01*
X142662023Y-113202380D01*
X142423928Y-113202380D01*
X142328690Y-113250000D01*
X142281071Y-113297619D01*
X142233452Y-113392857D01*
X142233452Y-113488095D01*
X142281071Y-113630952D01*
X142852500Y-114202380D01*
X142233452Y-114202380D01*
X145090595Y-112252380D02*
X145662023Y-112252380D01*
X145376309Y-112252380D02*
X145376309Y-111252380D01*
X145471547Y-111395238D01*
X145566785Y-111490476D01*
X145662023Y-111538095D01*
X144233452Y-111252380D02*
X144423928Y-111252380D01*
X144519166Y-111300000D01*
X144566785Y-111347619D01*
X144662023Y-111490476D01*
X144709642Y-111680952D01*
X144709642Y-112061904D01*
X144662023Y-112157142D01*
X144614404Y-112204761D01*
X144519166Y-112252380D01*
X144328690Y-112252380D01*
X144233452Y-112204761D01*
X144185833Y-112157142D01*
X144138214Y-112061904D01*
X144138214Y-111823809D01*
X144185833Y-111728571D01*
X144233452Y-111680952D01*
X144328690Y-111633333D01*
X144519166Y-111633333D01*
X144614404Y-111680952D01*
X144662023Y-111728571D01*
X144709642Y-111823809D01*
X143519166Y-111252380D02*
X143423928Y-111252380D01*
X143328690Y-111300000D01*
X143281071Y-111347619D01*
X143233452Y-111442857D01*
X143185833Y-111633333D01*
X143185833Y-111871428D01*
X143233452Y-112061904D01*
X143281071Y-112157142D01*
X143328690Y-112204761D01*
X143423928Y-112252380D01*
X143519166Y-112252380D01*
X143614404Y-112204761D01*
X143662023Y-112157142D01*
X143709642Y-112061904D01*
X143757261Y-111871428D01*
X143757261Y-111633333D01*
X143709642Y-111442857D01*
X143662023Y-111347619D01*
X143614404Y-111300000D01*
X143519166Y-111252380D01*
X142614404Y-111680952D02*
X142709642Y-111633333D01*
X142757261Y-111585714D01*
X142804880Y-111490476D01*
X142804880Y-111442857D01*
X142757261Y-111347619D01*
X142709642Y-111300000D01*
X142614404Y-111252380D01*
X142423928Y-111252380D01*
X142328690Y-111300000D01*
X142281071Y-111347619D01*
X142233452Y-111442857D01*
X142233452Y-111490476D01*
X142281071Y-111585714D01*
X142328690Y-111633333D01*
X142423928Y-111680952D01*
X142614404Y-111680952D01*
X142709642Y-111728571D01*
X142757261Y-111776190D01*
X142804880Y-111871428D01*
X142804880Y-112061904D01*
X142757261Y-112157142D01*
X142709642Y-112204761D01*
X142614404Y-112252380D01*
X142423928Y-112252380D01*
X142328690Y-112204761D01*
X142281071Y-112157142D01*
X142233452Y-112061904D01*
X142233452Y-111871428D01*
X142281071Y-111776190D01*
X142328690Y-111728571D01*
X142423928Y-111680952D01*
X145090595Y-110652380D02*
X145662023Y-110652380D01*
X145376309Y-110652380D02*
X145376309Y-109652380D01*
X145471547Y-109795238D01*
X145566785Y-109890476D01*
X145662023Y-109938095D01*
X144471547Y-109652380D02*
X144376309Y-109652380D01*
X144281071Y-109700000D01*
X144233452Y-109747619D01*
X144185833Y-109842857D01*
X144138214Y-110033333D01*
X144138214Y-110271428D01*
X144185833Y-110461904D01*
X144233452Y-110557142D01*
X144281071Y-110604761D01*
X144376309Y-110652380D01*
X144471547Y-110652380D01*
X144566785Y-110604761D01*
X144614404Y-110557142D01*
X144662023Y-110461904D01*
X144709642Y-110271428D01*
X144709642Y-110033333D01*
X144662023Y-109842857D01*
X144614404Y-109747619D01*
X144566785Y-109700000D01*
X144471547Y-109652380D01*
X143519166Y-109652380D02*
X143423928Y-109652380D01*
X143328690Y-109700000D01*
X143281071Y-109747619D01*
X143233452Y-109842857D01*
X143185833Y-110033333D01*
X143185833Y-110271428D01*
X143233452Y-110461904D01*
X143281071Y-110557142D01*
X143328690Y-110604761D01*
X143423928Y-110652380D01*
X143519166Y-110652380D01*
X143614404Y-110604761D01*
X143662023Y-110557142D01*
X143709642Y-110461904D01*
X143757261Y-110271428D01*
X143757261Y-110033333D01*
X143709642Y-109842857D01*
X143662023Y-109747619D01*
X143614404Y-109700000D01*
X143519166Y-109652380D01*
X142281071Y-109652380D02*
X142757261Y-109652380D01*
X142804880Y-110128571D01*
X142757261Y-110080952D01*
X142662023Y-110033333D01*
X142423928Y-110033333D01*
X142328690Y-110080952D01*
X142281071Y-110128571D01*
X142233452Y-110223809D01*
X142233452Y-110461904D01*
X142281071Y-110557142D01*
X142328690Y-110604761D01*
X142423928Y-110652380D01*
X142662023Y-110652380D01*
X142757261Y-110604761D01*
X142804880Y-110557142D01*
X145423928Y-106452380D02*
X145328690Y-106452380D01*
X145233452Y-106500000D01*
X145185833Y-106547619D01*
X145138214Y-106642857D01*
X145090595Y-106833333D01*
X145090595Y-107071428D01*
X145138214Y-107261904D01*
X145185833Y-107357142D01*
X145233452Y-107404761D01*
X145328690Y-107452380D01*
X145423928Y-107452380D01*
X145519166Y-107404761D01*
X145566785Y-107357142D01*
X145614404Y-107261904D01*
X145662023Y-107071428D01*
X145662023Y-106833333D01*
X145614404Y-106642857D01*
X145566785Y-106547619D01*
X145519166Y-106500000D01*
X145423928Y-106452380D01*
X144233452Y-106785714D02*
X144233452Y-107452380D01*
X144471547Y-106404761D02*
X144709642Y-107119047D01*
X144090595Y-107119047D01*
X143519166Y-106452380D02*
X143423928Y-106452380D01*
X143328690Y-106500000D01*
X143281071Y-106547619D01*
X143233452Y-106642857D01*
X143185833Y-106833333D01*
X143185833Y-107071428D01*
X143233452Y-107261904D01*
X143281071Y-107357142D01*
X143328690Y-107404761D01*
X143423928Y-107452380D01*
X143519166Y-107452380D01*
X143614404Y-107404761D01*
X143662023Y-107357142D01*
X143709642Y-107261904D01*
X143757261Y-107071428D01*
X143757261Y-106833333D01*
X143709642Y-106642857D01*
X143662023Y-106547619D01*
X143614404Y-106500000D01*
X143519166Y-106452380D01*
X142804880Y-106547619D02*
X142757261Y-106500000D01*
X142662023Y-106452380D01*
X142423928Y-106452380D01*
X142328690Y-106500000D01*
X142281071Y-106547619D01*
X142233452Y-106642857D01*
X142233452Y-106738095D01*
X142281071Y-106880952D01*
X142852500Y-107452380D01*
X142233452Y-107452380D01*
X150008452Y-105852380D02*
X149925119Y-105185714D01*
X149937023Y-105280952D02*
X149883452Y-105233333D01*
X149782261Y-105185714D01*
X149639404Y-105185714D01*
X149550119Y-105233333D01*
X149514404Y-105328571D01*
X149579880Y-105852380D01*
X149514404Y-105328571D02*
X149454880Y-105233333D01*
X149353690Y-105185714D01*
X149210833Y-105185714D01*
X149121547Y-105233333D01*
X149085833Y-105328571D01*
X149151309Y-105852380D01*
X148675119Y-105852380D02*
X148591785Y-105185714D01*
X148550119Y-104852380D02*
X148603690Y-104900000D01*
X148562023Y-104947619D01*
X148508452Y-104900000D01*
X148550119Y-104852380D01*
X148562023Y-104947619D01*
X148056071Y-105852380D02*
X148145357Y-105804761D01*
X148181071Y-105709523D01*
X148073928Y-104852380D01*
X136500000Y-125250000D02*
X136500000Y-104250000D01*
X122750000Y-125250000D02*
X136500000Y-125250000D01*
X122750000Y-104250000D02*
X122750000Y-125250000D01*
X136500000Y-104250000D02*
X122750000Y-104250000D01*
D11*
X136334285Y-103792857D02*
X136334285Y-102592857D01*
X136048571Y-102592857D01*
X135877142Y-102650000D01*
X135762857Y-102764285D01*
X135705714Y-102878571D01*
X135648571Y-103107142D01*
X135648571Y-103278571D01*
X135705714Y-103507142D01*
X135762857Y-103621428D01*
X135877142Y-103735714D01*
X136048571Y-103792857D01*
X136334285Y-103792857D01*
X135134285Y-103792857D02*
X135134285Y-102992857D01*
X135134285Y-102592857D02*
X135191428Y-102650000D01*
X135134285Y-102707142D01*
X135077142Y-102650000D01*
X135134285Y-102592857D01*
X135134285Y-102707142D01*
X134391428Y-103792857D02*
X134505714Y-103735714D01*
X134562857Y-103678571D01*
X134620000Y-103564285D01*
X134620000Y-103221428D01*
X134562857Y-103107142D01*
X134505714Y-103050000D01*
X134391428Y-102992857D01*
X134220000Y-102992857D01*
X134105714Y-103050000D01*
X134048571Y-103107142D01*
X133991428Y-103221428D01*
X133991428Y-103564285D01*
X134048571Y-103678571D01*
X134105714Y-103735714D01*
X134220000Y-103792857D01*
X134391428Y-103792857D01*
X132962857Y-103792857D02*
X132962857Y-102592857D01*
X132962857Y-103735714D02*
X133077142Y-103792857D01*
X133305714Y-103792857D01*
X133420000Y-103735714D01*
X133477142Y-103678571D01*
X133534285Y-103564285D01*
X133534285Y-103221428D01*
X133477142Y-103107142D01*
X133420000Y-103050000D01*
X133305714Y-102992857D01*
X133077142Y-102992857D01*
X132962857Y-103050000D01*
X131934285Y-103735714D02*
X132048571Y-103792857D01*
X132277142Y-103792857D01*
X132391428Y-103735714D01*
X132448571Y-103621428D01*
X132448571Y-103164285D01*
X132391428Y-103050000D01*
X132277142Y-102992857D01*
X132048571Y-102992857D01*
X131934285Y-103050000D01*
X131877142Y-103164285D01*
X131877142Y-103278571D01*
X132448571Y-103392857D01*
X131420000Y-103735714D02*
X131305714Y-103792857D01*
X131077142Y-103792857D01*
X130962857Y-103735714D01*
X130905714Y-103621428D01*
X130905714Y-103564285D01*
X130962857Y-103450000D01*
X131077142Y-103392857D01*
X131248571Y-103392857D01*
X131362857Y-103335714D01*
X131420000Y-103221428D01*
X131420000Y-103164285D01*
X131362857Y-103050000D01*
X131248571Y-102992857D01*
X131077142Y-102992857D01*
X130962857Y-103050000D01*
X157164285Y-103678571D02*
X157221428Y-103735714D01*
X157392857Y-103792857D01*
X157507142Y-103792857D01*
X157678571Y-103735714D01*
X157792857Y-103621428D01*
X157850000Y-103507142D01*
X157907142Y-103278571D01*
X157907142Y-103107142D01*
X157850000Y-102878571D01*
X157792857Y-102764285D01*
X157678571Y-102650000D01*
X157507142Y-102592857D01*
X157392857Y-102592857D01*
X157221428Y-102650000D01*
X157164285Y-102707142D01*
X155792857Y-102535714D02*
X156821428Y-104078571D01*
X154707142Y-103792857D02*
X155107142Y-103221428D01*
X155392857Y-103792857D02*
X155392857Y-102592857D01*
X154935714Y-102592857D01*
X154821428Y-102650000D01*
X154764285Y-102707142D01*
X154707142Y-102821428D01*
X154707142Y-102992857D01*
X154764285Y-103107142D01*
X154821428Y-103164285D01*
X154935714Y-103221428D01*
X155392857Y-103221428D01*
X153335714Y-102535714D02*
X154364285Y-104078571D01*
X152421428Y-103792857D02*
X152421428Y-102592857D01*
X152421428Y-103735714D02*
X152535714Y-103792857D01*
X152764285Y-103792857D01*
X152878571Y-103735714D01*
X152935714Y-103678571D01*
X152992857Y-103564285D01*
X152992857Y-103221428D01*
X152935714Y-103107142D01*
X152878571Y-103050000D01*
X152764285Y-102992857D01*
X152535714Y-102992857D01*
X152421428Y-103050000D01*
X151850000Y-103792857D02*
X151850000Y-102992857D01*
X151850000Y-102592857D02*
X151907142Y-102650000D01*
X151850000Y-102707142D01*
X151792857Y-102650000D01*
X151850000Y-102592857D01*
X151850000Y-102707142D01*
X151107142Y-103792857D02*
X151221428Y-103735714D01*
X151278571Y-103678571D01*
X151335714Y-103564285D01*
X151335714Y-103221428D01*
X151278571Y-103107142D01*
X151221428Y-103050000D01*
X151107142Y-102992857D01*
X150935714Y-102992857D01*
X150821428Y-103050000D01*
X150764285Y-103107142D01*
X150707142Y-103221428D01*
X150707142Y-103564285D01*
X150764285Y-103678571D01*
X150821428Y-103735714D01*
X150935714Y-103792857D01*
X151107142Y-103792857D01*
X149678571Y-103792857D02*
X149678571Y-102592857D01*
X149678571Y-103735714D02*
X149792857Y-103792857D01*
X150021428Y-103792857D01*
X150135714Y-103735714D01*
X150192857Y-103678571D01*
X150250000Y-103564285D01*
X150250000Y-103221428D01*
X150192857Y-103107142D01*
X150135714Y-103050000D01*
X150021428Y-102992857D01*
X149792857Y-102992857D01*
X149678571Y-103050000D01*
X148650000Y-103735714D02*
X148764285Y-103792857D01*
X148992857Y-103792857D01*
X149107142Y-103735714D01*
X149164285Y-103621428D01*
X149164285Y-103164285D01*
X149107142Y-103050000D01*
X148992857Y-102992857D01*
X148764285Y-102992857D01*
X148650000Y-103050000D01*
X148592857Y-103164285D01*
X148592857Y-103278571D01*
X149164285Y-103392857D01*
D10*
X117090595Y-122527380D02*
X117662023Y-122527380D01*
X117376309Y-122527380D02*
X117376309Y-121527380D01*
X117471547Y-121670238D01*
X117566785Y-121765476D01*
X117662023Y-121813095D01*
X116662023Y-122432142D02*
X116614404Y-122479761D01*
X116662023Y-122527380D01*
X116709642Y-122479761D01*
X116662023Y-122432142D01*
X116662023Y-122527380D01*
X115995357Y-121527380D02*
X115900119Y-121527380D01*
X115804880Y-121575000D01*
X115757261Y-121622619D01*
X115709642Y-121717857D01*
X115662023Y-121908333D01*
X115662023Y-122146428D01*
X115709642Y-122336904D01*
X115757261Y-122432142D01*
X115804880Y-122479761D01*
X115900119Y-122527380D01*
X115995357Y-122527380D01*
X116090595Y-122479761D01*
X116138214Y-122432142D01*
X116185833Y-122336904D01*
X116233452Y-122146428D01*
X116233452Y-121908333D01*
X116185833Y-121717857D01*
X116138214Y-121622619D01*
X116090595Y-121575000D01*
X115995357Y-121527380D01*
X115233452Y-122527380D02*
X115233452Y-121860714D01*
X115233452Y-121955952D02*
X115185833Y-121908333D01*
X115090595Y-121860714D01*
X114947738Y-121860714D01*
X114852500Y-121908333D01*
X114804880Y-122003571D01*
X114804880Y-122527380D01*
X114804880Y-122003571D02*
X114757261Y-121908333D01*
X114662023Y-121860714D01*
X114519166Y-121860714D01*
X114423928Y-121908333D01*
X114376309Y-122003571D01*
X114376309Y-122527380D01*
X113900119Y-122527380D02*
X113900119Y-121860714D01*
X113900119Y-121955952D02*
X113852500Y-121908333D01*
X113757261Y-121860714D01*
X113614404Y-121860714D01*
X113519166Y-121908333D01*
X113471547Y-122003571D01*
X113471547Y-122527380D01*
X113471547Y-122003571D02*
X113423928Y-121908333D01*
X113328690Y-121860714D01*
X113185833Y-121860714D01*
X113090595Y-121908333D01*
X113042976Y-122003571D01*
X113042976Y-122527380D01*
X111852500Y-121479761D02*
X112709642Y-122765476D01*
X117709642Y-123177380D02*
X117090595Y-123177380D01*
X117423928Y-123558333D01*
X117281071Y-123558333D01*
X117185833Y-123605952D01*
X117138214Y-123653571D01*
X117090595Y-123748809D01*
X117090595Y-123986904D01*
X117138214Y-124082142D01*
X117185833Y-124129761D01*
X117281071Y-124177380D01*
X117566785Y-124177380D01*
X117662023Y-124129761D01*
X117709642Y-124082142D01*
X116614404Y-124177380D02*
X116423928Y-124177380D01*
X116328690Y-124129761D01*
X116281071Y-124082142D01*
X116185833Y-123939285D01*
X116138214Y-123748809D01*
X116138214Y-123367857D01*
X116185833Y-123272619D01*
X116233452Y-123225000D01*
X116328690Y-123177380D01*
X116519166Y-123177380D01*
X116614404Y-123225000D01*
X116662023Y-123272619D01*
X116709642Y-123367857D01*
X116709642Y-123605952D01*
X116662023Y-123701190D01*
X116614404Y-123748809D01*
X116519166Y-123796428D01*
X116328690Y-123796428D01*
X116233452Y-123748809D01*
X116185833Y-123701190D01*
X116138214Y-123605952D01*
X115709642Y-124177380D02*
X115709642Y-123510714D01*
X115709642Y-123605952D02*
X115662023Y-123558333D01*
X115566785Y-123510714D01*
X115423928Y-123510714D01*
X115328690Y-123558333D01*
X115281071Y-123653571D01*
X115281071Y-124177380D01*
X115281071Y-123653571D02*
X115233452Y-123558333D01*
X115138214Y-123510714D01*
X114995357Y-123510714D01*
X114900119Y-123558333D01*
X114852500Y-123653571D01*
X114852500Y-124177380D01*
X114376309Y-124177380D02*
X114376309Y-123510714D01*
X114376309Y-123177380D02*
X114423928Y-123225000D01*
X114376309Y-123272619D01*
X114328690Y-123225000D01*
X114376309Y-123177380D01*
X114376309Y-123272619D01*
X113757261Y-124177380D02*
X113852500Y-124129761D01*
X113900119Y-124034523D01*
X113900119Y-123177380D01*
X87414285Y-124235833D02*
X86604761Y-124235833D01*
X86509523Y-124283452D01*
X86461904Y-124331071D01*
X86414285Y-124426309D01*
X86414285Y-124569166D01*
X86461904Y-124664404D01*
X86795238Y-124235833D02*
X86747619Y-124331071D01*
X86747619Y-124521547D01*
X86795238Y-124616785D01*
X86842857Y-124664404D01*
X86938095Y-124712023D01*
X87223809Y-124712023D01*
X87319047Y-124664404D01*
X87366666Y-124616785D01*
X87414285Y-124521547D01*
X87414285Y-124331071D01*
X87366666Y-124235833D01*
X86747619Y-123759642D02*
X87414285Y-123759642D01*
X87747619Y-123759642D02*
X87700000Y-123807261D01*
X87652380Y-123759642D01*
X87700000Y-123712023D01*
X87747619Y-123759642D01*
X87652380Y-123759642D01*
X87414285Y-123426309D02*
X87414285Y-123045357D01*
X87747619Y-123283452D02*
X86890476Y-123283452D01*
X86795238Y-123235833D01*
X86747619Y-123140595D01*
X86747619Y-123045357D01*
X86747619Y-122712023D02*
X87747619Y-122712023D01*
X86747619Y-122283452D02*
X87271428Y-122283452D01*
X87366666Y-122331071D01*
X87414285Y-122426309D01*
X87414285Y-122569166D01*
X87366666Y-122664404D01*
X87319047Y-122712023D01*
X87414285Y-121378690D02*
X86747619Y-121378690D01*
X87414285Y-121807261D02*
X86890476Y-121807261D01*
X86795238Y-121759642D01*
X86747619Y-121664404D01*
X86747619Y-121521547D01*
X86795238Y-121426309D01*
X86842857Y-121378690D01*
X86747619Y-120902500D02*
X87747619Y-120902500D01*
X87366666Y-120902500D02*
X87414285Y-120807261D01*
X87414285Y-120616785D01*
X87366666Y-120521547D01*
X87319047Y-120473928D01*
X87223809Y-120426309D01*
X86938095Y-120426309D01*
X86842857Y-120473928D01*
X86795238Y-120521547D01*
X86747619Y-120616785D01*
X86747619Y-120807261D01*
X86795238Y-120902500D01*
X86842857Y-119997738D02*
X86795238Y-119950119D01*
X86747619Y-119997738D01*
X86795238Y-120045357D01*
X86842857Y-119997738D01*
X86747619Y-119997738D01*
X86795238Y-119092976D02*
X86747619Y-119188214D01*
X86747619Y-119378690D01*
X86795238Y-119473928D01*
X86842857Y-119521547D01*
X86938095Y-119569166D01*
X87223809Y-119569166D01*
X87319047Y-119521547D01*
X87366666Y-119473928D01*
X87414285Y-119378690D01*
X87414285Y-119188214D01*
X87366666Y-119092976D01*
X86747619Y-118521547D02*
X86795238Y-118616785D01*
X86842857Y-118664404D01*
X86938095Y-118712023D01*
X87223809Y-118712023D01*
X87319047Y-118664404D01*
X87366666Y-118616785D01*
X87414285Y-118521547D01*
X87414285Y-118378690D01*
X87366666Y-118283452D01*
X87319047Y-118235833D01*
X87223809Y-118188214D01*
X86938095Y-118188214D01*
X86842857Y-118235833D01*
X86795238Y-118283452D01*
X86747619Y-118378690D01*
X86747619Y-118521547D01*
X86747619Y-117759642D02*
X87414285Y-117759642D01*
X87319047Y-117759642D02*
X87366666Y-117712023D01*
X87414285Y-117616785D01*
X87414285Y-117473928D01*
X87366666Y-117378690D01*
X87271428Y-117331071D01*
X86747619Y-117331071D01*
X87271428Y-117331071D02*
X87366666Y-117283452D01*
X87414285Y-117188214D01*
X87414285Y-117045357D01*
X87366666Y-116950119D01*
X87271428Y-116902500D01*
X86747619Y-116902500D01*
X87795238Y-115712023D02*
X86509523Y-116569166D01*
X87414285Y-115521547D02*
X87414285Y-115140595D01*
X87747619Y-115378690D02*
X86890476Y-115378690D01*
X86795238Y-115331071D01*
X86747619Y-115235833D01*
X86747619Y-115140595D01*
X87414285Y-114378690D02*
X86747619Y-114378690D01*
X87414285Y-114807261D02*
X86890476Y-114807261D01*
X86795238Y-114759642D01*
X86747619Y-114664404D01*
X86747619Y-114521547D01*
X86795238Y-114426309D01*
X86842857Y-114378690D01*
X86747619Y-113997738D02*
X87414285Y-113473928D01*
X87414285Y-113997738D02*
X86747619Y-113473928D01*
X86795238Y-112712023D02*
X86747619Y-112807261D01*
X86747619Y-112997738D01*
X86795238Y-113092976D01*
X86890476Y-113140595D01*
X87271428Y-113140595D01*
X87366666Y-113092976D01*
X87414285Y-112997738D01*
X87414285Y-112807261D01*
X87366666Y-112712023D01*
X87271428Y-112664404D01*
X87176190Y-112664404D01*
X87080952Y-113140595D01*
X87414285Y-112331071D02*
X86747619Y-112092976D01*
X87414285Y-111854880D02*
X86747619Y-112092976D01*
X86509523Y-112188214D01*
X86461904Y-112235833D01*
X86414285Y-112331071D01*
X87795238Y-110759642D02*
X86509523Y-111616785D01*
X86747619Y-110426309D02*
X87747619Y-110426309D01*
X87747619Y-110045357D01*
X87700000Y-109950119D01*
X87652380Y-109902500D01*
X87557142Y-109854880D01*
X87414285Y-109854880D01*
X87319047Y-109902500D01*
X87271428Y-109950119D01*
X87223809Y-110045357D01*
X87223809Y-110426309D01*
X86842857Y-108854880D02*
X86795238Y-108902500D01*
X86747619Y-109045357D01*
X86747619Y-109140595D01*
X86795238Y-109283452D01*
X86890476Y-109378690D01*
X86985714Y-109426309D01*
X87176190Y-109473928D01*
X87319047Y-109473928D01*
X87509523Y-109426309D01*
X87604761Y-109378690D01*
X87700000Y-109283452D01*
X87747619Y-109140595D01*
X87747619Y-109045357D01*
X87700000Y-108902500D01*
X87652380Y-108854880D01*
X87271428Y-108092976D02*
X87223809Y-107950119D01*
X87176190Y-107902500D01*
X87080952Y-107854880D01*
X86938095Y-107854880D01*
X86842857Y-107902500D01*
X86795238Y-107950119D01*
X86747619Y-108045357D01*
X86747619Y-108426309D01*
X87747619Y-108426309D01*
X87747619Y-108092976D01*
X87700000Y-107997738D01*
X87652380Y-107950119D01*
X87557142Y-107902500D01*
X87461904Y-107902500D01*
X87366666Y-107950119D01*
X87319047Y-107997738D01*
X87271428Y-108092976D01*
X87271428Y-108426309D01*
X86747619Y-107426309D02*
X87414285Y-107426309D01*
X87223809Y-107426309D02*
X87319047Y-107378690D01*
X87366666Y-107331071D01*
X87414285Y-107235833D01*
X87414285Y-107140595D01*
X87414285Y-106378690D02*
X86747619Y-106378690D01*
X87414285Y-106807261D02*
X86890476Y-106807261D01*
X86795238Y-106759642D01*
X86747619Y-106664404D01*
X86747619Y-106521547D01*
X86795238Y-106426309D01*
X86842857Y-106378690D01*
X86747619Y-105759642D02*
X86795238Y-105854880D01*
X86890476Y-105902500D01*
X87747619Y-105902500D01*
X86795238Y-104997738D02*
X86747619Y-105092976D01*
X86747619Y-105283452D01*
X86795238Y-105378690D01*
X86890476Y-105426309D01*
X87271428Y-105426309D01*
X87366666Y-105378690D01*
X87414285Y-105283452D01*
X87414285Y-105092976D01*
X87366666Y-104997738D01*
X87271428Y-104950119D01*
X87176190Y-104950119D01*
X87080952Y-105426309D01*
X86747619Y-104521547D02*
X87414285Y-104521547D01*
X87223809Y-104521547D02*
X87319047Y-104473928D01*
X87366666Y-104426309D01*
X87414285Y-104331071D01*
X87414285Y-104235833D01*
D11*
X121578571Y-103792857D02*
X121578571Y-102592857D01*
X121121428Y-102592857D01*
X121007142Y-102650000D01*
X120950000Y-102707142D01*
X120892857Y-102821428D01*
X120892857Y-102992857D01*
X120950000Y-103107142D01*
X121007142Y-103164285D01*
X121121428Y-103221428D01*
X121578571Y-103221428D01*
X120378571Y-103792857D02*
X120378571Y-102992857D01*
X120378571Y-102592857D02*
X120435714Y-102650000D01*
X120378571Y-102707142D01*
X120321428Y-102650000D01*
X120378571Y-102592857D01*
X120378571Y-102707142D01*
X119807142Y-102992857D02*
X119807142Y-103792857D01*
X119807142Y-103107142D02*
X119750000Y-103050000D01*
X119635714Y-102992857D01*
X119464285Y-102992857D01*
X119350000Y-103050000D01*
X119292857Y-103164285D01*
X119292857Y-103792857D01*
X117807142Y-102992857D02*
X117807142Y-104192857D01*
X117807142Y-103050000D02*
X117692857Y-102992857D01*
X117464285Y-102992857D01*
X117350000Y-103050000D01*
X117292857Y-103107142D01*
X117235714Y-103221428D01*
X117235714Y-103564285D01*
X117292857Y-103678571D01*
X117350000Y-103735714D01*
X117464285Y-103792857D01*
X117692857Y-103792857D01*
X117807142Y-103735714D01*
X116721428Y-103792857D02*
X116721428Y-102992857D01*
X116721428Y-102592857D02*
X116778571Y-102650000D01*
X116721428Y-102707142D01*
X116664285Y-102650000D01*
X116721428Y-102592857D01*
X116721428Y-102707142D01*
X116321428Y-102992857D02*
X115864285Y-102992857D01*
X116150000Y-102592857D02*
X116150000Y-103621428D01*
X116092857Y-103735714D01*
X115978571Y-103792857D01*
X115864285Y-103792857D01*
X114950000Y-103735714D02*
X115064285Y-103792857D01*
X115292857Y-103792857D01*
X115407142Y-103735714D01*
X115464285Y-103678571D01*
X115521428Y-103564285D01*
X115521428Y-103221428D01*
X115464285Y-103107142D01*
X115407142Y-103050000D01*
X115292857Y-102992857D01*
X115064285Y-102992857D01*
X114950000Y-103050000D01*
X114435714Y-103792857D02*
X114435714Y-102592857D01*
X113921428Y-103792857D02*
X113921428Y-103164285D01*
X113978571Y-103050000D01*
X114092857Y-102992857D01*
X114264285Y-102992857D01*
X114378571Y-103050000D01*
X114435714Y-103107142D01*
X112892857Y-103735714D02*
X113007142Y-103792857D01*
X113235714Y-103792857D01*
X113350000Y-103735714D01*
X113407142Y-103621428D01*
X113407142Y-103164285D01*
X113350000Y-103050000D01*
X113235714Y-102992857D01*
X113007142Y-102992857D01*
X112892857Y-103050000D01*
X112835714Y-103164285D01*
X112835714Y-103278571D01*
X113407142Y-103392857D01*
X112378571Y-103735714D02*
X112264285Y-103792857D01*
X112035714Y-103792857D01*
X111921428Y-103735714D01*
X111864285Y-103621428D01*
X111864285Y-103564285D01*
X111921428Y-103450000D01*
X112035714Y-103392857D01*
X112207142Y-103392857D01*
X112321428Y-103335714D01*
X112378571Y-103221428D01*
X112378571Y-103164285D01*
X112321428Y-103050000D01*
X112207142Y-102992857D01*
X112035714Y-102992857D01*
X111921428Y-103050000D01*
D10*
X117662023Y-112022619D02*
X117614404Y-111975000D01*
X117519166Y-111927380D01*
X117281071Y-111927380D01*
X117185833Y-111975000D01*
X117138214Y-112022619D01*
X117090595Y-112117857D01*
X117090595Y-112213095D01*
X117138214Y-112355952D01*
X117709642Y-112927380D01*
X117090595Y-112927380D01*
X116662023Y-112832142D02*
X116614404Y-112879761D01*
X116662023Y-112927380D01*
X116709642Y-112879761D01*
X116662023Y-112832142D01*
X116662023Y-112927380D01*
X115995357Y-111927380D02*
X115900119Y-111927380D01*
X115804880Y-111975000D01*
X115757261Y-112022619D01*
X115709642Y-112117857D01*
X115662023Y-112308333D01*
X115662023Y-112546428D01*
X115709642Y-112736904D01*
X115757261Y-112832142D01*
X115804880Y-112879761D01*
X115900119Y-112927380D01*
X115995357Y-112927380D01*
X116090595Y-112879761D01*
X116138214Y-112832142D01*
X116185833Y-112736904D01*
X116233452Y-112546428D01*
X116233452Y-112308333D01*
X116185833Y-112117857D01*
X116138214Y-112022619D01*
X116090595Y-111975000D01*
X115995357Y-111927380D01*
X115233452Y-112927380D02*
X115233452Y-112260714D01*
X115233452Y-112355952D02*
X115185833Y-112308333D01*
X115090595Y-112260714D01*
X114947738Y-112260714D01*
X114852500Y-112308333D01*
X114804880Y-112403571D01*
X114804880Y-112927380D01*
X114804880Y-112403571D02*
X114757261Y-112308333D01*
X114662023Y-112260714D01*
X114519166Y-112260714D01*
X114423928Y-112308333D01*
X114376309Y-112403571D01*
X114376309Y-112927380D01*
X113900119Y-112927380D02*
X113900119Y-112260714D01*
X113900119Y-112355952D02*
X113852500Y-112308333D01*
X113757261Y-112260714D01*
X113614404Y-112260714D01*
X113519166Y-112308333D01*
X113471547Y-112403571D01*
X113471547Y-112927380D01*
X113471547Y-112403571D02*
X113423928Y-112308333D01*
X113328690Y-112260714D01*
X113185833Y-112260714D01*
X113090595Y-112308333D01*
X113042976Y-112403571D01*
X113042976Y-112927380D01*
X111852500Y-111879761D02*
X112709642Y-113165476D01*
X117709642Y-113577380D02*
X117042976Y-113577380D01*
X117471547Y-114577380D01*
X116614404Y-114577380D02*
X116423928Y-114577380D01*
X116328690Y-114529761D01*
X116281071Y-114482142D01*
X116185833Y-114339285D01*
X116138214Y-114148809D01*
X116138214Y-113767857D01*
X116185833Y-113672619D01*
X116233452Y-113625000D01*
X116328690Y-113577380D01*
X116519166Y-113577380D01*
X116614404Y-113625000D01*
X116662023Y-113672619D01*
X116709642Y-113767857D01*
X116709642Y-114005952D01*
X116662023Y-114101190D01*
X116614404Y-114148809D01*
X116519166Y-114196428D01*
X116328690Y-114196428D01*
X116233452Y-114148809D01*
X116185833Y-114101190D01*
X116138214Y-114005952D01*
X115709642Y-114577380D02*
X115709642Y-113910714D01*
X115709642Y-114005952D02*
X115662023Y-113958333D01*
X115566785Y-113910714D01*
X115423928Y-113910714D01*
X115328690Y-113958333D01*
X115281071Y-114053571D01*
X115281071Y-114577380D01*
X115281071Y-114053571D02*
X115233452Y-113958333D01*
X115138214Y-113910714D01*
X114995357Y-113910714D01*
X114900119Y-113958333D01*
X114852500Y-114053571D01*
X114852500Y-114577380D01*
X114376309Y-114577380D02*
X114376309Y-113910714D01*
X114376309Y-113577380D02*
X114423928Y-113625000D01*
X114376309Y-113672619D01*
X114328690Y-113625000D01*
X114376309Y-113577380D01*
X114376309Y-113672619D01*
X113757261Y-114577380D02*
X113852500Y-114529761D01*
X113900119Y-114434523D01*
X113900119Y-113577380D01*
X117065595Y-117777380D02*
X117637023Y-117777380D01*
X117351309Y-117777380D02*
X117351309Y-116777380D01*
X117446547Y-116920238D01*
X117541785Y-117015476D01*
X117637023Y-117063095D01*
X116637023Y-117682142D02*
X116589404Y-117729761D01*
X116637023Y-117777380D01*
X116684642Y-117729761D01*
X116637023Y-117682142D01*
X116637023Y-117777380D01*
X116208452Y-116872619D02*
X116160833Y-116825000D01*
X116065595Y-116777380D01*
X115827500Y-116777380D01*
X115732261Y-116825000D01*
X115684642Y-116872619D01*
X115637023Y-116967857D01*
X115637023Y-117063095D01*
X115684642Y-117205952D01*
X116256071Y-117777380D01*
X115637023Y-117777380D01*
X115303690Y-116777380D02*
X114637023Y-116777380D01*
X115065595Y-117777380D01*
X114256071Y-117777380D02*
X114256071Y-117110714D01*
X114256071Y-117205952D02*
X114208452Y-117158333D01*
X114113214Y-117110714D01*
X113970357Y-117110714D01*
X113875119Y-117158333D01*
X113827500Y-117253571D01*
X113827500Y-117777380D01*
X113827500Y-117253571D02*
X113779880Y-117158333D01*
X113684642Y-117110714D01*
X113541785Y-117110714D01*
X113446547Y-117158333D01*
X113398928Y-117253571D01*
X113398928Y-117777380D01*
X112922738Y-117777380D02*
X112922738Y-117110714D01*
X112922738Y-117205952D02*
X112875119Y-117158333D01*
X112779880Y-117110714D01*
X112637023Y-117110714D01*
X112541785Y-117158333D01*
X112494166Y-117253571D01*
X112494166Y-117777380D01*
X112494166Y-117253571D02*
X112446547Y-117158333D01*
X112351309Y-117110714D01*
X112208452Y-117110714D01*
X112113214Y-117158333D01*
X112065595Y-117253571D01*
X112065595Y-117777380D01*
X110875119Y-116729761D02*
X111732261Y-118015476D01*
X117113214Y-118427380D02*
X117589404Y-118427380D01*
X117637023Y-118903571D01*
X117589404Y-118855952D01*
X117494166Y-118808333D01*
X117256071Y-118808333D01*
X117160833Y-118855952D01*
X117113214Y-118903571D01*
X117065595Y-118998809D01*
X117065595Y-119236904D01*
X117113214Y-119332142D01*
X117160833Y-119379761D01*
X117256071Y-119427380D01*
X117494166Y-119427380D01*
X117589404Y-119379761D01*
X117637023Y-119332142D01*
X116446547Y-118427380D02*
X116351309Y-118427380D01*
X116256071Y-118475000D01*
X116208452Y-118522619D01*
X116160833Y-118617857D01*
X116113214Y-118808333D01*
X116113214Y-119046428D01*
X116160833Y-119236904D01*
X116208452Y-119332142D01*
X116256071Y-119379761D01*
X116351309Y-119427380D01*
X116446547Y-119427380D01*
X116541785Y-119379761D01*
X116589404Y-119332142D01*
X116637023Y-119236904D01*
X116684642Y-119046428D01*
X116684642Y-118808333D01*
X116637023Y-118617857D01*
X116589404Y-118522619D01*
X116541785Y-118475000D01*
X116446547Y-118427380D01*
X115684642Y-119427380D02*
X115684642Y-118760714D01*
X115684642Y-118855952D02*
X115637023Y-118808333D01*
X115541785Y-118760714D01*
X115398928Y-118760714D01*
X115303690Y-118808333D01*
X115256071Y-118903571D01*
X115256071Y-119427380D01*
X115256071Y-118903571D02*
X115208452Y-118808333D01*
X115113214Y-118760714D01*
X114970357Y-118760714D01*
X114875119Y-118808333D01*
X114827500Y-118903571D01*
X114827500Y-119427380D01*
X114351309Y-119427380D02*
X114351309Y-118760714D01*
X114351309Y-118427380D02*
X114398928Y-118475000D01*
X114351309Y-118522619D01*
X114303690Y-118475000D01*
X114351309Y-118427380D01*
X114351309Y-118522619D01*
X113732261Y-119427380D02*
X113827500Y-119379761D01*
X113875119Y-119284523D01*
X113875119Y-118427380D01*
X117662023Y-106472619D02*
X117614404Y-106425000D01*
X117519166Y-106377380D01*
X117281071Y-106377380D01*
X117185833Y-106425000D01*
X117138214Y-106472619D01*
X117090595Y-106567857D01*
X117090595Y-106663095D01*
X117138214Y-106805952D01*
X117709642Y-107377380D01*
X117090595Y-107377380D01*
X116662023Y-107282142D02*
X116614404Y-107329761D01*
X116662023Y-107377380D01*
X116709642Y-107329761D01*
X116662023Y-107282142D01*
X116662023Y-107377380D01*
X115709642Y-106377380D02*
X116185833Y-106377380D01*
X116233452Y-106853571D01*
X116185833Y-106805952D01*
X116090595Y-106758333D01*
X115852500Y-106758333D01*
X115757261Y-106805952D01*
X115709642Y-106853571D01*
X115662023Y-106948809D01*
X115662023Y-107186904D01*
X115709642Y-107282142D01*
X115757261Y-107329761D01*
X115852500Y-107377380D01*
X116090595Y-107377380D01*
X116185833Y-107329761D01*
X116233452Y-107282142D01*
X114804880Y-106710714D02*
X114804880Y-107377380D01*
X115042976Y-106329761D02*
X115281071Y-107044047D01*
X114662023Y-107044047D01*
X114281071Y-107377380D02*
X114281071Y-106710714D01*
X114281071Y-106805952D02*
X114233452Y-106758333D01*
X114138214Y-106710714D01*
X113995357Y-106710714D01*
X113900119Y-106758333D01*
X113852500Y-106853571D01*
X113852500Y-107377380D01*
X113852500Y-106853571D02*
X113804880Y-106758333D01*
X113709642Y-106710714D01*
X113566785Y-106710714D01*
X113471547Y-106758333D01*
X113423928Y-106853571D01*
X113423928Y-107377380D01*
X112947738Y-107377380D02*
X112947738Y-106710714D01*
X112947738Y-106805952D02*
X112900119Y-106758333D01*
X112804880Y-106710714D01*
X112662023Y-106710714D01*
X112566785Y-106758333D01*
X112519166Y-106853571D01*
X112519166Y-107377380D01*
X112519166Y-106853571D02*
X112471547Y-106758333D01*
X112376309Y-106710714D01*
X112233452Y-106710714D01*
X112138214Y-106758333D01*
X112090595Y-106853571D01*
X112090595Y-107377380D01*
X110900119Y-106329761D02*
X111757261Y-107615476D01*
X117090595Y-109027380D02*
X117662023Y-109027380D01*
X117376309Y-109027380D02*
X117376309Y-108027380D01*
X117471547Y-108170238D01*
X117566785Y-108265476D01*
X117662023Y-108313095D01*
X116471547Y-108027380D02*
X116376309Y-108027380D01*
X116281071Y-108075000D01*
X116233452Y-108122619D01*
X116185833Y-108217857D01*
X116138214Y-108408333D01*
X116138214Y-108646428D01*
X116185833Y-108836904D01*
X116233452Y-108932142D01*
X116281071Y-108979761D01*
X116376309Y-109027380D01*
X116471547Y-109027380D01*
X116566785Y-108979761D01*
X116614404Y-108932142D01*
X116662023Y-108836904D01*
X116709642Y-108646428D01*
X116709642Y-108408333D01*
X116662023Y-108217857D01*
X116614404Y-108122619D01*
X116566785Y-108075000D01*
X116471547Y-108027380D01*
X115519166Y-108027380D02*
X115423928Y-108027380D01*
X115328690Y-108075000D01*
X115281071Y-108122619D01*
X115233452Y-108217857D01*
X115185833Y-108408333D01*
X115185833Y-108646428D01*
X115233452Y-108836904D01*
X115281071Y-108932142D01*
X115328690Y-108979761D01*
X115423928Y-109027380D01*
X115519166Y-109027380D01*
X115614404Y-108979761D01*
X115662023Y-108932142D01*
X115709642Y-108836904D01*
X115757261Y-108646428D01*
X115757261Y-108408333D01*
X115709642Y-108217857D01*
X115662023Y-108122619D01*
X115614404Y-108075000D01*
X115519166Y-108027380D01*
X114757261Y-109027380D02*
X114757261Y-108360714D01*
X114757261Y-108455952D02*
X114709642Y-108408333D01*
X114614404Y-108360714D01*
X114471547Y-108360714D01*
X114376309Y-108408333D01*
X114328690Y-108503571D01*
X114328690Y-109027380D01*
X114328690Y-108503571D02*
X114281071Y-108408333D01*
X114185833Y-108360714D01*
X114042976Y-108360714D01*
X113947738Y-108408333D01*
X113900119Y-108503571D01*
X113900119Y-109027380D01*
X113423928Y-109027380D02*
X113423928Y-108360714D01*
X113423928Y-108027380D02*
X113471547Y-108075000D01*
X113423928Y-108122619D01*
X113376309Y-108075000D01*
X113423928Y-108027380D01*
X113423928Y-108122619D01*
X112804880Y-109027380D02*
X112900119Y-108979761D01*
X112947738Y-108884523D01*
X112947738Y-108027380D01*
D12*
X109200000Y-127200000D02*
X109200000Y-125800000D01*
X107800000Y-127200000D02*
X109200000Y-127200000D01*
X107800000Y-125800000D02*
X107800000Y-127200000D01*
X109200000Y-125800000D02*
X107800000Y-125800000D01*
X125300000Y-112150000D02*
X125300000Y-108250000D01*
X123300000Y-112150000D02*
X123300000Y-108250000D01*
X125300000Y-112150000D02*
X123300000Y-112150000D01*
D10*
X163800000Y-119500000D02*
X163800000Y-120400000D01*
X163800000Y-120400000D02*
X163800000Y-122550000D01*
X165200000Y-120400000D02*
X163800000Y-120400000D01*
X165200000Y-120100000D02*
X165200000Y-120700000D01*
X165200000Y-118600000D02*
X163800000Y-118600000D01*
X165200000Y-118900000D02*
X165200000Y-118300000D01*
X164100000Y-116750000D02*
X164700000Y-116750000D01*
X164400000Y-116450000D02*
X164400000Y-117050000D01*
X164100000Y-119500000D02*
X163800000Y-119500000D01*
X163800000Y-118600000D02*
X163800000Y-116450000D01*
X165200000Y-119500000D02*
X164600000Y-119500000D01*
X165200000Y-119800000D02*
X165200000Y-119200000D01*
G36*
X164100000Y-119700000D02*
G01*
X164100000Y-119300000D01*
X164900000Y-119500000D01*
X164100000Y-119700000D01*
G37*
X164100000Y-119700000D02*
X164100000Y-119300000D01*
X164900000Y-119500000D01*
X164100000Y-119700000D01*
X167500000Y-120500000D02*
X165500000Y-120500000D01*
G36*
X165500000Y-120500000D02*
G01*
X165550000Y-120500000D01*
X165550000Y-118500000D01*
X165500000Y-118500000D01*
X165500000Y-120500000D01*
G37*
X165500000Y-120500000D02*
X165550000Y-120500000D01*
X165550000Y-118500000D01*
X165500000Y-118500000D01*
X165500000Y-120500000D01*
X166500000Y-119500000D02*
G75*
G03X166500000Y-119500000I-2000000J0D01*
G01*
X171050000Y-120400000D02*
X171050000Y-122550000D01*
X172450000Y-120400000D02*
X171050000Y-120400000D01*
X172450000Y-120100000D02*
X172450000Y-120700000D01*
X172450000Y-118600000D02*
X171050000Y-118600000D01*
X172450000Y-118900000D02*
X172450000Y-118300000D01*
X171350000Y-116750000D02*
X171950000Y-116750000D01*
X171650000Y-116450000D02*
X171650000Y-117050000D01*
X171150000Y-119500000D02*
X171050000Y-119500000D01*
X171050000Y-119500000D02*
X171050000Y-116450000D01*
X172450000Y-119500000D02*
X171850000Y-119500000D01*
X172450000Y-119800000D02*
X172450000Y-119200000D01*
G36*
X171950000Y-119300000D02*
G01*
X171950000Y-119700000D01*
X171150000Y-119500000D01*
X171950000Y-119300000D01*
G37*
X171950000Y-119300000D02*
X171950000Y-119700000D01*
X171150000Y-119500000D01*
X171950000Y-119300000D01*
X174750000Y-118500000D02*
X172750000Y-118500000D01*
G36*
X172750000Y-120500000D02*
G01*
X172800000Y-120500000D01*
X172800000Y-118500000D01*
X172750000Y-118500000D01*
X172750000Y-120500000D01*
G37*
X172750000Y-120500000D02*
X172800000Y-120500000D01*
X172800000Y-118500000D01*
X172750000Y-118500000D01*
X172750000Y-120500000D01*
X173750000Y-119500000D02*
G75*
G03X173750000Y-119500000I-2000000J0D01*
G01*
G36*
X165200000Y-111500000D02*
G01*
X165250000Y-111500000D01*
X165250000Y-109500000D01*
X165200000Y-109500000D01*
X165200000Y-111500000D01*
G37*
X165200000Y-111500000D02*
X165250000Y-111500000D01*
X165250000Y-109500000D01*
X165200000Y-109500000D01*
X165200000Y-111500000D01*
G36*
X164200000Y-112000000D02*
G01*
X164600000Y-111300000D01*
X164900000Y-111600000D01*
X164200000Y-112000000D01*
G37*
X164200000Y-112000000D02*
X164600000Y-111300000D01*
X164900000Y-111600000D01*
X164200000Y-112000000D01*
X164100000Y-112100000D02*
X164100000Y-113300000D01*
X165200000Y-111000000D02*
X164100000Y-112100000D01*
X164100000Y-108900000D02*
X164100000Y-107700000D01*
X165200000Y-110000000D02*
X164100000Y-108900000D01*
X167500000Y-110500000D02*
X165300000Y-110500000D01*
X166500000Y-110500000D02*
G75*
G03X166500000Y-110500000I-2000000J0D01*
G01*
G36*
X172450000Y-111500000D02*
G01*
X172500000Y-111500000D01*
X172500000Y-109500000D01*
X172450000Y-109500000D01*
X172450000Y-111500000D01*
G37*
X172450000Y-111500000D02*
X172500000Y-111500000D01*
X172500000Y-109500000D01*
X172450000Y-109500000D01*
X172450000Y-111500000D01*
G36*
X172150000Y-109700000D02*
G01*
X171450000Y-109300000D01*
X171750000Y-109000000D01*
X172150000Y-109700000D01*
G37*
X172150000Y-109700000D02*
X171450000Y-109300000D01*
X171750000Y-109000000D01*
X172150000Y-109700000D01*
X171350000Y-112100000D02*
X171350000Y-113300000D01*
X172450000Y-111000000D02*
X171350000Y-112100000D01*
X171350000Y-108900000D02*
X171350000Y-107700000D01*
X172450000Y-110000000D02*
X171350000Y-108900000D01*
X174750000Y-110500000D02*
X172550000Y-110500000D01*
X173750000Y-110500000D02*
G75*
G03X173750000Y-110500000I-2000000J0D01*
G01*
D12*
X131550000Y-113400000D02*
X131550000Y-107700000D01*
X127250000Y-113400000D02*
X127250000Y-107700000D01*
X131550000Y-113400000D02*
X127250000Y-113400000D01*
X135650000Y-113300000D02*
X135650000Y-107900000D01*
X132350000Y-113300000D02*
X132350000Y-107900000D01*
X135650000Y-113300000D02*
X132350000Y-113300000D01*
X133900000Y-123850000D02*
X129600000Y-123850000D01*
X133900000Y-121850000D02*
X133900000Y-123850000D01*
X129600000Y-121850000D02*
X133900000Y-121850000D01*
X126750000Y-117350000D02*
X126750000Y-120150000D01*
X124950000Y-117350000D02*
X126750000Y-117350000D01*
X124950000Y-120150000D02*
X124950000Y-117350000D01*
X153613748Y-121290000D02*
X156386252Y-121290000D01*
X153613748Y-124710000D02*
X156386252Y-124710000D01*
X153697936Y-115240000D02*
X154902064Y-115240000D01*
X153697936Y-117060000D02*
X154902064Y-117060000D01*
X153324721Y-111290000D02*
X153650279Y-111290000D01*
X153324721Y-112310000D02*
X153650279Y-112310000D01*
X118955000Y-123985000D02*
X119650000Y-123985000D01*
X118955000Y-123300000D02*
X118955000Y-123985000D01*
X120258276Y-122615000D02*
X120345000Y-122615000D01*
X118955000Y-122615000D02*
X119041724Y-122615000D01*
X120345000Y-122615000D02*
X120345000Y-121740000D01*
X118955000Y-122615000D02*
X118955000Y-121740000D01*
X120044493Y-121740000D02*
X120345000Y-121740000D01*
X118955000Y-121740000D02*
X119255507Y-121740000D01*
X153441422Y-113040000D02*
X153958578Y-113040000D01*
X153441422Y-114460000D02*
X153958578Y-114460000D01*
X153697936Y-117840000D02*
X154902064Y-117840000D01*
X153697936Y-120560000D02*
X154902064Y-120560000D01*
D10*
X92250000Y-121750000D02*
X92250000Y-121750000D01*
X96000000Y-121750000D02*
X92250000Y-121750000D01*
X92250000Y-123500000D02*
X92250000Y-123500000D01*
X96000000Y-123500000D02*
X92250000Y-123500000D01*
X96000000Y-125250000D02*
X96000000Y-125250000D01*
X92250000Y-125250000D02*
X96000000Y-125250000D01*
X92250000Y-119750000D02*
X92250000Y-125250000D01*
X92250000Y-120000000D02*
X92250000Y-119750000D01*
X92250000Y-119750000D02*
X92250000Y-119750000D01*
X92250000Y-120000000D02*
X92250000Y-120000000D01*
X96000000Y-120000000D02*
X92250000Y-120000000D01*
X92250000Y-118250000D02*
X92250000Y-118250000D01*
X96000000Y-118250000D02*
X92250000Y-118250000D01*
X92250000Y-116500000D02*
X92250000Y-116500000D01*
X96000000Y-116500000D02*
X92250000Y-116500000D01*
X92250000Y-114750000D02*
X92250000Y-114750000D01*
X96000000Y-114750000D02*
X92250000Y-114750000D01*
X92250000Y-113000000D02*
X92250000Y-113000000D01*
X96000000Y-113000000D02*
X92250000Y-113000000D01*
X92250000Y-111250000D02*
X92250000Y-111250000D01*
X96000000Y-111250000D02*
X92250000Y-111250000D01*
X92250000Y-109500000D02*
X92250000Y-109500000D01*
X96000000Y-109500000D02*
X92250000Y-109500000D01*
X92250000Y-107750000D02*
X92250000Y-107750000D01*
X96000000Y-107750000D02*
X92250000Y-107750000D01*
X92250000Y-106000000D02*
X92250000Y-106000000D01*
X96000000Y-106000000D02*
X92250000Y-106000000D01*
X96000000Y-104250000D02*
X96000000Y-104250000D01*
X92250000Y-104250000D02*
X96000000Y-104250000D01*
X92250000Y-119750000D02*
X92250000Y-104250000D01*
X97250000Y-125250000D02*
X97250000Y-125250000D01*
X97250000Y-120000000D02*
X97250000Y-125250000D01*
X97250000Y-104250000D02*
X97250000Y-104250000D01*
X97250000Y-120000000D02*
X97250000Y-104250000D01*
X103000000Y-125250000D02*
X103000000Y-125250000D01*
X103000000Y-104250000D02*
X103000000Y-125250000D01*
X96000000Y-125250000D02*
X96000000Y-125250000D01*
X104500000Y-125250000D02*
X96000000Y-125250000D01*
X96000000Y-123500000D02*
X96000000Y-123500000D01*
X104500000Y-123500000D02*
X96000000Y-123500000D01*
X96000000Y-121750000D02*
X96000000Y-121750000D01*
X104500000Y-121750000D02*
X96000000Y-121750000D01*
X96000000Y-120000000D02*
X96000000Y-120000000D01*
X104500000Y-120000000D02*
X96000000Y-120000000D01*
X96000000Y-118250000D02*
X96000000Y-118250000D01*
X104500000Y-118250000D02*
X96000000Y-118250000D01*
X96000000Y-116500000D02*
X96000000Y-116500000D01*
X104500000Y-116500000D02*
X96000000Y-116500000D01*
X96000000Y-114750000D02*
X96000000Y-114750000D01*
X104500000Y-114750000D02*
X96000000Y-114750000D01*
X96000000Y-113000000D02*
X96000000Y-113000000D01*
X104500000Y-113000000D02*
X96000000Y-113000000D01*
X96000000Y-111250000D02*
X96000000Y-111250000D01*
X104500000Y-111250000D02*
X96000000Y-111250000D01*
X96000000Y-109500000D02*
X96000000Y-109500000D01*
X104500000Y-109500000D02*
X96000000Y-109500000D01*
X96000000Y-107750000D02*
X96000000Y-107750000D01*
X104500000Y-107750000D02*
X96000000Y-107750000D01*
X96000000Y-106000000D02*
X96000000Y-106000000D01*
X104500000Y-106000000D02*
X96000000Y-106000000D01*
X109500000Y-124000000D02*
X109500000Y-125250000D01*
X104500000Y-124000000D02*
X104500000Y-124000000D01*
X104500000Y-125250000D02*
X104500000Y-124000000D01*
X109500000Y-125250000D02*
X104500000Y-125250000D01*
X104500000Y-123500000D02*
X104500000Y-123500000D01*
X109500000Y-123500000D02*
X104500000Y-123500000D01*
X104500000Y-121750000D02*
X104500000Y-121750000D01*
X109500000Y-121750000D02*
X104500000Y-121750000D01*
X104500000Y-120000000D02*
X104500000Y-120000000D01*
X109500000Y-120000000D02*
X104500000Y-120000000D01*
X104500000Y-118250000D02*
X104500000Y-118250000D01*
X109500000Y-118250000D02*
X104500000Y-118250000D01*
X104500000Y-124000000D02*
X104500000Y-124000000D01*
X104500000Y-118000000D02*
X104500000Y-124000000D01*
X109500000Y-124000000D02*
X109500000Y-118000000D01*
X104500000Y-116500000D02*
X104500000Y-116500000D01*
X109500000Y-116500000D02*
X104500000Y-116500000D01*
X104500000Y-114750000D02*
X104500000Y-114750000D01*
X109500000Y-114750000D02*
X104500000Y-114750000D01*
X104500000Y-118000000D02*
X104500000Y-118000000D01*
X104500000Y-113500000D02*
X104500000Y-118000000D01*
X109500000Y-118000000D02*
X109500000Y-118000000D01*
X109500000Y-113500000D02*
X109500000Y-118000000D01*
X104500000Y-113000000D02*
X104500000Y-113000000D01*
X109500000Y-113000000D02*
X104500000Y-113000000D01*
X104500000Y-111250000D02*
X104500000Y-111250000D01*
X109500000Y-111250000D02*
X104500000Y-111250000D01*
X109500000Y-109500000D02*
X104500000Y-109500000D01*
X104500000Y-107750000D02*
X104500000Y-107750000D01*
X109500000Y-107750000D02*
X104500000Y-107750000D01*
X104500000Y-107500000D02*
X104500000Y-107500000D01*
X104500000Y-106000000D02*
X104500000Y-106000000D01*
X109500000Y-106000000D02*
X104500000Y-106000000D01*
X96000000Y-104250000D02*
X96000000Y-104250000D01*
X109500000Y-104250000D02*
X96000000Y-104250000D01*
X104500000Y-113500000D02*
X104500000Y-113500000D01*
X104500000Y-104250000D02*
X104500000Y-113500000D01*
X109500000Y-104250000D02*
X109500000Y-113500000D01*
D12*
X118640000Y-115360000D02*
X119700000Y-115360000D01*
X118640000Y-114300000D02*
X118640000Y-115360000D01*
X120760000Y-113300000D02*
X118640000Y-113300000D01*
X120760000Y-111240000D02*
X120760000Y-113300000D01*
X118640000Y-111240000D02*
X120760000Y-111240000D01*
X118640000Y-113300000D02*
X118640000Y-111240000D01*
X118370000Y-119495000D02*
X119700000Y-119495000D01*
X118370000Y-118800000D02*
X118370000Y-119495000D01*
X121030000Y-118165000D02*
X118370000Y-118165000D01*
X121030000Y-116835000D02*
X121030000Y-118165000D01*
X118370000Y-116835000D02*
X121030000Y-116835000D01*
X118370000Y-118165000D02*
X118370000Y-116835000D01*
X118370000Y-110505000D02*
X119700000Y-110505000D01*
X118370000Y-109175000D02*
X118370000Y-110505000D01*
X121030000Y-107905000D02*
X118370000Y-107905000D01*
X121030000Y-105305000D02*
X121030000Y-107905000D01*
X118370000Y-105305000D02*
X121030000Y-105305000D01*
X118370000Y-107905000D02*
X118370000Y-105305000D01*
X134800000Y-119000000D02*
X129100000Y-119000000D01*
X134800000Y-116000000D02*
X134800000Y-119000000D01*
X129100000Y-116000000D02*
X134800000Y-116000000D01*
D13*
X113742971Y-126399882D02*
X112885828Y-126399882D01*
X113314400Y-126399882D02*
X113314400Y-127899882D01*
X113171542Y-127685596D01*
X113028685Y-127542739D01*
X112885828Y-127471311D01*
X87985828Y-126257025D02*
X87842971Y-126257025D01*
X87700114Y-126328454D01*
X87628685Y-126399882D01*
X87557257Y-126542739D01*
X87485828Y-126828454D01*
X87485828Y-127185596D01*
X87557257Y-127471311D01*
X87628685Y-127614168D01*
X87700114Y-127685596D01*
X87842971Y-127757025D01*
X87985828Y-127757025D01*
X88128685Y-127685596D01*
X88200114Y-127614168D01*
X88271542Y-127471311D01*
X88342971Y-127185596D01*
X88342971Y-126828454D01*
X88271542Y-126542739D01*
X88200114Y-126399882D01*
X88128685Y-126328454D01*
X87985828Y-126257025D01*
D10*
X90470714Y-128606857D02*
X90470714Y-129035428D01*
X90470714Y-128821142D02*
X91220714Y-128821142D01*
X91113571Y-128892571D01*
X91042142Y-128964000D01*
X91006428Y-129035428D01*
X91256428Y-127749714D02*
X90292142Y-128392571D01*
X90470714Y-127106857D02*
X90470714Y-127535428D01*
X90470714Y-127321142D02*
X91220714Y-127321142D01*
X91113571Y-127392571D01*
X91042142Y-127464000D01*
X91006428Y-127535428D01*
X91220714Y-126642571D02*
X91220714Y-126571142D01*
X91185000Y-126499714D01*
X91149285Y-126464000D01*
X91077857Y-126428285D01*
X90935000Y-126392571D01*
X90756428Y-126392571D01*
X90613571Y-126428285D01*
X90542142Y-126464000D01*
X90506428Y-126499714D01*
X90470714Y-126571142D01*
X90470714Y-126642571D01*
X90506428Y-126714000D01*
X90542142Y-126749714D01*
X90613571Y-126785428D01*
X90756428Y-126821142D01*
X90935000Y-126821142D01*
X91077857Y-126785428D01*
X91149285Y-126749714D01*
X91185000Y-126714000D01*
X91220714Y-126642571D01*
D13*
X163614400Y-127899882D02*
X164542971Y-127899882D01*
X164042971Y-127328454D01*
X164257257Y-127328454D01*
X164400114Y-127257025D01*
X164471542Y-127185596D01*
X164542971Y-127042739D01*
X164542971Y-126685596D01*
X164471542Y-126542739D01*
X164400114Y-126471311D01*
X164257257Y-126399882D01*
X163828685Y-126399882D01*
X163685828Y-126471311D01*
X163614400Y-126542739D01*
X138285828Y-127757025D02*
X138357257Y-127828454D01*
X138500114Y-127899882D01*
X138857257Y-127899882D01*
X139000114Y-127828454D01*
X139071542Y-127757025D01*
X139142971Y-127614168D01*
X139142971Y-127471311D01*
X139071542Y-127257025D01*
X138214400Y-126399882D01*
X139142971Y-126399882D01*
D10*
X107307261Y-125952380D02*
X106735833Y-125952380D01*
X107021547Y-126952380D02*
X107021547Y-125952380D01*
X106021547Y-126904761D02*
X106116785Y-126952380D01*
X106307261Y-126952380D01*
X106402500Y-126904761D01*
X106450119Y-126809523D01*
X106450119Y-126428571D01*
X106402500Y-126333333D01*
X106307261Y-126285714D01*
X106116785Y-126285714D01*
X106021547Y-126333333D01*
X105973928Y-126428571D01*
X105973928Y-126523809D01*
X106450119Y-126619047D01*
X105592976Y-126904761D02*
X105497738Y-126952380D01*
X105307261Y-126952380D01*
X105212023Y-126904761D01*
X105164404Y-126809523D01*
X105164404Y-126761904D01*
X105212023Y-126666666D01*
X105307261Y-126619047D01*
X105450119Y-126619047D01*
X105545357Y-126571428D01*
X105592976Y-126476190D01*
X105592976Y-126428571D01*
X105545357Y-126333333D01*
X105450119Y-126285714D01*
X105307261Y-126285714D01*
X105212023Y-126333333D01*
X104878690Y-126285714D02*
X104497738Y-126285714D01*
X104735833Y-125952380D02*
X104735833Y-126809523D01*
X104688214Y-126904761D01*
X104592976Y-126952380D01*
X104497738Y-126952380D01*
X103402500Y-126285714D02*
X103402500Y-127285714D01*
X103402500Y-126333333D02*
X103307261Y-126285714D01*
X103116785Y-126285714D01*
X103021547Y-126333333D01*
X102973928Y-126380952D01*
X102926309Y-126476190D01*
X102926309Y-126761904D01*
X102973928Y-126857142D01*
X103021547Y-126904761D01*
X103116785Y-126952380D01*
X103307261Y-126952380D01*
X103402500Y-126904761D01*
X102354880Y-126952380D02*
X102450119Y-126904761D01*
X102497738Y-126857142D01*
X102545357Y-126761904D01*
X102545357Y-126476190D01*
X102497738Y-126380952D01*
X102450119Y-126333333D01*
X102354880Y-126285714D01*
X102212023Y-126285714D01*
X102116785Y-126333333D01*
X102069166Y-126380952D01*
X102021547Y-126476190D01*
X102021547Y-126761904D01*
X102069166Y-126857142D01*
X102116785Y-126904761D01*
X102212023Y-126952380D01*
X102354880Y-126952380D01*
X101592976Y-126952380D02*
X101592976Y-126285714D01*
X101592976Y-125952380D02*
X101640595Y-126000000D01*
X101592976Y-126047619D01*
X101545357Y-126000000D01*
X101592976Y-125952380D01*
X101592976Y-126047619D01*
X101116785Y-126285714D02*
X101116785Y-126952380D01*
X101116785Y-126380952D02*
X101069166Y-126333333D01*
X100973928Y-126285714D01*
X100831071Y-126285714D01*
X100735833Y-126333333D01*
X100688214Y-126428571D01*
X100688214Y-126952380D01*
X100354880Y-126285714D02*
X99973928Y-126285714D01*
X100212023Y-125952380D02*
X100212023Y-126809523D01*
X100164404Y-126904761D01*
X100069166Y-126952380D01*
X99973928Y-126952380D01*
X158380952Y-126428571D02*
X158714285Y-126428571D01*
X158714285Y-126952380D02*
X158714285Y-125952380D01*
X158238095Y-125952380D01*
X157857142Y-126952380D02*
X157857142Y-126285714D01*
X157857142Y-125952380D02*
X157904761Y-126000000D01*
X157857142Y-126047619D01*
X157809523Y-126000000D01*
X157857142Y-125952380D01*
X157857142Y-126047619D01*
X156952380Y-126952380D02*
X156952380Y-125952380D01*
X156952380Y-126904761D02*
X157047619Y-126952380D01*
X157238095Y-126952380D01*
X157333333Y-126904761D01*
X157380952Y-126857142D01*
X157428571Y-126761904D01*
X157428571Y-126476190D01*
X157380952Y-126380952D01*
X157333333Y-126333333D01*
X157238095Y-126285714D01*
X157047619Y-126285714D01*
X156952380Y-126333333D01*
X156047619Y-126285714D02*
X156047619Y-126952380D01*
X156476190Y-126285714D02*
X156476190Y-126809523D01*
X156428571Y-126904761D01*
X156333333Y-126952380D01*
X156190476Y-126952380D01*
X156095238Y-126904761D01*
X156047619Y-126857142D01*
X155142857Y-126904761D02*
X155238095Y-126952380D01*
X155428571Y-126952380D01*
X155523809Y-126904761D01*
X155571428Y-126857142D01*
X155619047Y-126761904D01*
X155619047Y-126476190D01*
X155571428Y-126380952D01*
X155523809Y-126333333D01*
X155428571Y-126285714D01*
X155238095Y-126285714D01*
X155142857Y-126333333D01*
X154714285Y-126952380D02*
X154714285Y-126285714D01*
X154714285Y-125952380D02*
X154761904Y-126000000D01*
X154714285Y-126047619D01*
X154666666Y-126000000D01*
X154714285Y-125952380D01*
X154714285Y-126047619D01*
X153809523Y-126952380D02*
X153809523Y-126428571D01*
X153857142Y-126333333D01*
X153952380Y-126285714D01*
X154142857Y-126285714D01*
X154238095Y-126333333D01*
X153809523Y-126904761D02*
X153904761Y-126952380D01*
X154142857Y-126952380D01*
X154238095Y-126904761D01*
X154285714Y-126809523D01*
X154285714Y-126714285D01*
X154238095Y-126619047D01*
X154142857Y-126571428D01*
X153904761Y-126571428D01*
X153809523Y-126523809D01*
X153190476Y-126952380D02*
X153285714Y-126904761D01*
X153333333Y-126809523D01*
X153333333Y-125952380D01*
X126704761Y-106542857D02*
X126752380Y-106685714D01*
X126752380Y-106923809D01*
X126704761Y-107019047D01*
X126657142Y-107066666D01*
X126561904Y-107114285D01*
X126466666Y-107114285D01*
X126371428Y-107066666D01*
X126323809Y-107019047D01*
X126276190Y-106923809D01*
X126228571Y-106733333D01*
X126180952Y-106638095D01*
X126133333Y-106590476D01*
X126038095Y-106542857D01*
X125942857Y-106542857D01*
X125847619Y-106590476D01*
X125800000Y-106638095D01*
X125752380Y-106733333D01*
X125752380Y-106971428D01*
X125800000Y-107114285D01*
X125752380Y-107733333D02*
X125752380Y-107923809D01*
X125800000Y-108019047D01*
X125895238Y-108114285D01*
X126085714Y-108161904D01*
X126419047Y-108161904D01*
X126609523Y-108114285D01*
X126704761Y-108019047D01*
X126752380Y-107923809D01*
X126752380Y-107733333D01*
X126704761Y-107638095D01*
X126609523Y-107542857D01*
X126419047Y-107495238D01*
X126085714Y-107495238D01*
X125895238Y-107542857D01*
X125800000Y-107638095D01*
X125752380Y-107733333D01*
X126752380Y-108590476D02*
X125752380Y-108590476D01*
X125752380Y-108828571D01*
X125800000Y-108971428D01*
X125895238Y-109066666D01*
X125990476Y-109114285D01*
X126180952Y-109161904D01*
X126323809Y-109161904D01*
X126514285Y-109114285D01*
X126609523Y-109066666D01*
X126704761Y-108971428D01*
X126752380Y-108828571D01*
X126752380Y-108590476D01*
X126371428Y-109590476D02*
X126371428Y-110352380D01*
X126752380Y-111352380D02*
X126752380Y-110780952D01*
X126752380Y-111066666D02*
X125752380Y-111066666D01*
X125895238Y-110971428D01*
X125990476Y-110876190D01*
X126038095Y-110780952D01*
X125847619Y-111733333D02*
X125800000Y-111780952D01*
X125752380Y-111876190D01*
X125752380Y-112114285D01*
X125800000Y-112209523D01*
X125847619Y-112257142D01*
X125942857Y-112304761D01*
X126038095Y-112304761D01*
X126180952Y-112257142D01*
X126752380Y-111685714D01*
X126752380Y-112304761D01*
X125752380Y-112638095D02*
X125752380Y-113257142D01*
X126133333Y-112923809D01*
X126133333Y-113066666D01*
X126180952Y-113161904D01*
X126228571Y-113209523D01*
X126323809Y-113257142D01*
X126561904Y-113257142D01*
X126657142Y-113209523D01*
X126704761Y-113161904D01*
X126752380Y-113066666D01*
X126752380Y-112780952D01*
X126704761Y-112685714D01*
X126657142Y-112638095D01*
X168757142Y-116152380D02*
X168757142Y-115152380D01*
X168185714Y-116152380D01*
X168185714Y-115152380D01*
X167709523Y-116152380D02*
X167709523Y-115152380D01*
X167376190Y-115866666D01*
X167042857Y-115152380D01*
X167042857Y-116152380D01*
X166376190Y-115152380D02*
X166185714Y-115152380D01*
X166090476Y-115200000D01*
X165995238Y-115295238D01*
X165947619Y-115485714D01*
X165947619Y-115819047D01*
X165995238Y-116009523D01*
X166090476Y-116104761D01*
X166185714Y-116152380D01*
X166376190Y-116152380D01*
X166471428Y-116104761D01*
X166566666Y-116009523D01*
X166614285Y-115819047D01*
X166614285Y-115485714D01*
X166566666Y-115295238D01*
X166471428Y-115200000D01*
X166376190Y-115152380D01*
X165566666Y-116104761D02*
X165423809Y-116152380D01*
X165185714Y-116152380D01*
X165090476Y-116104761D01*
X165042857Y-116057142D01*
X164995238Y-115961904D01*
X164995238Y-115866666D01*
X165042857Y-115771428D01*
X165090476Y-115723809D01*
X165185714Y-115676190D01*
X165376190Y-115628571D01*
X165471428Y-115580952D01*
X165519047Y-115533333D01*
X165566666Y-115438095D01*
X165566666Y-115342857D01*
X165519047Y-115247619D01*
X165471428Y-115200000D01*
X165376190Y-115152380D01*
X165138095Y-115152380D01*
X164995238Y-115200000D01*
X163462023Y-122504761D02*
X163319166Y-122552380D01*
X163081071Y-122552380D01*
X162985833Y-122504761D01*
X162938214Y-122457142D01*
X162890595Y-122361904D01*
X162890595Y-122266666D01*
X162938214Y-122171428D01*
X162985833Y-122123809D01*
X163081071Y-122076190D01*
X163271547Y-122028571D01*
X163366785Y-121980952D01*
X163414404Y-121933333D01*
X163462023Y-121838095D01*
X163462023Y-121742857D01*
X163414404Y-121647619D01*
X163366785Y-121600000D01*
X163271547Y-121552380D01*
X163033452Y-121552380D01*
X162890595Y-121600000D01*
X163414404Y-117352380D02*
X163414404Y-116352380D01*
X163176309Y-116352380D01*
X163033452Y-116400000D01*
X162938214Y-116495238D01*
X162890595Y-116590476D01*
X162842976Y-116780952D01*
X162842976Y-116923809D01*
X162890595Y-117114285D01*
X162938214Y-117209523D01*
X163033452Y-117304761D01*
X163176309Y-117352380D01*
X163414404Y-117352380D01*
X166940595Y-119000000D02*
X167035833Y-118952380D01*
X167178690Y-118952380D01*
X167321547Y-119000000D01*
X167416785Y-119095238D01*
X167464404Y-119190476D01*
X167512023Y-119380952D01*
X167512023Y-119523809D01*
X167464404Y-119714285D01*
X167416785Y-119809523D01*
X167321547Y-119904761D01*
X167178690Y-119952380D01*
X167083452Y-119952380D01*
X166940595Y-119904761D01*
X166892976Y-119857142D01*
X166892976Y-119523809D01*
X167083452Y-119523809D01*
X176033333Y-116152380D02*
X176033333Y-115152380D01*
X175652380Y-115152380D01*
X175557142Y-115200000D01*
X175509523Y-115247619D01*
X175461904Y-115342857D01*
X175461904Y-115485714D01*
X175509523Y-115580952D01*
X175557142Y-115628571D01*
X175652380Y-115676190D01*
X176033333Y-115676190D01*
X175033333Y-116152380D02*
X175033333Y-115152380D01*
X174700000Y-115866666D01*
X174366666Y-115152380D01*
X174366666Y-116152380D01*
X173700000Y-115152380D02*
X173509523Y-115152380D01*
X173414285Y-115200000D01*
X173319047Y-115295238D01*
X173271428Y-115485714D01*
X173271428Y-115819047D01*
X173319047Y-116009523D01*
X173414285Y-116104761D01*
X173509523Y-116152380D01*
X173700000Y-116152380D01*
X173795238Y-116104761D01*
X173890476Y-116009523D01*
X173938095Y-115819047D01*
X173938095Y-115485714D01*
X173890476Y-115295238D01*
X173795238Y-115200000D01*
X173700000Y-115152380D01*
X172890476Y-116104761D02*
X172747619Y-116152380D01*
X172509523Y-116152380D01*
X172414285Y-116104761D01*
X172366666Y-116057142D01*
X172319047Y-115961904D01*
X172319047Y-115866666D01*
X172366666Y-115771428D01*
X172414285Y-115723809D01*
X172509523Y-115676190D01*
X172700000Y-115628571D01*
X172795238Y-115580952D01*
X172842857Y-115533333D01*
X172890476Y-115438095D01*
X172890476Y-115342857D01*
X172842857Y-115247619D01*
X172795238Y-115200000D01*
X172700000Y-115152380D01*
X172461904Y-115152380D01*
X172319047Y-115200000D01*
X170664404Y-122552380D02*
X170664404Y-121552380D01*
X170426309Y-121552380D01*
X170283452Y-121600000D01*
X170188214Y-121695238D01*
X170140595Y-121790476D01*
X170092976Y-121980952D01*
X170092976Y-122123809D01*
X170140595Y-122314285D01*
X170188214Y-122409523D01*
X170283452Y-122504761D01*
X170426309Y-122552380D01*
X170664404Y-122552380D01*
X170712023Y-117304761D02*
X170569166Y-117352380D01*
X170331071Y-117352380D01*
X170235833Y-117304761D01*
X170188214Y-117257142D01*
X170140595Y-117161904D01*
X170140595Y-117066666D01*
X170188214Y-116971428D01*
X170235833Y-116923809D01*
X170331071Y-116876190D01*
X170521547Y-116828571D01*
X170616785Y-116780952D01*
X170664404Y-116733333D01*
X170712023Y-116638095D01*
X170712023Y-116542857D01*
X170664404Y-116447619D01*
X170616785Y-116400000D01*
X170521547Y-116352380D01*
X170283452Y-116352380D01*
X170140595Y-116400000D01*
X174190595Y-119000000D02*
X174285833Y-118952380D01*
X174428690Y-118952380D01*
X174571547Y-119000000D01*
X174666785Y-119095238D01*
X174714404Y-119190476D01*
X174762023Y-119380952D01*
X174762023Y-119523809D01*
X174714404Y-119714285D01*
X174666785Y-119809523D01*
X174571547Y-119904761D01*
X174428690Y-119952380D01*
X174333452Y-119952380D01*
X174190595Y-119904761D01*
X174142976Y-119857142D01*
X174142976Y-119523809D01*
X174333452Y-119523809D01*
X168409523Y-107152380D02*
X168409523Y-106152380D01*
X167838095Y-107152380D01*
X167838095Y-106152380D01*
X167361904Y-107152380D02*
X167361904Y-106152380D01*
X166980952Y-106152380D01*
X166885714Y-106200000D01*
X166838095Y-106247619D01*
X166790476Y-106342857D01*
X166790476Y-106485714D01*
X166838095Y-106580952D01*
X166885714Y-106628571D01*
X166980952Y-106676190D01*
X167361904Y-106676190D01*
X166361904Y-107152380D02*
X166361904Y-106152380D01*
X165790476Y-107152380D01*
X165790476Y-106152380D01*
X163764404Y-113028571D02*
X163431071Y-113028571D01*
X163288214Y-113552380D02*
X163764404Y-113552380D01*
X163764404Y-112552380D01*
X163288214Y-112552380D01*
X163192976Y-108257142D02*
X163240595Y-108304761D01*
X163383452Y-108352380D01*
X163478690Y-108352380D01*
X163621547Y-108304761D01*
X163716785Y-108209523D01*
X163764404Y-108114285D01*
X163812023Y-107923809D01*
X163812023Y-107780952D01*
X163764404Y-107590476D01*
X163716785Y-107495238D01*
X163621547Y-107400000D01*
X163478690Y-107352380D01*
X163383452Y-107352380D01*
X163240595Y-107400000D01*
X163192976Y-107447619D01*
X167131071Y-109678571D02*
X166988214Y-109726190D01*
X166940595Y-109773809D01*
X166892976Y-109869047D01*
X166892976Y-110011904D01*
X166940595Y-110107142D01*
X166988214Y-110154761D01*
X167083452Y-110202380D01*
X167464404Y-110202380D01*
X167464404Y-109202380D01*
X167131071Y-109202380D01*
X167035833Y-109250000D01*
X166988214Y-109297619D01*
X166940595Y-109392857D01*
X166940595Y-109488095D01*
X166988214Y-109583333D01*
X167035833Y-109630952D01*
X167131071Y-109678571D01*
X167464404Y-109678571D01*
X175635714Y-107152380D02*
X175635714Y-106152380D01*
X175254761Y-106152380D01*
X175159523Y-106200000D01*
X175111904Y-106247619D01*
X175064285Y-106342857D01*
X175064285Y-106485714D01*
X175111904Y-106580952D01*
X175159523Y-106628571D01*
X175254761Y-106676190D01*
X175635714Y-106676190D01*
X174635714Y-107152380D02*
X174635714Y-106152380D01*
X174064285Y-107152380D01*
X174064285Y-106152380D01*
X173588095Y-107152380D02*
X173588095Y-106152380D01*
X173207142Y-106152380D01*
X173111904Y-106200000D01*
X173064285Y-106247619D01*
X173016666Y-106342857D01*
X173016666Y-106485714D01*
X173064285Y-106580952D01*
X173111904Y-106628571D01*
X173207142Y-106676190D01*
X173588095Y-106676190D01*
X170442976Y-113457142D02*
X170490595Y-113504761D01*
X170633452Y-113552380D01*
X170728690Y-113552380D01*
X170871547Y-113504761D01*
X170966785Y-113409523D01*
X171014404Y-113314285D01*
X171062023Y-113123809D01*
X171062023Y-112980952D01*
X171014404Y-112790476D01*
X170966785Y-112695238D01*
X170871547Y-112600000D01*
X170728690Y-112552380D01*
X170633452Y-112552380D01*
X170490595Y-112600000D01*
X170442976Y-112647619D01*
X171014404Y-107828571D02*
X170681071Y-107828571D01*
X170538214Y-108352380D02*
X171014404Y-108352380D01*
X171014404Y-107352380D01*
X170538214Y-107352380D01*
X174381071Y-109678571D02*
X174238214Y-109726190D01*
X174190595Y-109773809D01*
X174142976Y-109869047D01*
X174142976Y-110011904D01*
X174190595Y-110107142D01*
X174238214Y-110154761D01*
X174333452Y-110202380D01*
X174714404Y-110202380D01*
X174714404Y-109202380D01*
X174381071Y-109202380D01*
X174285833Y-109250000D01*
X174238214Y-109297619D01*
X174190595Y-109392857D01*
X174190595Y-109488095D01*
X174238214Y-109583333D01*
X174285833Y-109630952D01*
X174381071Y-109678571D01*
X174714404Y-109678571D01*
X130757142Y-105754761D02*
X130614285Y-105802380D01*
X130376190Y-105802380D01*
X130280952Y-105754761D01*
X130233333Y-105707142D01*
X130185714Y-105611904D01*
X130185714Y-105516666D01*
X130233333Y-105421428D01*
X130280952Y-105373809D01*
X130376190Y-105326190D01*
X130566666Y-105278571D01*
X130661904Y-105230952D01*
X130709523Y-105183333D01*
X130757142Y-105088095D01*
X130757142Y-104992857D01*
X130709523Y-104897619D01*
X130661904Y-104850000D01*
X130566666Y-104802380D01*
X130328571Y-104802380D01*
X130185714Y-104850000D01*
X129757142Y-105802380D02*
X129757142Y-104802380D01*
X129423809Y-105516666D01*
X129090476Y-104802380D01*
X129090476Y-105802380D01*
X128280952Y-105278571D02*
X128138095Y-105326190D01*
X128090476Y-105373809D01*
X128042857Y-105469047D01*
X128042857Y-105611904D01*
X128090476Y-105707142D01*
X128138095Y-105754761D01*
X128233333Y-105802380D01*
X128614285Y-105802380D01*
X128614285Y-104802380D01*
X128280952Y-104802380D01*
X128185714Y-104850000D01*
X128138095Y-104897619D01*
X128090476Y-104992857D01*
X128090476Y-105088095D01*
X128138095Y-105183333D01*
X128185714Y-105230952D01*
X128280952Y-105278571D01*
X128614285Y-105278571D01*
X135285714Y-105804761D02*
X135142857Y-105852380D01*
X134904761Y-105852380D01*
X134809523Y-105804761D01*
X134761904Y-105757142D01*
X134714285Y-105661904D01*
X134714285Y-105566666D01*
X134761904Y-105471428D01*
X134809523Y-105423809D01*
X134904761Y-105376190D01*
X135095238Y-105328571D01*
X135190476Y-105280952D01*
X135238095Y-105233333D01*
X135285714Y-105138095D01*
X135285714Y-105042857D01*
X135238095Y-104947619D01*
X135190476Y-104900000D01*
X135095238Y-104852380D01*
X134857142Y-104852380D01*
X134714285Y-104900000D01*
X134285714Y-105852380D02*
X134285714Y-104852380D01*
X133952380Y-105566666D01*
X133619047Y-104852380D01*
X133619047Y-105852380D01*
X133190476Y-105566666D02*
X132714285Y-105566666D01*
X133285714Y-105852380D02*
X132952380Y-104852380D01*
X132619047Y-105852380D01*
X150773928Y-108052380D02*
X150678690Y-108052380D01*
X150583452Y-108100000D01*
X150535833Y-108147619D01*
X150488214Y-108242857D01*
X150440595Y-108433333D01*
X150440595Y-108671428D01*
X150488214Y-108861904D01*
X150535833Y-108957142D01*
X150583452Y-109004761D01*
X150678690Y-109052380D01*
X150773928Y-109052380D01*
X150869166Y-109004761D01*
X150916785Y-108957142D01*
X150964404Y-108861904D01*
X151012023Y-108671428D01*
X151012023Y-108433333D01*
X150964404Y-108242857D01*
X150916785Y-108147619D01*
X150869166Y-108100000D01*
X150773928Y-108052380D01*
X150059642Y-108147619D02*
X150012023Y-108100000D01*
X149916785Y-108052380D01*
X149678690Y-108052380D01*
X149583452Y-108100000D01*
X149535833Y-108147619D01*
X149488214Y-108242857D01*
X149488214Y-108338095D01*
X149535833Y-108480952D01*
X150107261Y-109052380D01*
X149488214Y-109052380D01*
X148869166Y-108052380D02*
X148773928Y-108052380D01*
X148678690Y-108100000D01*
X148631071Y-108147619D01*
X148583452Y-108242857D01*
X148535833Y-108433333D01*
X148535833Y-108671428D01*
X148583452Y-108861904D01*
X148631071Y-108957142D01*
X148678690Y-109004761D01*
X148773928Y-109052380D01*
X148869166Y-109052380D01*
X148964404Y-109004761D01*
X149012023Y-108957142D01*
X149059642Y-108861904D01*
X149107261Y-108671428D01*
X149107261Y-108433333D01*
X149059642Y-108242857D01*
X149012023Y-108147619D01*
X148964404Y-108100000D01*
X148869166Y-108052380D01*
X147583452Y-109052380D02*
X148154880Y-109052380D01*
X147869166Y-109052380D02*
X147869166Y-108052380D01*
X147964404Y-108195238D01*
X148059642Y-108290476D01*
X148154880Y-108338095D01*
X134850000Y-121302380D02*
X134850000Y-120302380D01*
X134516666Y-121016666D01*
X134183333Y-120302380D01*
X134183333Y-121302380D01*
X133707142Y-121302380D02*
X133707142Y-120635714D01*
X133707142Y-120302380D02*
X133754761Y-120350000D01*
X133707142Y-120397619D01*
X133659523Y-120350000D01*
X133707142Y-120302380D01*
X133707142Y-120397619D01*
X133230952Y-120635714D02*
X133230952Y-121302380D01*
X133230952Y-120730952D02*
X133183333Y-120683333D01*
X133088095Y-120635714D01*
X132945238Y-120635714D01*
X132850000Y-120683333D01*
X132802380Y-120778571D01*
X132802380Y-121302380D01*
X132326190Y-121302380D02*
X132326190Y-120635714D01*
X132326190Y-120302380D02*
X132373809Y-120350000D01*
X132326190Y-120397619D01*
X132278571Y-120350000D01*
X132326190Y-120302380D01*
X132326190Y-120397619D01*
X131088095Y-121302380D02*
X131088095Y-120302380D01*
X130754761Y-121016666D01*
X130421428Y-120302380D01*
X130421428Y-121302380D01*
X129945238Y-120778571D02*
X129611904Y-120778571D01*
X129469047Y-121302380D02*
X129945238Y-121302380D01*
X129945238Y-120302380D01*
X129469047Y-120302380D01*
X128564285Y-121302380D02*
X129040476Y-121302380D01*
X129040476Y-120302380D01*
X127897619Y-120778571D02*
X128230952Y-120778571D01*
X128230952Y-121302380D02*
X128230952Y-120302380D01*
X127754761Y-120302380D01*
X124602380Y-115050000D02*
X123602380Y-115050000D01*
X124316666Y-115383333D01*
X123602380Y-115716666D01*
X124602380Y-115716666D01*
X124602380Y-116192857D02*
X123935714Y-116192857D01*
X123602380Y-116192857D02*
X123650000Y-116145238D01*
X123697619Y-116192857D01*
X123650000Y-116240476D01*
X123602380Y-116192857D01*
X123697619Y-116192857D01*
X124554761Y-117097619D02*
X124602380Y-117002380D01*
X124602380Y-116811904D01*
X124554761Y-116716666D01*
X124507142Y-116669047D01*
X124411904Y-116621428D01*
X124126190Y-116621428D01*
X124030952Y-116669047D01*
X123983333Y-116716666D01*
X123935714Y-116811904D01*
X123935714Y-117002380D01*
X123983333Y-117097619D01*
X124602380Y-117526190D02*
X123935714Y-117526190D01*
X124126190Y-117526190D02*
X124030952Y-117573809D01*
X123983333Y-117621428D01*
X123935714Y-117716666D01*
X123935714Y-117811904D01*
X124602380Y-118288095D02*
X124554761Y-118192857D01*
X124507142Y-118145238D01*
X124411904Y-118097619D01*
X124126190Y-118097619D01*
X124030952Y-118145238D01*
X123983333Y-118192857D01*
X123935714Y-118288095D01*
X123935714Y-118430952D01*
X123983333Y-118526190D01*
X124030952Y-118573809D01*
X124126190Y-118621428D01*
X124411904Y-118621428D01*
X124507142Y-118573809D01*
X124554761Y-118526190D01*
X124602380Y-118430952D01*
X124602380Y-118288095D01*
X124602380Y-119811904D02*
X123602380Y-119811904D01*
X124316666Y-120145238D01*
X123602380Y-120478571D01*
X124602380Y-120478571D01*
X124078571Y-120954761D02*
X124078571Y-121288095D01*
X124602380Y-121430952D02*
X124602380Y-120954761D01*
X123602380Y-120954761D01*
X123602380Y-121430952D01*
X124602380Y-122335714D02*
X124602380Y-121859523D01*
X123602380Y-121859523D01*
X124078571Y-123002380D02*
X124078571Y-122669047D01*
X124602380Y-122669047D02*
X123602380Y-122669047D01*
X123602380Y-123145238D01*
X150292857Y-123452380D02*
X150864285Y-123452380D01*
X150578571Y-123452380D02*
X150578571Y-122452380D01*
X150673809Y-122595238D01*
X150769047Y-122690476D01*
X150864285Y-122738095D01*
X149721428Y-122880952D02*
X149816666Y-122833333D01*
X149864285Y-122785714D01*
X149911904Y-122690476D01*
X149911904Y-122642857D01*
X149864285Y-122547619D01*
X149816666Y-122500000D01*
X149721428Y-122452380D01*
X149530952Y-122452380D01*
X149435714Y-122500000D01*
X149388095Y-122547619D01*
X149340476Y-122642857D01*
X149340476Y-122690476D01*
X149388095Y-122785714D01*
X149435714Y-122833333D01*
X149530952Y-122880952D01*
X149721428Y-122880952D01*
X149816666Y-122928571D01*
X149864285Y-122976190D01*
X149911904Y-123071428D01*
X149911904Y-123261904D01*
X149864285Y-123357142D01*
X149816666Y-123404761D01*
X149721428Y-123452380D01*
X149530952Y-123452380D01*
X149435714Y-123404761D01*
X149388095Y-123357142D01*
X149340476Y-123261904D01*
X149340476Y-123071428D01*
X149388095Y-122976190D01*
X149435714Y-122928571D01*
X149530952Y-122880952D01*
X148388095Y-123452380D02*
X148959523Y-123452380D01*
X148673809Y-123452380D02*
X148673809Y-122452380D01*
X148769047Y-122595238D01*
X148864285Y-122690476D01*
X148959523Y-122738095D01*
X148007142Y-122547619D02*
X147959523Y-122500000D01*
X147864285Y-122452380D01*
X147626190Y-122452380D01*
X147530952Y-122500000D01*
X147483333Y-122547619D01*
X147435714Y-122642857D01*
X147435714Y-122738095D01*
X147483333Y-122880952D01*
X148054761Y-123452380D01*
X147435714Y-123452380D01*
X150340595Y-116602380D02*
X150912023Y-116602380D01*
X150626309Y-116602380D02*
X150626309Y-115602380D01*
X150721547Y-115745238D01*
X150816785Y-115840476D01*
X150912023Y-115888095D01*
X149959642Y-115697619D02*
X149912023Y-115650000D01*
X149816785Y-115602380D01*
X149578690Y-115602380D01*
X149483452Y-115650000D01*
X149435833Y-115697619D01*
X149388214Y-115792857D01*
X149388214Y-115888095D01*
X149435833Y-116030952D01*
X150007261Y-116602380D01*
X149388214Y-116602380D01*
X148769166Y-115602380D02*
X148673928Y-115602380D01*
X148578690Y-115650000D01*
X148531071Y-115697619D01*
X148483452Y-115792857D01*
X148435833Y-115983333D01*
X148435833Y-116221428D01*
X148483452Y-116411904D01*
X148531071Y-116507142D01*
X148578690Y-116554761D01*
X148673928Y-116602380D01*
X148769166Y-116602380D01*
X148864404Y-116554761D01*
X148912023Y-116507142D01*
X148959642Y-116411904D01*
X149007261Y-116221428D01*
X149007261Y-115983333D01*
X148959642Y-115792857D01*
X148912023Y-115697619D01*
X148864404Y-115650000D01*
X148769166Y-115602380D01*
X147578690Y-115602380D02*
X147769166Y-115602380D01*
X147864404Y-115650000D01*
X147912023Y-115697619D01*
X148007261Y-115840476D01*
X148054880Y-116030952D01*
X148054880Y-116411904D01*
X148007261Y-116507142D01*
X147959642Y-116554761D01*
X147864404Y-116602380D01*
X147673928Y-116602380D01*
X147578690Y-116554761D01*
X147531071Y-116507142D01*
X147483452Y-116411904D01*
X147483452Y-116173809D01*
X147531071Y-116078571D01*
X147578690Y-116030952D01*
X147673928Y-115983333D01*
X147864404Y-115983333D01*
X147959642Y-116030952D01*
X148007261Y-116078571D01*
X148054880Y-116173809D01*
X150773928Y-106452380D02*
X150678690Y-106452380D01*
X150583452Y-106500000D01*
X150535833Y-106547619D01*
X150488214Y-106642857D01*
X150440595Y-106833333D01*
X150440595Y-107071428D01*
X150488214Y-107261904D01*
X150535833Y-107357142D01*
X150583452Y-107404761D01*
X150678690Y-107452380D01*
X150773928Y-107452380D01*
X150869166Y-107404761D01*
X150916785Y-107357142D01*
X150964404Y-107261904D01*
X151012023Y-107071428D01*
X151012023Y-106833333D01*
X150964404Y-106642857D01*
X150916785Y-106547619D01*
X150869166Y-106500000D01*
X150773928Y-106452380D01*
X149488214Y-107452380D02*
X150059642Y-107452380D01*
X149773928Y-107452380D02*
X149773928Y-106452380D01*
X149869166Y-106595238D01*
X149964404Y-106690476D01*
X150059642Y-106738095D01*
X148869166Y-106452380D02*
X148773928Y-106452380D01*
X148678690Y-106500000D01*
X148631071Y-106547619D01*
X148583452Y-106642857D01*
X148535833Y-106833333D01*
X148535833Y-107071428D01*
X148583452Y-107261904D01*
X148631071Y-107357142D01*
X148678690Y-107404761D01*
X148773928Y-107452380D01*
X148869166Y-107452380D01*
X148964404Y-107404761D01*
X149012023Y-107357142D01*
X149059642Y-107261904D01*
X149107261Y-107071428D01*
X149107261Y-106833333D01*
X149059642Y-106642857D01*
X149012023Y-106547619D01*
X148964404Y-106500000D01*
X148869166Y-106452380D01*
X147916785Y-106452380D02*
X147821547Y-106452380D01*
X147726309Y-106500000D01*
X147678690Y-106547619D01*
X147631071Y-106642857D01*
X147583452Y-106833333D01*
X147583452Y-107071428D01*
X147631071Y-107261904D01*
X147678690Y-107357142D01*
X147726309Y-107404761D01*
X147821547Y-107452380D01*
X147916785Y-107452380D01*
X148012023Y-107404761D01*
X148059642Y-107357142D01*
X148107261Y-107261904D01*
X148154880Y-107071428D01*
X148154880Y-106833333D01*
X148107261Y-106642857D01*
X148059642Y-106547619D01*
X148012023Y-106500000D01*
X147916785Y-106452380D01*
X146678690Y-106452380D02*
X147154880Y-106452380D01*
X147202500Y-106928571D01*
X147154880Y-106880952D01*
X147059642Y-106833333D01*
X146821547Y-106833333D01*
X146726309Y-106880952D01*
X146678690Y-106928571D01*
X146631071Y-107023809D01*
X146631071Y-107261904D01*
X146678690Y-107357142D01*
X146726309Y-107404761D01*
X146821547Y-107452380D01*
X147059642Y-107452380D01*
X147154880Y-107404761D01*
X147202500Y-107357142D01*
X150773928Y-109652380D02*
X150678690Y-109652380D01*
X150583452Y-109700000D01*
X150535833Y-109747619D01*
X150488214Y-109842857D01*
X150440595Y-110033333D01*
X150440595Y-110271428D01*
X150488214Y-110461904D01*
X150535833Y-110557142D01*
X150583452Y-110604761D01*
X150678690Y-110652380D01*
X150773928Y-110652380D01*
X150869166Y-110604761D01*
X150916785Y-110557142D01*
X150964404Y-110461904D01*
X151012023Y-110271428D01*
X151012023Y-110033333D01*
X150964404Y-109842857D01*
X150916785Y-109747619D01*
X150869166Y-109700000D01*
X150773928Y-109652380D01*
X149583452Y-109985714D02*
X149583452Y-110652380D01*
X149821547Y-109604761D02*
X150059642Y-110319047D01*
X149440595Y-110319047D01*
X148869166Y-109652380D02*
X148773928Y-109652380D01*
X148678690Y-109700000D01*
X148631071Y-109747619D01*
X148583452Y-109842857D01*
X148535833Y-110033333D01*
X148535833Y-110271428D01*
X148583452Y-110461904D01*
X148631071Y-110557142D01*
X148678690Y-110604761D01*
X148773928Y-110652380D01*
X148869166Y-110652380D01*
X148964404Y-110604761D01*
X149012023Y-110557142D01*
X149059642Y-110461904D01*
X149107261Y-110271428D01*
X149107261Y-110033333D01*
X149059642Y-109842857D01*
X149012023Y-109747619D01*
X148964404Y-109700000D01*
X148869166Y-109652380D01*
X148154880Y-109747619D02*
X148107261Y-109700000D01*
X148012023Y-109652380D01*
X147773928Y-109652380D01*
X147678690Y-109700000D01*
X147631071Y-109747619D01*
X147583452Y-109842857D01*
X147583452Y-109938095D01*
X147631071Y-110080952D01*
X148202500Y-110652380D01*
X147583452Y-110652380D01*
X150703928Y-111252380D02*
X150608690Y-111252380D01*
X150513452Y-111300000D01*
X150465833Y-111347619D01*
X150418214Y-111442857D01*
X150370595Y-111633333D01*
X150370595Y-111871428D01*
X150418214Y-112061904D01*
X150465833Y-112157142D01*
X150513452Y-112204761D01*
X150608690Y-112252380D01*
X150703928Y-112252380D01*
X150799166Y-112204761D01*
X150846785Y-112157142D01*
X150894404Y-112061904D01*
X150942023Y-111871428D01*
X150942023Y-111633333D01*
X150894404Y-111442857D01*
X150846785Y-111347619D01*
X150799166Y-111300000D01*
X150703928Y-111252380D01*
X149513452Y-111252380D02*
X149703928Y-111252380D01*
X149799166Y-111300000D01*
X149846785Y-111347619D01*
X149942023Y-111490476D01*
X149989642Y-111680952D01*
X149989642Y-112061904D01*
X149942023Y-112157142D01*
X149894404Y-112204761D01*
X149799166Y-112252380D01*
X149608690Y-112252380D01*
X149513452Y-112204761D01*
X149465833Y-112157142D01*
X149418214Y-112061904D01*
X149418214Y-111823809D01*
X149465833Y-111728571D01*
X149513452Y-111680952D01*
X149608690Y-111633333D01*
X149799166Y-111633333D01*
X149894404Y-111680952D01*
X149942023Y-111728571D01*
X149989642Y-111823809D01*
X148799166Y-111252380D02*
X148703928Y-111252380D01*
X148608690Y-111300000D01*
X148561071Y-111347619D01*
X148513452Y-111442857D01*
X148465833Y-111633333D01*
X148465833Y-111871428D01*
X148513452Y-112061904D01*
X148561071Y-112157142D01*
X148608690Y-112204761D01*
X148703928Y-112252380D01*
X148799166Y-112252380D01*
X148894404Y-112204761D01*
X148942023Y-112157142D01*
X148989642Y-112061904D01*
X149037261Y-111871428D01*
X149037261Y-111633333D01*
X148989642Y-111442857D01*
X148942023Y-111347619D01*
X148894404Y-111300000D01*
X148799166Y-111252380D01*
X148132500Y-111252380D02*
X147513452Y-111252380D01*
X147846785Y-111633333D01*
X147703928Y-111633333D01*
X147608690Y-111680952D01*
X147561071Y-111728571D01*
X147513452Y-111823809D01*
X147513452Y-112061904D01*
X147561071Y-112157142D01*
X147608690Y-112204761D01*
X147703928Y-112252380D01*
X147989642Y-112252380D01*
X148084880Y-112204761D01*
X148132500Y-112157142D01*
D13*
X182071428Y-99678571D02*
X181928571Y-99678571D01*
X181785714Y-99750000D01*
X181714285Y-99821428D01*
X181642857Y-99964285D01*
X181571428Y-100250000D01*
X181571428Y-100607142D01*
X181642857Y-100892857D01*
X181714285Y-101035714D01*
X181785714Y-101107142D01*
X181928571Y-101178571D01*
X182071428Y-101178571D01*
X182214285Y-101107142D01*
X182285714Y-101035714D01*
X182357142Y-100892857D01*
X182428571Y-100607142D01*
X182428571Y-100250000D01*
X182357142Y-99964285D01*
X182285714Y-99821428D01*
X182214285Y-99750000D01*
X182071428Y-99678571D01*
X171571428Y-101178571D02*
X172428571Y-101178571D01*
X172000000Y-101178571D02*
X172000000Y-99678571D01*
X172142857Y-99892857D01*
X172285714Y-100035714D01*
X172428571Y-100107142D01*
X162428571Y-99821428D02*
X162357142Y-99750000D01*
X162214285Y-99678571D01*
X161857142Y-99678571D01*
X161714285Y-99750000D01*
X161642857Y-99821428D01*
X161571428Y-99964285D01*
X161571428Y-100107142D01*
X161642857Y-100321428D01*
X162500000Y-101178571D01*
X161571428Y-101178571D01*
X152500000Y-99678571D02*
X151571428Y-99678571D01*
X152071428Y-100250000D01*
X151857142Y-100250000D01*
X151714285Y-100321428D01*
X151642857Y-100392857D01*
X151571428Y-100535714D01*
X151571428Y-100892857D01*
X151642857Y-101035714D01*
X151714285Y-101107142D01*
X151857142Y-101178571D01*
X152285714Y-101178571D01*
X152428571Y-101107142D01*
X152500000Y-101035714D01*
X141714285Y-100178571D02*
X141714285Y-101178571D01*
X142071428Y-99607142D02*
X142428571Y-100678571D01*
X141500000Y-100678571D01*
X131642857Y-99678571D02*
X132357142Y-99678571D01*
X132428571Y-100392857D01*
X132357142Y-100321428D01*
X132214285Y-100250000D01*
X131857142Y-100250000D01*
X131714285Y-100321428D01*
X131642857Y-100392857D01*
X131571428Y-100535714D01*
X131571428Y-100892857D01*
X131642857Y-101035714D01*
X131714285Y-101107142D01*
X131857142Y-101178571D01*
X132214285Y-101178571D01*
X132357142Y-101107142D01*
X132428571Y-101035714D01*
X121714285Y-99678571D02*
X122000000Y-99678571D01*
X122142857Y-99750000D01*
X122214285Y-99821428D01*
X122357142Y-100035714D01*
X122428571Y-100321428D01*
X122428571Y-100892857D01*
X122357142Y-101035714D01*
X122285714Y-101107142D01*
X122142857Y-101178571D01*
X121857142Y-101178571D01*
X121714285Y-101107142D01*
X121642857Y-101035714D01*
X121571428Y-100892857D01*
X121571428Y-100535714D01*
X121642857Y-100392857D01*
X121714285Y-100321428D01*
X121857142Y-100250000D01*
X122142857Y-100250000D01*
X122285714Y-100321428D01*
X122357142Y-100392857D01*
X122428571Y-100535714D01*
X112500000Y-99678571D02*
X111500000Y-99678571D01*
X112142857Y-101178571D01*
X102142857Y-100321428D02*
X102285714Y-100250000D01*
X102357142Y-100178571D01*
X102428571Y-100035714D01*
X102428571Y-99964285D01*
X102357142Y-99821428D01*
X102285714Y-99750000D01*
X102142857Y-99678571D01*
X101857142Y-99678571D01*
X101714285Y-99750000D01*
X101642857Y-99821428D01*
X101571428Y-99964285D01*
X101571428Y-100035714D01*
X101642857Y-100178571D01*
X101714285Y-100250000D01*
X101857142Y-100321428D01*
X102142857Y-100321428D01*
X102285714Y-100392857D01*
X102357142Y-100464285D01*
X102428571Y-100607142D01*
X102428571Y-100892857D01*
X102357142Y-101035714D01*
X102285714Y-101107142D01*
X102142857Y-101178571D01*
X101857142Y-101178571D01*
X101714285Y-101107142D01*
X101642857Y-101035714D01*
X101571428Y-100892857D01*
X101571428Y-100607142D01*
X101642857Y-100464285D01*
X101714285Y-100392857D01*
X101857142Y-100321428D01*
X92285714Y-101178571D02*
X92000000Y-101178571D01*
X91857142Y-101107142D01*
X91785714Y-101035714D01*
X91642857Y-100821428D01*
X91571428Y-100535714D01*
X91571428Y-99964285D01*
X91642857Y-99821428D01*
X91714285Y-99750000D01*
X91857142Y-99678571D01*
X92142857Y-99678571D01*
X92285714Y-99750000D01*
X92357142Y-99821428D01*
X92428571Y-99964285D01*
X92428571Y-100321428D01*
X92357142Y-100464285D01*
X92285714Y-100535714D01*
X92142857Y-100607142D01*
X91857142Y-100607142D01*
X91714285Y-100535714D01*
X91642857Y-100464285D01*
X91571428Y-100321428D01*
D10*
X150723928Y-113202380D02*
X150628690Y-113202380D01*
X150533452Y-113250000D01*
X150485833Y-113297619D01*
X150438214Y-113392857D01*
X150390595Y-113583333D01*
X150390595Y-113821428D01*
X150438214Y-114011904D01*
X150485833Y-114107142D01*
X150533452Y-114154761D01*
X150628690Y-114202380D01*
X150723928Y-114202380D01*
X150819166Y-114154761D01*
X150866785Y-114107142D01*
X150914404Y-114011904D01*
X150962023Y-113821428D01*
X150962023Y-113583333D01*
X150914404Y-113392857D01*
X150866785Y-113297619D01*
X150819166Y-113250000D01*
X150723928Y-113202380D01*
X149819166Y-113630952D02*
X149914404Y-113583333D01*
X149962023Y-113535714D01*
X150009642Y-113440476D01*
X150009642Y-113392857D01*
X149962023Y-113297619D01*
X149914404Y-113250000D01*
X149819166Y-113202380D01*
X149628690Y-113202380D01*
X149533452Y-113250000D01*
X149485833Y-113297619D01*
X149438214Y-113392857D01*
X149438214Y-113440476D01*
X149485833Y-113535714D01*
X149533452Y-113583333D01*
X149628690Y-113630952D01*
X149819166Y-113630952D01*
X149914404Y-113678571D01*
X149962023Y-113726190D01*
X150009642Y-113821428D01*
X150009642Y-114011904D01*
X149962023Y-114107142D01*
X149914404Y-114154761D01*
X149819166Y-114202380D01*
X149628690Y-114202380D01*
X149533452Y-114154761D01*
X149485833Y-114107142D01*
X149438214Y-114011904D01*
X149438214Y-113821428D01*
X149485833Y-113726190D01*
X149533452Y-113678571D01*
X149628690Y-113630952D01*
X148819166Y-113202380D02*
X148723928Y-113202380D01*
X148628690Y-113250000D01*
X148581071Y-113297619D01*
X148533452Y-113392857D01*
X148485833Y-113583333D01*
X148485833Y-113821428D01*
X148533452Y-114011904D01*
X148581071Y-114107142D01*
X148628690Y-114154761D01*
X148723928Y-114202380D01*
X148819166Y-114202380D01*
X148914404Y-114154761D01*
X148962023Y-114107142D01*
X149009642Y-114011904D01*
X149057261Y-113821428D01*
X149057261Y-113583333D01*
X149009642Y-113392857D01*
X148962023Y-113297619D01*
X148914404Y-113250000D01*
X148819166Y-113202380D01*
X147581071Y-113202380D02*
X148057261Y-113202380D01*
X148104880Y-113678571D01*
X148057261Y-113630952D01*
X147962023Y-113583333D01*
X147723928Y-113583333D01*
X147628690Y-113630952D01*
X147581071Y-113678571D01*
X147533452Y-113773809D01*
X147533452Y-114011904D01*
X147581071Y-114107142D01*
X147628690Y-114154761D01*
X147723928Y-114202380D01*
X147962023Y-114202380D01*
X148057261Y-114154761D01*
X148104880Y-114107142D01*
X150240595Y-119652380D02*
X150812023Y-119652380D01*
X150526309Y-119652380D02*
X150526309Y-118652380D01*
X150621547Y-118795238D01*
X150716785Y-118890476D01*
X150812023Y-118938095D01*
X149859642Y-118747619D02*
X149812023Y-118700000D01*
X149716785Y-118652380D01*
X149478690Y-118652380D01*
X149383452Y-118700000D01*
X149335833Y-118747619D01*
X149288214Y-118842857D01*
X149288214Y-118938095D01*
X149335833Y-119080952D01*
X149907261Y-119652380D01*
X149288214Y-119652380D01*
X148335833Y-119652380D02*
X148907261Y-119652380D01*
X148621547Y-119652380D02*
X148621547Y-118652380D01*
X148716785Y-118795238D01*
X148812023Y-118890476D01*
X148907261Y-118938095D01*
X147716785Y-118652380D02*
X147621547Y-118652380D01*
X147526309Y-118700000D01*
X147478690Y-118747619D01*
X147431071Y-118842857D01*
X147383452Y-119033333D01*
X147383452Y-119271428D01*
X147431071Y-119461904D01*
X147478690Y-119557142D01*
X147526309Y-119604761D01*
X147621547Y-119652380D01*
X147716785Y-119652380D01*
X147812023Y-119604761D01*
X147859642Y-119557142D01*
X147907261Y-119461904D01*
X147954880Y-119271428D01*
X147954880Y-119033333D01*
X147907261Y-118842857D01*
X147859642Y-118747619D01*
X147812023Y-118700000D01*
X147716785Y-118652380D01*
D11*
X108892857Y-103792857D02*
X109292857Y-103221428D01*
X109578571Y-103792857D02*
X109578571Y-102592857D01*
X109121428Y-102592857D01*
X109007142Y-102650000D01*
X108950000Y-102707142D01*
X108892857Y-102821428D01*
X108892857Y-102992857D01*
X108950000Y-103107142D01*
X109007142Y-103164285D01*
X109121428Y-103221428D01*
X109578571Y-103221428D01*
X107921428Y-103735714D02*
X108035714Y-103792857D01*
X108264285Y-103792857D01*
X108378571Y-103735714D01*
X108435714Y-103621428D01*
X108435714Y-103164285D01*
X108378571Y-103050000D01*
X108264285Y-102992857D01*
X108035714Y-102992857D01*
X107921428Y-103050000D01*
X107864285Y-103164285D01*
X107864285Y-103278571D01*
X108435714Y-103392857D01*
X107407142Y-103735714D02*
X107292857Y-103792857D01*
X107064285Y-103792857D01*
X106950000Y-103735714D01*
X106892857Y-103621428D01*
X106892857Y-103564285D01*
X106950000Y-103450000D01*
X107064285Y-103392857D01*
X107235714Y-103392857D01*
X107350000Y-103335714D01*
X107407142Y-103221428D01*
X107407142Y-103164285D01*
X107350000Y-103050000D01*
X107235714Y-102992857D01*
X107064285Y-102992857D01*
X106950000Y-103050000D01*
X106378571Y-103792857D02*
X106378571Y-102992857D01*
X106378571Y-102592857D02*
X106435714Y-102650000D01*
X106378571Y-102707142D01*
X106321428Y-102650000D01*
X106378571Y-102592857D01*
X106378571Y-102707142D01*
X105864285Y-103735714D02*
X105750000Y-103792857D01*
X105521428Y-103792857D01*
X105407142Y-103735714D01*
X105350000Y-103621428D01*
X105350000Y-103564285D01*
X105407142Y-103450000D01*
X105521428Y-103392857D01*
X105692857Y-103392857D01*
X105807142Y-103335714D01*
X105864285Y-103221428D01*
X105864285Y-103164285D01*
X105807142Y-103050000D01*
X105692857Y-102992857D01*
X105521428Y-102992857D01*
X105407142Y-103050000D01*
X105007142Y-102992857D02*
X104550000Y-102992857D01*
X104835714Y-102592857D02*
X104835714Y-103621428D01*
X104778571Y-103735714D01*
X104664285Y-103792857D01*
X104550000Y-103792857D01*
X103978571Y-103792857D02*
X104092857Y-103735714D01*
X104150000Y-103678571D01*
X104207142Y-103564285D01*
X104207142Y-103221428D01*
X104150000Y-103107142D01*
X104092857Y-103050000D01*
X103978571Y-102992857D01*
X103807142Y-102992857D01*
X103692857Y-103050000D01*
X103635714Y-103107142D01*
X103578571Y-103221428D01*
X103578571Y-103564285D01*
X103635714Y-103678571D01*
X103692857Y-103735714D01*
X103807142Y-103792857D01*
X103978571Y-103792857D01*
X103064285Y-103792857D02*
X103064285Y-102992857D01*
X103064285Y-103221428D02*
X103007142Y-103107142D01*
X102950000Y-103050000D01*
X102835714Y-102992857D01*
X102721428Y-102992857D01*
X100721428Y-103678571D02*
X100778571Y-103735714D01*
X100950000Y-103792857D01*
X101064285Y-103792857D01*
X101235714Y-103735714D01*
X101350000Y-103621428D01*
X101407142Y-103507142D01*
X101464285Y-103278571D01*
X101464285Y-103107142D01*
X101407142Y-102878571D01*
X101350000Y-102764285D01*
X101235714Y-102650000D01*
X101064285Y-102592857D01*
X100950000Y-102592857D01*
X100778571Y-102650000D01*
X100721428Y-102707142D01*
X100035714Y-103792857D02*
X100150000Y-103735714D01*
X100207142Y-103678571D01*
X100264285Y-103564285D01*
X100264285Y-103221428D01*
X100207142Y-103107142D01*
X100150000Y-103050000D01*
X100035714Y-102992857D01*
X99864285Y-102992857D01*
X99750000Y-103050000D01*
X99692857Y-103107142D01*
X99635714Y-103221428D01*
X99635714Y-103564285D01*
X99692857Y-103678571D01*
X99750000Y-103735714D01*
X99864285Y-103792857D01*
X100035714Y-103792857D01*
X98950000Y-103792857D02*
X99064285Y-103735714D01*
X99121428Y-103621428D01*
X99121428Y-102592857D01*
X98321428Y-103792857D02*
X98435714Y-103735714D01*
X98492857Y-103678571D01*
X98550000Y-103564285D01*
X98550000Y-103221428D01*
X98492857Y-103107142D01*
X98435714Y-103050000D01*
X98321428Y-102992857D01*
X98150000Y-102992857D01*
X98035714Y-103050000D01*
X97978571Y-103107142D01*
X97921428Y-103221428D01*
X97921428Y-103564285D01*
X97978571Y-103678571D01*
X98035714Y-103735714D01*
X98150000Y-103792857D01*
X98321428Y-103792857D01*
X97407142Y-103792857D02*
X97407142Y-102992857D01*
X97407142Y-103221428D02*
X97350000Y-103107142D01*
X97292857Y-103050000D01*
X97178571Y-102992857D01*
X97064285Y-102992857D01*
X95064285Y-103678571D02*
X95121428Y-103735714D01*
X95292857Y-103792857D01*
X95407142Y-103792857D01*
X95578571Y-103735714D01*
X95692857Y-103621428D01*
X95750000Y-103507142D01*
X95807142Y-103278571D01*
X95807142Y-103107142D01*
X95750000Y-102878571D01*
X95692857Y-102764285D01*
X95578571Y-102650000D01*
X95407142Y-102592857D01*
X95292857Y-102592857D01*
X95121428Y-102650000D01*
X95064285Y-102707142D01*
X94378571Y-103792857D02*
X94492857Y-103735714D01*
X94550000Y-103678571D01*
X94607142Y-103564285D01*
X94607142Y-103221428D01*
X94550000Y-103107142D01*
X94492857Y-103050000D01*
X94378571Y-102992857D01*
X94207142Y-102992857D01*
X94092857Y-103050000D01*
X94035714Y-103107142D01*
X93978571Y-103221428D01*
X93978571Y-103564285D01*
X94035714Y-103678571D01*
X94092857Y-103735714D01*
X94207142Y-103792857D01*
X94378571Y-103792857D01*
X92950000Y-103792857D02*
X92950000Y-102592857D01*
X92950000Y-103735714D02*
X93064285Y-103792857D01*
X93292857Y-103792857D01*
X93407142Y-103735714D01*
X93464285Y-103678571D01*
X93521428Y-103564285D01*
X93521428Y-103221428D01*
X93464285Y-103107142D01*
X93407142Y-103050000D01*
X93292857Y-102992857D01*
X93064285Y-102992857D01*
X92950000Y-103050000D01*
X91921428Y-103735714D02*
X92035714Y-103792857D01*
X92264285Y-103792857D01*
X92378571Y-103735714D01*
X92435714Y-103621428D01*
X92435714Y-103164285D01*
X92378571Y-103050000D01*
X92264285Y-102992857D01*
X92035714Y-102992857D01*
X91921428Y-103050000D01*
X91864285Y-103164285D01*
X91864285Y-103278571D01*
X92435714Y-103392857D01*
D10*
X96559523Y-118702380D02*
X96464285Y-118702380D01*
X96369047Y-118750000D01*
X96321428Y-118797619D01*
X96273809Y-118892857D01*
X96226190Y-119083333D01*
X96226190Y-119321428D01*
X96273809Y-119511904D01*
X96321428Y-119607142D01*
X96369047Y-119654761D01*
X96464285Y-119702380D01*
X96559523Y-119702380D01*
X96654761Y-119654761D01*
X96702380Y-119607142D01*
X96750000Y-119511904D01*
X96797619Y-119321428D01*
X96797619Y-119083333D01*
X96750000Y-118892857D01*
X96702380Y-118797619D01*
X96654761Y-118750000D01*
X96559523Y-118702380D01*
X95797619Y-119607142D02*
X95750000Y-119654761D01*
X95797619Y-119702380D01*
X95845238Y-119654761D01*
X95797619Y-119607142D01*
X95797619Y-119702380D01*
X95130952Y-118702380D02*
X95035714Y-118702380D01*
X94940476Y-118750000D01*
X94892857Y-118797619D01*
X94845238Y-118892857D01*
X94797619Y-119083333D01*
X94797619Y-119321428D01*
X94845238Y-119511904D01*
X94892857Y-119607142D01*
X94940476Y-119654761D01*
X95035714Y-119702380D01*
X95130952Y-119702380D01*
X95226190Y-119654761D01*
X95273809Y-119607142D01*
X95321428Y-119511904D01*
X95369047Y-119321428D01*
X95369047Y-119083333D01*
X95321428Y-118892857D01*
X95273809Y-118797619D01*
X95226190Y-118750000D01*
X95130952Y-118702380D01*
X93892857Y-118702380D02*
X94369047Y-118702380D01*
X94416666Y-119178571D01*
X94369047Y-119130952D01*
X94273809Y-119083333D01*
X94035714Y-119083333D01*
X93940476Y-119130952D01*
X93892857Y-119178571D01*
X93845238Y-119273809D01*
X93845238Y-119511904D01*
X93892857Y-119607142D01*
X93940476Y-119654761D01*
X94035714Y-119702380D01*
X94273809Y-119702380D01*
X94369047Y-119654761D01*
X94416666Y-119607142D01*
X93464285Y-119702380D02*
X92702380Y-118702380D01*
X93321428Y-118702380D02*
X93226190Y-118750000D01*
X93178571Y-118845238D01*
X93226190Y-118940476D01*
X93321428Y-118988095D01*
X93416666Y-118940476D01*
X93464285Y-118845238D01*
X93416666Y-118750000D01*
X93321428Y-118702380D01*
X92750000Y-119654761D02*
X92702380Y-119559523D01*
X92750000Y-119464285D01*
X92845238Y-119416666D01*
X92940476Y-119464285D01*
X92988095Y-119559523D01*
X92940476Y-119654761D01*
X92845238Y-119702380D01*
X92750000Y-119654761D01*
X96559523Y-116952380D02*
X96464285Y-116952380D01*
X96369047Y-117000000D01*
X96321428Y-117047619D01*
X96273809Y-117142857D01*
X96226190Y-117333333D01*
X96226190Y-117571428D01*
X96273809Y-117761904D01*
X96321428Y-117857142D01*
X96369047Y-117904761D01*
X96464285Y-117952380D01*
X96559523Y-117952380D01*
X96654761Y-117904761D01*
X96702380Y-117857142D01*
X96750000Y-117761904D01*
X96797619Y-117571428D01*
X96797619Y-117333333D01*
X96750000Y-117142857D01*
X96702380Y-117047619D01*
X96654761Y-117000000D01*
X96559523Y-116952380D01*
X95797619Y-117857142D02*
X95750000Y-117904761D01*
X95797619Y-117952380D01*
X95845238Y-117904761D01*
X95797619Y-117857142D01*
X95797619Y-117952380D01*
X94797619Y-117952380D02*
X95369047Y-117952380D01*
X95083333Y-117952380D02*
X95083333Y-116952380D01*
X95178571Y-117095238D01*
X95273809Y-117190476D01*
X95369047Y-117238095D01*
X94178571Y-116952380D02*
X94083333Y-116952380D01*
X93988095Y-117000000D01*
X93940476Y-117047619D01*
X93892857Y-117142857D01*
X93845238Y-117333333D01*
X93845238Y-117571428D01*
X93892857Y-117761904D01*
X93940476Y-117857142D01*
X93988095Y-117904761D01*
X94083333Y-117952380D01*
X94178571Y-117952380D01*
X94273809Y-117904761D01*
X94321428Y-117857142D01*
X94369047Y-117761904D01*
X94416666Y-117571428D01*
X94416666Y-117333333D01*
X94369047Y-117142857D01*
X94321428Y-117047619D01*
X94273809Y-117000000D01*
X94178571Y-116952380D01*
X93464285Y-117952380D02*
X92702380Y-116952380D01*
X93321428Y-116952380D02*
X93226190Y-117000000D01*
X93178571Y-117095238D01*
X93226190Y-117190476D01*
X93321428Y-117238095D01*
X93416666Y-117190476D01*
X93464285Y-117095238D01*
X93416666Y-117000000D01*
X93321428Y-116952380D01*
X92750000Y-117904761D02*
X92702380Y-117809523D01*
X92750000Y-117714285D01*
X92845238Y-117666666D01*
X92940476Y-117714285D01*
X92988095Y-117809523D01*
X92940476Y-117904761D01*
X92845238Y-117952380D01*
X92750000Y-117904761D01*
X96559523Y-115202380D02*
X96464285Y-115202380D01*
X96369047Y-115250000D01*
X96321428Y-115297619D01*
X96273809Y-115392857D01*
X96226190Y-115583333D01*
X96226190Y-115821428D01*
X96273809Y-116011904D01*
X96321428Y-116107142D01*
X96369047Y-116154761D01*
X96464285Y-116202380D01*
X96559523Y-116202380D01*
X96654761Y-116154761D01*
X96702380Y-116107142D01*
X96750000Y-116011904D01*
X96797619Y-115821428D01*
X96797619Y-115583333D01*
X96750000Y-115392857D01*
X96702380Y-115297619D01*
X96654761Y-115250000D01*
X96559523Y-115202380D01*
X95797619Y-116107142D02*
X95750000Y-116154761D01*
X95797619Y-116202380D01*
X95845238Y-116154761D01*
X95797619Y-116107142D01*
X95797619Y-116202380D01*
X95369047Y-115297619D02*
X95321428Y-115250000D01*
X95226190Y-115202380D01*
X94988095Y-115202380D01*
X94892857Y-115250000D01*
X94845238Y-115297619D01*
X94797619Y-115392857D01*
X94797619Y-115488095D01*
X94845238Y-115630952D01*
X95416666Y-116202380D01*
X94797619Y-116202380D01*
X93892857Y-115202380D02*
X94369047Y-115202380D01*
X94416666Y-115678571D01*
X94369047Y-115630952D01*
X94273809Y-115583333D01*
X94035714Y-115583333D01*
X93940476Y-115630952D01*
X93892857Y-115678571D01*
X93845238Y-115773809D01*
X93845238Y-116011904D01*
X93892857Y-116107142D01*
X93940476Y-116154761D01*
X94035714Y-116202380D01*
X94273809Y-116202380D01*
X94369047Y-116154761D01*
X94416666Y-116107142D01*
X93464285Y-116202380D02*
X92702380Y-115202380D01*
X93321428Y-115202380D02*
X93226190Y-115250000D01*
X93178571Y-115345238D01*
X93226190Y-115440476D01*
X93321428Y-115488095D01*
X93416666Y-115440476D01*
X93464285Y-115345238D01*
X93416666Y-115250000D01*
X93321428Y-115202380D01*
X92750000Y-116154761D02*
X92702380Y-116059523D01*
X92750000Y-115964285D01*
X92845238Y-115916666D01*
X92940476Y-115964285D01*
X92988095Y-116059523D01*
X92940476Y-116154761D01*
X92845238Y-116202380D01*
X92750000Y-116154761D01*
X95583333Y-113452380D02*
X95488095Y-113452380D01*
X95392857Y-113500000D01*
X95345238Y-113547619D01*
X95297619Y-113642857D01*
X95250000Y-113833333D01*
X95250000Y-114071428D01*
X95297619Y-114261904D01*
X95345238Y-114357142D01*
X95392857Y-114404761D01*
X95488095Y-114452380D01*
X95583333Y-114452380D01*
X95678571Y-114404761D01*
X95726190Y-114357142D01*
X95773809Y-114261904D01*
X95821428Y-114071428D01*
X95821428Y-113833333D01*
X95773809Y-113642857D01*
X95726190Y-113547619D01*
X95678571Y-113500000D01*
X95583333Y-113452380D01*
X94821428Y-114357142D02*
X94773809Y-114404761D01*
X94821428Y-114452380D01*
X94869047Y-114404761D01*
X94821428Y-114357142D01*
X94821428Y-114452380D01*
X93869047Y-113452380D02*
X94345238Y-113452380D01*
X94392857Y-113928571D01*
X94345238Y-113880952D01*
X94250000Y-113833333D01*
X94011904Y-113833333D01*
X93916666Y-113880952D01*
X93869047Y-113928571D01*
X93821428Y-114023809D01*
X93821428Y-114261904D01*
X93869047Y-114357142D01*
X93916666Y-114404761D01*
X94011904Y-114452380D01*
X94250000Y-114452380D01*
X94345238Y-114404761D01*
X94392857Y-114357142D01*
X93440476Y-114452380D02*
X92678571Y-113452380D01*
X93297619Y-113452380D02*
X93202380Y-113500000D01*
X93154761Y-113595238D01*
X93202380Y-113690476D01*
X93297619Y-113738095D01*
X93392857Y-113690476D01*
X93440476Y-113595238D01*
X93392857Y-113500000D01*
X93297619Y-113452380D01*
X92726190Y-114404761D02*
X92678571Y-114309523D01*
X92726190Y-114214285D01*
X92821428Y-114166666D01*
X92916666Y-114214285D01*
X92964285Y-114309523D01*
X92916666Y-114404761D01*
X92821428Y-114452380D01*
X92726190Y-114404761D01*
X93833333Y-122202380D02*
X94309523Y-122202380D01*
X94357142Y-122678571D01*
X94309523Y-122630952D01*
X94214285Y-122583333D01*
X93976190Y-122583333D01*
X93880952Y-122630952D01*
X93833333Y-122678571D01*
X93785714Y-122773809D01*
X93785714Y-123011904D01*
X93833333Y-123107142D01*
X93880952Y-123154761D01*
X93976190Y-123202380D01*
X94214285Y-123202380D01*
X94309523Y-123154761D01*
X94357142Y-123107142D01*
X93404761Y-123202380D02*
X92642857Y-122202380D01*
X93261904Y-122202380D02*
X93166666Y-122250000D01*
X93119047Y-122345238D01*
X93166666Y-122440476D01*
X93261904Y-122488095D01*
X93357142Y-122440476D01*
X93404761Y-122345238D01*
X93357142Y-122250000D01*
X93261904Y-122202380D01*
X92690476Y-123154761D02*
X92642857Y-123059523D01*
X92690476Y-122964285D01*
X92785714Y-122916666D01*
X92880952Y-122964285D01*
X92928571Y-123059523D01*
X92880952Y-123154761D01*
X92785714Y-123202380D01*
X92690476Y-123154761D01*
X94761904Y-124952380D02*
X95333333Y-124952380D01*
X95047619Y-124952380D02*
X95047619Y-123952380D01*
X95142857Y-124095238D01*
X95238095Y-124190476D01*
X95333333Y-124238095D01*
X94142857Y-123952380D02*
X94047619Y-123952380D01*
X93952380Y-124000000D01*
X93904761Y-124047619D01*
X93857142Y-124142857D01*
X93809523Y-124333333D01*
X93809523Y-124571428D01*
X93857142Y-124761904D01*
X93904761Y-124857142D01*
X93952380Y-124904761D01*
X94047619Y-124952380D01*
X94142857Y-124952380D01*
X94238095Y-124904761D01*
X94285714Y-124857142D01*
X94333333Y-124761904D01*
X94380952Y-124571428D01*
X94380952Y-124333333D01*
X94333333Y-124142857D01*
X94285714Y-124047619D01*
X94238095Y-124000000D01*
X94142857Y-123952380D01*
X93428571Y-124952380D02*
X92666666Y-123952380D01*
X93285714Y-123952380D02*
X93190476Y-124000000D01*
X93142857Y-124095238D01*
X93190476Y-124190476D01*
X93285714Y-124238095D01*
X93380952Y-124190476D01*
X93428571Y-124095238D01*
X93380952Y-124000000D01*
X93285714Y-123952380D01*
X92714285Y-124904761D02*
X92666666Y-124809523D01*
X92714285Y-124714285D01*
X92809523Y-124666666D01*
X92904761Y-124714285D01*
X92952380Y-124809523D01*
X92904761Y-124904761D01*
X92809523Y-124952380D01*
X92714285Y-124904761D01*
X94357142Y-108297619D02*
X94309523Y-108250000D01*
X94214285Y-108202380D01*
X93976190Y-108202380D01*
X93880952Y-108250000D01*
X93833333Y-108297619D01*
X93785714Y-108392857D01*
X93785714Y-108488095D01*
X93833333Y-108630952D01*
X94404761Y-109202380D01*
X93785714Y-109202380D01*
X93404761Y-109202380D02*
X92642857Y-108202380D01*
X93261904Y-108202380D02*
X93166666Y-108250000D01*
X93119047Y-108345238D01*
X93166666Y-108440476D01*
X93261904Y-108488095D01*
X93357142Y-108440476D01*
X93404761Y-108345238D01*
X93357142Y-108250000D01*
X93261904Y-108202380D01*
X92690476Y-109154761D02*
X92642857Y-109059523D01*
X92690476Y-108964285D01*
X92785714Y-108916666D01*
X92880952Y-108964285D01*
X92928571Y-109059523D01*
X92880952Y-109154761D01*
X92785714Y-109202380D01*
X92690476Y-109154761D01*
X93785714Y-107452380D02*
X94357142Y-107452380D01*
X94071428Y-107452380D02*
X94071428Y-106452380D01*
X94166666Y-106595238D01*
X94261904Y-106690476D01*
X94357142Y-106738095D01*
X93404761Y-107452380D02*
X92642857Y-106452380D01*
X93261904Y-106452380D02*
X93166666Y-106500000D01*
X93119047Y-106595238D01*
X93166666Y-106690476D01*
X93261904Y-106738095D01*
X93357142Y-106690476D01*
X93404761Y-106595238D01*
X93357142Y-106500000D01*
X93261904Y-106452380D01*
X92690476Y-107404761D02*
X92642857Y-107309523D01*
X92690476Y-107214285D01*
X92785714Y-107166666D01*
X92880952Y-107214285D01*
X92928571Y-107309523D01*
X92880952Y-107404761D01*
X92785714Y-107452380D01*
X92690476Y-107404761D01*
X101809523Y-123952380D02*
X101714285Y-123952380D01*
X101619047Y-124000000D01*
X101571428Y-124047619D01*
X101523809Y-124142857D01*
X101476190Y-124333333D01*
X101476190Y-124571428D01*
X101523809Y-124761904D01*
X101571428Y-124857142D01*
X101619047Y-124904761D01*
X101714285Y-124952380D01*
X101809523Y-124952380D01*
X101904761Y-124904761D01*
X101952380Y-124857142D01*
X102000000Y-124761904D01*
X102047619Y-124571428D01*
X102047619Y-124333333D01*
X102000000Y-124142857D01*
X101952380Y-124047619D01*
X101904761Y-124000000D01*
X101809523Y-123952380D01*
X101047619Y-124857142D02*
X101000000Y-124904761D01*
X101047619Y-124952380D01*
X101095238Y-124904761D01*
X101047619Y-124857142D01*
X101047619Y-124952380D01*
X100380952Y-123952380D02*
X100285714Y-123952380D01*
X100190476Y-124000000D01*
X100142857Y-124047619D01*
X100095238Y-124142857D01*
X100047619Y-124333333D01*
X100047619Y-124571428D01*
X100095238Y-124761904D01*
X100142857Y-124857142D01*
X100190476Y-124904761D01*
X100285714Y-124952380D01*
X100380952Y-124952380D01*
X100476190Y-124904761D01*
X100523809Y-124857142D01*
X100571428Y-124761904D01*
X100619047Y-124571428D01*
X100619047Y-124333333D01*
X100571428Y-124142857D01*
X100523809Y-124047619D01*
X100476190Y-124000000D01*
X100380952Y-123952380D01*
X99095238Y-124952380D02*
X99666666Y-124952380D01*
X99380952Y-124952380D02*
X99380952Y-123952380D01*
X99476190Y-124095238D01*
X99571428Y-124190476D01*
X99666666Y-124238095D01*
X98714285Y-124952380D02*
X98476190Y-124952380D01*
X98476190Y-124761904D01*
X98571428Y-124714285D01*
X98666666Y-124619047D01*
X98714285Y-124476190D01*
X98714285Y-124238095D01*
X98666666Y-124095238D01*
X98571428Y-124000000D01*
X98428571Y-123952380D01*
X98238095Y-123952380D01*
X98095238Y-124000000D01*
X98000000Y-124095238D01*
X97952380Y-124238095D01*
X97952380Y-124476190D01*
X98000000Y-124619047D01*
X98095238Y-124714285D01*
X98190476Y-124761904D01*
X98190476Y-124952380D01*
X97952380Y-124952380D01*
X100833333Y-122202380D02*
X100738095Y-122202380D01*
X100642857Y-122250000D01*
X100595238Y-122297619D01*
X100547619Y-122392857D01*
X100500000Y-122583333D01*
X100500000Y-122821428D01*
X100547619Y-123011904D01*
X100595238Y-123107142D01*
X100642857Y-123154761D01*
X100738095Y-123202380D01*
X100833333Y-123202380D01*
X100928571Y-123154761D01*
X100976190Y-123107142D01*
X101023809Y-123011904D01*
X101071428Y-122821428D01*
X101071428Y-122583333D01*
X101023809Y-122392857D01*
X100976190Y-122297619D01*
X100928571Y-122250000D01*
X100833333Y-122202380D01*
X100071428Y-123107142D02*
X100023809Y-123154761D01*
X100071428Y-123202380D01*
X100119047Y-123154761D01*
X100071428Y-123107142D01*
X100071428Y-123202380D01*
X99071428Y-123202380D02*
X99642857Y-123202380D01*
X99357142Y-123202380D02*
X99357142Y-122202380D01*
X99452380Y-122345238D01*
X99547619Y-122440476D01*
X99642857Y-122488095D01*
X98690476Y-123202380D02*
X98452380Y-123202380D01*
X98452380Y-123011904D01*
X98547619Y-122964285D01*
X98642857Y-122869047D01*
X98690476Y-122726190D01*
X98690476Y-122488095D01*
X98642857Y-122345238D01*
X98547619Y-122250000D01*
X98404761Y-122202380D01*
X98214285Y-122202380D01*
X98071428Y-122250000D01*
X97976190Y-122345238D01*
X97928571Y-122488095D01*
X97928571Y-122726190D01*
X97976190Y-122869047D01*
X98071428Y-122964285D01*
X98166666Y-123011904D01*
X98166666Y-123202380D01*
X97928571Y-123202380D01*
X100035714Y-121452380D02*
X100607142Y-121452380D01*
X100321428Y-121452380D02*
X100321428Y-120452380D01*
X100416666Y-120595238D01*
X100511904Y-120690476D01*
X100607142Y-120738095D01*
X99083333Y-120500000D02*
X99178571Y-120452380D01*
X99321428Y-120452380D01*
X99464285Y-120500000D01*
X99559523Y-120595238D01*
X99607142Y-120690476D01*
X99654761Y-120880952D01*
X99654761Y-121023809D01*
X99607142Y-121214285D01*
X99559523Y-121309523D01*
X99464285Y-121404761D01*
X99321428Y-121452380D01*
X99226190Y-121452380D01*
X99083333Y-121404761D01*
X99035714Y-121357142D01*
X99035714Y-121023809D01*
X99226190Y-121023809D01*
X98654761Y-121452380D02*
X98416666Y-121452380D01*
X98416666Y-121261904D01*
X98511904Y-121214285D01*
X98607142Y-121119047D01*
X98654761Y-120976190D01*
X98654761Y-120738095D01*
X98607142Y-120595238D01*
X98511904Y-120500000D01*
X98369047Y-120452380D01*
X98178571Y-120452380D01*
X98035714Y-120500000D01*
X97940476Y-120595238D01*
X97892857Y-120738095D01*
X97892857Y-120976190D01*
X97940476Y-121119047D01*
X98035714Y-121214285D01*
X98130952Y-121261904D01*
X98130952Y-121452380D01*
X97892857Y-121452380D01*
X102059523Y-119702380D02*
X102630952Y-119702380D01*
X102345238Y-119702380D02*
X102345238Y-118702380D01*
X102440476Y-118845238D01*
X102535714Y-118940476D01*
X102630952Y-118988095D01*
X101440476Y-118702380D02*
X101345238Y-118702380D01*
X101250000Y-118750000D01*
X101202380Y-118797619D01*
X101154761Y-118892857D01*
X101107142Y-119083333D01*
X101107142Y-119321428D01*
X101154761Y-119511904D01*
X101202380Y-119607142D01*
X101250000Y-119654761D01*
X101345238Y-119702380D01*
X101440476Y-119702380D01*
X101535714Y-119654761D01*
X101583333Y-119607142D01*
X101630952Y-119511904D01*
X101678571Y-119321428D01*
X101678571Y-119083333D01*
X101630952Y-118892857D01*
X101583333Y-118797619D01*
X101535714Y-118750000D01*
X101440476Y-118702380D01*
X100488095Y-118702380D02*
X100392857Y-118702380D01*
X100297619Y-118750000D01*
X100250000Y-118797619D01*
X100202380Y-118892857D01*
X100154761Y-119083333D01*
X100154761Y-119321428D01*
X100202380Y-119511904D01*
X100250000Y-119607142D01*
X100297619Y-119654761D01*
X100392857Y-119702380D01*
X100488095Y-119702380D01*
X100583333Y-119654761D01*
X100630952Y-119607142D01*
X100678571Y-119511904D01*
X100726190Y-119321428D01*
X100726190Y-119083333D01*
X100678571Y-118892857D01*
X100630952Y-118797619D01*
X100583333Y-118750000D01*
X100488095Y-118702380D01*
X99726190Y-119702380D02*
X99726190Y-118702380D01*
X99392857Y-119416666D01*
X99059523Y-118702380D01*
X99059523Y-119702380D01*
X98630952Y-119702380D02*
X98392857Y-119702380D01*
X98392857Y-119511904D01*
X98488095Y-119464285D01*
X98583333Y-119369047D01*
X98630952Y-119226190D01*
X98630952Y-118988095D01*
X98583333Y-118845238D01*
X98488095Y-118750000D01*
X98345238Y-118702380D01*
X98154761Y-118702380D01*
X98011904Y-118750000D01*
X97916666Y-118845238D01*
X97869047Y-118988095D01*
X97869047Y-119226190D01*
X97916666Y-119369047D01*
X98011904Y-119464285D01*
X98107142Y-119511904D01*
X98107142Y-119702380D01*
X97869047Y-119702380D01*
X101083333Y-117952380D02*
X101654761Y-117952380D01*
X101369047Y-117952380D02*
X101369047Y-116952380D01*
X101464285Y-117095238D01*
X101559523Y-117190476D01*
X101654761Y-117238095D01*
X100464285Y-116952380D02*
X100369047Y-116952380D01*
X100273809Y-117000000D01*
X100226190Y-117047619D01*
X100178571Y-117142857D01*
X100130952Y-117333333D01*
X100130952Y-117571428D01*
X100178571Y-117761904D01*
X100226190Y-117857142D01*
X100273809Y-117904761D01*
X100369047Y-117952380D01*
X100464285Y-117952380D01*
X100559523Y-117904761D01*
X100607142Y-117857142D01*
X100654761Y-117761904D01*
X100702380Y-117571428D01*
X100702380Y-117333333D01*
X100654761Y-117142857D01*
X100607142Y-117047619D01*
X100559523Y-117000000D01*
X100464285Y-116952380D01*
X99702380Y-117952380D02*
X99702380Y-116952380D01*
X99369047Y-117666666D01*
X99035714Y-116952380D01*
X99035714Y-117952380D01*
X98607142Y-117952380D02*
X98369047Y-117952380D01*
X98369047Y-117761904D01*
X98464285Y-117714285D01*
X98559523Y-117619047D01*
X98607142Y-117476190D01*
X98607142Y-117238095D01*
X98559523Y-117095238D01*
X98464285Y-117000000D01*
X98321428Y-116952380D01*
X98130952Y-116952380D01*
X97988095Y-117000000D01*
X97892857Y-117095238D01*
X97845238Y-117238095D01*
X97845238Y-117476190D01*
X97892857Y-117619047D01*
X97988095Y-117714285D01*
X98083333Y-117761904D01*
X98083333Y-117952380D01*
X97845238Y-117952380D01*
X100107142Y-116202380D02*
X100678571Y-116202380D01*
X100392857Y-116202380D02*
X100392857Y-115202380D01*
X100488095Y-115345238D01*
X100583333Y-115440476D01*
X100678571Y-115488095D01*
X99678571Y-116202380D02*
X99678571Y-115202380D01*
X99345238Y-115916666D01*
X99011904Y-115202380D01*
X99011904Y-116202380D01*
X98583333Y-116202380D02*
X98345238Y-116202380D01*
X98345238Y-116011904D01*
X98440476Y-115964285D01*
X98535714Y-115869047D01*
X98583333Y-115726190D01*
X98583333Y-115488095D01*
X98535714Y-115345238D01*
X98440476Y-115250000D01*
X98297619Y-115202380D01*
X98107142Y-115202380D01*
X97964285Y-115250000D01*
X97869047Y-115345238D01*
X97821428Y-115488095D01*
X97821428Y-115726190D01*
X97869047Y-115869047D01*
X97964285Y-115964285D01*
X98059523Y-116011904D01*
X98059523Y-116202380D01*
X97821428Y-116202380D01*
X101642857Y-114452380D02*
X102214285Y-114452380D01*
X101928571Y-114452380D02*
X101928571Y-113452380D01*
X102023809Y-113595238D01*
X102119047Y-113690476D01*
X102214285Y-113738095D01*
X101023809Y-113452380D02*
X100928571Y-113452380D01*
X100833333Y-113500000D01*
X100785714Y-113547619D01*
X100738095Y-113642857D01*
X100690476Y-113833333D01*
X100690476Y-114071428D01*
X100738095Y-114261904D01*
X100785714Y-114357142D01*
X100833333Y-114404761D01*
X100928571Y-114452380D01*
X101023809Y-114452380D01*
X101119047Y-114404761D01*
X101166666Y-114357142D01*
X101214285Y-114261904D01*
X101261904Y-114071428D01*
X101261904Y-113833333D01*
X101214285Y-113642857D01*
X101166666Y-113547619D01*
X101119047Y-113500000D01*
X101023809Y-113452380D01*
X100071428Y-113452380D02*
X99976190Y-113452380D01*
X99880952Y-113500000D01*
X99833333Y-113547619D01*
X99785714Y-113642857D01*
X99738095Y-113833333D01*
X99738095Y-114071428D01*
X99785714Y-114261904D01*
X99833333Y-114357142D01*
X99880952Y-114404761D01*
X99976190Y-114452380D01*
X100071428Y-114452380D01*
X100166666Y-114404761D01*
X100214285Y-114357142D01*
X100261904Y-114261904D01*
X100309523Y-114071428D01*
X100309523Y-113833333D01*
X100261904Y-113642857D01*
X100214285Y-113547619D01*
X100166666Y-113500000D01*
X100071428Y-113452380D01*
X99309523Y-114452380D02*
X99309523Y-113452380D01*
X99214285Y-114071428D02*
X98928571Y-114452380D01*
X98928571Y-113785714D02*
X99309523Y-114166666D01*
X98547619Y-114452380D02*
X98309523Y-114452380D01*
X98309523Y-114261904D01*
X98404761Y-114214285D01*
X98500000Y-114119047D01*
X98547619Y-113976190D01*
X98547619Y-113738095D01*
X98500000Y-113595238D01*
X98404761Y-113500000D01*
X98261904Y-113452380D01*
X98071428Y-113452380D01*
X97928571Y-113500000D01*
X97833333Y-113595238D01*
X97785714Y-113738095D01*
X97785714Y-113976190D01*
X97833333Y-114119047D01*
X97928571Y-114214285D01*
X98023809Y-114261904D01*
X98023809Y-114452380D01*
X97785714Y-114452380D01*
X100666666Y-112702380D02*
X101238095Y-112702380D01*
X100952380Y-112702380D02*
X100952380Y-111702380D01*
X101047619Y-111845238D01*
X101142857Y-111940476D01*
X101238095Y-111988095D01*
X100047619Y-111702380D02*
X99952380Y-111702380D01*
X99857142Y-111750000D01*
X99809523Y-111797619D01*
X99761904Y-111892857D01*
X99714285Y-112083333D01*
X99714285Y-112321428D01*
X99761904Y-112511904D01*
X99809523Y-112607142D01*
X99857142Y-112654761D01*
X99952380Y-112702380D01*
X100047619Y-112702380D01*
X100142857Y-112654761D01*
X100190476Y-112607142D01*
X100238095Y-112511904D01*
X100285714Y-112321428D01*
X100285714Y-112083333D01*
X100238095Y-111892857D01*
X100190476Y-111797619D01*
X100142857Y-111750000D01*
X100047619Y-111702380D01*
X99285714Y-112702380D02*
X99285714Y-111702380D01*
X99190476Y-112321428D02*
X98904761Y-112702380D01*
X98904761Y-112035714D02*
X99285714Y-112416666D01*
X98523809Y-112702380D02*
X98285714Y-112702380D01*
X98285714Y-112511904D01*
X98380952Y-112464285D01*
X98476190Y-112369047D01*
X98523809Y-112226190D01*
X98523809Y-111988095D01*
X98476190Y-111845238D01*
X98380952Y-111750000D01*
X98238095Y-111702380D01*
X98047619Y-111702380D01*
X97904761Y-111750000D01*
X97809523Y-111845238D01*
X97761904Y-111988095D01*
X97761904Y-112226190D01*
X97809523Y-112369047D01*
X97904761Y-112464285D01*
X98000000Y-112511904D01*
X98000000Y-112702380D01*
X97761904Y-112702380D01*
X99690476Y-110952380D02*
X100261904Y-110952380D01*
X99976190Y-110952380D02*
X99976190Y-109952380D01*
X100071428Y-110095238D01*
X100166666Y-110190476D01*
X100261904Y-110238095D01*
X99261904Y-110952380D02*
X99261904Y-109952380D01*
X99166666Y-110571428D02*
X98880952Y-110952380D01*
X98880952Y-110285714D02*
X99261904Y-110666666D01*
X98500000Y-110952380D02*
X98261904Y-110952380D01*
X98261904Y-110761904D01*
X98357142Y-110714285D01*
X98452380Y-110619047D01*
X98500000Y-110476190D01*
X98500000Y-110238095D01*
X98452380Y-110095238D01*
X98357142Y-110000000D01*
X98214285Y-109952380D01*
X98023809Y-109952380D01*
X97880952Y-110000000D01*
X97785714Y-110095238D01*
X97738095Y-110238095D01*
X97738095Y-110476190D01*
X97785714Y-110619047D01*
X97880952Y-110714285D01*
X97976190Y-110761904D01*
X97976190Y-110952380D01*
X97738095Y-110952380D01*
X100738095Y-109202380D02*
X101309523Y-109202380D01*
X101023809Y-109202380D02*
X101023809Y-108202380D01*
X101119047Y-108345238D01*
X101214285Y-108440476D01*
X101309523Y-108488095D01*
X100119047Y-108202380D02*
X100023809Y-108202380D01*
X99928571Y-108250000D01*
X99880952Y-108297619D01*
X99833333Y-108392857D01*
X99785714Y-108583333D01*
X99785714Y-108821428D01*
X99833333Y-109011904D01*
X99880952Y-109107142D01*
X99928571Y-109154761D01*
X100023809Y-109202380D01*
X100119047Y-109202380D01*
X100214285Y-109154761D01*
X100261904Y-109107142D01*
X100309523Y-109011904D01*
X100357142Y-108821428D01*
X100357142Y-108583333D01*
X100309523Y-108392857D01*
X100261904Y-108297619D01*
X100214285Y-108250000D01*
X100119047Y-108202380D01*
X99166666Y-108202380D02*
X99071428Y-108202380D01*
X98976190Y-108250000D01*
X98928571Y-108297619D01*
X98880952Y-108392857D01*
X98833333Y-108583333D01*
X98833333Y-108821428D01*
X98880952Y-109011904D01*
X98928571Y-109107142D01*
X98976190Y-109154761D01*
X99071428Y-109202380D01*
X99166666Y-109202380D01*
X99261904Y-109154761D01*
X99309523Y-109107142D01*
X99357142Y-109011904D01*
X99404761Y-108821428D01*
X99404761Y-108583333D01*
X99357142Y-108392857D01*
X99309523Y-108297619D01*
X99261904Y-108250000D01*
X99166666Y-108202380D01*
X98452380Y-109202380D02*
X98214285Y-109202380D01*
X98214285Y-109011904D01*
X98309523Y-108964285D01*
X98404761Y-108869047D01*
X98452380Y-108726190D01*
X98452380Y-108488095D01*
X98404761Y-108345238D01*
X98309523Y-108250000D01*
X98166666Y-108202380D01*
X97976190Y-108202380D01*
X97833333Y-108250000D01*
X97738095Y-108345238D01*
X97690476Y-108488095D01*
X97690476Y-108726190D01*
X97738095Y-108869047D01*
X97833333Y-108964285D01*
X97928571Y-109011904D01*
X97928571Y-109202380D01*
X97690476Y-109202380D01*
X99761904Y-107452380D02*
X100333333Y-107452380D01*
X100047619Y-107452380D02*
X100047619Y-106452380D01*
X100142857Y-106595238D01*
X100238095Y-106690476D01*
X100333333Y-106738095D01*
X99142857Y-106452380D02*
X99047619Y-106452380D01*
X98952380Y-106500000D01*
X98904761Y-106547619D01*
X98857142Y-106642857D01*
X98809523Y-106833333D01*
X98809523Y-107071428D01*
X98857142Y-107261904D01*
X98904761Y-107357142D01*
X98952380Y-107404761D01*
X99047619Y-107452380D01*
X99142857Y-107452380D01*
X99238095Y-107404761D01*
X99285714Y-107357142D01*
X99333333Y-107261904D01*
X99380952Y-107071428D01*
X99380952Y-106833333D01*
X99333333Y-106642857D01*
X99285714Y-106547619D01*
X99238095Y-106500000D01*
X99142857Y-106452380D01*
X98428571Y-107452380D02*
X98190476Y-107452380D01*
X98190476Y-107261904D01*
X98285714Y-107214285D01*
X98380952Y-107119047D01*
X98428571Y-106976190D01*
X98428571Y-106738095D01*
X98380952Y-106595238D01*
X98285714Y-106500000D01*
X98142857Y-106452380D01*
X97952380Y-106452380D01*
X97809523Y-106500000D01*
X97714285Y-106595238D01*
X97666666Y-106738095D01*
X97666666Y-106976190D01*
X97714285Y-107119047D01*
X97809523Y-107214285D01*
X97904761Y-107261904D01*
X97904761Y-107452380D01*
X97666666Y-107452380D01*
X98785714Y-105702380D02*
X99357142Y-105702380D01*
X99071428Y-105702380D02*
X99071428Y-104702380D01*
X99166666Y-104845238D01*
X99261904Y-104940476D01*
X99357142Y-104988095D01*
X98404761Y-105702380D02*
X98166666Y-105702380D01*
X98166666Y-105511904D01*
X98261904Y-105464285D01*
X98357142Y-105369047D01*
X98404761Y-105226190D01*
X98404761Y-104988095D01*
X98357142Y-104845238D01*
X98261904Y-104750000D01*
X98119047Y-104702380D01*
X97928571Y-104702380D01*
X97785714Y-104750000D01*
X97690476Y-104845238D01*
X97642857Y-104988095D01*
X97642857Y-105226190D01*
X97690476Y-105369047D01*
X97785714Y-105464285D01*
X97880952Y-105511904D01*
X97880952Y-105702380D01*
X97642857Y-105702380D01*
X108904761Y-124904761D02*
X108761904Y-124952380D01*
X108523809Y-124952380D01*
X108428571Y-124904761D01*
X108380952Y-124857142D01*
X108333333Y-124761904D01*
X108333333Y-124666666D01*
X108380952Y-124571428D01*
X108428571Y-124523809D01*
X108523809Y-124476190D01*
X108714285Y-124428571D01*
X108809523Y-124380952D01*
X108857142Y-124333333D01*
X108904761Y-124238095D01*
X108904761Y-124142857D01*
X108857142Y-124047619D01*
X108809523Y-124000000D01*
X108714285Y-123952380D01*
X108476190Y-123952380D01*
X108333333Y-124000000D01*
X107904761Y-124952380D02*
X107904761Y-124285714D01*
X107904761Y-123952380D02*
X107952380Y-124000000D01*
X107904761Y-124047619D01*
X107857142Y-124000000D01*
X107904761Y-123952380D01*
X107904761Y-124047619D01*
X107285714Y-124952380D02*
X107380952Y-124904761D01*
X107428571Y-124809523D01*
X107428571Y-123952380D01*
X107000000Y-124285714D02*
X106761904Y-124952380D01*
X106523809Y-124285714D01*
X105761904Y-124904761D02*
X105857142Y-124952380D01*
X106047619Y-124952380D01*
X106142857Y-124904761D01*
X106190476Y-124809523D01*
X106190476Y-124428571D01*
X106142857Y-124333333D01*
X106047619Y-124285714D01*
X105857142Y-124285714D01*
X105761904Y-124333333D01*
X105714285Y-124428571D01*
X105714285Y-124523809D01*
X106190476Y-124619047D01*
X105285714Y-124952380D02*
X105285714Y-124285714D01*
X105285714Y-124476190D02*
X105238095Y-124380952D01*
X105190476Y-124333333D01*
X105095238Y-124285714D01*
X105000000Y-124285714D01*
X107904761Y-122250000D02*
X108000000Y-122202380D01*
X108142857Y-122202380D01*
X108285714Y-122250000D01*
X108380952Y-122345238D01*
X108428571Y-122440476D01*
X108476190Y-122630952D01*
X108476190Y-122773809D01*
X108428571Y-122964285D01*
X108380952Y-123059523D01*
X108285714Y-123154761D01*
X108142857Y-123202380D01*
X108047619Y-123202380D01*
X107904761Y-123154761D01*
X107857142Y-123107142D01*
X107857142Y-122773809D01*
X108047619Y-122773809D01*
X107285714Y-123202380D02*
X107380952Y-123154761D01*
X107428571Y-123107142D01*
X107476190Y-123011904D01*
X107476190Y-122726190D01*
X107428571Y-122630952D01*
X107380952Y-122583333D01*
X107285714Y-122535714D01*
X107142857Y-122535714D01*
X107047619Y-122583333D01*
X107000000Y-122630952D01*
X106952380Y-122726190D01*
X106952380Y-123011904D01*
X107000000Y-123107142D01*
X107047619Y-123154761D01*
X107142857Y-123202380D01*
X107285714Y-123202380D01*
X106380952Y-123202380D02*
X106476190Y-123154761D01*
X106523809Y-123059523D01*
X106523809Y-122202380D01*
X105571428Y-123202380D02*
X105571428Y-122202380D01*
X105571428Y-123154761D02*
X105666666Y-123202380D01*
X105857142Y-123202380D01*
X105952380Y-123154761D01*
X106000000Y-123107142D01*
X106047619Y-123011904D01*
X106047619Y-122726190D01*
X106000000Y-122630952D01*
X105952380Y-122583333D01*
X105857142Y-122535714D01*
X105666666Y-122535714D01*
X105571428Y-122583333D01*
X107857142Y-118750000D02*
X107952380Y-118702380D01*
X108095238Y-118702380D01*
X108238095Y-118750000D01*
X108333333Y-118845238D01*
X108380952Y-118940476D01*
X108428571Y-119130952D01*
X108428571Y-119273809D01*
X108380952Y-119464285D01*
X108333333Y-119559523D01*
X108238095Y-119654761D01*
X108095238Y-119702380D01*
X108000000Y-119702380D01*
X107857142Y-119654761D01*
X107809523Y-119607142D01*
X107809523Y-119273809D01*
X108000000Y-119273809D01*
X107380952Y-119702380D02*
X107380952Y-119035714D01*
X107380952Y-119226190D02*
X107333333Y-119130952D01*
X107285714Y-119083333D01*
X107190476Y-119035714D01*
X107095238Y-119035714D01*
X106380952Y-119654761D02*
X106476190Y-119702380D01*
X106666666Y-119702380D01*
X106761904Y-119654761D01*
X106809523Y-119559523D01*
X106809523Y-119178571D01*
X106761904Y-119083333D01*
X106666666Y-119035714D01*
X106476190Y-119035714D01*
X106380952Y-119083333D01*
X106333333Y-119178571D01*
X106333333Y-119273809D01*
X106809523Y-119369047D01*
X106000000Y-119035714D02*
X105761904Y-119702380D01*
X105523809Y-119035714D02*
X105761904Y-119702380D01*
X105857142Y-119940476D01*
X105904761Y-119988095D01*
X106000000Y-120035714D01*
X108833333Y-120452380D02*
X108595238Y-121452380D01*
X108404761Y-120738095D01*
X108214285Y-121452380D01*
X107976190Y-120452380D01*
X107595238Y-121452380D02*
X107595238Y-120452380D01*
X107166666Y-121452380D02*
X107166666Y-120928571D01*
X107214285Y-120833333D01*
X107309523Y-120785714D01*
X107452380Y-120785714D01*
X107547619Y-120833333D01*
X107595238Y-120880952D01*
X106690476Y-121452380D02*
X106690476Y-120785714D01*
X106690476Y-120452380D02*
X106738095Y-120500000D01*
X106690476Y-120547619D01*
X106642857Y-120500000D01*
X106690476Y-120452380D01*
X106690476Y-120547619D01*
X106357142Y-120785714D02*
X105976190Y-120785714D01*
X106214285Y-120452380D02*
X106214285Y-121309523D01*
X106166666Y-121404761D01*
X106071428Y-121452380D01*
X105976190Y-121452380D01*
X105261904Y-121404761D02*
X105357142Y-121452380D01*
X105547619Y-121452380D01*
X105642857Y-121404761D01*
X105690476Y-121309523D01*
X105690476Y-120928571D01*
X105642857Y-120833333D01*
X105547619Y-120785714D01*
X105357142Y-120785714D01*
X105261904Y-120833333D01*
X105214285Y-120928571D01*
X105214285Y-121023809D01*
X105690476Y-121119047D01*
X109000000Y-116952380D02*
X108666666Y-117952380D01*
X108333333Y-116952380D01*
X108000000Y-117952380D02*
X108000000Y-117285714D01*
X108000000Y-116952380D02*
X108047619Y-117000000D01*
X108000000Y-117047619D01*
X107952380Y-117000000D01*
X108000000Y-116952380D01*
X108000000Y-117047619D01*
X107380952Y-117952380D02*
X107476190Y-117904761D01*
X107523809Y-117857142D01*
X107571428Y-117761904D01*
X107571428Y-117476190D01*
X107523809Y-117380952D01*
X107476190Y-117333333D01*
X107380952Y-117285714D01*
X107238095Y-117285714D01*
X107142857Y-117333333D01*
X107095238Y-117380952D01*
X107047619Y-117476190D01*
X107047619Y-117761904D01*
X107095238Y-117857142D01*
X107142857Y-117904761D01*
X107238095Y-117952380D01*
X107380952Y-117952380D01*
X106476190Y-117952380D02*
X106571428Y-117904761D01*
X106619047Y-117809523D01*
X106619047Y-116952380D01*
X105714285Y-117904761D02*
X105809523Y-117952380D01*
X106000000Y-117952380D01*
X106095238Y-117904761D01*
X106142857Y-117809523D01*
X106142857Y-117428571D01*
X106095238Y-117333333D01*
X106000000Y-117285714D01*
X105809523Y-117285714D01*
X105714285Y-117333333D01*
X105666666Y-117428571D01*
X105666666Y-117523809D01*
X106142857Y-117619047D01*
X105380952Y-117285714D02*
X105000000Y-117285714D01*
X105238095Y-116952380D02*
X105238095Y-117809523D01*
X105190476Y-117904761D01*
X105095238Y-117952380D01*
X105000000Y-117952380D01*
X108071428Y-115678571D02*
X107928571Y-115726190D01*
X107880952Y-115773809D01*
X107833333Y-115869047D01*
X107833333Y-116011904D01*
X107880952Y-116107142D01*
X107928571Y-116154761D01*
X108023809Y-116202380D01*
X108404761Y-116202380D01*
X108404761Y-115202380D01*
X108071428Y-115202380D01*
X107976190Y-115250000D01*
X107928571Y-115297619D01*
X107880952Y-115392857D01*
X107880952Y-115488095D01*
X107928571Y-115583333D01*
X107976190Y-115630952D01*
X108071428Y-115678571D01*
X108404761Y-115678571D01*
X107261904Y-116202380D02*
X107357142Y-116154761D01*
X107404761Y-116059523D01*
X107404761Y-115202380D01*
X106452380Y-115535714D02*
X106452380Y-116202380D01*
X106880952Y-115535714D02*
X106880952Y-116059523D01*
X106833333Y-116154761D01*
X106738095Y-116202380D01*
X106595238Y-116202380D01*
X106500000Y-116154761D01*
X106452380Y-116107142D01*
X105595238Y-116154761D02*
X105690476Y-116202380D01*
X105880952Y-116202380D01*
X105976190Y-116154761D01*
X106023809Y-116059523D01*
X106023809Y-115678571D01*
X105976190Y-115583333D01*
X105880952Y-115535714D01*
X105690476Y-115535714D01*
X105595238Y-115583333D01*
X105547619Y-115678571D01*
X105547619Y-115773809D01*
X106023809Y-115869047D01*
X108357142Y-113500000D02*
X108452380Y-113452380D01*
X108595238Y-113452380D01*
X108738095Y-113500000D01*
X108833333Y-113595238D01*
X108880952Y-113690476D01*
X108928571Y-113880952D01*
X108928571Y-114023809D01*
X108880952Y-114214285D01*
X108833333Y-114309523D01*
X108738095Y-114404761D01*
X108595238Y-114452380D01*
X108500000Y-114452380D01*
X108357142Y-114404761D01*
X108309523Y-114357142D01*
X108309523Y-114023809D01*
X108500000Y-114023809D01*
X107880952Y-114452380D02*
X107880952Y-113785714D01*
X107880952Y-113976190D02*
X107833333Y-113880952D01*
X107785714Y-113833333D01*
X107690476Y-113785714D01*
X107595238Y-113785714D01*
X106880952Y-114404761D02*
X106976190Y-114452380D01*
X107166666Y-114452380D01*
X107261904Y-114404761D01*
X107309523Y-114309523D01*
X107309523Y-113928571D01*
X107261904Y-113833333D01*
X107166666Y-113785714D01*
X106976190Y-113785714D01*
X106880952Y-113833333D01*
X106833333Y-113928571D01*
X106833333Y-114023809D01*
X107309523Y-114119047D01*
X106023809Y-114404761D02*
X106119047Y-114452380D01*
X106309523Y-114452380D01*
X106404761Y-114404761D01*
X106452380Y-114309523D01*
X106452380Y-113928571D01*
X106404761Y-113833333D01*
X106309523Y-113785714D01*
X106119047Y-113785714D01*
X106023809Y-113833333D01*
X105976190Y-113928571D01*
X105976190Y-114023809D01*
X106452380Y-114119047D01*
X105547619Y-113785714D02*
X105547619Y-114452380D01*
X105547619Y-113880952D02*
X105500000Y-113833333D01*
X105404761Y-113785714D01*
X105261904Y-113785714D01*
X105166666Y-113833333D01*
X105119047Y-113928571D01*
X105119047Y-114452380D01*
X108928571Y-112226190D02*
X108928571Y-112702380D01*
X109261904Y-111702380D02*
X108928571Y-112226190D01*
X108595238Y-111702380D01*
X107880952Y-112654761D02*
X107976190Y-112702380D01*
X108166666Y-112702380D01*
X108261904Y-112654761D01*
X108309523Y-112559523D01*
X108309523Y-112178571D01*
X108261904Y-112083333D01*
X108166666Y-112035714D01*
X107976190Y-112035714D01*
X107880952Y-112083333D01*
X107833333Y-112178571D01*
X107833333Y-112273809D01*
X108309523Y-112369047D01*
X107261904Y-112702380D02*
X107357142Y-112654761D01*
X107404761Y-112559523D01*
X107404761Y-111702380D01*
X106738095Y-112702380D02*
X106833333Y-112654761D01*
X106880952Y-112559523D01*
X106880952Y-111702380D01*
X106214285Y-112702380D02*
X106309523Y-112654761D01*
X106357142Y-112607142D01*
X106404761Y-112511904D01*
X106404761Y-112226190D01*
X106357142Y-112130952D01*
X106309523Y-112083333D01*
X106214285Y-112035714D01*
X106071428Y-112035714D01*
X105976190Y-112083333D01*
X105928571Y-112130952D01*
X105880952Y-112226190D01*
X105880952Y-112511904D01*
X105928571Y-112607142D01*
X105976190Y-112654761D01*
X106071428Y-112702380D01*
X106214285Y-112702380D01*
X105547619Y-112035714D02*
X105357142Y-112702380D01*
X105166666Y-112226190D01*
X104976190Y-112702380D01*
X104785714Y-112035714D01*
X108971428Y-109757142D02*
X108800000Y-109757142D01*
X108714285Y-109800000D01*
X108628571Y-109885714D01*
X108585714Y-110057142D01*
X108585714Y-110357142D01*
X108628571Y-110528571D01*
X108714285Y-110614285D01*
X108800000Y-110657142D01*
X108971428Y-110657142D01*
X109057142Y-110614285D01*
X109142857Y-110528571D01*
X109185714Y-110357142D01*
X109185714Y-110057142D01*
X109142857Y-109885714D01*
X109057142Y-109800000D01*
X108971428Y-109757142D01*
X108200000Y-110657142D02*
X108200000Y-110057142D01*
X108200000Y-110228571D02*
X108157142Y-110142857D01*
X108114285Y-110100000D01*
X108028571Y-110057142D01*
X107942857Y-110057142D01*
X107257142Y-110657142D02*
X107257142Y-110185714D01*
X107300000Y-110100000D01*
X107385714Y-110057142D01*
X107557142Y-110057142D01*
X107642857Y-110100000D01*
X107257142Y-110614285D02*
X107342857Y-110657142D01*
X107557142Y-110657142D01*
X107642857Y-110614285D01*
X107685714Y-110528571D01*
X107685714Y-110442857D01*
X107642857Y-110357142D01*
X107557142Y-110314285D01*
X107342857Y-110314285D01*
X107257142Y-110271428D01*
X106828571Y-110057142D02*
X106828571Y-110657142D01*
X106828571Y-110142857D02*
X106785714Y-110100000D01*
X106700000Y-110057142D01*
X106571428Y-110057142D01*
X106485714Y-110100000D01*
X106442857Y-110185714D01*
X106442857Y-110657142D01*
X105628571Y-110057142D02*
X105628571Y-110785714D01*
X105671428Y-110871428D01*
X105714285Y-110914285D01*
X105800000Y-110957142D01*
X105928571Y-110957142D01*
X106014285Y-110914285D01*
X105628571Y-110614285D02*
X105714285Y-110657142D01*
X105885714Y-110657142D01*
X105971428Y-110614285D01*
X106014285Y-110571428D01*
X106057142Y-110485714D01*
X106057142Y-110228571D01*
X106014285Y-110142857D01*
X105971428Y-110100000D01*
X105885714Y-110057142D01*
X105714285Y-110057142D01*
X105628571Y-110100000D01*
X104857142Y-110614285D02*
X104942857Y-110657142D01*
X105114285Y-110657142D01*
X105200000Y-110614285D01*
X105242857Y-110528571D01*
X105242857Y-110185714D01*
X105200000Y-110100000D01*
X105114285Y-110057142D01*
X104942857Y-110057142D01*
X104857142Y-110100000D01*
X104814285Y-110185714D01*
X104814285Y-110271428D01*
X105242857Y-110357142D01*
X107571428Y-109202380D02*
X107904761Y-108726190D01*
X108142857Y-109202380D02*
X108142857Y-108202380D01*
X107761904Y-108202380D01*
X107666666Y-108250000D01*
X107619047Y-108297619D01*
X107571428Y-108392857D01*
X107571428Y-108535714D01*
X107619047Y-108630952D01*
X107666666Y-108678571D01*
X107761904Y-108726190D01*
X108142857Y-108726190D01*
X106761904Y-109154761D02*
X106857142Y-109202380D01*
X107047619Y-109202380D01*
X107142857Y-109154761D01*
X107190476Y-109059523D01*
X107190476Y-108678571D01*
X107142857Y-108583333D01*
X107047619Y-108535714D01*
X106857142Y-108535714D01*
X106761904Y-108583333D01*
X106714285Y-108678571D01*
X106714285Y-108773809D01*
X107190476Y-108869047D01*
X105857142Y-109202380D02*
X105857142Y-108202380D01*
X105857142Y-109154761D02*
X105952380Y-109202380D01*
X106142857Y-109202380D01*
X106238095Y-109154761D01*
X106285714Y-109107142D01*
X106333333Y-109011904D01*
X106333333Y-108726190D01*
X106285714Y-108630952D01*
X106238095Y-108583333D01*
X106142857Y-108535714D01*
X105952380Y-108535714D01*
X105857142Y-108583333D01*
X108666666Y-106928571D02*
X108523809Y-106976190D01*
X108476190Y-107023809D01*
X108428571Y-107119047D01*
X108428571Y-107261904D01*
X108476190Y-107357142D01*
X108523809Y-107404761D01*
X108619047Y-107452380D01*
X109000000Y-107452380D01*
X109000000Y-106452380D01*
X108666666Y-106452380D01*
X108571428Y-106500000D01*
X108523809Y-106547619D01*
X108476190Y-106642857D01*
X108476190Y-106738095D01*
X108523809Y-106833333D01*
X108571428Y-106880952D01*
X108666666Y-106928571D01*
X109000000Y-106928571D01*
X108000000Y-107452380D02*
X108000000Y-106785714D01*
X108000000Y-106976190D02*
X107952380Y-106880952D01*
X107904761Y-106833333D01*
X107809523Y-106785714D01*
X107714285Y-106785714D01*
X107238095Y-107452380D02*
X107333333Y-107404761D01*
X107380952Y-107357142D01*
X107428571Y-107261904D01*
X107428571Y-106976190D01*
X107380952Y-106880952D01*
X107333333Y-106833333D01*
X107238095Y-106785714D01*
X107095238Y-106785714D01*
X107000000Y-106833333D01*
X106952380Y-106880952D01*
X106904761Y-106976190D01*
X106904761Y-107261904D01*
X106952380Y-107357142D01*
X107000000Y-107404761D01*
X107095238Y-107452380D01*
X107238095Y-107452380D01*
X106571428Y-106785714D02*
X106380952Y-107452380D01*
X106190476Y-106976190D01*
X106000000Y-107452380D01*
X105809523Y-106785714D01*
X105428571Y-106785714D02*
X105428571Y-107452380D01*
X105428571Y-106880952D02*
X105380952Y-106833333D01*
X105285714Y-106785714D01*
X105142857Y-106785714D01*
X105047619Y-106833333D01*
X105000000Y-106928571D01*
X105000000Y-107452380D01*
X108476190Y-105178571D02*
X108333333Y-105226190D01*
X108285714Y-105273809D01*
X108238095Y-105369047D01*
X108238095Y-105511904D01*
X108285714Y-105607142D01*
X108333333Y-105654761D01*
X108428571Y-105702380D01*
X108809523Y-105702380D01*
X108809523Y-104702380D01*
X108476190Y-104702380D01*
X108380952Y-104750000D01*
X108333333Y-104797619D01*
X108285714Y-104892857D01*
X108285714Y-104988095D01*
X108333333Y-105083333D01*
X108380952Y-105130952D01*
X108476190Y-105178571D01*
X108809523Y-105178571D01*
X107666666Y-105702380D02*
X107761904Y-105654761D01*
X107809523Y-105559523D01*
X107809523Y-104702380D01*
X106857142Y-105702380D02*
X106857142Y-105178571D01*
X106904761Y-105083333D01*
X107000000Y-105035714D01*
X107190476Y-105035714D01*
X107285714Y-105083333D01*
X106857142Y-105654761D02*
X106952380Y-105702380D01*
X107190476Y-105702380D01*
X107285714Y-105654761D01*
X107333333Y-105559523D01*
X107333333Y-105464285D01*
X107285714Y-105369047D01*
X107190476Y-105321428D01*
X106952380Y-105321428D01*
X106857142Y-105273809D01*
X105952380Y-105654761D02*
X106047619Y-105702380D01*
X106238095Y-105702380D01*
X106333333Y-105654761D01*
X106380952Y-105607142D01*
X106428571Y-105511904D01*
X106428571Y-105226190D01*
X106380952Y-105130952D01*
X106333333Y-105083333D01*
X106238095Y-105035714D01*
X106047619Y-105035714D01*
X105952380Y-105083333D01*
X105523809Y-105702380D02*
X105523809Y-104702380D01*
X105428571Y-105321428D02*
X105142857Y-105702380D01*
X105142857Y-105035714D02*
X105523809Y-105416666D01*
X133119047Y-115452380D02*
X133119047Y-114452380D01*
X132785714Y-115166666D01*
X132452380Y-114452380D01*
X132452380Y-115452380D01*
X131976190Y-114928571D02*
X131642857Y-114928571D01*
X131500000Y-115452380D02*
X131976190Y-115452380D01*
X131976190Y-114452380D01*
X131500000Y-114452380D01*
X130595238Y-115452380D02*
X131071428Y-115452380D01*
X131071428Y-114452380D01*
X129928571Y-114928571D02*
X130261904Y-114928571D01*
X130261904Y-115452380D02*
X130261904Y-114452380D01*
X129785714Y-114452380D01*
M02*
