G04 #@! TF.GenerationSoftware,KiCad,Pcbnew,(5.1.4)-1*
G04 #@! TF.CreationDate,2020-02-23T21:57:18+01:00*
G04 #@! TF.ProjectId,PCBRuler,50434252-756c-4657-922e-6b696361645f,1.0*
G04 #@! TF.SameCoordinates,Original*
G04 #@! TF.FileFunction,Soldermask,Top*
G04 #@! TF.FilePolarity,Negative*
%FSLAX46Y46*%
G04 Gerber Fmt 4.6, Leading zero omitted, Abs format (unit mm)*
G04 Created by KiCad (PCBNEW (5.1.4)-1) date 2020-02-23 21:57:18*
%MOMM*%
%LPD*%
G04 APERTURE LIST*
%ADD10C,0.250000*%
%ADD11C,1.000000*%
%ADD12C,0.800000*%
%ADD13C,0.760000*%
%ADD14C,0.700000*%
%ADD15C,0.600000*%
%ADD16C,0.500000*%
%ADD17C,0.450000*%
%ADD18C,0.400000*%
%ADD19C,0.350000*%
%ADD20C,0.200000*%
%ADD21C,0.300000*%
%ADD22C,0.150000*%
%ADD23C,1.500000*%
%ADD24C,1.400000*%
%ADD25O,1.250000X1.250000*%
%ADD26R,1.250000X1.250000*%
%ADD27C,0.100000*%
%ADD28C,0.650000*%
%ADD29C,3.500000*%
%ADD30C,2.850000*%
%ADD31R,1.460000X1.050000*%
%ADD32R,1.100000X0.910000*%
%ADD33C,0.700000*%
%ADD34O,1.750000X1.750000*%
%ADD35R,1.750000X1.750000*%
%ADD36O,1.400000X1.400000*%
%ADD37R,1.400000X1.400000*%
%ADD38O,2.100000X2.100000*%
%ADD39R,2.100000X2.100000*%
%ADD40R,0.850000X1.100000*%
%ADD41C,1.250000*%
%ADD42R,1.900000X1.400000*%
%ADD43R,2.200000X1.400000*%
%ADD44R,2.240000X2.600000*%
%ADD45R,1.200000X0.600000*%
%ADD46R,0.600000X1.200000*%
%ADD47R,1.600000X1.600000*%
%ADD48R,2.000000X0.950000*%
%ADD49R,0.950000X2.000000*%
%ADD50R,1.950000X1.000000*%
%ADD51R,1.300000X1.200000*%
%ADD52R,2.400000X4.200000*%
%ADD53R,2.400000X1.900000*%
%ADD54R,0.850000X1.000000*%
%ADD55R,1.900000X0.850000*%
G04 APERTURE END LIST*
D10*
X136000000Y-127550000D02*
X134750000Y-127550000D01*
X139750000Y-126300000D02*
X138500000Y-126300000D01*
X137250000Y-127550000D02*
X137250000Y-126300000D01*
X134750000Y-125600000D02*
X134750000Y-127550000D01*
X139750000Y-127550000D02*
X139750000Y-126300000D01*
X141000000Y-127550000D02*
X141000000Y-126300000D01*
X136000000Y-126300000D02*
X136000000Y-127550000D01*
X137250000Y-126300000D02*
X136000000Y-126300000D01*
X138500000Y-126300000D02*
X138500000Y-127550000D01*
X141000000Y-127550000D02*
X139750000Y-127550000D01*
X138500000Y-127550000D02*
X137250000Y-127550000D01*
D11*
X97765020Y-123818420D02*
X90965020Y-123818420D01*
D12*
X97865020Y-122318420D02*
X90965020Y-122318420D01*
D13*
X97965020Y-120818420D02*
X90965020Y-120818420D01*
D14*
X97965020Y-119318420D02*
X90965020Y-119318420D01*
D15*
X97965020Y-117818420D02*
X90965020Y-117818420D01*
D16*
X97965020Y-116318420D02*
X90965020Y-116318420D01*
D17*
X97965020Y-114818420D02*
X90965020Y-114818420D01*
D18*
X97965020Y-113318420D02*
X90965020Y-113318420D01*
D19*
X97965020Y-111818420D02*
X90965020Y-111818420D01*
D20*
X90965020Y-110318420D02*
X90965020Y-110318420D01*
D21*
X97965020Y-110318420D02*
X90965020Y-110318420D01*
D20*
X90965020Y-108818420D02*
X90965020Y-108818420D01*
D10*
X97965020Y-108818420D02*
X90965020Y-108818420D01*
D20*
X90965020Y-107318420D02*
X90965020Y-107318420D01*
X90965020Y-107318420D02*
X97965020Y-107318420D01*
D22*
X90965020Y-105818420D02*
X97965020Y-105818420D01*
X94100000Y-130000000D02*
X94100000Y-127777500D01*
X92512500Y-130000000D02*
X92512500Y-129365000D01*
X105212500Y-130000000D02*
X105212500Y-129365000D01*
X90925000Y-130000000D02*
X90925000Y-128730000D01*
X89337500Y-130000000D02*
X89337500Y-129365000D01*
X103625000Y-130000000D02*
X103625000Y-128730000D01*
X102037500Y-130000000D02*
X102037500Y-129365000D01*
X87750000Y-130000000D02*
X87750000Y-128730000D01*
X97275000Y-130000000D02*
X97275000Y-128730000D01*
X98862500Y-130000000D02*
X98862500Y-129365000D01*
X100450000Y-130000000D02*
X100450000Y-128730000D01*
X95687500Y-130000000D02*
X95687500Y-129365000D01*
X121087500Y-130000000D02*
X121087500Y-129365000D01*
X119500000Y-130000000D02*
X119500000Y-127777500D01*
X129025000Y-130000000D02*
X129025000Y-128730000D01*
X130612500Y-130000000D02*
X130612500Y-129365000D01*
X127437500Y-130000000D02*
X127437500Y-129365000D01*
X125850000Y-130000000D02*
X125850000Y-128730000D01*
X124262500Y-130000000D02*
X124262500Y-129365000D01*
X122675000Y-130000000D02*
X122675000Y-128730000D01*
X113150000Y-130000000D02*
X113150000Y-128730000D01*
X111562500Y-130000000D02*
X111562500Y-129365000D01*
X116325000Y-130000000D02*
X116325000Y-128730000D01*
X109975000Y-130000000D02*
X109975000Y-128730000D01*
X114737500Y-130000000D02*
X114737500Y-129365000D01*
X108387500Y-130000000D02*
X108387500Y-129365000D01*
X117912500Y-130000000D02*
X117912500Y-129365000D01*
X146487500Y-130000000D02*
X146487500Y-129365000D01*
X144900000Y-130000000D02*
X144900000Y-127777500D01*
X154425000Y-130000000D02*
X154425000Y-128730000D01*
X156012500Y-130000000D02*
X156012500Y-129365000D01*
X152837500Y-130000000D02*
X152837500Y-129365000D01*
X151250000Y-130000000D02*
X151250000Y-128730000D01*
X149662500Y-130000000D02*
X149662500Y-129365000D01*
X148075000Y-130000000D02*
X148075000Y-128730000D01*
X138550000Y-130000000D02*
X138550000Y-128730000D01*
X136962500Y-130000000D02*
X136962500Y-129365000D01*
X141725000Y-130000000D02*
X141725000Y-128730000D01*
X135375000Y-130000000D02*
X135375000Y-128730000D01*
X140137500Y-130000000D02*
X140137500Y-129365000D01*
X133787500Y-130000000D02*
X133787500Y-129365000D01*
X143312500Y-130000000D02*
X143312500Y-129365000D01*
X159187500Y-130000000D02*
X159187500Y-129365000D01*
X167125000Y-130000000D02*
X167125000Y-128730000D01*
X168712500Y-130000000D02*
X168712500Y-129365000D01*
X165537500Y-130000000D02*
X165537500Y-129365000D01*
X163950000Y-130000000D02*
X163950000Y-128730000D01*
X162362500Y-130000000D02*
X162362500Y-129365000D01*
X160775000Y-130000000D02*
X160775000Y-128730000D01*
X171887500Y-130000000D02*
X171887500Y-129365000D01*
X173475000Y-130000000D02*
X173475000Y-128730000D01*
X175062500Y-130000000D02*
X175062500Y-129365000D01*
X176650000Y-130000000D02*
X176650000Y-128730000D01*
X178237500Y-130000000D02*
X178237500Y-129365000D01*
X181412500Y-130000000D02*
X181412500Y-129365000D01*
X183000000Y-130000000D02*
X183000000Y-127000000D01*
X179825000Y-130000000D02*
X179825000Y-128730000D01*
X170300000Y-130000000D02*
X170300000Y-127777500D01*
X157600000Y-130000000D02*
X157600000Y-127000000D01*
X132200000Y-130000000D02*
X132200000Y-127000000D01*
X106800000Y-130000000D02*
X106800000Y-127000000D01*
X178000000Y-98000000D02*
X178000000Y-99000000D01*
X179000000Y-98000000D02*
X179000000Y-99000000D01*
X180000000Y-98000000D02*
X180000000Y-99000000D01*
X177000000Y-98000000D02*
X177000000Y-101000000D01*
X177000000Y-101000000D02*
X177000000Y-101000000D01*
X176000000Y-98000000D02*
X176000000Y-99000000D01*
X175000000Y-98000000D02*
X175000000Y-99000000D01*
X174000000Y-98000000D02*
X174000000Y-99000000D01*
X173000000Y-98000000D02*
X173000000Y-99000000D01*
X172000000Y-98000000D02*
X172000000Y-100000000D01*
X171000000Y-98000000D02*
X171000000Y-99000000D01*
X170000000Y-98000000D02*
X170000000Y-99000000D01*
X169000000Y-98000000D02*
X169000000Y-99000000D01*
X168000000Y-98000000D02*
X168000000Y-99000000D01*
X167000000Y-98000000D02*
X167000000Y-101000000D01*
X166000000Y-98000000D02*
X166000000Y-99000000D01*
X165000000Y-98000000D02*
X165000000Y-99000000D01*
X164000000Y-98000000D02*
X164000000Y-99000000D01*
X163000000Y-98000000D02*
X163000000Y-99000000D01*
X162000000Y-98000000D02*
X162000000Y-100000000D01*
X161000000Y-98000000D02*
X161000000Y-99000000D01*
X160000000Y-98000000D02*
X160000000Y-99000000D01*
X159000000Y-98000000D02*
X159000000Y-99000000D01*
X158000000Y-98000000D02*
X158000000Y-99000000D01*
X157000000Y-98000000D02*
X157000000Y-101000000D01*
X155000000Y-98000000D02*
X155000000Y-99000000D01*
X156000000Y-98000000D02*
X156000000Y-99000000D01*
X140000000Y-98000000D02*
X140000000Y-99000000D01*
X142000000Y-98000000D02*
X142000000Y-100000000D01*
X144000000Y-98000000D02*
X144000000Y-99000000D01*
X151000000Y-98000000D02*
X151000000Y-99000000D01*
X146000000Y-98000000D02*
X146000000Y-99000000D01*
X137000000Y-98000000D02*
X137000000Y-101000000D01*
X148000000Y-98000000D02*
X148000000Y-99000000D01*
X143000000Y-98000000D02*
X143000000Y-99000000D01*
X138000000Y-98000000D02*
X138000000Y-99000000D01*
X149000000Y-98000000D02*
X149000000Y-99000000D01*
X153000000Y-98000000D02*
X153000000Y-99000000D01*
X154000000Y-98000000D02*
X154000000Y-99000000D01*
X139000000Y-98000000D02*
X139000000Y-99000000D01*
X150000000Y-98000000D02*
X150000000Y-99000000D01*
X141000000Y-98000000D02*
X141000000Y-99000000D01*
X147000000Y-98000000D02*
X147000000Y-101000000D01*
X145000000Y-98000000D02*
X145000000Y-99000000D01*
X152000000Y-98000000D02*
X152000000Y-100000000D01*
X132000000Y-98000000D02*
X132000000Y-100000000D01*
X125000000Y-98000000D02*
X125000000Y-99000000D01*
X136000000Y-98000000D02*
X136000000Y-99000000D01*
X120000000Y-98000000D02*
X120000000Y-99000000D01*
X117000000Y-98000000D02*
X117000000Y-101000000D01*
X118000000Y-98000000D02*
X118000000Y-99000000D01*
X134000000Y-98000000D02*
X134000000Y-99000000D01*
X130000000Y-98000000D02*
X130000000Y-99000000D01*
X122000000Y-98000000D02*
X122000000Y-100000000D01*
X126000000Y-98000000D02*
X126000000Y-99000000D01*
X123000000Y-98000000D02*
X123000000Y-99000000D01*
X133000000Y-98000000D02*
X133000000Y-99000000D01*
X131000000Y-98000000D02*
X131000000Y-99000000D01*
X124000000Y-98000000D02*
X124000000Y-99000000D01*
X129000000Y-98000000D02*
X129000000Y-99000000D01*
X119000000Y-98000000D02*
X119000000Y-99000000D01*
X135000000Y-98000000D02*
X135000000Y-99000000D01*
X128000000Y-98000000D02*
X128000000Y-99000000D01*
X121000000Y-98000000D02*
X121000000Y-99000000D01*
X127000000Y-98000000D02*
X127000000Y-101000000D01*
X104000000Y-98000000D02*
X104000000Y-99000000D01*
X108000000Y-98000000D02*
X108000000Y-99000000D01*
X109000000Y-98000000D02*
X109000000Y-99000000D01*
X98000000Y-98000000D02*
X98000000Y-99000000D01*
X97000000Y-98000000D02*
X97000000Y-101000000D01*
X113000000Y-98000000D02*
X113000000Y-99000000D01*
X110000000Y-98000000D02*
X110000000Y-99000000D01*
X106000000Y-98000000D02*
X106000000Y-99000000D01*
X103000000Y-98000000D02*
X103000000Y-99000000D01*
X112000000Y-98000000D02*
X112000000Y-100000000D01*
X111000000Y-98000000D02*
X111000000Y-99000000D01*
X101000000Y-98000000D02*
X101000000Y-99000000D01*
X102000000Y-98000000D02*
X102000000Y-100000000D01*
X100000000Y-98000000D02*
X100000000Y-99000000D01*
X107000000Y-98000000D02*
X107000000Y-101000000D01*
X116000000Y-98000000D02*
X116000000Y-99000000D01*
X105000000Y-98000000D02*
X105000000Y-99000000D01*
X99000000Y-98000000D02*
X99000000Y-99000000D01*
X115000000Y-98000000D02*
X115000000Y-99000000D01*
X114000000Y-98000000D02*
X114000000Y-99000000D01*
X87000000Y-98000000D02*
X87000000Y-101000000D01*
X90000000Y-98000000D02*
X90000000Y-99000000D01*
X88000000Y-98000000D02*
X88000000Y-99000000D01*
X93000000Y-98000000D02*
X93000000Y-99000000D01*
X92000000Y-98000000D02*
X92000000Y-100000000D01*
X96000000Y-98000000D02*
X96000000Y-99000000D01*
X95000000Y-98000000D02*
X95000000Y-99000000D01*
X89000000Y-98000000D02*
X89000000Y-99000000D01*
X91000000Y-98000000D02*
X91000000Y-99000000D01*
X94000000Y-98000000D02*
X94000000Y-99000000D01*
X183000000Y-98000000D02*
X183000000Y-99000000D01*
X182000000Y-98000000D02*
X182000000Y-100000000D01*
X181000000Y-98000000D02*
X181000000Y-99000000D01*
D23*
X89500000Y-126500000D03*
D24*
X117100000Y-126400000D03*
D25*
X119650000Y-122300000D03*
D26*
X119650000Y-123300000D03*
D27*
G36*
X126178428Y-117925782D02*
G01*
X126194202Y-117928122D01*
X126209671Y-117931997D01*
X126224686Y-117937370D01*
X126239102Y-117944188D01*
X126252780Y-117952386D01*
X126265589Y-117961886D01*
X126277405Y-117972595D01*
X126288114Y-117984411D01*
X126297614Y-117997220D01*
X126305812Y-118010898D01*
X126312630Y-118025314D01*
X126318003Y-118040329D01*
X126321878Y-118055798D01*
X126324218Y-118071572D01*
X126325000Y-118087500D01*
X126325000Y-119037500D01*
X126324218Y-119053428D01*
X126321878Y-119069202D01*
X126318003Y-119084671D01*
X126312630Y-119099686D01*
X126305812Y-119114102D01*
X126297614Y-119127780D01*
X126288114Y-119140589D01*
X126277405Y-119152405D01*
X126265589Y-119163114D01*
X126252780Y-119172614D01*
X126239102Y-119180812D01*
X126224686Y-119187630D01*
X126209671Y-119193003D01*
X126194202Y-119196878D01*
X126178428Y-119199218D01*
X126162500Y-119200000D01*
X125837500Y-119200000D01*
X125821572Y-119199218D01*
X125805798Y-119196878D01*
X125790329Y-119193003D01*
X125775314Y-119187630D01*
X125760898Y-119180812D01*
X125747220Y-119172614D01*
X125734411Y-119163114D01*
X125722595Y-119152405D01*
X125711886Y-119140589D01*
X125702386Y-119127780D01*
X125694188Y-119114102D01*
X125687370Y-119099686D01*
X125681997Y-119084671D01*
X125678122Y-119069202D01*
X125675782Y-119053428D01*
X125675000Y-119037500D01*
X125675000Y-118087500D01*
X125675782Y-118071572D01*
X125678122Y-118055798D01*
X125681997Y-118040329D01*
X125687370Y-118025314D01*
X125694188Y-118010898D01*
X125702386Y-117997220D01*
X125711886Y-117984411D01*
X125722595Y-117972595D01*
X125734411Y-117961886D01*
X125747220Y-117952386D01*
X125760898Y-117944188D01*
X125775314Y-117937370D01*
X125790329Y-117931997D01*
X125805798Y-117928122D01*
X125821572Y-117925782D01*
X125837500Y-117925000D01*
X126162500Y-117925000D01*
X126178428Y-117925782D01*
X126178428Y-117925782D01*
G37*
D28*
X126000000Y-118562500D03*
D27*
G36*
X126678428Y-117925782D02*
G01*
X126694202Y-117928122D01*
X126709671Y-117931997D01*
X126724686Y-117937370D01*
X126739102Y-117944188D01*
X126752780Y-117952386D01*
X126765589Y-117961886D01*
X126777405Y-117972595D01*
X126788114Y-117984411D01*
X126797614Y-117997220D01*
X126805812Y-118010898D01*
X126812630Y-118025314D01*
X126818003Y-118040329D01*
X126821878Y-118055798D01*
X126824218Y-118071572D01*
X126825000Y-118087500D01*
X126825000Y-119037500D01*
X126824218Y-119053428D01*
X126821878Y-119069202D01*
X126818003Y-119084671D01*
X126812630Y-119099686D01*
X126805812Y-119114102D01*
X126797614Y-119127780D01*
X126788114Y-119140589D01*
X126777405Y-119152405D01*
X126765589Y-119163114D01*
X126752780Y-119172614D01*
X126739102Y-119180812D01*
X126724686Y-119187630D01*
X126709671Y-119193003D01*
X126694202Y-119196878D01*
X126678428Y-119199218D01*
X126662500Y-119200000D01*
X126337500Y-119200000D01*
X126321572Y-119199218D01*
X126305798Y-119196878D01*
X126290329Y-119193003D01*
X126275314Y-119187630D01*
X126260898Y-119180812D01*
X126247220Y-119172614D01*
X126234411Y-119163114D01*
X126222595Y-119152405D01*
X126211886Y-119140589D01*
X126202386Y-119127780D01*
X126194188Y-119114102D01*
X126187370Y-119099686D01*
X126181997Y-119084671D01*
X126178122Y-119069202D01*
X126175782Y-119053428D01*
X126175000Y-119037500D01*
X126175000Y-118087500D01*
X126175782Y-118071572D01*
X126178122Y-118055798D01*
X126181997Y-118040329D01*
X126187370Y-118025314D01*
X126194188Y-118010898D01*
X126202386Y-117997220D01*
X126211886Y-117984411D01*
X126222595Y-117972595D01*
X126234411Y-117961886D01*
X126247220Y-117952386D01*
X126260898Y-117944188D01*
X126275314Y-117937370D01*
X126290329Y-117931997D01*
X126305798Y-117928122D01*
X126321572Y-117925782D01*
X126337500Y-117925000D01*
X126662500Y-117925000D01*
X126678428Y-117925782D01*
X126678428Y-117925782D01*
G37*
D28*
X126500000Y-118562500D03*
D27*
G36*
X127178428Y-117925782D02*
G01*
X127194202Y-117928122D01*
X127209671Y-117931997D01*
X127224686Y-117937370D01*
X127239102Y-117944188D01*
X127252780Y-117952386D01*
X127265589Y-117961886D01*
X127277405Y-117972595D01*
X127288114Y-117984411D01*
X127297614Y-117997220D01*
X127305812Y-118010898D01*
X127312630Y-118025314D01*
X127318003Y-118040329D01*
X127321878Y-118055798D01*
X127324218Y-118071572D01*
X127325000Y-118087500D01*
X127325000Y-119037500D01*
X127324218Y-119053428D01*
X127321878Y-119069202D01*
X127318003Y-119084671D01*
X127312630Y-119099686D01*
X127305812Y-119114102D01*
X127297614Y-119127780D01*
X127288114Y-119140589D01*
X127277405Y-119152405D01*
X127265589Y-119163114D01*
X127252780Y-119172614D01*
X127239102Y-119180812D01*
X127224686Y-119187630D01*
X127209671Y-119193003D01*
X127194202Y-119196878D01*
X127178428Y-119199218D01*
X127162500Y-119200000D01*
X126837500Y-119200000D01*
X126821572Y-119199218D01*
X126805798Y-119196878D01*
X126790329Y-119193003D01*
X126775314Y-119187630D01*
X126760898Y-119180812D01*
X126747220Y-119172614D01*
X126734411Y-119163114D01*
X126722595Y-119152405D01*
X126711886Y-119140589D01*
X126702386Y-119127780D01*
X126694188Y-119114102D01*
X126687370Y-119099686D01*
X126681997Y-119084671D01*
X126678122Y-119069202D01*
X126675782Y-119053428D01*
X126675000Y-119037500D01*
X126675000Y-118087500D01*
X126675782Y-118071572D01*
X126678122Y-118055798D01*
X126681997Y-118040329D01*
X126687370Y-118025314D01*
X126694188Y-118010898D01*
X126702386Y-117997220D01*
X126711886Y-117984411D01*
X126722595Y-117972595D01*
X126734411Y-117961886D01*
X126747220Y-117952386D01*
X126760898Y-117944188D01*
X126775314Y-117937370D01*
X126790329Y-117931997D01*
X126805798Y-117928122D01*
X126821572Y-117925782D01*
X126837500Y-117925000D01*
X127162500Y-117925000D01*
X127178428Y-117925782D01*
X127178428Y-117925782D01*
G37*
D28*
X127000000Y-118562500D03*
D27*
G36*
X127678428Y-117925782D02*
G01*
X127694202Y-117928122D01*
X127709671Y-117931997D01*
X127724686Y-117937370D01*
X127739102Y-117944188D01*
X127752780Y-117952386D01*
X127765589Y-117961886D01*
X127777405Y-117972595D01*
X127788114Y-117984411D01*
X127797614Y-117997220D01*
X127805812Y-118010898D01*
X127812630Y-118025314D01*
X127818003Y-118040329D01*
X127821878Y-118055798D01*
X127824218Y-118071572D01*
X127825000Y-118087500D01*
X127825000Y-119037500D01*
X127824218Y-119053428D01*
X127821878Y-119069202D01*
X127818003Y-119084671D01*
X127812630Y-119099686D01*
X127805812Y-119114102D01*
X127797614Y-119127780D01*
X127788114Y-119140589D01*
X127777405Y-119152405D01*
X127765589Y-119163114D01*
X127752780Y-119172614D01*
X127739102Y-119180812D01*
X127724686Y-119187630D01*
X127709671Y-119193003D01*
X127694202Y-119196878D01*
X127678428Y-119199218D01*
X127662500Y-119200000D01*
X127337500Y-119200000D01*
X127321572Y-119199218D01*
X127305798Y-119196878D01*
X127290329Y-119193003D01*
X127275314Y-119187630D01*
X127260898Y-119180812D01*
X127247220Y-119172614D01*
X127234411Y-119163114D01*
X127222595Y-119152405D01*
X127211886Y-119140589D01*
X127202386Y-119127780D01*
X127194188Y-119114102D01*
X127187370Y-119099686D01*
X127181997Y-119084671D01*
X127178122Y-119069202D01*
X127175782Y-119053428D01*
X127175000Y-119037500D01*
X127175000Y-118087500D01*
X127175782Y-118071572D01*
X127178122Y-118055798D01*
X127181997Y-118040329D01*
X127187370Y-118025314D01*
X127194188Y-118010898D01*
X127202386Y-117997220D01*
X127211886Y-117984411D01*
X127222595Y-117972595D01*
X127234411Y-117961886D01*
X127247220Y-117952386D01*
X127260898Y-117944188D01*
X127275314Y-117937370D01*
X127290329Y-117931997D01*
X127305798Y-117928122D01*
X127321572Y-117925782D01*
X127337500Y-117925000D01*
X127662500Y-117925000D01*
X127678428Y-117925782D01*
X127678428Y-117925782D01*
G37*
D28*
X127500000Y-118562500D03*
D27*
G36*
X128178428Y-117925782D02*
G01*
X128194202Y-117928122D01*
X128209671Y-117931997D01*
X128224686Y-117937370D01*
X128239102Y-117944188D01*
X128252780Y-117952386D01*
X128265589Y-117961886D01*
X128277405Y-117972595D01*
X128288114Y-117984411D01*
X128297614Y-117997220D01*
X128305812Y-118010898D01*
X128312630Y-118025314D01*
X128318003Y-118040329D01*
X128321878Y-118055798D01*
X128324218Y-118071572D01*
X128325000Y-118087500D01*
X128325000Y-119037500D01*
X128324218Y-119053428D01*
X128321878Y-119069202D01*
X128318003Y-119084671D01*
X128312630Y-119099686D01*
X128305812Y-119114102D01*
X128297614Y-119127780D01*
X128288114Y-119140589D01*
X128277405Y-119152405D01*
X128265589Y-119163114D01*
X128252780Y-119172614D01*
X128239102Y-119180812D01*
X128224686Y-119187630D01*
X128209671Y-119193003D01*
X128194202Y-119196878D01*
X128178428Y-119199218D01*
X128162500Y-119200000D01*
X127837500Y-119200000D01*
X127821572Y-119199218D01*
X127805798Y-119196878D01*
X127790329Y-119193003D01*
X127775314Y-119187630D01*
X127760898Y-119180812D01*
X127747220Y-119172614D01*
X127734411Y-119163114D01*
X127722595Y-119152405D01*
X127711886Y-119140589D01*
X127702386Y-119127780D01*
X127694188Y-119114102D01*
X127687370Y-119099686D01*
X127681997Y-119084671D01*
X127678122Y-119069202D01*
X127675782Y-119053428D01*
X127675000Y-119037500D01*
X127675000Y-118087500D01*
X127675782Y-118071572D01*
X127678122Y-118055798D01*
X127681997Y-118040329D01*
X127687370Y-118025314D01*
X127694188Y-118010898D01*
X127702386Y-117997220D01*
X127711886Y-117984411D01*
X127722595Y-117972595D01*
X127734411Y-117961886D01*
X127747220Y-117952386D01*
X127760898Y-117944188D01*
X127775314Y-117937370D01*
X127790329Y-117931997D01*
X127805798Y-117928122D01*
X127821572Y-117925782D01*
X127837500Y-117925000D01*
X128162500Y-117925000D01*
X128178428Y-117925782D01*
X128178428Y-117925782D01*
G37*
D28*
X128000000Y-118562500D03*
D27*
G36*
X128678428Y-117925782D02*
G01*
X128694202Y-117928122D01*
X128709671Y-117931997D01*
X128724686Y-117937370D01*
X128739102Y-117944188D01*
X128752780Y-117952386D01*
X128765589Y-117961886D01*
X128777405Y-117972595D01*
X128788114Y-117984411D01*
X128797614Y-117997220D01*
X128805812Y-118010898D01*
X128812630Y-118025314D01*
X128818003Y-118040329D01*
X128821878Y-118055798D01*
X128824218Y-118071572D01*
X128825000Y-118087500D01*
X128825000Y-119037500D01*
X128824218Y-119053428D01*
X128821878Y-119069202D01*
X128818003Y-119084671D01*
X128812630Y-119099686D01*
X128805812Y-119114102D01*
X128797614Y-119127780D01*
X128788114Y-119140589D01*
X128777405Y-119152405D01*
X128765589Y-119163114D01*
X128752780Y-119172614D01*
X128739102Y-119180812D01*
X128724686Y-119187630D01*
X128709671Y-119193003D01*
X128694202Y-119196878D01*
X128678428Y-119199218D01*
X128662500Y-119200000D01*
X128337500Y-119200000D01*
X128321572Y-119199218D01*
X128305798Y-119196878D01*
X128290329Y-119193003D01*
X128275314Y-119187630D01*
X128260898Y-119180812D01*
X128247220Y-119172614D01*
X128234411Y-119163114D01*
X128222595Y-119152405D01*
X128211886Y-119140589D01*
X128202386Y-119127780D01*
X128194188Y-119114102D01*
X128187370Y-119099686D01*
X128181997Y-119084671D01*
X128178122Y-119069202D01*
X128175782Y-119053428D01*
X128175000Y-119037500D01*
X128175000Y-118087500D01*
X128175782Y-118071572D01*
X128178122Y-118055798D01*
X128181997Y-118040329D01*
X128187370Y-118025314D01*
X128194188Y-118010898D01*
X128202386Y-117997220D01*
X128211886Y-117984411D01*
X128222595Y-117972595D01*
X128234411Y-117961886D01*
X128247220Y-117952386D01*
X128260898Y-117944188D01*
X128275314Y-117937370D01*
X128290329Y-117931997D01*
X128305798Y-117928122D01*
X128321572Y-117925782D01*
X128337500Y-117925000D01*
X128662500Y-117925000D01*
X128678428Y-117925782D01*
X128678428Y-117925782D01*
G37*
D28*
X128500000Y-118562500D03*
D27*
G36*
X129178428Y-117925782D02*
G01*
X129194202Y-117928122D01*
X129209671Y-117931997D01*
X129224686Y-117937370D01*
X129239102Y-117944188D01*
X129252780Y-117952386D01*
X129265589Y-117961886D01*
X129277405Y-117972595D01*
X129288114Y-117984411D01*
X129297614Y-117997220D01*
X129305812Y-118010898D01*
X129312630Y-118025314D01*
X129318003Y-118040329D01*
X129321878Y-118055798D01*
X129324218Y-118071572D01*
X129325000Y-118087500D01*
X129325000Y-119037500D01*
X129324218Y-119053428D01*
X129321878Y-119069202D01*
X129318003Y-119084671D01*
X129312630Y-119099686D01*
X129305812Y-119114102D01*
X129297614Y-119127780D01*
X129288114Y-119140589D01*
X129277405Y-119152405D01*
X129265589Y-119163114D01*
X129252780Y-119172614D01*
X129239102Y-119180812D01*
X129224686Y-119187630D01*
X129209671Y-119193003D01*
X129194202Y-119196878D01*
X129178428Y-119199218D01*
X129162500Y-119200000D01*
X128837500Y-119200000D01*
X128821572Y-119199218D01*
X128805798Y-119196878D01*
X128790329Y-119193003D01*
X128775314Y-119187630D01*
X128760898Y-119180812D01*
X128747220Y-119172614D01*
X128734411Y-119163114D01*
X128722595Y-119152405D01*
X128711886Y-119140589D01*
X128702386Y-119127780D01*
X128694188Y-119114102D01*
X128687370Y-119099686D01*
X128681997Y-119084671D01*
X128678122Y-119069202D01*
X128675782Y-119053428D01*
X128675000Y-119037500D01*
X128675000Y-118087500D01*
X128675782Y-118071572D01*
X128678122Y-118055798D01*
X128681997Y-118040329D01*
X128687370Y-118025314D01*
X128694188Y-118010898D01*
X128702386Y-117997220D01*
X128711886Y-117984411D01*
X128722595Y-117972595D01*
X128734411Y-117961886D01*
X128747220Y-117952386D01*
X128760898Y-117944188D01*
X128775314Y-117937370D01*
X128790329Y-117931997D01*
X128805798Y-117928122D01*
X128821572Y-117925782D01*
X128837500Y-117925000D01*
X129162500Y-117925000D01*
X129178428Y-117925782D01*
X129178428Y-117925782D01*
G37*
D28*
X129000000Y-118562500D03*
D27*
G36*
X129678428Y-117925782D02*
G01*
X129694202Y-117928122D01*
X129709671Y-117931997D01*
X129724686Y-117937370D01*
X129739102Y-117944188D01*
X129752780Y-117952386D01*
X129765589Y-117961886D01*
X129777405Y-117972595D01*
X129788114Y-117984411D01*
X129797614Y-117997220D01*
X129805812Y-118010898D01*
X129812630Y-118025314D01*
X129818003Y-118040329D01*
X129821878Y-118055798D01*
X129824218Y-118071572D01*
X129825000Y-118087500D01*
X129825000Y-119037500D01*
X129824218Y-119053428D01*
X129821878Y-119069202D01*
X129818003Y-119084671D01*
X129812630Y-119099686D01*
X129805812Y-119114102D01*
X129797614Y-119127780D01*
X129788114Y-119140589D01*
X129777405Y-119152405D01*
X129765589Y-119163114D01*
X129752780Y-119172614D01*
X129739102Y-119180812D01*
X129724686Y-119187630D01*
X129709671Y-119193003D01*
X129694202Y-119196878D01*
X129678428Y-119199218D01*
X129662500Y-119200000D01*
X129337500Y-119200000D01*
X129321572Y-119199218D01*
X129305798Y-119196878D01*
X129290329Y-119193003D01*
X129275314Y-119187630D01*
X129260898Y-119180812D01*
X129247220Y-119172614D01*
X129234411Y-119163114D01*
X129222595Y-119152405D01*
X129211886Y-119140589D01*
X129202386Y-119127780D01*
X129194188Y-119114102D01*
X129187370Y-119099686D01*
X129181997Y-119084671D01*
X129178122Y-119069202D01*
X129175782Y-119053428D01*
X129175000Y-119037500D01*
X129175000Y-118087500D01*
X129175782Y-118071572D01*
X129178122Y-118055798D01*
X129181997Y-118040329D01*
X129187370Y-118025314D01*
X129194188Y-118010898D01*
X129202386Y-117997220D01*
X129211886Y-117984411D01*
X129222595Y-117972595D01*
X129234411Y-117961886D01*
X129247220Y-117952386D01*
X129260898Y-117944188D01*
X129275314Y-117937370D01*
X129290329Y-117931997D01*
X129305798Y-117928122D01*
X129321572Y-117925782D01*
X129337500Y-117925000D01*
X129662500Y-117925000D01*
X129678428Y-117925782D01*
X129678428Y-117925782D01*
G37*
D28*
X129500000Y-118562500D03*
D27*
G36*
X130678428Y-118925782D02*
G01*
X130694202Y-118928122D01*
X130709671Y-118931997D01*
X130724686Y-118937370D01*
X130739102Y-118944188D01*
X130752780Y-118952386D01*
X130765589Y-118961886D01*
X130777405Y-118972595D01*
X130788114Y-118984411D01*
X130797614Y-118997220D01*
X130805812Y-119010898D01*
X130812630Y-119025314D01*
X130818003Y-119040329D01*
X130821878Y-119055798D01*
X130824218Y-119071572D01*
X130825000Y-119087500D01*
X130825000Y-119412500D01*
X130824218Y-119428428D01*
X130821878Y-119444202D01*
X130818003Y-119459671D01*
X130812630Y-119474686D01*
X130805812Y-119489102D01*
X130797614Y-119502780D01*
X130788114Y-119515589D01*
X130777405Y-119527405D01*
X130765589Y-119538114D01*
X130752780Y-119547614D01*
X130739102Y-119555812D01*
X130724686Y-119562630D01*
X130709671Y-119568003D01*
X130694202Y-119571878D01*
X130678428Y-119574218D01*
X130662500Y-119575000D01*
X129712500Y-119575000D01*
X129696572Y-119574218D01*
X129680798Y-119571878D01*
X129665329Y-119568003D01*
X129650314Y-119562630D01*
X129635898Y-119555812D01*
X129622220Y-119547614D01*
X129609411Y-119538114D01*
X129597595Y-119527405D01*
X129586886Y-119515589D01*
X129577386Y-119502780D01*
X129569188Y-119489102D01*
X129562370Y-119474686D01*
X129556997Y-119459671D01*
X129553122Y-119444202D01*
X129550782Y-119428428D01*
X129550000Y-119412500D01*
X129550000Y-119087500D01*
X129550782Y-119071572D01*
X129553122Y-119055798D01*
X129556997Y-119040329D01*
X129562370Y-119025314D01*
X129569188Y-119010898D01*
X129577386Y-118997220D01*
X129586886Y-118984411D01*
X129597595Y-118972595D01*
X129609411Y-118961886D01*
X129622220Y-118952386D01*
X129635898Y-118944188D01*
X129650314Y-118937370D01*
X129665329Y-118931997D01*
X129680798Y-118928122D01*
X129696572Y-118925782D01*
X129712500Y-118925000D01*
X130662500Y-118925000D01*
X130678428Y-118925782D01*
X130678428Y-118925782D01*
G37*
D28*
X130187500Y-119250000D03*
D27*
G36*
X130678428Y-119425782D02*
G01*
X130694202Y-119428122D01*
X130709671Y-119431997D01*
X130724686Y-119437370D01*
X130739102Y-119444188D01*
X130752780Y-119452386D01*
X130765589Y-119461886D01*
X130777405Y-119472595D01*
X130788114Y-119484411D01*
X130797614Y-119497220D01*
X130805812Y-119510898D01*
X130812630Y-119525314D01*
X130818003Y-119540329D01*
X130821878Y-119555798D01*
X130824218Y-119571572D01*
X130825000Y-119587500D01*
X130825000Y-119912500D01*
X130824218Y-119928428D01*
X130821878Y-119944202D01*
X130818003Y-119959671D01*
X130812630Y-119974686D01*
X130805812Y-119989102D01*
X130797614Y-120002780D01*
X130788114Y-120015589D01*
X130777405Y-120027405D01*
X130765589Y-120038114D01*
X130752780Y-120047614D01*
X130739102Y-120055812D01*
X130724686Y-120062630D01*
X130709671Y-120068003D01*
X130694202Y-120071878D01*
X130678428Y-120074218D01*
X130662500Y-120075000D01*
X129712500Y-120075000D01*
X129696572Y-120074218D01*
X129680798Y-120071878D01*
X129665329Y-120068003D01*
X129650314Y-120062630D01*
X129635898Y-120055812D01*
X129622220Y-120047614D01*
X129609411Y-120038114D01*
X129597595Y-120027405D01*
X129586886Y-120015589D01*
X129577386Y-120002780D01*
X129569188Y-119989102D01*
X129562370Y-119974686D01*
X129556997Y-119959671D01*
X129553122Y-119944202D01*
X129550782Y-119928428D01*
X129550000Y-119912500D01*
X129550000Y-119587500D01*
X129550782Y-119571572D01*
X129553122Y-119555798D01*
X129556997Y-119540329D01*
X129562370Y-119525314D01*
X129569188Y-119510898D01*
X129577386Y-119497220D01*
X129586886Y-119484411D01*
X129597595Y-119472595D01*
X129609411Y-119461886D01*
X129622220Y-119452386D01*
X129635898Y-119444188D01*
X129650314Y-119437370D01*
X129665329Y-119431997D01*
X129680798Y-119428122D01*
X129696572Y-119425782D01*
X129712500Y-119425000D01*
X130662500Y-119425000D01*
X130678428Y-119425782D01*
X130678428Y-119425782D01*
G37*
D28*
X130187500Y-119750000D03*
D27*
G36*
X130678428Y-119925782D02*
G01*
X130694202Y-119928122D01*
X130709671Y-119931997D01*
X130724686Y-119937370D01*
X130739102Y-119944188D01*
X130752780Y-119952386D01*
X130765589Y-119961886D01*
X130777405Y-119972595D01*
X130788114Y-119984411D01*
X130797614Y-119997220D01*
X130805812Y-120010898D01*
X130812630Y-120025314D01*
X130818003Y-120040329D01*
X130821878Y-120055798D01*
X130824218Y-120071572D01*
X130825000Y-120087500D01*
X130825000Y-120412500D01*
X130824218Y-120428428D01*
X130821878Y-120444202D01*
X130818003Y-120459671D01*
X130812630Y-120474686D01*
X130805812Y-120489102D01*
X130797614Y-120502780D01*
X130788114Y-120515589D01*
X130777405Y-120527405D01*
X130765589Y-120538114D01*
X130752780Y-120547614D01*
X130739102Y-120555812D01*
X130724686Y-120562630D01*
X130709671Y-120568003D01*
X130694202Y-120571878D01*
X130678428Y-120574218D01*
X130662500Y-120575000D01*
X129712500Y-120575000D01*
X129696572Y-120574218D01*
X129680798Y-120571878D01*
X129665329Y-120568003D01*
X129650314Y-120562630D01*
X129635898Y-120555812D01*
X129622220Y-120547614D01*
X129609411Y-120538114D01*
X129597595Y-120527405D01*
X129586886Y-120515589D01*
X129577386Y-120502780D01*
X129569188Y-120489102D01*
X129562370Y-120474686D01*
X129556997Y-120459671D01*
X129553122Y-120444202D01*
X129550782Y-120428428D01*
X129550000Y-120412500D01*
X129550000Y-120087500D01*
X129550782Y-120071572D01*
X129553122Y-120055798D01*
X129556997Y-120040329D01*
X129562370Y-120025314D01*
X129569188Y-120010898D01*
X129577386Y-119997220D01*
X129586886Y-119984411D01*
X129597595Y-119972595D01*
X129609411Y-119961886D01*
X129622220Y-119952386D01*
X129635898Y-119944188D01*
X129650314Y-119937370D01*
X129665329Y-119931997D01*
X129680798Y-119928122D01*
X129696572Y-119925782D01*
X129712500Y-119925000D01*
X130662500Y-119925000D01*
X130678428Y-119925782D01*
X130678428Y-119925782D01*
G37*
D28*
X130187500Y-120250000D03*
D27*
G36*
X130678428Y-120425782D02*
G01*
X130694202Y-120428122D01*
X130709671Y-120431997D01*
X130724686Y-120437370D01*
X130739102Y-120444188D01*
X130752780Y-120452386D01*
X130765589Y-120461886D01*
X130777405Y-120472595D01*
X130788114Y-120484411D01*
X130797614Y-120497220D01*
X130805812Y-120510898D01*
X130812630Y-120525314D01*
X130818003Y-120540329D01*
X130821878Y-120555798D01*
X130824218Y-120571572D01*
X130825000Y-120587500D01*
X130825000Y-120912500D01*
X130824218Y-120928428D01*
X130821878Y-120944202D01*
X130818003Y-120959671D01*
X130812630Y-120974686D01*
X130805812Y-120989102D01*
X130797614Y-121002780D01*
X130788114Y-121015589D01*
X130777405Y-121027405D01*
X130765589Y-121038114D01*
X130752780Y-121047614D01*
X130739102Y-121055812D01*
X130724686Y-121062630D01*
X130709671Y-121068003D01*
X130694202Y-121071878D01*
X130678428Y-121074218D01*
X130662500Y-121075000D01*
X129712500Y-121075000D01*
X129696572Y-121074218D01*
X129680798Y-121071878D01*
X129665329Y-121068003D01*
X129650314Y-121062630D01*
X129635898Y-121055812D01*
X129622220Y-121047614D01*
X129609411Y-121038114D01*
X129597595Y-121027405D01*
X129586886Y-121015589D01*
X129577386Y-121002780D01*
X129569188Y-120989102D01*
X129562370Y-120974686D01*
X129556997Y-120959671D01*
X129553122Y-120944202D01*
X129550782Y-120928428D01*
X129550000Y-120912500D01*
X129550000Y-120587500D01*
X129550782Y-120571572D01*
X129553122Y-120555798D01*
X129556997Y-120540329D01*
X129562370Y-120525314D01*
X129569188Y-120510898D01*
X129577386Y-120497220D01*
X129586886Y-120484411D01*
X129597595Y-120472595D01*
X129609411Y-120461886D01*
X129622220Y-120452386D01*
X129635898Y-120444188D01*
X129650314Y-120437370D01*
X129665329Y-120431997D01*
X129680798Y-120428122D01*
X129696572Y-120425782D01*
X129712500Y-120425000D01*
X130662500Y-120425000D01*
X130678428Y-120425782D01*
X130678428Y-120425782D01*
G37*
D28*
X130187500Y-120750000D03*
D27*
G36*
X130678428Y-120925782D02*
G01*
X130694202Y-120928122D01*
X130709671Y-120931997D01*
X130724686Y-120937370D01*
X130739102Y-120944188D01*
X130752780Y-120952386D01*
X130765589Y-120961886D01*
X130777405Y-120972595D01*
X130788114Y-120984411D01*
X130797614Y-120997220D01*
X130805812Y-121010898D01*
X130812630Y-121025314D01*
X130818003Y-121040329D01*
X130821878Y-121055798D01*
X130824218Y-121071572D01*
X130825000Y-121087500D01*
X130825000Y-121412500D01*
X130824218Y-121428428D01*
X130821878Y-121444202D01*
X130818003Y-121459671D01*
X130812630Y-121474686D01*
X130805812Y-121489102D01*
X130797614Y-121502780D01*
X130788114Y-121515589D01*
X130777405Y-121527405D01*
X130765589Y-121538114D01*
X130752780Y-121547614D01*
X130739102Y-121555812D01*
X130724686Y-121562630D01*
X130709671Y-121568003D01*
X130694202Y-121571878D01*
X130678428Y-121574218D01*
X130662500Y-121575000D01*
X129712500Y-121575000D01*
X129696572Y-121574218D01*
X129680798Y-121571878D01*
X129665329Y-121568003D01*
X129650314Y-121562630D01*
X129635898Y-121555812D01*
X129622220Y-121547614D01*
X129609411Y-121538114D01*
X129597595Y-121527405D01*
X129586886Y-121515589D01*
X129577386Y-121502780D01*
X129569188Y-121489102D01*
X129562370Y-121474686D01*
X129556997Y-121459671D01*
X129553122Y-121444202D01*
X129550782Y-121428428D01*
X129550000Y-121412500D01*
X129550000Y-121087500D01*
X129550782Y-121071572D01*
X129553122Y-121055798D01*
X129556997Y-121040329D01*
X129562370Y-121025314D01*
X129569188Y-121010898D01*
X129577386Y-120997220D01*
X129586886Y-120984411D01*
X129597595Y-120972595D01*
X129609411Y-120961886D01*
X129622220Y-120952386D01*
X129635898Y-120944188D01*
X129650314Y-120937370D01*
X129665329Y-120931997D01*
X129680798Y-120928122D01*
X129696572Y-120925782D01*
X129712500Y-120925000D01*
X130662500Y-120925000D01*
X130678428Y-120925782D01*
X130678428Y-120925782D01*
G37*
D28*
X130187500Y-121250000D03*
D27*
G36*
X130678428Y-121425782D02*
G01*
X130694202Y-121428122D01*
X130709671Y-121431997D01*
X130724686Y-121437370D01*
X130739102Y-121444188D01*
X130752780Y-121452386D01*
X130765589Y-121461886D01*
X130777405Y-121472595D01*
X130788114Y-121484411D01*
X130797614Y-121497220D01*
X130805812Y-121510898D01*
X130812630Y-121525314D01*
X130818003Y-121540329D01*
X130821878Y-121555798D01*
X130824218Y-121571572D01*
X130825000Y-121587500D01*
X130825000Y-121912500D01*
X130824218Y-121928428D01*
X130821878Y-121944202D01*
X130818003Y-121959671D01*
X130812630Y-121974686D01*
X130805812Y-121989102D01*
X130797614Y-122002780D01*
X130788114Y-122015589D01*
X130777405Y-122027405D01*
X130765589Y-122038114D01*
X130752780Y-122047614D01*
X130739102Y-122055812D01*
X130724686Y-122062630D01*
X130709671Y-122068003D01*
X130694202Y-122071878D01*
X130678428Y-122074218D01*
X130662500Y-122075000D01*
X129712500Y-122075000D01*
X129696572Y-122074218D01*
X129680798Y-122071878D01*
X129665329Y-122068003D01*
X129650314Y-122062630D01*
X129635898Y-122055812D01*
X129622220Y-122047614D01*
X129609411Y-122038114D01*
X129597595Y-122027405D01*
X129586886Y-122015589D01*
X129577386Y-122002780D01*
X129569188Y-121989102D01*
X129562370Y-121974686D01*
X129556997Y-121959671D01*
X129553122Y-121944202D01*
X129550782Y-121928428D01*
X129550000Y-121912500D01*
X129550000Y-121587500D01*
X129550782Y-121571572D01*
X129553122Y-121555798D01*
X129556997Y-121540329D01*
X129562370Y-121525314D01*
X129569188Y-121510898D01*
X129577386Y-121497220D01*
X129586886Y-121484411D01*
X129597595Y-121472595D01*
X129609411Y-121461886D01*
X129622220Y-121452386D01*
X129635898Y-121444188D01*
X129650314Y-121437370D01*
X129665329Y-121431997D01*
X129680798Y-121428122D01*
X129696572Y-121425782D01*
X129712500Y-121425000D01*
X130662500Y-121425000D01*
X130678428Y-121425782D01*
X130678428Y-121425782D01*
G37*
D28*
X130187500Y-121750000D03*
D27*
G36*
X130678428Y-121925782D02*
G01*
X130694202Y-121928122D01*
X130709671Y-121931997D01*
X130724686Y-121937370D01*
X130739102Y-121944188D01*
X130752780Y-121952386D01*
X130765589Y-121961886D01*
X130777405Y-121972595D01*
X130788114Y-121984411D01*
X130797614Y-121997220D01*
X130805812Y-122010898D01*
X130812630Y-122025314D01*
X130818003Y-122040329D01*
X130821878Y-122055798D01*
X130824218Y-122071572D01*
X130825000Y-122087500D01*
X130825000Y-122412500D01*
X130824218Y-122428428D01*
X130821878Y-122444202D01*
X130818003Y-122459671D01*
X130812630Y-122474686D01*
X130805812Y-122489102D01*
X130797614Y-122502780D01*
X130788114Y-122515589D01*
X130777405Y-122527405D01*
X130765589Y-122538114D01*
X130752780Y-122547614D01*
X130739102Y-122555812D01*
X130724686Y-122562630D01*
X130709671Y-122568003D01*
X130694202Y-122571878D01*
X130678428Y-122574218D01*
X130662500Y-122575000D01*
X129712500Y-122575000D01*
X129696572Y-122574218D01*
X129680798Y-122571878D01*
X129665329Y-122568003D01*
X129650314Y-122562630D01*
X129635898Y-122555812D01*
X129622220Y-122547614D01*
X129609411Y-122538114D01*
X129597595Y-122527405D01*
X129586886Y-122515589D01*
X129577386Y-122502780D01*
X129569188Y-122489102D01*
X129562370Y-122474686D01*
X129556997Y-122459671D01*
X129553122Y-122444202D01*
X129550782Y-122428428D01*
X129550000Y-122412500D01*
X129550000Y-122087500D01*
X129550782Y-122071572D01*
X129553122Y-122055798D01*
X129556997Y-122040329D01*
X129562370Y-122025314D01*
X129569188Y-122010898D01*
X129577386Y-121997220D01*
X129586886Y-121984411D01*
X129597595Y-121972595D01*
X129609411Y-121961886D01*
X129622220Y-121952386D01*
X129635898Y-121944188D01*
X129650314Y-121937370D01*
X129665329Y-121931997D01*
X129680798Y-121928122D01*
X129696572Y-121925782D01*
X129712500Y-121925000D01*
X130662500Y-121925000D01*
X130678428Y-121925782D01*
X130678428Y-121925782D01*
G37*
D28*
X130187500Y-122250000D03*
D27*
G36*
X130678428Y-122425782D02*
G01*
X130694202Y-122428122D01*
X130709671Y-122431997D01*
X130724686Y-122437370D01*
X130739102Y-122444188D01*
X130752780Y-122452386D01*
X130765589Y-122461886D01*
X130777405Y-122472595D01*
X130788114Y-122484411D01*
X130797614Y-122497220D01*
X130805812Y-122510898D01*
X130812630Y-122525314D01*
X130818003Y-122540329D01*
X130821878Y-122555798D01*
X130824218Y-122571572D01*
X130825000Y-122587500D01*
X130825000Y-122912500D01*
X130824218Y-122928428D01*
X130821878Y-122944202D01*
X130818003Y-122959671D01*
X130812630Y-122974686D01*
X130805812Y-122989102D01*
X130797614Y-123002780D01*
X130788114Y-123015589D01*
X130777405Y-123027405D01*
X130765589Y-123038114D01*
X130752780Y-123047614D01*
X130739102Y-123055812D01*
X130724686Y-123062630D01*
X130709671Y-123068003D01*
X130694202Y-123071878D01*
X130678428Y-123074218D01*
X130662500Y-123075000D01*
X129712500Y-123075000D01*
X129696572Y-123074218D01*
X129680798Y-123071878D01*
X129665329Y-123068003D01*
X129650314Y-123062630D01*
X129635898Y-123055812D01*
X129622220Y-123047614D01*
X129609411Y-123038114D01*
X129597595Y-123027405D01*
X129586886Y-123015589D01*
X129577386Y-123002780D01*
X129569188Y-122989102D01*
X129562370Y-122974686D01*
X129556997Y-122959671D01*
X129553122Y-122944202D01*
X129550782Y-122928428D01*
X129550000Y-122912500D01*
X129550000Y-122587500D01*
X129550782Y-122571572D01*
X129553122Y-122555798D01*
X129556997Y-122540329D01*
X129562370Y-122525314D01*
X129569188Y-122510898D01*
X129577386Y-122497220D01*
X129586886Y-122484411D01*
X129597595Y-122472595D01*
X129609411Y-122461886D01*
X129622220Y-122452386D01*
X129635898Y-122444188D01*
X129650314Y-122437370D01*
X129665329Y-122431997D01*
X129680798Y-122428122D01*
X129696572Y-122425782D01*
X129712500Y-122425000D01*
X130662500Y-122425000D01*
X130678428Y-122425782D01*
X130678428Y-122425782D01*
G37*
D28*
X130187500Y-122750000D03*
D27*
G36*
X129678428Y-122800782D02*
G01*
X129694202Y-122803122D01*
X129709671Y-122806997D01*
X129724686Y-122812370D01*
X129739102Y-122819188D01*
X129752780Y-122827386D01*
X129765589Y-122836886D01*
X129777405Y-122847595D01*
X129788114Y-122859411D01*
X129797614Y-122872220D01*
X129805812Y-122885898D01*
X129812630Y-122900314D01*
X129818003Y-122915329D01*
X129821878Y-122930798D01*
X129824218Y-122946572D01*
X129825000Y-122962500D01*
X129825000Y-123912500D01*
X129824218Y-123928428D01*
X129821878Y-123944202D01*
X129818003Y-123959671D01*
X129812630Y-123974686D01*
X129805812Y-123989102D01*
X129797614Y-124002780D01*
X129788114Y-124015589D01*
X129777405Y-124027405D01*
X129765589Y-124038114D01*
X129752780Y-124047614D01*
X129739102Y-124055812D01*
X129724686Y-124062630D01*
X129709671Y-124068003D01*
X129694202Y-124071878D01*
X129678428Y-124074218D01*
X129662500Y-124075000D01*
X129337500Y-124075000D01*
X129321572Y-124074218D01*
X129305798Y-124071878D01*
X129290329Y-124068003D01*
X129275314Y-124062630D01*
X129260898Y-124055812D01*
X129247220Y-124047614D01*
X129234411Y-124038114D01*
X129222595Y-124027405D01*
X129211886Y-124015589D01*
X129202386Y-124002780D01*
X129194188Y-123989102D01*
X129187370Y-123974686D01*
X129181997Y-123959671D01*
X129178122Y-123944202D01*
X129175782Y-123928428D01*
X129175000Y-123912500D01*
X129175000Y-122962500D01*
X129175782Y-122946572D01*
X129178122Y-122930798D01*
X129181997Y-122915329D01*
X129187370Y-122900314D01*
X129194188Y-122885898D01*
X129202386Y-122872220D01*
X129211886Y-122859411D01*
X129222595Y-122847595D01*
X129234411Y-122836886D01*
X129247220Y-122827386D01*
X129260898Y-122819188D01*
X129275314Y-122812370D01*
X129290329Y-122806997D01*
X129305798Y-122803122D01*
X129321572Y-122800782D01*
X129337500Y-122800000D01*
X129662500Y-122800000D01*
X129678428Y-122800782D01*
X129678428Y-122800782D01*
G37*
D28*
X129500000Y-123437500D03*
D27*
G36*
X129178428Y-122800782D02*
G01*
X129194202Y-122803122D01*
X129209671Y-122806997D01*
X129224686Y-122812370D01*
X129239102Y-122819188D01*
X129252780Y-122827386D01*
X129265589Y-122836886D01*
X129277405Y-122847595D01*
X129288114Y-122859411D01*
X129297614Y-122872220D01*
X129305812Y-122885898D01*
X129312630Y-122900314D01*
X129318003Y-122915329D01*
X129321878Y-122930798D01*
X129324218Y-122946572D01*
X129325000Y-122962500D01*
X129325000Y-123912500D01*
X129324218Y-123928428D01*
X129321878Y-123944202D01*
X129318003Y-123959671D01*
X129312630Y-123974686D01*
X129305812Y-123989102D01*
X129297614Y-124002780D01*
X129288114Y-124015589D01*
X129277405Y-124027405D01*
X129265589Y-124038114D01*
X129252780Y-124047614D01*
X129239102Y-124055812D01*
X129224686Y-124062630D01*
X129209671Y-124068003D01*
X129194202Y-124071878D01*
X129178428Y-124074218D01*
X129162500Y-124075000D01*
X128837500Y-124075000D01*
X128821572Y-124074218D01*
X128805798Y-124071878D01*
X128790329Y-124068003D01*
X128775314Y-124062630D01*
X128760898Y-124055812D01*
X128747220Y-124047614D01*
X128734411Y-124038114D01*
X128722595Y-124027405D01*
X128711886Y-124015589D01*
X128702386Y-124002780D01*
X128694188Y-123989102D01*
X128687370Y-123974686D01*
X128681997Y-123959671D01*
X128678122Y-123944202D01*
X128675782Y-123928428D01*
X128675000Y-123912500D01*
X128675000Y-122962500D01*
X128675782Y-122946572D01*
X128678122Y-122930798D01*
X128681997Y-122915329D01*
X128687370Y-122900314D01*
X128694188Y-122885898D01*
X128702386Y-122872220D01*
X128711886Y-122859411D01*
X128722595Y-122847595D01*
X128734411Y-122836886D01*
X128747220Y-122827386D01*
X128760898Y-122819188D01*
X128775314Y-122812370D01*
X128790329Y-122806997D01*
X128805798Y-122803122D01*
X128821572Y-122800782D01*
X128837500Y-122800000D01*
X129162500Y-122800000D01*
X129178428Y-122800782D01*
X129178428Y-122800782D01*
G37*
D28*
X129000000Y-123437500D03*
D27*
G36*
X128678428Y-122800782D02*
G01*
X128694202Y-122803122D01*
X128709671Y-122806997D01*
X128724686Y-122812370D01*
X128739102Y-122819188D01*
X128752780Y-122827386D01*
X128765589Y-122836886D01*
X128777405Y-122847595D01*
X128788114Y-122859411D01*
X128797614Y-122872220D01*
X128805812Y-122885898D01*
X128812630Y-122900314D01*
X128818003Y-122915329D01*
X128821878Y-122930798D01*
X128824218Y-122946572D01*
X128825000Y-122962500D01*
X128825000Y-123912500D01*
X128824218Y-123928428D01*
X128821878Y-123944202D01*
X128818003Y-123959671D01*
X128812630Y-123974686D01*
X128805812Y-123989102D01*
X128797614Y-124002780D01*
X128788114Y-124015589D01*
X128777405Y-124027405D01*
X128765589Y-124038114D01*
X128752780Y-124047614D01*
X128739102Y-124055812D01*
X128724686Y-124062630D01*
X128709671Y-124068003D01*
X128694202Y-124071878D01*
X128678428Y-124074218D01*
X128662500Y-124075000D01*
X128337500Y-124075000D01*
X128321572Y-124074218D01*
X128305798Y-124071878D01*
X128290329Y-124068003D01*
X128275314Y-124062630D01*
X128260898Y-124055812D01*
X128247220Y-124047614D01*
X128234411Y-124038114D01*
X128222595Y-124027405D01*
X128211886Y-124015589D01*
X128202386Y-124002780D01*
X128194188Y-123989102D01*
X128187370Y-123974686D01*
X128181997Y-123959671D01*
X128178122Y-123944202D01*
X128175782Y-123928428D01*
X128175000Y-123912500D01*
X128175000Y-122962500D01*
X128175782Y-122946572D01*
X128178122Y-122930798D01*
X128181997Y-122915329D01*
X128187370Y-122900314D01*
X128194188Y-122885898D01*
X128202386Y-122872220D01*
X128211886Y-122859411D01*
X128222595Y-122847595D01*
X128234411Y-122836886D01*
X128247220Y-122827386D01*
X128260898Y-122819188D01*
X128275314Y-122812370D01*
X128290329Y-122806997D01*
X128305798Y-122803122D01*
X128321572Y-122800782D01*
X128337500Y-122800000D01*
X128662500Y-122800000D01*
X128678428Y-122800782D01*
X128678428Y-122800782D01*
G37*
D28*
X128500000Y-123437500D03*
D27*
G36*
X128178428Y-122800782D02*
G01*
X128194202Y-122803122D01*
X128209671Y-122806997D01*
X128224686Y-122812370D01*
X128239102Y-122819188D01*
X128252780Y-122827386D01*
X128265589Y-122836886D01*
X128277405Y-122847595D01*
X128288114Y-122859411D01*
X128297614Y-122872220D01*
X128305812Y-122885898D01*
X128312630Y-122900314D01*
X128318003Y-122915329D01*
X128321878Y-122930798D01*
X128324218Y-122946572D01*
X128325000Y-122962500D01*
X128325000Y-123912500D01*
X128324218Y-123928428D01*
X128321878Y-123944202D01*
X128318003Y-123959671D01*
X128312630Y-123974686D01*
X128305812Y-123989102D01*
X128297614Y-124002780D01*
X128288114Y-124015589D01*
X128277405Y-124027405D01*
X128265589Y-124038114D01*
X128252780Y-124047614D01*
X128239102Y-124055812D01*
X128224686Y-124062630D01*
X128209671Y-124068003D01*
X128194202Y-124071878D01*
X128178428Y-124074218D01*
X128162500Y-124075000D01*
X127837500Y-124075000D01*
X127821572Y-124074218D01*
X127805798Y-124071878D01*
X127790329Y-124068003D01*
X127775314Y-124062630D01*
X127760898Y-124055812D01*
X127747220Y-124047614D01*
X127734411Y-124038114D01*
X127722595Y-124027405D01*
X127711886Y-124015589D01*
X127702386Y-124002780D01*
X127694188Y-123989102D01*
X127687370Y-123974686D01*
X127681997Y-123959671D01*
X127678122Y-123944202D01*
X127675782Y-123928428D01*
X127675000Y-123912500D01*
X127675000Y-122962500D01*
X127675782Y-122946572D01*
X127678122Y-122930798D01*
X127681997Y-122915329D01*
X127687370Y-122900314D01*
X127694188Y-122885898D01*
X127702386Y-122872220D01*
X127711886Y-122859411D01*
X127722595Y-122847595D01*
X127734411Y-122836886D01*
X127747220Y-122827386D01*
X127760898Y-122819188D01*
X127775314Y-122812370D01*
X127790329Y-122806997D01*
X127805798Y-122803122D01*
X127821572Y-122800782D01*
X127837500Y-122800000D01*
X128162500Y-122800000D01*
X128178428Y-122800782D01*
X128178428Y-122800782D01*
G37*
D28*
X128000000Y-123437500D03*
D27*
G36*
X127678428Y-122800782D02*
G01*
X127694202Y-122803122D01*
X127709671Y-122806997D01*
X127724686Y-122812370D01*
X127739102Y-122819188D01*
X127752780Y-122827386D01*
X127765589Y-122836886D01*
X127777405Y-122847595D01*
X127788114Y-122859411D01*
X127797614Y-122872220D01*
X127805812Y-122885898D01*
X127812630Y-122900314D01*
X127818003Y-122915329D01*
X127821878Y-122930798D01*
X127824218Y-122946572D01*
X127825000Y-122962500D01*
X127825000Y-123912500D01*
X127824218Y-123928428D01*
X127821878Y-123944202D01*
X127818003Y-123959671D01*
X127812630Y-123974686D01*
X127805812Y-123989102D01*
X127797614Y-124002780D01*
X127788114Y-124015589D01*
X127777405Y-124027405D01*
X127765589Y-124038114D01*
X127752780Y-124047614D01*
X127739102Y-124055812D01*
X127724686Y-124062630D01*
X127709671Y-124068003D01*
X127694202Y-124071878D01*
X127678428Y-124074218D01*
X127662500Y-124075000D01*
X127337500Y-124075000D01*
X127321572Y-124074218D01*
X127305798Y-124071878D01*
X127290329Y-124068003D01*
X127275314Y-124062630D01*
X127260898Y-124055812D01*
X127247220Y-124047614D01*
X127234411Y-124038114D01*
X127222595Y-124027405D01*
X127211886Y-124015589D01*
X127202386Y-124002780D01*
X127194188Y-123989102D01*
X127187370Y-123974686D01*
X127181997Y-123959671D01*
X127178122Y-123944202D01*
X127175782Y-123928428D01*
X127175000Y-123912500D01*
X127175000Y-122962500D01*
X127175782Y-122946572D01*
X127178122Y-122930798D01*
X127181997Y-122915329D01*
X127187370Y-122900314D01*
X127194188Y-122885898D01*
X127202386Y-122872220D01*
X127211886Y-122859411D01*
X127222595Y-122847595D01*
X127234411Y-122836886D01*
X127247220Y-122827386D01*
X127260898Y-122819188D01*
X127275314Y-122812370D01*
X127290329Y-122806997D01*
X127305798Y-122803122D01*
X127321572Y-122800782D01*
X127337500Y-122800000D01*
X127662500Y-122800000D01*
X127678428Y-122800782D01*
X127678428Y-122800782D01*
G37*
D28*
X127500000Y-123437500D03*
D27*
G36*
X127178428Y-122800782D02*
G01*
X127194202Y-122803122D01*
X127209671Y-122806997D01*
X127224686Y-122812370D01*
X127239102Y-122819188D01*
X127252780Y-122827386D01*
X127265589Y-122836886D01*
X127277405Y-122847595D01*
X127288114Y-122859411D01*
X127297614Y-122872220D01*
X127305812Y-122885898D01*
X127312630Y-122900314D01*
X127318003Y-122915329D01*
X127321878Y-122930798D01*
X127324218Y-122946572D01*
X127325000Y-122962500D01*
X127325000Y-123912500D01*
X127324218Y-123928428D01*
X127321878Y-123944202D01*
X127318003Y-123959671D01*
X127312630Y-123974686D01*
X127305812Y-123989102D01*
X127297614Y-124002780D01*
X127288114Y-124015589D01*
X127277405Y-124027405D01*
X127265589Y-124038114D01*
X127252780Y-124047614D01*
X127239102Y-124055812D01*
X127224686Y-124062630D01*
X127209671Y-124068003D01*
X127194202Y-124071878D01*
X127178428Y-124074218D01*
X127162500Y-124075000D01*
X126837500Y-124075000D01*
X126821572Y-124074218D01*
X126805798Y-124071878D01*
X126790329Y-124068003D01*
X126775314Y-124062630D01*
X126760898Y-124055812D01*
X126747220Y-124047614D01*
X126734411Y-124038114D01*
X126722595Y-124027405D01*
X126711886Y-124015589D01*
X126702386Y-124002780D01*
X126694188Y-123989102D01*
X126687370Y-123974686D01*
X126681997Y-123959671D01*
X126678122Y-123944202D01*
X126675782Y-123928428D01*
X126675000Y-123912500D01*
X126675000Y-122962500D01*
X126675782Y-122946572D01*
X126678122Y-122930798D01*
X126681997Y-122915329D01*
X126687370Y-122900314D01*
X126694188Y-122885898D01*
X126702386Y-122872220D01*
X126711886Y-122859411D01*
X126722595Y-122847595D01*
X126734411Y-122836886D01*
X126747220Y-122827386D01*
X126760898Y-122819188D01*
X126775314Y-122812370D01*
X126790329Y-122806997D01*
X126805798Y-122803122D01*
X126821572Y-122800782D01*
X126837500Y-122800000D01*
X127162500Y-122800000D01*
X127178428Y-122800782D01*
X127178428Y-122800782D01*
G37*
D28*
X127000000Y-123437500D03*
D27*
G36*
X126678428Y-122800782D02*
G01*
X126694202Y-122803122D01*
X126709671Y-122806997D01*
X126724686Y-122812370D01*
X126739102Y-122819188D01*
X126752780Y-122827386D01*
X126765589Y-122836886D01*
X126777405Y-122847595D01*
X126788114Y-122859411D01*
X126797614Y-122872220D01*
X126805812Y-122885898D01*
X126812630Y-122900314D01*
X126818003Y-122915329D01*
X126821878Y-122930798D01*
X126824218Y-122946572D01*
X126825000Y-122962500D01*
X126825000Y-123912500D01*
X126824218Y-123928428D01*
X126821878Y-123944202D01*
X126818003Y-123959671D01*
X126812630Y-123974686D01*
X126805812Y-123989102D01*
X126797614Y-124002780D01*
X126788114Y-124015589D01*
X126777405Y-124027405D01*
X126765589Y-124038114D01*
X126752780Y-124047614D01*
X126739102Y-124055812D01*
X126724686Y-124062630D01*
X126709671Y-124068003D01*
X126694202Y-124071878D01*
X126678428Y-124074218D01*
X126662500Y-124075000D01*
X126337500Y-124075000D01*
X126321572Y-124074218D01*
X126305798Y-124071878D01*
X126290329Y-124068003D01*
X126275314Y-124062630D01*
X126260898Y-124055812D01*
X126247220Y-124047614D01*
X126234411Y-124038114D01*
X126222595Y-124027405D01*
X126211886Y-124015589D01*
X126202386Y-124002780D01*
X126194188Y-123989102D01*
X126187370Y-123974686D01*
X126181997Y-123959671D01*
X126178122Y-123944202D01*
X126175782Y-123928428D01*
X126175000Y-123912500D01*
X126175000Y-122962500D01*
X126175782Y-122946572D01*
X126178122Y-122930798D01*
X126181997Y-122915329D01*
X126187370Y-122900314D01*
X126194188Y-122885898D01*
X126202386Y-122872220D01*
X126211886Y-122859411D01*
X126222595Y-122847595D01*
X126234411Y-122836886D01*
X126247220Y-122827386D01*
X126260898Y-122819188D01*
X126275314Y-122812370D01*
X126290329Y-122806997D01*
X126305798Y-122803122D01*
X126321572Y-122800782D01*
X126337500Y-122800000D01*
X126662500Y-122800000D01*
X126678428Y-122800782D01*
X126678428Y-122800782D01*
G37*
D28*
X126500000Y-123437500D03*
D27*
G36*
X126178428Y-122800782D02*
G01*
X126194202Y-122803122D01*
X126209671Y-122806997D01*
X126224686Y-122812370D01*
X126239102Y-122819188D01*
X126252780Y-122827386D01*
X126265589Y-122836886D01*
X126277405Y-122847595D01*
X126288114Y-122859411D01*
X126297614Y-122872220D01*
X126305812Y-122885898D01*
X126312630Y-122900314D01*
X126318003Y-122915329D01*
X126321878Y-122930798D01*
X126324218Y-122946572D01*
X126325000Y-122962500D01*
X126325000Y-123912500D01*
X126324218Y-123928428D01*
X126321878Y-123944202D01*
X126318003Y-123959671D01*
X126312630Y-123974686D01*
X126305812Y-123989102D01*
X126297614Y-124002780D01*
X126288114Y-124015589D01*
X126277405Y-124027405D01*
X126265589Y-124038114D01*
X126252780Y-124047614D01*
X126239102Y-124055812D01*
X126224686Y-124062630D01*
X126209671Y-124068003D01*
X126194202Y-124071878D01*
X126178428Y-124074218D01*
X126162500Y-124075000D01*
X125837500Y-124075000D01*
X125821572Y-124074218D01*
X125805798Y-124071878D01*
X125790329Y-124068003D01*
X125775314Y-124062630D01*
X125760898Y-124055812D01*
X125747220Y-124047614D01*
X125734411Y-124038114D01*
X125722595Y-124027405D01*
X125711886Y-124015589D01*
X125702386Y-124002780D01*
X125694188Y-123989102D01*
X125687370Y-123974686D01*
X125681997Y-123959671D01*
X125678122Y-123944202D01*
X125675782Y-123928428D01*
X125675000Y-123912500D01*
X125675000Y-122962500D01*
X125675782Y-122946572D01*
X125678122Y-122930798D01*
X125681997Y-122915329D01*
X125687370Y-122900314D01*
X125694188Y-122885898D01*
X125702386Y-122872220D01*
X125711886Y-122859411D01*
X125722595Y-122847595D01*
X125734411Y-122836886D01*
X125747220Y-122827386D01*
X125760898Y-122819188D01*
X125775314Y-122812370D01*
X125790329Y-122806997D01*
X125805798Y-122803122D01*
X125821572Y-122800782D01*
X125837500Y-122800000D01*
X126162500Y-122800000D01*
X126178428Y-122800782D01*
X126178428Y-122800782D01*
G37*
D28*
X126000000Y-123437500D03*
D27*
G36*
X125803428Y-122425782D02*
G01*
X125819202Y-122428122D01*
X125834671Y-122431997D01*
X125849686Y-122437370D01*
X125864102Y-122444188D01*
X125877780Y-122452386D01*
X125890589Y-122461886D01*
X125902405Y-122472595D01*
X125913114Y-122484411D01*
X125922614Y-122497220D01*
X125930812Y-122510898D01*
X125937630Y-122525314D01*
X125943003Y-122540329D01*
X125946878Y-122555798D01*
X125949218Y-122571572D01*
X125950000Y-122587500D01*
X125950000Y-122912500D01*
X125949218Y-122928428D01*
X125946878Y-122944202D01*
X125943003Y-122959671D01*
X125937630Y-122974686D01*
X125930812Y-122989102D01*
X125922614Y-123002780D01*
X125913114Y-123015589D01*
X125902405Y-123027405D01*
X125890589Y-123038114D01*
X125877780Y-123047614D01*
X125864102Y-123055812D01*
X125849686Y-123062630D01*
X125834671Y-123068003D01*
X125819202Y-123071878D01*
X125803428Y-123074218D01*
X125787500Y-123075000D01*
X124837500Y-123075000D01*
X124821572Y-123074218D01*
X124805798Y-123071878D01*
X124790329Y-123068003D01*
X124775314Y-123062630D01*
X124760898Y-123055812D01*
X124747220Y-123047614D01*
X124734411Y-123038114D01*
X124722595Y-123027405D01*
X124711886Y-123015589D01*
X124702386Y-123002780D01*
X124694188Y-122989102D01*
X124687370Y-122974686D01*
X124681997Y-122959671D01*
X124678122Y-122944202D01*
X124675782Y-122928428D01*
X124675000Y-122912500D01*
X124675000Y-122587500D01*
X124675782Y-122571572D01*
X124678122Y-122555798D01*
X124681997Y-122540329D01*
X124687370Y-122525314D01*
X124694188Y-122510898D01*
X124702386Y-122497220D01*
X124711886Y-122484411D01*
X124722595Y-122472595D01*
X124734411Y-122461886D01*
X124747220Y-122452386D01*
X124760898Y-122444188D01*
X124775314Y-122437370D01*
X124790329Y-122431997D01*
X124805798Y-122428122D01*
X124821572Y-122425782D01*
X124837500Y-122425000D01*
X125787500Y-122425000D01*
X125803428Y-122425782D01*
X125803428Y-122425782D01*
G37*
D28*
X125312500Y-122750000D03*
D27*
G36*
X125803428Y-121925782D02*
G01*
X125819202Y-121928122D01*
X125834671Y-121931997D01*
X125849686Y-121937370D01*
X125864102Y-121944188D01*
X125877780Y-121952386D01*
X125890589Y-121961886D01*
X125902405Y-121972595D01*
X125913114Y-121984411D01*
X125922614Y-121997220D01*
X125930812Y-122010898D01*
X125937630Y-122025314D01*
X125943003Y-122040329D01*
X125946878Y-122055798D01*
X125949218Y-122071572D01*
X125950000Y-122087500D01*
X125950000Y-122412500D01*
X125949218Y-122428428D01*
X125946878Y-122444202D01*
X125943003Y-122459671D01*
X125937630Y-122474686D01*
X125930812Y-122489102D01*
X125922614Y-122502780D01*
X125913114Y-122515589D01*
X125902405Y-122527405D01*
X125890589Y-122538114D01*
X125877780Y-122547614D01*
X125864102Y-122555812D01*
X125849686Y-122562630D01*
X125834671Y-122568003D01*
X125819202Y-122571878D01*
X125803428Y-122574218D01*
X125787500Y-122575000D01*
X124837500Y-122575000D01*
X124821572Y-122574218D01*
X124805798Y-122571878D01*
X124790329Y-122568003D01*
X124775314Y-122562630D01*
X124760898Y-122555812D01*
X124747220Y-122547614D01*
X124734411Y-122538114D01*
X124722595Y-122527405D01*
X124711886Y-122515589D01*
X124702386Y-122502780D01*
X124694188Y-122489102D01*
X124687370Y-122474686D01*
X124681997Y-122459671D01*
X124678122Y-122444202D01*
X124675782Y-122428428D01*
X124675000Y-122412500D01*
X124675000Y-122087500D01*
X124675782Y-122071572D01*
X124678122Y-122055798D01*
X124681997Y-122040329D01*
X124687370Y-122025314D01*
X124694188Y-122010898D01*
X124702386Y-121997220D01*
X124711886Y-121984411D01*
X124722595Y-121972595D01*
X124734411Y-121961886D01*
X124747220Y-121952386D01*
X124760898Y-121944188D01*
X124775314Y-121937370D01*
X124790329Y-121931997D01*
X124805798Y-121928122D01*
X124821572Y-121925782D01*
X124837500Y-121925000D01*
X125787500Y-121925000D01*
X125803428Y-121925782D01*
X125803428Y-121925782D01*
G37*
D28*
X125312500Y-122250000D03*
D27*
G36*
X125803428Y-121425782D02*
G01*
X125819202Y-121428122D01*
X125834671Y-121431997D01*
X125849686Y-121437370D01*
X125864102Y-121444188D01*
X125877780Y-121452386D01*
X125890589Y-121461886D01*
X125902405Y-121472595D01*
X125913114Y-121484411D01*
X125922614Y-121497220D01*
X125930812Y-121510898D01*
X125937630Y-121525314D01*
X125943003Y-121540329D01*
X125946878Y-121555798D01*
X125949218Y-121571572D01*
X125950000Y-121587500D01*
X125950000Y-121912500D01*
X125949218Y-121928428D01*
X125946878Y-121944202D01*
X125943003Y-121959671D01*
X125937630Y-121974686D01*
X125930812Y-121989102D01*
X125922614Y-122002780D01*
X125913114Y-122015589D01*
X125902405Y-122027405D01*
X125890589Y-122038114D01*
X125877780Y-122047614D01*
X125864102Y-122055812D01*
X125849686Y-122062630D01*
X125834671Y-122068003D01*
X125819202Y-122071878D01*
X125803428Y-122074218D01*
X125787500Y-122075000D01*
X124837500Y-122075000D01*
X124821572Y-122074218D01*
X124805798Y-122071878D01*
X124790329Y-122068003D01*
X124775314Y-122062630D01*
X124760898Y-122055812D01*
X124747220Y-122047614D01*
X124734411Y-122038114D01*
X124722595Y-122027405D01*
X124711886Y-122015589D01*
X124702386Y-122002780D01*
X124694188Y-121989102D01*
X124687370Y-121974686D01*
X124681997Y-121959671D01*
X124678122Y-121944202D01*
X124675782Y-121928428D01*
X124675000Y-121912500D01*
X124675000Y-121587500D01*
X124675782Y-121571572D01*
X124678122Y-121555798D01*
X124681997Y-121540329D01*
X124687370Y-121525314D01*
X124694188Y-121510898D01*
X124702386Y-121497220D01*
X124711886Y-121484411D01*
X124722595Y-121472595D01*
X124734411Y-121461886D01*
X124747220Y-121452386D01*
X124760898Y-121444188D01*
X124775314Y-121437370D01*
X124790329Y-121431997D01*
X124805798Y-121428122D01*
X124821572Y-121425782D01*
X124837500Y-121425000D01*
X125787500Y-121425000D01*
X125803428Y-121425782D01*
X125803428Y-121425782D01*
G37*
D28*
X125312500Y-121750000D03*
D27*
G36*
X125803428Y-120925782D02*
G01*
X125819202Y-120928122D01*
X125834671Y-120931997D01*
X125849686Y-120937370D01*
X125864102Y-120944188D01*
X125877780Y-120952386D01*
X125890589Y-120961886D01*
X125902405Y-120972595D01*
X125913114Y-120984411D01*
X125922614Y-120997220D01*
X125930812Y-121010898D01*
X125937630Y-121025314D01*
X125943003Y-121040329D01*
X125946878Y-121055798D01*
X125949218Y-121071572D01*
X125950000Y-121087500D01*
X125950000Y-121412500D01*
X125949218Y-121428428D01*
X125946878Y-121444202D01*
X125943003Y-121459671D01*
X125937630Y-121474686D01*
X125930812Y-121489102D01*
X125922614Y-121502780D01*
X125913114Y-121515589D01*
X125902405Y-121527405D01*
X125890589Y-121538114D01*
X125877780Y-121547614D01*
X125864102Y-121555812D01*
X125849686Y-121562630D01*
X125834671Y-121568003D01*
X125819202Y-121571878D01*
X125803428Y-121574218D01*
X125787500Y-121575000D01*
X124837500Y-121575000D01*
X124821572Y-121574218D01*
X124805798Y-121571878D01*
X124790329Y-121568003D01*
X124775314Y-121562630D01*
X124760898Y-121555812D01*
X124747220Y-121547614D01*
X124734411Y-121538114D01*
X124722595Y-121527405D01*
X124711886Y-121515589D01*
X124702386Y-121502780D01*
X124694188Y-121489102D01*
X124687370Y-121474686D01*
X124681997Y-121459671D01*
X124678122Y-121444202D01*
X124675782Y-121428428D01*
X124675000Y-121412500D01*
X124675000Y-121087500D01*
X124675782Y-121071572D01*
X124678122Y-121055798D01*
X124681997Y-121040329D01*
X124687370Y-121025314D01*
X124694188Y-121010898D01*
X124702386Y-120997220D01*
X124711886Y-120984411D01*
X124722595Y-120972595D01*
X124734411Y-120961886D01*
X124747220Y-120952386D01*
X124760898Y-120944188D01*
X124775314Y-120937370D01*
X124790329Y-120931997D01*
X124805798Y-120928122D01*
X124821572Y-120925782D01*
X124837500Y-120925000D01*
X125787500Y-120925000D01*
X125803428Y-120925782D01*
X125803428Y-120925782D01*
G37*
D28*
X125312500Y-121250000D03*
D27*
G36*
X125803428Y-120425782D02*
G01*
X125819202Y-120428122D01*
X125834671Y-120431997D01*
X125849686Y-120437370D01*
X125864102Y-120444188D01*
X125877780Y-120452386D01*
X125890589Y-120461886D01*
X125902405Y-120472595D01*
X125913114Y-120484411D01*
X125922614Y-120497220D01*
X125930812Y-120510898D01*
X125937630Y-120525314D01*
X125943003Y-120540329D01*
X125946878Y-120555798D01*
X125949218Y-120571572D01*
X125950000Y-120587500D01*
X125950000Y-120912500D01*
X125949218Y-120928428D01*
X125946878Y-120944202D01*
X125943003Y-120959671D01*
X125937630Y-120974686D01*
X125930812Y-120989102D01*
X125922614Y-121002780D01*
X125913114Y-121015589D01*
X125902405Y-121027405D01*
X125890589Y-121038114D01*
X125877780Y-121047614D01*
X125864102Y-121055812D01*
X125849686Y-121062630D01*
X125834671Y-121068003D01*
X125819202Y-121071878D01*
X125803428Y-121074218D01*
X125787500Y-121075000D01*
X124837500Y-121075000D01*
X124821572Y-121074218D01*
X124805798Y-121071878D01*
X124790329Y-121068003D01*
X124775314Y-121062630D01*
X124760898Y-121055812D01*
X124747220Y-121047614D01*
X124734411Y-121038114D01*
X124722595Y-121027405D01*
X124711886Y-121015589D01*
X124702386Y-121002780D01*
X124694188Y-120989102D01*
X124687370Y-120974686D01*
X124681997Y-120959671D01*
X124678122Y-120944202D01*
X124675782Y-120928428D01*
X124675000Y-120912500D01*
X124675000Y-120587500D01*
X124675782Y-120571572D01*
X124678122Y-120555798D01*
X124681997Y-120540329D01*
X124687370Y-120525314D01*
X124694188Y-120510898D01*
X124702386Y-120497220D01*
X124711886Y-120484411D01*
X124722595Y-120472595D01*
X124734411Y-120461886D01*
X124747220Y-120452386D01*
X124760898Y-120444188D01*
X124775314Y-120437370D01*
X124790329Y-120431997D01*
X124805798Y-120428122D01*
X124821572Y-120425782D01*
X124837500Y-120425000D01*
X125787500Y-120425000D01*
X125803428Y-120425782D01*
X125803428Y-120425782D01*
G37*
D28*
X125312500Y-120750000D03*
D27*
G36*
X125803428Y-119925782D02*
G01*
X125819202Y-119928122D01*
X125834671Y-119931997D01*
X125849686Y-119937370D01*
X125864102Y-119944188D01*
X125877780Y-119952386D01*
X125890589Y-119961886D01*
X125902405Y-119972595D01*
X125913114Y-119984411D01*
X125922614Y-119997220D01*
X125930812Y-120010898D01*
X125937630Y-120025314D01*
X125943003Y-120040329D01*
X125946878Y-120055798D01*
X125949218Y-120071572D01*
X125950000Y-120087500D01*
X125950000Y-120412500D01*
X125949218Y-120428428D01*
X125946878Y-120444202D01*
X125943003Y-120459671D01*
X125937630Y-120474686D01*
X125930812Y-120489102D01*
X125922614Y-120502780D01*
X125913114Y-120515589D01*
X125902405Y-120527405D01*
X125890589Y-120538114D01*
X125877780Y-120547614D01*
X125864102Y-120555812D01*
X125849686Y-120562630D01*
X125834671Y-120568003D01*
X125819202Y-120571878D01*
X125803428Y-120574218D01*
X125787500Y-120575000D01*
X124837500Y-120575000D01*
X124821572Y-120574218D01*
X124805798Y-120571878D01*
X124790329Y-120568003D01*
X124775314Y-120562630D01*
X124760898Y-120555812D01*
X124747220Y-120547614D01*
X124734411Y-120538114D01*
X124722595Y-120527405D01*
X124711886Y-120515589D01*
X124702386Y-120502780D01*
X124694188Y-120489102D01*
X124687370Y-120474686D01*
X124681997Y-120459671D01*
X124678122Y-120444202D01*
X124675782Y-120428428D01*
X124675000Y-120412500D01*
X124675000Y-120087500D01*
X124675782Y-120071572D01*
X124678122Y-120055798D01*
X124681997Y-120040329D01*
X124687370Y-120025314D01*
X124694188Y-120010898D01*
X124702386Y-119997220D01*
X124711886Y-119984411D01*
X124722595Y-119972595D01*
X124734411Y-119961886D01*
X124747220Y-119952386D01*
X124760898Y-119944188D01*
X124775314Y-119937370D01*
X124790329Y-119931997D01*
X124805798Y-119928122D01*
X124821572Y-119925782D01*
X124837500Y-119925000D01*
X125787500Y-119925000D01*
X125803428Y-119925782D01*
X125803428Y-119925782D01*
G37*
D28*
X125312500Y-120250000D03*
D27*
G36*
X125803428Y-119425782D02*
G01*
X125819202Y-119428122D01*
X125834671Y-119431997D01*
X125849686Y-119437370D01*
X125864102Y-119444188D01*
X125877780Y-119452386D01*
X125890589Y-119461886D01*
X125902405Y-119472595D01*
X125913114Y-119484411D01*
X125922614Y-119497220D01*
X125930812Y-119510898D01*
X125937630Y-119525314D01*
X125943003Y-119540329D01*
X125946878Y-119555798D01*
X125949218Y-119571572D01*
X125950000Y-119587500D01*
X125950000Y-119912500D01*
X125949218Y-119928428D01*
X125946878Y-119944202D01*
X125943003Y-119959671D01*
X125937630Y-119974686D01*
X125930812Y-119989102D01*
X125922614Y-120002780D01*
X125913114Y-120015589D01*
X125902405Y-120027405D01*
X125890589Y-120038114D01*
X125877780Y-120047614D01*
X125864102Y-120055812D01*
X125849686Y-120062630D01*
X125834671Y-120068003D01*
X125819202Y-120071878D01*
X125803428Y-120074218D01*
X125787500Y-120075000D01*
X124837500Y-120075000D01*
X124821572Y-120074218D01*
X124805798Y-120071878D01*
X124790329Y-120068003D01*
X124775314Y-120062630D01*
X124760898Y-120055812D01*
X124747220Y-120047614D01*
X124734411Y-120038114D01*
X124722595Y-120027405D01*
X124711886Y-120015589D01*
X124702386Y-120002780D01*
X124694188Y-119989102D01*
X124687370Y-119974686D01*
X124681997Y-119959671D01*
X124678122Y-119944202D01*
X124675782Y-119928428D01*
X124675000Y-119912500D01*
X124675000Y-119587500D01*
X124675782Y-119571572D01*
X124678122Y-119555798D01*
X124681997Y-119540329D01*
X124687370Y-119525314D01*
X124694188Y-119510898D01*
X124702386Y-119497220D01*
X124711886Y-119484411D01*
X124722595Y-119472595D01*
X124734411Y-119461886D01*
X124747220Y-119452386D01*
X124760898Y-119444188D01*
X124775314Y-119437370D01*
X124790329Y-119431997D01*
X124805798Y-119428122D01*
X124821572Y-119425782D01*
X124837500Y-119425000D01*
X125787500Y-119425000D01*
X125803428Y-119425782D01*
X125803428Y-119425782D01*
G37*
D28*
X125312500Y-119750000D03*
D27*
G36*
X125803428Y-118925782D02*
G01*
X125819202Y-118928122D01*
X125834671Y-118931997D01*
X125849686Y-118937370D01*
X125864102Y-118944188D01*
X125877780Y-118952386D01*
X125890589Y-118961886D01*
X125902405Y-118972595D01*
X125913114Y-118984411D01*
X125922614Y-118997220D01*
X125930812Y-119010898D01*
X125937630Y-119025314D01*
X125943003Y-119040329D01*
X125946878Y-119055798D01*
X125949218Y-119071572D01*
X125950000Y-119087500D01*
X125950000Y-119412500D01*
X125949218Y-119428428D01*
X125946878Y-119444202D01*
X125943003Y-119459671D01*
X125937630Y-119474686D01*
X125930812Y-119489102D01*
X125922614Y-119502780D01*
X125913114Y-119515589D01*
X125902405Y-119527405D01*
X125890589Y-119538114D01*
X125877780Y-119547614D01*
X125864102Y-119555812D01*
X125849686Y-119562630D01*
X125834671Y-119568003D01*
X125819202Y-119571878D01*
X125803428Y-119574218D01*
X125787500Y-119575000D01*
X124837500Y-119575000D01*
X124821572Y-119574218D01*
X124805798Y-119571878D01*
X124790329Y-119568003D01*
X124775314Y-119562630D01*
X124760898Y-119555812D01*
X124747220Y-119547614D01*
X124734411Y-119538114D01*
X124722595Y-119527405D01*
X124711886Y-119515589D01*
X124702386Y-119502780D01*
X124694188Y-119489102D01*
X124687370Y-119474686D01*
X124681997Y-119459671D01*
X124678122Y-119444202D01*
X124675782Y-119428428D01*
X124675000Y-119412500D01*
X124675000Y-119087500D01*
X124675782Y-119071572D01*
X124678122Y-119055798D01*
X124681997Y-119040329D01*
X124687370Y-119025314D01*
X124694188Y-119010898D01*
X124702386Y-118997220D01*
X124711886Y-118984411D01*
X124722595Y-118972595D01*
X124734411Y-118961886D01*
X124747220Y-118952386D01*
X124760898Y-118944188D01*
X124775314Y-118937370D01*
X124790329Y-118931997D01*
X124805798Y-118928122D01*
X124821572Y-118925782D01*
X124837500Y-118925000D01*
X125787500Y-118925000D01*
X125803428Y-118925782D01*
X125803428Y-118925782D01*
G37*
D28*
X125312500Y-119250000D03*
D27*
G36*
X129245409Y-119251359D02*
G01*
X129272809Y-119255423D01*
X129299678Y-119262154D01*
X129325758Y-119271486D01*
X129350798Y-119283329D01*
X129374557Y-119297569D01*
X129396805Y-119314069D01*
X129417329Y-119332671D01*
X129435931Y-119353195D01*
X129452431Y-119375443D01*
X129466671Y-119399202D01*
X129478514Y-119424242D01*
X129487846Y-119450322D01*
X129494577Y-119477191D01*
X129498641Y-119504591D01*
X129500000Y-119532257D01*
X129500000Y-122467743D01*
X129498641Y-122495409D01*
X129494577Y-122522809D01*
X129487846Y-122549678D01*
X129478514Y-122575758D01*
X129466671Y-122600798D01*
X129452431Y-122624557D01*
X129435931Y-122646805D01*
X129417329Y-122667329D01*
X129396805Y-122685931D01*
X129374557Y-122702431D01*
X129350798Y-122716671D01*
X129325758Y-122728514D01*
X129299678Y-122737846D01*
X129272809Y-122744577D01*
X129245409Y-122748641D01*
X129217743Y-122750000D01*
X126282257Y-122750000D01*
X126254591Y-122748641D01*
X126227191Y-122744577D01*
X126200322Y-122737846D01*
X126174242Y-122728514D01*
X126149202Y-122716671D01*
X126125443Y-122702431D01*
X126103195Y-122685931D01*
X126082671Y-122667329D01*
X126064069Y-122646805D01*
X126047569Y-122624557D01*
X126033329Y-122600798D01*
X126021486Y-122575758D01*
X126012154Y-122549678D01*
X126005423Y-122522809D01*
X126001359Y-122495409D01*
X126000000Y-122467743D01*
X126000000Y-119532257D01*
X126001359Y-119504591D01*
X126005423Y-119477191D01*
X126012154Y-119450322D01*
X126021486Y-119424242D01*
X126033329Y-119399202D01*
X126047569Y-119375443D01*
X126064069Y-119353195D01*
X126082671Y-119332671D01*
X126103195Y-119314069D01*
X126125443Y-119297569D01*
X126149202Y-119283329D01*
X126174242Y-119271486D01*
X126200322Y-119262154D01*
X126227191Y-119255423D01*
X126254591Y-119251359D01*
X126282257Y-119250000D01*
X129217743Y-119250000D01*
X129245409Y-119251359D01*
X129245409Y-119251359D01*
G37*
D29*
X127750000Y-121000000D03*
D27*
G36*
X141428428Y-117900782D02*
G01*
X141444202Y-117903122D01*
X141459671Y-117906997D01*
X141474686Y-117912370D01*
X141489102Y-117919188D01*
X141502780Y-117927386D01*
X141515589Y-117936886D01*
X141527405Y-117947595D01*
X141538114Y-117959411D01*
X141547614Y-117972220D01*
X141555812Y-117985898D01*
X141562630Y-118000314D01*
X141568003Y-118015329D01*
X141571878Y-118030798D01*
X141574218Y-118046572D01*
X141575000Y-118062500D01*
X141575000Y-118937500D01*
X141574218Y-118953428D01*
X141571878Y-118969202D01*
X141568003Y-118984671D01*
X141562630Y-118999686D01*
X141555812Y-119014102D01*
X141547614Y-119027780D01*
X141538114Y-119040589D01*
X141527405Y-119052405D01*
X141515589Y-119063114D01*
X141502780Y-119072614D01*
X141489102Y-119080812D01*
X141474686Y-119087630D01*
X141459671Y-119093003D01*
X141444202Y-119096878D01*
X141428428Y-119099218D01*
X141412500Y-119100000D01*
X141087500Y-119100000D01*
X141071572Y-119099218D01*
X141055798Y-119096878D01*
X141040329Y-119093003D01*
X141025314Y-119087630D01*
X141010898Y-119080812D01*
X140997220Y-119072614D01*
X140984411Y-119063114D01*
X140972595Y-119052405D01*
X140961886Y-119040589D01*
X140952386Y-119027780D01*
X140944188Y-119014102D01*
X140937370Y-118999686D01*
X140931997Y-118984671D01*
X140928122Y-118969202D01*
X140925782Y-118953428D01*
X140925000Y-118937500D01*
X140925000Y-118062500D01*
X140925782Y-118046572D01*
X140928122Y-118030798D01*
X140931997Y-118015329D01*
X140937370Y-118000314D01*
X140944188Y-117985898D01*
X140952386Y-117972220D01*
X140961886Y-117959411D01*
X140972595Y-117947595D01*
X140984411Y-117936886D01*
X140997220Y-117927386D01*
X141010898Y-117919188D01*
X141025314Y-117912370D01*
X141040329Y-117906997D01*
X141055798Y-117903122D01*
X141071572Y-117900782D01*
X141087500Y-117900000D01*
X141412500Y-117900000D01*
X141428428Y-117900782D01*
X141428428Y-117900782D01*
G37*
D28*
X141250000Y-118500000D03*
D27*
G36*
X141928428Y-117900782D02*
G01*
X141944202Y-117903122D01*
X141959671Y-117906997D01*
X141974686Y-117912370D01*
X141989102Y-117919188D01*
X142002780Y-117927386D01*
X142015589Y-117936886D01*
X142027405Y-117947595D01*
X142038114Y-117959411D01*
X142047614Y-117972220D01*
X142055812Y-117985898D01*
X142062630Y-118000314D01*
X142068003Y-118015329D01*
X142071878Y-118030798D01*
X142074218Y-118046572D01*
X142075000Y-118062500D01*
X142075000Y-118937500D01*
X142074218Y-118953428D01*
X142071878Y-118969202D01*
X142068003Y-118984671D01*
X142062630Y-118999686D01*
X142055812Y-119014102D01*
X142047614Y-119027780D01*
X142038114Y-119040589D01*
X142027405Y-119052405D01*
X142015589Y-119063114D01*
X142002780Y-119072614D01*
X141989102Y-119080812D01*
X141974686Y-119087630D01*
X141959671Y-119093003D01*
X141944202Y-119096878D01*
X141928428Y-119099218D01*
X141912500Y-119100000D01*
X141587500Y-119100000D01*
X141571572Y-119099218D01*
X141555798Y-119096878D01*
X141540329Y-119093003D01*
X141525314Y-119087630D01*
X141510898Y-119080812D01*
X141497220Y-119072614D01*
X141484411Y-119063114D01*
X141472595Y-119052405D01*
X141461886Y-119040589D01*
X141452386Y-119027780D01*
X141444188Y-119014102D01*
X141437370Y-118999686D01*
X141431997Y-118984671D01*
X141428122Y-118969202D01*
X141425782Y-118953428D01*
X141425000Y-118937500D01*
X141425000Y-118062500D01*
X141425782Y-118046572D01*
X141428122Y-118030798D01*
X141431997Y-118015329D01*
X141437370Y-118000314D01*
X141444188Y-117985898D01*
X141452386Y-117972220D01*
X141461886Y-117959411D01*
X141472595Y-117947595D01*
X141484411Y-117936886D01*
X141497220Y-117927386D01*
X141510898Y-117919188D01*
X141525314Y-117912370D01*
X141540329Y-117906997D01*
X141555798Y-117903122D01*
X141571572Y-117900782D01*
X141587500Y-117900000D01*
X141912500Y-117900000D01*
X141928428Y-117900782D01*
X141928428Y-117900782D01*
G37*
D28*
X141750000Y-118500000D03*
D27*
G36*
X142428428Y-117900782D02*
G01*
X142444202Y-117903122D01*
X142459671Y-117906997D01*
X142474686Y-117912370D01*
X142489102Y-117919188D01*
X142502780Y-117927386D01*
X142515589Y-117936886D01*
X142527405Y-117947595D01*
X142538114Y-117959411D01*
X142547614Y-117972220D01*
X142555812Y-117985898D01*
X142562630Y-118000314D01*
X142568003Y-118015329D01*
X142571878Y-118030798D01*
X142574218Y-118046572D01*
X142575000Y-118062500D01*
X142575000Y-118937500D01*
X142574218Y-118953428D01*
X142571878Y-118969202D01*
X142568003Y-118984671D01*
X142562630Y-118999686D01*
X142555812Y-119014102D01*
X142547614Y-119027780D01*
X142538114Y-119040589D01*
X142527405Y-119052405D01*
X142515589Y-119063114D01*
X142502780Y-119072614D01*
X142489102Y-119080812D01*
X142474686Y-119087630D01*
X142459671Y-119093003D01*
X142444202Y-119096878D01*
X142428428Y-119099218D01*
X142412500Y-119100000D01*
X142087500Y-119100000D01*
X142071572Y-119099218D01*
X142055798Y-119096878D01*
X142040329Y-119093003D01*
X142025314Y-119087630D01*
X142010898Y-119080812D01*
X141997220Y-119072614D01*
X141984411Y-119063114D01*
X141972595Y-119052405D01*
X141961886Y-119040589D01*
X141952386Y-119027780D01*
X141944188Y-119014102D01*
X141937370Y-118999686D01*
X141931997Y-118984671D01*
X141928122Y-118969202D01*
X141925782Y-118953428D01*
X141925000Y-118937500D01*
X141925000Y-118062500D01*
X141925782Y-118046572D01*
X141928122Y-118030798D01*
X141931997Y-118015329D01*
X141937370Y-118000314D01*
X141944188Y-117985898D01*
X141952386Y-117972220D01*
X141961886Y-117959411D01*
X141972595Y-117947595D01*
X141984411Y-117936886D01*
X141997220Y-117927386D01*
X142010898Y-117919188D01*
X142025314Y-117912370D01*
X142040329Y-117906997D01*
X142055798Y-117903122D01*
X142071572Y-117900782D01*
X142087500Y-117900000D01*
X142412500Y-117900000D01*
X142428428Y-117900782D01*
X142428428Y-117900782D01*
G37*
D28*
X142250000Y-118500000D03*
D27*
G36*
X142928428Y-117900782D02*
G01*
X142944202Y-117903122D01*
X142959671Y-117906997D01*
X142974686Y-117912370D01*
X142989102Y-117919188D01*
X143002780Y-117927386D01*
X143015589Y-117936886D01*
X143027405Y-117947595D01*
X143038114Y-117959411D01*
X143047614Y-117972220D01*
X143055812Y-117985898D01*
X143062630Y-118000314D01*
X143068003Y-118015329D01*
X143071878Y-118030798D01*
X143074218Y-118046572D01*
X143075000Y-118062500D01*
X143075000Y-118937500D01*
X143074218Y-118953428D01*
X143071878Y-118969202D01*
X143068003Y-118984671D01*
X143062630Y-118999686D01*
X143055812Y-119014102D01*
X143047614Y-119027780D01*
X143038114Y-119040589D01*
X143027405Y-119052405D01*
X143015589Y-119063114D01*
X143002780Y-119072614D01*
X142989102Y-119080812D01*
X142974686Y-119087630D01*
X142959671Y-119093003D01*
X142944202Y-119096878D01*
X142928428Y-119099218D01*
X142912500Y-119100000D01*
X142587500Y-119100000D01*
X142571572Y-119099218D01*
X142555798Y-119096878D01*
X142540329Y-119093003D01*
X142525314Y-119087630D01*
X142510898Y-119080812D01*
X142497220Y-119072614D01*
X142484411Y-119063114D01*
X142472595Y-119052405D01*
X142461886Y-119040589D01*
X142452386Y-119027780D01*
X142444188Y-119014102D01*
X142437370Y-118999686D01*
X142431997Y-118984671D01*
X142428122Y-118969202D01*
X142425782Y-118953428D01*
X142425000Y-118937500D01*
X142425000Y-118062500D01*
X142425782Y-118046572D01*
X142428122Y-118030798D01*
X142431997Y-118015329D01*
X142437370Y-118000314D01*
X142444188Y-117985898D01*
X142452386Y-117972220D01*
X142461886Y-117959411D01*
X142472595Y-117947595D01*
X142484411Y-117936886D01*
X142497220Y-117927386D01*
X142510898Y-117919188D01*
X142525314Y-117912370D01*
X142540329Y-117906997D01*
X142555798Y-117903122D01*
X142571572Y-117900782D01*
X142587500Y-117900000D01*
X142912500Y-117900000D01*
X142928428Y-117900782D01*
X142928428Y-117900782D01*
G37*
D28*
X142750000Y-118500000D03*
D27*
G36*
X144403428Y-119375782D02*
G01*
X144419202Y-119378122D01*
X144434671Y-119381997D01*
X144449686Y-119387370D01*
X144464102Y-119394188D01*
X144477780Y-119402386D01*
X144490589Y-119411886D01*
X144502405Y-119422595D01*
X144513114Y-119434411D01*
X144522614Y-119447220D01*
X144530812Y-119460898D01*
X144537630Y-119475314D01*
X144543003Y-119490329D01*
X144546878Y-119505798D01*
X144549218Y-119521572D01*
X144550000Y-119537500D01*
X144550000Y-119862500D01*
X144549218Y-119878428D01*
X144546878Y-119894202D01*
X144543003Y-119909671D01*
X144537630Y-119924686D01*
X144530812Y-119939102D01*
X144522614Y-119952780D01*
X144513114Y-119965589D01*
X144502405Y-119977405D01*
X144490589Y-119988114D01*
X144477780Y-119997614D01*
X144464102Y-120005812D01*
X144449686Y-120012630D01*
X144434671Y-120018003D01*
X144419202Y-120021878D01*
X144403428Y-120024218D01*
X144387500Y-120025000D01*
X143512500Y-120025000D01*
X143496572Y-120024218D01*
X143480798Y-120021878D01*
X143465329Y-120018003D01*
X143450314Y-120012630D01*
X143435898Y-120005812D01*
X143422220Y-119997614D01*
X143409411Y-119988114D01*
X143397595Y-119977405D01*
X143386886Y-119965589D01*
X143377386Y-119952780D01*
X143369188Y-119939102D01*
X143362370Y-119924686D01*
X143356997Y-119909671D01*
X143353122Y-119894202D01*
X143350782Y-119878428D01*
X143350000Y-119862500D01*
X143350000Y-119537500D01*
X143350782Y-119521572D01*
X143353122Y-119505798D01*
X143356997Y-119490329D01*
X143362370Y-119475314D01*
X143369188Y-119460898D01*
X143377386Y-119447220D01*
X143386886Y-119434411D01*
X143397595Y-119422595D01*
X143409411Y-119411886D01*
X143422220Y-119402386D01*
X143435898Y-119394188D01*
X143450314Y-119387370D01*
X143465329Y-119381997D01*
X143480798Y-119378122D01*
X143496572Y-119375782D01*
X143512500Y-119375000D01*
X144387500Y-119375000D01*
X144403428Y-119375782D01*
X144403428Y-119375782D01*
G37*
D28*
X143950000Y-119700000D03*
D27*
G36*
X144403428Y-119875782D02*
G01*
X144419202Y-119878122D01*
X144434671Y-119881997D01*
X144449686Y-119887370D01*
X144464102Y-119894188D01*
X144477780Y-119902386D01*
X144490589Y-119911886D01*
X144502405Y-119922595D01*
X144513114Y-119934411D01*
X144522614Y-119947220D01*
X144530812Y-119960898D01*
X144537630Y-119975314D01*
X144543003Y-119990329D01*
X144546878Y-120005798D01*
X144549218Y-120021572D01*
X144550000Y-120037500D01*
X144550000Y-120362500D01*
X144549218Y-120378428D01*
X144546878Y-120394202D01*
X144543003Y-120409671D01*
X144537630Y-120424686D01*
X144530812Y-120439102D01*
X144522614Y-120452780D01*
X144513114Y-120465589D01*
X144502405Y-120477405D01*
X144490589Y-120488114D01*
X144477780Y-120497614D01*
X144464102Y-120505812D01*
X144449686Y-120512630D01*
X144434671Y-120518003D01*
X144419202Y-120521878D01*
X144403428Y-120524218D01*
X144387500Y-120525000D01*
X143512500Y-120525000D01*
X143496572Y-120524218D01*
X143480798Y-120521878D01*
X143465329Y-120518003D01*
X143450314Y-120512630D01*
X143435898Y-120505812D01*
X143422220Y-120497614D01*
X143409411Y-120488114D01*
X143397595Y-120477405D01*
X143386886Y-120465589D01*
X143377386Y-120452780D01*
X143369188Y-120439102D01*
X143362370Y-120424686D01*
X143356997Y-120409671D01*
X143353122Y-120394202D01*
X143350782Y-120378428D01*
X143350000Y-120362500D01*
X143350000Y-120037500D01*
X143350782Y-120021572D01*
X143353122Y-120005798D01*
X143356997Y-119990329D01*
X143362370Y-119975314D01*
X143369188Y-119960898D01*
X143377386Y-119947220D01*
X143386886Y-119934411D01*
X143397595Y-119922595D01*
X143409411Y-119911886D01*
X143422220Y-119902386D01*
X143435898Y-119894188D01*
X143450314Y-119887370D01*
X143465329Y-119881997D01*
X143480798Y-119878122D01*
X143496572Y-119875782D01*
X143512500Y-119875000D01*
X144387500Y-119875000D01*
X144403428Y-119875782D01*
X144403428Y-119875782D01*
G37*
D28*
X143950000Y-120200000D03*
D27*
G36*
X144403428Y-120375782D02*
G01*
X144419202Y-120378122D01*
X144434671Y-120381997D01*
X144449686Y-120387370D01*
X144464102Y-120394188D01*
X144477780Y-120402386D01*
X144490589Y-120411886D01*
X144502405Y-120422595D01*
X144513114Y-120434411D01*
X144522614Y-120447220D01*
X144530812Y-120460898D01*
X144537630Y-120475314D01*
X144543003Y-120490329D01*
X144546878Y-120505798D01*
X144549218Y-120521572D01*
X144550000Y-120537500D01*
X144550000Y-120862500D01*
X144549218Y-120878428D01*
X144546878Y-120894202D01*
X144543003Y-120909671D01*
X144537630Y-120924686D01*
X144530812Y-120939102D01*
X144522614Y-120952780D01*
X144513114Y-120965589D01*
X144502405Y-120977405D01*
X144490589Y-120988114D01*
X144477780Y-120997614D01*
X144464102Y-121005812D01*
X144449686Y-121012630D01*
X144434671Y-121018003D01*
X144419202Y-121021878D01*
X144403428Y-121024218D01*
X144387500Y-121025000D01*
X143512500Y-121025000D01*
X143496572Y-121024218D01*
X143480798Y-121021878D01*
X143465329Y-121018003D01*
X143450314Y-121012630D01*
X143435898Y-121005812D01*
X143422220Y-120997614D01*
X143409411Y-120988114D01*
X143397595Y-120977405D01*
X143386886Y-120965589D01*
X143377386Y-120952780D01*
X143369188Y-120939102D01*
X143362370Y-120924686D01*
X143356997Y-120909671D01*
X143353122Y-120894202D01*
X143350782Y-120878428D01*
X143350000Y-120862500D01*
X143350000Y-120537500D01*
X143350782Y-120521572D01*
X143353122Y-120505798D01*
X143356997Y-120490329D01*
X143362370Y-120475314D01*
X143369188Y-120460898D01*
X143377386Y-120447220D01*
X143386886Y-120434411D01*
X143397595Y-120422595D01*
X143409411Y-120411886D01*
X143422220Y-120402386D01*
X143435898Y-120394188D01*
X143450314Y-120387370D01*
X143465329Y-120381997D01*
X143480798Y-120378122D01*
X143496572Y-120375782D01*
X143512500Y-120375000D01*
X144387500Y-120375000D01*
X144403428Y-120375782D01*
X144403428Y-120375782D01*
G37*
D28*
X143950000Y-120700000D03*
D27*
G36*
X144403428Y-120875782D02*
G01*
X144419202Y-120878122D01*
X144434671Y-120881997D01*
X144449686Y-120887370D01*
X144464102Y-120894188D01*
X144477780Y-120902386D01*
X144490589Y-120911886D01*
X144502405Y-120922595D01*
X144513114Y-120934411D01*
X144522614Y-120947220D01*
X144530812Y-120960898D01*
X144537630Y-120975314D01*
X144543003Y-120990329D01*
X144546878Y-121005798D01*
X144549218Y-121021572D01*
X144550000Y-121037500D01*
X144550000Y-121362500D01*
X144549218Y-121378428D01*
X144546878Y-121394202D01*
X144543003Y-121409671D01*
X144537630Y-121424686D01*
X144530812Y-121439102D01*
X144522614Y-121452780D01*
X144513114Y-121465589D01*
X144502405Y-121477405D01*
X144490589Y-121488114D01*
X144477780Y-121497614D01*
X144464102Y-121505812D01*
X144449686Y-121512630D01*
X144434671Y-121518003D01*
X144419202Y-121521878D01*
X144403428Y-121524218D01*
X144387500Y-121525000D01*
X143512500Y-121525000D01*
X143496572Y-121524218D01*
X143480798Y-121521878D01*
X143465329Y-121518003D01*
X143450314Y-121512630D01*
X143435898Y-121505812D01*
X143422220Y-121497614D01*
X143409411Y-121488114D01*
X143397595Y-121477405D01*
X143386886Y-121465589D01*
X143377386Y-121452780D01*
X143369188Y-121439102D01*
X143362370Y-121424686D01*
X143356997Y-121409671D01*
X143353122Y-121394202D01*
X143350782Y-121378428D01*
X143350000Y-121362500D01*
X143350000Y-121037500D01*
X143350782Y-121021572D01*
X143353122Y-121005798D01*
X143356997Y-120990329D01*
X143362370Y-120975314D01*
X143369188Y-120960898D01*
X143377386Y-120947220D01*
X143386886Y-120934411D01*
X143397595Y-120922595D01*
X143409411Y-120911886D01*
X143422220Y-120902386D01*
X143435898Y-120894188D01*
X143450314Y-120887370D01*
X143465329Y-120881997D01*
X143480798Y-120878122D01*
X143496572Y-120875782D01*
X143512500Y-120875000D01*
X144387500Y-120875000D01*
X144403428Y-120875782D01*
X144403428Y-120875782D01*
G37*
D28*
X143950000Y-121200000D03*
D27*
G36*
X142928428Y-121800782D02*
G01*
X142944202Y-121803122D01*
X142959671Y-121806997D01*
X142974686Y-121812370D01*
X142989102Y-121819188D01*
X143002780Y-121827386D01*
X143015589Y-121836886D01*
X143027405Y-121847595D01*
X143038114Y-121859411D01*
X143047614Y-121872220D01*
X143055812Y-121885898D01*
X143062630Y-121900314D01*
X143068003Y-121915329D01*
X143071878Y-121930798D01*
X143074218Y-121946572D01*
X143075000Y-121962500D01*
X143075000Y-122837500D01*
X143074218Y-122853428D01*
X143071878Y-122869202D01*
X143068003Y-122884671D01*
X143062630Y-122899686D01*
X143055812Y-122914102D01*
X143047614Y-122927780D01*
X143038114Y-122940589D01*
X143027405Y-122952405D01*
X143015589Y-122963114D01*
X143002780Y-122972614D01*
X142989102Y-122980812D01*
X142974686Y-122987630D01*
X142959671Y-122993003D01*
X142944202Y-122996878D01*
X142928428Y-122999218D01*
X142912500Y-123000000D01*
X142587500Y-123000000D01*
X142571572Y-122999218D01*
X142555798Y-122996878D01*
X142540329Y-122993003D01*
X142525314Y-122987630D01*
X142510898Y-122980812D01*
X142497220Y-122972614D01*
X142484411Y-122963114D01*
X142472595Y-122952405D01*
X142461886Y-122940589D01*
X142452386Y-122927780D01*
X142444188Y-122914102D01*
X142437370Y-122899686D01*
X142431997Y-122884671D01*
X142428122Y-122869202D01*
X142425782Y-122853428D01*
X142425000Y-122837500D01*
X142425000Y-121962500D01*
X142425782Y-121946572D01*
X142428122Y-121930798D01*
X142431997Y-121915329D01*
X142437370Y-121900314D01*
X142444188Y-121885898D01*
X142452386Y-121872220D01*
X142461886Y-121859411D01*
X142472595Y-121847595D01*
X142484411Y-121836886D01*
X142497220Y-121827386D01*
X142510898Y-121819188D01*
X142525314Y-121812370D01*
X142540329Y-121806997D01*
X142555798Y-121803122D01*
X142571572Y-121800782D01*
X142587500Y-121800000D01*
X142912500Y-121800000D01*
X142928428Y-121800782D01*
X142928428Y-121800782D01*
G37*
D28*
X142750000Y-122400000D03*
D27*
G36*
X142428428Y-121800782D02*
G01*
X142444202Y-121803122D01*
X142459671Y-121806997D01*
X142474686Y-121812370D01*
X142489102Y-121819188D01*
X142502780Y-121827386D01*
X142515589Y-121836886D01*
X142527405Y-121847595D01*
X142538114Y-121859411D01*
X142547614Y-121872220D01*
X142555812Y-121885898D01*
X142562630Y-121900314D01*
X142568003Y-121915329D01*
X142571878Y-121930798D01*
X142574218Y-121946572D01*
X142575000Y-121962500D01*
X142575000Y-122837500D01*
X142574218Y-122853428D01*
X142571878Y-122869202D01*
X142568003Y-122884671D01*
X142562630Y-122899686D01*
X142555812Y-122914102D01*
X142547614Y-122927780D01*
X142538114Y-122940589D01*
X142527405Y-122952405D01*
X142515589Y-122963114D01*
X142502780Y-122972614D01*
X142489102Y-122980812D01*
X142474686Y-122987630D01*
X142459671Y-122993003D01*
X142444202Y-122996878D01*
X142428428Y-122999218D01*
X142412500Y-123000000D01*
X142087500Y-123000000D01*
X142071572Y-122999218D01*
X142055798Y-122996878D01*
X142040329Y-122993003D01*
X142025314Y-122987630D01*
X142010898Y-122980812D01*
X141997220Y-122972614D01*
X141984411Y-122963114D01*
X141972595Y-122952405D01*
X141961886Y-122940589D01*
X141952386Y-122927780D01*
X141944188Y-122914102D01*
X141937370Y-122899686D01*
X141931997Y-122884671D01*
X141928122Y-122869202D01*
X141925782Y-122853428D01*
X141925000Y-122837500D01*
X141925000Y-121962500D01*
X141925782Y-121946572D01*
X141928122Y-121930798D01*
X141931997Y-121915329D01*
X141937370Y-121900314D01*
X141944188Y-121885898D01*
X141952386Y-121872220D01*
X141961886Y-121859411D01*
X141972595Y-121847595D01*
X141984411Y-121836886D01*
X141997220Y-121827386D01*
X142010898Y-121819188D01*
X142025314Y-121812370D01*
X142040329Y-121806997D01*
X142055798Y-121803122D01*
X142071572Y-121800782D01*
X142087500Y-121800000D01*
X142412500Y-121800000D01*
X142428428Y-121800782D01*
X142428428Y-121800782D01*
G37*
D28*
X142250000Y-122400000D03*
D27*
G36*
X141928428Y-121800782D02*
G01*
X141944202Y-121803122D01*
X141959671Y-121806997D01*
X141974686Y-121812370D01*
X141989102Y-121819188D01*
X142002780Y-121827386D01*
X142015589Y-121836886D01*
X142027405Y-121847595D01*
X142038114Y-121859411D01*
X142047614Y-121872220D01*
X142055812Y-121885898D01*
X142062630Y-121900314D01*
X142068003Y-121915329D01*
X142071878Y-121930798D01*
X142074218Y-121946572D01*
X142075000Y-121962500D01*
X142075000Y-122837500D01*
X142074218Y-122853428D01*
X142071878Y-122869202D01*
X142068003Y-122884671D01*
X142062630Y-122899686D01*
X142055812Y-122914102D01*
X142047614Y-122927780D01*
X142038114Y-122940589D01*
X142027405Y-122952405D01*
X142015589Y-122963114D01*
X142002780Y-122972614D01*
X141989102Y-122980812D01*
X141974686Y-122987630D01*
X141959671Y-122993003D01*
X141944202Y-122996878D01*
X141928428Y-122999218D01*
X141912500Y-123000000D01*
X141587500Y-123000000D01*
X141571572Y-122999218D01*
X141555798Y-122996878D01*
X141540329Y-122993003D01*
X141525314Y-122987630D01*
X141510898Y-122980812D01*
X141497220Y-122972614D01*
X141484411Y-122963114D01*
X141472595Y-122952405D01*
X141461886Y-122940589D01*
X141452386Y-122927780D01*
X141444188Y-122914102D01*
X141437370Y-122899686D01*
X141431997Y-122884671D01*
X141428122Y-122869202D01*
X141425782Y-122853428D01*
X141425000Y-122837500D01*
X141425000Y-121962500D01*
X141425782Y-121946572D01*
X141428122Y-121930798D01*
X141431997Y-121915329D01*
X141437370Y-121900314D01*
X141444188Y-121885898D01*
X141452386Y-121872220D01*
X141461886Y-121859411D01*
X141472595Y-121847595D01*
X141484411Y-121836886D01*
X141497220Y-121827386D01*
X141510898Y-121819188D01*
X141525314Y-121812370D01*
X141540329Y-121806997D01*
X141555798Y-121803122D01*
X141571572Y-121800782D01*
X141587500Y-121800000D01*
X141912500Y-121800000D01*
X141928428Y-121800782D01*
X141928428Y-121800782D01*
G37*
D28*
X141750000Y-122400000D03*
D27*
G36*
X141428428Y-121800782D02*
G01*
X141444202Y-121803122D01*
X141459671Y-121806997D01*
X141474686Y-121812370D01*
X141489102Y-121819188D01*
X141502780Y-121827386D01*
X141515589Y-121836886D01*
X141527405Y-121847595D01*
X141538114Y-121859411D01*
X141547614Y-121872220D01*
X141555812Y-121885898D01*
X141562630Y-121900314D01*
X141568003Y-121915329D01*
X141571878Y-121930798D01*
X141574218Y-121946572D01*
X141575000Y-121962500D01*
X141575000Y-122837500D01*
X141574218Y-122853428D01*
X141571878Y-122869202D01*
X141568003Y-122884671D01*
X141562630Y-122899686D01*
X141555812Y-122914102D01*
X141547614Y-122927780D01*
X141538114Y-122940589D01*
X141527405Y-122952405D01*
X141515589Y-122963114D01*
X141502780Y-122972614D01*
X141489102Y-122980812D01*
X141474686Y-122987630D01*
X141459671Y-122993003D01*
X141444202Y-122996878D01*
X141428428Y-122999218D01*
X141412500Y-123000000D01*
X141087500Y-123000000D01*
X141071572Y-122999218D01*
X141055798Y-122996878D01*
X141040329Y-122993003D01*
X141025314Y-122987630D01*
X141010898Y-122980812D01*
X140997220Y-122972614D01*
X140984411Y-122963114D01*
X140972595Y-122952405D01*
X140961886Y-122940589D01*
X140952386Y-122927780D01*
X140944188Y-122914102D01*
X140937370Y-122899686D01*
X140931997Y-122884671D01*
X140928122Y-122869202D01*
X140925782Y-122853428D01*
X140925000Y-122837500D01*
X140925000Y-121962500D01*
X140925782Y-121946572D01*
X140928122Y-121930798D01*
X140931997Y-121915329D01*
X140937370Y-121900314D01*
X140944188Y-121885898D01*
X140952386Y-121872220D01*
X140961886Y-121859411D01*
X140972595Y-121847595D01*
X140984411Y-121836886D01*
X140997220Y-121827386D01*
X141010898Y-121819188D01*
X141025314Y-121812370D01*
X141040329Y-121806997D01*
X141055798Y-121803122D01*
X141071572Y-121800782D01*
X141087500Y-121800000D01*
X141412500Y-121800000D01*
X141428428Y-121800782D01*
X141428428Y-121800782D01*
G37*
D28*
X141250000Y-122400000D03*
D27*
G36*
X140503428Y-120875782D02*
G01*
X140519202Y-120878122D01*
X140534671Y-120881997D01*
X140549686Y-120887370D01*
X140564102Y-120894188D01*
X140577780Y-120902386D01*
X140590589Y-120911886D01*
X140602405Y-120922595D01*
X140613114Y-120934411D01*
X140622614Y-120947220D01*
X140630812Y-120960898D01*
X140637630Y-120975314D01*
X140643003Y-120990329D01*
X140646878Y-121005798D01*
X140649218Y-121021572D01*
X140650000Y-121037500D01*
X140650000Y-121362500D01*
X140649218Y-121378428D01*
X140646878Y-121394202D01*
X140643003Y-121409671D01*
X140637630Y-121424686D01*
X140630812Y-121439102D01*
X140622614Y-121452780D01*
X140613114Y-121465589D01*
X140602405Y-121477405D01*
X140590589Y-121488114D01*
X140577780Y-121497614D01*
X140564102Y-121505812D01*
X140549686Y-121512630D01*
X140534671Y-121518003D01*
X140519202Y-121521878D01*
X140503428Y-121524218D01*
X140487500Y-121525000D01*
X139612500Y-121525000D01*
X139596572Y-121524218D01*
X139580798Y-121521878D01*
X139565329Y-121518003D01*
X139550314Y-121512630D01*
X139535898Y-121505812D01*
X139522220Y-121497614D01*
X139509411Y-121488114D01*
X139497595Y-121477405D01*
X139486886Y-121465589D01*
X139477386Y-121452780D01*
X139469188Y-121439102D01*
X139462370Y-121424686D01*
X139456997Y-121409671D01*
X139453122Y-121394202D01*
X139450782Y-121378428D01*
X139450000Y-121362500D01*
X139450000Y-121037500D01*
X139450782Y-121021572D01*
X139453122Y-121005798D01*
X139456997Y-120990329D01*
X139462370Y-120975314D01*
X139469188Y-120960898D01*
X139477386Y-120947220D01*
X139486886Y-120934411D01*
X139497595Y-120922595D01*
X139509411Y-120911886D01*
X139522220Y-120902386D01*
X139535898Y-120894188D01*
X139550314Y-120887370D01*
X139565329Y-120881997D01*
X139580798Y-120878122D01*
X139596572Y-120875782D01*
X139612500Y-120875000D01*
X140487500Y-120875000D01*
X140503428Y-120875782D01*
X140503428Y-120875782D01*
G37*
D28*
X140050000Y-121200000D03*
D27*
G36*
X140503428Y-120375782D02*
G01*
X140519202Y-120378122D01*
X140534671Y-120381997D01*
X140549686Y-120387370D01*
X140564102Y-120394188D01*
X140577780Y-120402386D01*
X140590589Y-120411886D01*
X140602405Y-120422595D01*
X140613114Y-120434411D01*
X140622614Y-120447220D01*
X140630812Y-120460898D01*
X140637630Y-120475314D01*
X140643003Y-120490329D01*
X140646878Y-120505798D01*
X140649218Y-120521572D01*
X140650000Y-120537500D01*
X140650000Y-120862500D01*
X140649218Y-120878428D01*
X140646878Y-120894202D01*
X140643003Y-120909671D01*
X140637630Y-120924686D01*
X140630812Y-120939102D01*
X140622614Y-120952780D01*
X140613114Y-120965589D01*
X140602405Y-120977405D01*
X140590589Y-120988114D01*
X140577780Y-120997614D01*
X140564102Y-121005812D01*
X140549686Y-121012630D01*
X140534671Y-121018003D01*
X140519202Y-121021878D01*
X140503428Y-121024218D01*
X140487500Y-121025000D01*
X139612500Y-121025000D01*
X139596572Y-121024218D01*
X139580798Y-121021878D01*
X139565329Y-121018003D01*
X139550314Y-121012630D01*
X139535898Y-121005812D01*
X139522220Y-120997614D01*
X139509411Y-120988114D01*
X139497595Y-120977405D01*
X139486886Y-120965589D01*
X139477386Y-120952780D01*
X139469188Y-120939102D01*
X139462370Y-120924686D01*
X139456997Y-120909671D01*
X139453122Y-120894202D01*
X139450782Y-120878428D01*
X139450000Y-120862500D01*
X139450000Y-120537500D01*
X139450782Y-120521572D01*
X139453122Y-120505798D01*
X139456997Y-120490329D01*
X139462370Y-120475314D01*
X139469188Y-120460898D01*
X139477386Y-120447220D01*
X139486886Y-120434411D01*
X139497595Y-120422595D01*
X139509411Y-120411886D01*
X139522220Y-120402386D01*
X139535898Y-120394188D01*
X139550314Y-120387370D01*
X139565329Y-120381997D01*
X139580798Y-120378122D01*
X139596572Y-120375782D01*
X139612500Y-120375000D01*
X140487500Y-120375000D01*
X140503428Y-120375782D01*
X140503428Y-120375782D01*
G37*
D28*
X140050000Y-120700000D03*
D27*
G36*
X140503428Y-119875782D02*
G01*
X140519202Y-119878122D01*
X140534671Y-119881997D01*
X140549686Y-119887370D01*
X140564102Y-119894188D01*
X140577780Y-119902386D01*
X140590589Y-119911886D01*
X140602405Y-119922595D01*
X140613114Y-119934411D01*
X140622614Y-119947220D01*
X140630812Y-119960898D01*
X140637630Y-119975314D01*
X140643003Y-119990329D01*
X140646878Y-120005798D01*
X140649218Y-120021572D01*
X140650000Y-120037500D01*
X140650000Y-120362500D01*
X140649218Y-120378428D01*
X140646878Y-120394202D01*
X140643003Y-120409671D01*
X140637630Y-120424686D01*
X140630812Y-120439102D01*
X140622614Y-120452780D01*
X140613114Y-120465589D01*
X140602405Y-120477405D01*
X140590589Y-120488114D01*
X140577780Y-120497614D01*
X140564102Y-120505812D01*
X140549686Y-120512630D01*
X140534671Y-120518003D01*
X140519202Y-120521878D01*
X140503428Y-120524218D01*
X140487500Y-120525000D01*
X139612500Y-120525000D01*
X139596572Y-120524218D01*
X139580798Y-120521878D01*
X139565329Y-120518003D01*
X139550314Y-120512630D01*
X139535898Y-120505812D01*
X139522220Y-120497614D01*
X139509411Y-120488114D01*
X139497595Y-120477405D01*
X139486886Y-120465589D01*
X139477386Y-120452780D01*
X139469188Y-120439102D01*
X139462370Y-120424686D01*
X139456997Y-120409671D01*
X139453122Y-120394202D01*
X139450782Y-120378428D01*
X139450000Y-120362500D01*
X139450000Y-120037500D01*
X139450782Y-120021572D01*
X139453122Y-120005798D01*
X139456997Y-119990329D01*
X139462370Y-119975314D01*
X139469188Y-119960898D01*
X139477386Y-119947220D01*
X139486886Y-119934411D01*
X139497595Y-119922595D01*
X139509411Y-119911886D01*
X139522220Y-119902386D01*
X139535898Y-119894188D01*
X139550314Y-119887370D01*
X139565329Y-119881997D01*
X139580798Y-119878122D01*
X139596572Y-119875782D01*
X139612500Y-119875000D01*
X140487500Y-119875000D01*
X140503428Y-119875782D01*
X140503428Y-119875782D01*
G37*
D28*
X140050000Y-120200000D03*
D27*
G36*
X140503428Y-119375782D02*
G01*
X140519202Y-119378122D01*
X140534671Y-119381997D01*
X140549686Y-119387370D01*
X140564102Y-119394188D01*
X140577780Y-119402386D01*
X140590589Y-119411886D01*
X140602405Y-119422595D01*
X140613114Y-119434411D01*
X140622614Y-119447220D01*
X140630812Y-119460898D01*
X140637630Y-119475314D01*
X140643003Y-119490329D01*
X140646878Y-119505798D01*
X140649218Y-119521572D01*
X140650000Y-119537500D01*
X140650000Y-119862500D01*
X140649218Y-119878428D01*
X140646878Y-119894202D01*
X140643003Y-119909671D01*
X140637630Y-119924686D01*
X140630812Y-119939102D01*
X140622614Y-119952780D01*
X140613114Y-119965589D01*
X140602405Y-119977405D01*
X140590589Y-119988114D01*
X140577780Y-119997614D01*
X140564102Y-120005812D01*
X140549686Y-120012630D01*
X140534671Y-120018003D01*
X140519202Y-120021878D01*
X140503428Y-120024218D01*
X140487500Y-120025000D01*
X139612500Y-120025000D01*
X139596572Y-120024218D01*
X139580798Y-120021878D01*
X139565329Y-120018003D01*
X139550314Y-120012630D01*
X139535898Y-120005812D01*
X139522220Y-119997614D01*
X139509411Y-119988114D01*
X139497595Y-119977405D01*
X139486886Y-119965589D01*
X139477386Y-119952780D01*
X139469188Y-119939102D01*
X139462370Y-119924686D01*
X139456997Y-119909671D01*
X139453122Y-119894202D01*
X139450782Y-119878428D01*
X139450000Y-119862500D01*
X139450000Y-119537500D01*
X139450782Y-119521572D01*
X139453122Y-119505798D01*
X139456997Y-119490329D01*
X139462370Y-119475314D01*
X139469188Y-119460898D01*
X139477386Y-119447220D01*
X139486886Y-119434411D01*
X139497595Y-119422595D01*
X139509411Y-119411886D01*
X139522220Y-119402386D01*
X139535898Y-119394188D01*
X139550314Y-119387370D01*
X139565329Y-119381997D01*
X139580798Y-119378122D01*
X139596572Y-119375782D01*
X139612500Y-119375000D01*
X140487500Y-119375000D01*
X140503428Y-119375782D01*
X140503428Y-119375782D01*
G37*
D28*
X140050000Y-119700000D03*
D27*
G36*
X143162689Y-119026400D02*
G01*
X143190919Y-119030588D01*
X143218603Y-119037522D01*
X143245474Y-119047137D01*
X143271274Y-119059339D01*
X143295753Y-119074011D01*
X143318676Y-119091012D01*
X143339822Y-119110178D01*
X143358988Y-119131324D01*
X143375989Y-119154247D01*
X143390661Y-119178726D01*
X143402863Y-119204526D01*
X143412478Y-119231397D01*
X143419412Y-119259081D01*
X143423600Y-119287311D01*
X143425000Y-119315816D01*
X143425000Y-121584184D01*
X143423600Y-121612689D01*
X143419412Y-121640919D01*
X143412478Y-121668603D01*
X143402863Y-121695474D01*
X143390661Y-121721274D01*
X143375989Y-121745753D01*
X143358988Y-121768676D01*
X143339822Y-121789822D01*
X143318676Y-121808988D01*
X143295753Y-121825989D01*
X143271274Y-121840661D01*
X143245474Y-121852863D01*
X143218603Y-121862478D01*
X143190919Y-121869412D01*
X143162689Y-121873600D01*
X143134184Y-121875000D01*
X140865816Y-121875000D01*
X140837311Y-121873600D01*
X140809081Y-121869412D01*
X140781397Y-121862478D01*
X140754526Y-121852863D01*
X140728726Y-121840661D01*
X140704247Y-121825989D01*
X140681324Y-121808988D01*
X140660178Y-121789822D01*
X140641012Y-121768676D01*
X140624011Y-121745753D01*
X140609339Y-121721274D01*
X140597137Y-121695474D01*
X140587522Y-121668603D01*
X140580588Y-121640919D01*
X140576400Y-121612689D01*
X140575000Y-121584184D01*
X140575000Y-119315816D01*
X140576400Y-119287311D01*
X140580588Y-119259081D01*
X140587522Y-119231397D01*
X140597137Y-119204526D01*
X140609339Y-119178726D01*
X140624011Y-119154247D01*
X140641012Y-119131324D01*
X140660178Y-119110178D01*
X140681324Y-119091012D01*
X140704247Y-119074011D01*
X140728726Y-119059339D01*
X140754526Y-119047137D01*
X140781397Y-119037522D01*
X140809081Y-119030588D01*
X140837311Y-119026400D01*
X140865816Y-119025000D01*
X143134184Y-119025000D01*
X143162689Y-119026400D01*
X143162689Y-119026400D01*
G37*
D30*
X142000000Y-120450000D03*
D31*
X169100000Y-107050000D03*
X169100000Y-108950000D03*
X166900000Y-108950000D03*
X166900000Y-108000000D03*
X166900000Y-107050000D03*
D32*
X152160000Y-113550000D03*
X152160000Y-114500000D03*
X152160000Y-115450000D03*
X149840000Y-115450000D03*
X149840000Y-114500000D03*
X149840000Y-113550000D03*
D27*
G36*
X139292153Y-105175843D02*
G01*
X139309141Y-105178363D01*
X139325800Y-105182535D01*
X139341970Y-105188321D01*
X139357494Y-105195664D01*
X139372225Y-105204493D01*
X139386019Y-105214723D01*
X139398744Y-105226256D01*
X139410277Y-105238981D01*
X139420507Y-105252775D01*
X139429336Y-105267506D01*
X139436679Y-105283030D01*
X139442465Y-105299200D01*
X139446637Y-105315859D01*
X139449157Y-105332847D01*
X139450000Y-105350000D01*
X139450000Y-106900000D01*
X139449157Y-106917153D01*
X139446637Y-106934141D01*
X139442465Y-106950800D01*
X139436679Y-106966970D01*
X139429336Y-106982494D01*
X139420507Y-106997225D01*
X139410277Y-107011019D01*
X139398744Y-107023744D01*
X139386019Y-107035277D01*
X139372225Y-107045507D01*
X139357494Y-107054336D01*
X139341970Y-107061679D01*
X139325800Y-107067465D01*
X139309141Y-107071637D01*
X139292153Y-107074157D01*
X139275000Y-107075000D01*
X138925000Y-107075000D01*
X138907847Y-107074157D01*
X138890859Y-107071637D01*
X138874200Y-107067465D01*
X138858030Y-107061679D01*
X138842506Y-107054336D01*
X138827775Y-107045507D01*
X138813981Y-107035277D01*
X138801256Y-107023744D01*
X138789723Y-107011019D01*
X138779493Y-106997225D01*
X138770664Y-106982494D01*
X138763321Y-106966970D01*
X138757535Y-106950800D01*
X138753363Y-106934141D01*
X138750843Y-106917153D01*
X138750000Y-106900000D01*
X138750000Y-105350000D01*
X138750843Y-105332847D01*
X138753363Y-105315859D01*
X138757535Y-105299200D01*
X138763321Y-105283030D01*
X138770664Y-105267506D01*
X138779493Y-105252775D01*
X138789723Y-105238981D01*
X138801256Y-105226256D01*
X138813981Y-105214723D01*
X138827775Y-105204493D01*
X138842506Y-105195664D01*
X138858030Y-105188321D01*
X138874200Y-105182535D01*
X138890859Y-105178363D01*
X138907847Y-105175843D01*
X138925000Y-105175000D01*
X139275000Y-105175000D01*
X139292153Y-105175843D01*
X139292153Y-105175843D01*
G37*
D33*
X139100000Y-106125000D03*
D27*
G36*
X139792153Y-105175843D02*
G01*
X139809141Y-105178363D01*
X139825800Y-105182535D01*
X139841970Y-105188321D01*
X139857494Y-105195664D01*
X139872225Y-105204493D01*
X139886019Y-105214723D01*
X139898744Y-105226256D01*
X139910277Y-105238981D01*
X139920507Y-105252775D01*
X139929336Y-105267506D01*
X139936679Y-105283030D01*
X139942465Y-105299200D01*
X139946637Y-105315859D01*
X139949157Y-105332847D01*
X139950000Y-105350000D01*
X139950000Y-106900000D01*
X139949157Y-106917153D01*
X139946637Y-106934141D01*
X139942465Y-106950800D01*
X139936679Y-106966970D01*
X139929336Y-106982494D01*
X139920507Y-106997225D01*
X139910277Y-107011019D01*
X139898744Y-107023744D01*
X139886019Y-107035277D01*
X139872225Y-107045507D01*
X139857494Y-107054336D01*
X139841970Y-107061679D01*
X139825800Y-107067465D01*
X139809141Y-107071637D01*
X139792153Y-107074157D01*
X139775000Y-107075000D01*
X139425000Y-107075000D01*
X139407847Y-107074157D01*
X139390859Y-107071637D01*
X139374200Y-107067465D01*
X139358030Y-107061679D01*
X139342506Y-107054336D01*
X139327775Y-107045507D01*
X139313981Y-107035277D01*
X139301256Y-107023744D01*
X139289723Y-107011019D01*
X139279493Y-106997225D01*
X139270664Y-106982494D01*
X139263321Y-106966970D01*
X139257535Y-106950800D01*
X139253363Y-106934141D01*
X139250843Y-106917153D01*
X139250000Y-106900000D01*
X139250000Y-105350000D01*
X139250843Y-105332847D01*
X139253363Y-105315859D01*
X139257535Y-105299200D01*
X139263321Y-105283030D01*
X139270664Y-105267506D01*
X139279493Y-105252775D01*
X139289723Y-105238981D01*
X139301256Y-105226256D01*
X139313981Y-105214723D01*
X139327775Y-105204493D01*
X139342506Y-105195664D01*
X139358030Y-105188321D01*
X139374200Y-105182535D01*
X139390859Y-105178363D01*
X139407847Y-105175843D01*
X139425000Y-105175000D01*
X139775000Y-105175000D01*
X139792153Y-105175843D01*
X139792153Y-105175843D01*
G37*
D33*
X139600000Y-106125000D03*
D27*
G36*
X140292153Y-105175843D02*
G01*
X140309141Y-105178363D01*
X140325800Y-105182535D01*
X140341970Y-105188321D01*
X140357494Y-105195664D01*
X140372225Y-105204493D01*
X140386019Y-105214723D01*
X140398744Y-105226256D01*
X140410277Y-105238981D01*
X140420507Y-105252775D01*
X140429336Y-105267506D01*
X140436679Y-105283030D01*
X140442465Y-105299200D01*
X140446637Y-105315859D01*
X140449157Y-105332847D01*
X140450000Y-105350000D01*
X140450000Y-106900000D01*
X140449157Y-106917153D01*
X140446637Y-106934141D01*
X140442465Y-106950800D01*
X140436679Y-106966970D01*
X140429336Y-106982494D01*
X140420507Y-106997225D01*
X140410277Y-107011019D01*
X140398744Y-107023744D01*
X140386019Y-107035277D01*
X140372225Y-107045507D01*
X140357494Y-107054336D01*
X140341970Y-107061679D01*
X140325800Y-107067465D01*
X140309141Y-107071637D01*
X140292153Y-107074157D01*
X140275000Y-107075000D01*
X139925000Y-107075000D01*
X139907847Y-107074157D01*
X139890859Y-107071637D01*
X139874200Y-107067465D01*
X139858030Y-107061679D01*
X139842506Y-107054336D01*
X139827775Y-107045507D01*
X139813981Y-107035277D01*
X139801256Y-107023744D01*
X139789723Y-107011019D01*
X139779493Y-106997225D01*
X139770664Y-106982494D01*
X139763321Y-106966970D01*
X139757535Y-106950800D01*
X139753363Y-106934141D01*
X139750843Y-106917153D01*
X139750000Y-106900000D01*
X139750000Y-105350000D01*
X139750843Y-105332847D01*
X139753363Y-105315859D01*
X139757535Y-105299200D01*
X139763321Y-105283030D01*
X139770664Y-105267506D01*
X139779493Y-105252775D01*
X139789723Y-105238981D01*
X139801256Y-105226256D01*
X139813981Y-105214723D01*
X139827775Y-105204493D01*
X139842506Y-105195664D01*
X139858030Y-105188321D01*
X139874200Y-105182535D01*
X139890859Y-105178363D01*
X139907847Y-105175843D01*
X139925000Y-105175000D01*
X140275000Y-105175000D01*
X140292153Y-105175843D01*
X140292153Y-105175843D01*
G37*
D33*
X140100000Y-106125000D03*
D27*
G36*
X140792153Y-105175843D02*
G01*
X140809141Y-105178363D01*
X140825800Y-105182535D01*
X140841970Y-105188321D01*
X140857494Y-105195664D01*
X140872225Y-105204493D01*
X140886019Y-105214723D01*
X140898744Y-105226256D01*
X140910277Y-105238981D01*
X140920507Y-105252775D01*
X140929336Y-105267506D01*
X140936679Y-105283030D01*
X140942465Y-105299200D01*
X140946637Y-105315859D01*
X140949157Y-105332847D01*
X140950000Y-105350000D01*
X140950000Y-106900000D01*
X140949157Y-106917153D01*
X140946637Y-106934141D01*
X140942465Y-106950800D01*
X140936679Y-106966970D01*
X140929336Y-106982494D01*
X140920507Y-106997225D01*
X140910277Y-107011019D01*
X140898744Y-107023744D01*
X140886019Y-107035277D01*
X140872225Y-107045507D01*
X140857494Y-107054336D01*
X140841970Y-107061679D01*
X140825800Y-107067465D01*
X140809141Y-107071637D01*
X140792153Y-107074157D01*
X140775000Y-107075000D01*
X140425000Y-107075000D01*
X140407847Y-107074157D01*
X140390859Y-107071637D01*
X140374200Y-107067465D01*
X140358030Y-107061679D01*
X140342506Y-107054336D01*
X140327775Y-107045507D01*
X140313981Y-107035277D01*
X140301256Y-107023744D01*
X140289723Y-107011019D01*
X140279493Y-106997225D01*
X140270664Y-106982494D01*
X140263321Y-106966970D01*
X140257535Y-106950800D01*
X140253363Y-106934141D01*
X140250843Y-106917153D01*
X140250000Y-106900000D01*
X140250000Y-105350000D01*
X140250843Y-105332847D01*
X140253363Y-105315859D01*
X140257535Y-105299200D01*
X140263321Y-105283030D01*
X140270664Y-105267506D01*
X140279493Y-105252775D01*
X140289723Y-105238981D01*
X140301256Y-105226256D01*
X140313981Y-105214723D01*
X140327775Y-105204493D01*
X140342506Y-105195664D01*
X140358030Y-105188321D01*
X140374200Y-105182535D01*
X140390859Y-105178363D01*
X140407847Y-105175843D01*
X140425000Y-105175000D01*
X140775000Y-105175000D01*
X140792153Y-105175843D01*
X140792153Y-105175843D01*
G37*
D33*
X140600000Y-106125000D03*
D27*
G36*
X141292153Y-105175843D02*
G01*
X141309141Y-105178363D01*
X141325800Y-105182535D01*
X141341970Y-105188321D01*
X141357494Y-105195664D01*
X141372225Y-105204493D01*
X141386019Y-105214723D01*
X141398744Y-105226256D01*
X141410277Y-105238981D01*
X141420507Y-105252775D01*
X141429336Y-105267506D01*
X141436679Y-105283030D01*
X141442465Y-105299200D01*
X141446637Y-105315859D01*
X141449157Y-105332847D01*
X141450000Y-105350000D01*
X141450000Y-106900000D01*
X141449157Y-106917153D01*
X141446637Y-106934141D01*
X141442465Y-106950800D01*
X141436679Y-106966970D01*
X141429336Y-106982494D01*
X141420507Y-106997225D01*
X141410277Y-107011019D01*
X141398744Y-107023744D01*
X141386019Y-107035277D01*
X141372225Y-107045507D01*
X141357494Y-107054336D01*
X141341970Y-107061679D01*
X141325800Y-107067465D01*
X141309141Y-107071637D01*
X141292153Y-107074157D01*
X141275000Y-107075000D01*
X140925000Y-107075000D01*
X140907847Y-107074157D01*
X140890859Y-107071637D01*
X140874200Y-107067465D01*
X140858030Y-107061679D01*
X140842506Y-107054336D01*
X140827775Y-107045507D01*
X140813981Y-107035277D01*
X140801256Y-107023744D01*
X140789723Y-107011019D01*
X140779493Y-106997225D01*
X140770664Y-106982494D01*
X140763321Y-106966970D01*
X140757535Y-106950800D01*
X140753363Y-106934141D01*
X140750843Y-106917153D01*
X140750000Y-106900000D01*
X140750000Y-105350000D01*
X140750843Y-105332847D01*
X140753363Y-105315859D01*
X140757535Y-105299200D01*
X140763321Y-105283030D01*
X140770664Y-105267506D01*
X140779493Y-105252775D01*
X140789723Y-105238981D01*
X140801256Y-105226256D01*
X140813981Y-105214723D01*
X140827775Y-105204493D01*
X140842506Y-105195664D01*
X140858030Y-105188321D01*
X140874200Y-105182535D01*
X140890859Y-105178363D01*
X140907847Y-105175843D01*
X140925000Y-105175000D01*
X141275000Y-105175000D01*
X141292153Y-105175843D01*
X141292153Y-105175843D01*
G37*
D33*
X141100000Y-106125000D03*
D27*
G36*
X141792153Y-105175843D02*
G01*
X141809141Y-105178363D01*
X141825800Y-105182535D01*
X141841970Y-105188321D01*
X141857494Y-105195664D01*
X141872225Y-105204493D01*
X141886019Y-105214723D01*
X141898744Y-105226256D01*
X141910277Y-105238981D01*
X141920507Y-105252775D01*
X141929336Y-105267506D01*
X141936679Y-105283030D01*
X141942465Y-105299200D01*
X141946637Y-105315859D01*
X141949157Y-105332847D01*
X141950000Y-105350000D01*
X141950000Y-106900000D01*
X141949157Y-106917153D01*
X141946637Y-106934141D01*
X141942465Y-106950800D01*
X141936679Y-106966970D01*
X141929336Y-106982494D01*
X141920507Y-106997225D01*
X141910277Y-107011019D01*
X141898744Y-107023744D01*
X141886019Y-107035277D01*
X141872225Y-107045507D01*
X141857494Y-107054336D01*
X141841970Y-107061679D01*
X141825800Y-107067465D01*
X141809141Y-107071637D01*
X141792153Y-107074157D01*
X141775000Y-107075000D01*
X141425000Y-107075000D01*
X141407847Y-107074157D01*
X141390859Y-107071637D01*
X141374200Y-107067465D01*
X141358030Y-107061679D01*
X141342506Y-107054336D01*
X141327775Y-107045507D01*
X141313981Y-107035277D01*
X141301256Y-107023744D01*
X141289723Y-107011019D01*
X141279493Y-106997225D01*
X141270664Y-106982494D01*
X141263321Y-106966970D01*
X141257535Y-106950800D01*
X141253363Y-106934141D01*
X141250843Y-106917153D01*
X141250000Y-106900000D01*
X141250000Y-105350000D01*
X141250843Y-105332847D01*
X141253363Y-105315859D01*
X141257535Y-105299200D01*
X141263321Y-105283030D01*
X141270664Y-105267506D01*
X141279493Y-105252775D01*
X141289723Y-105238981D01*
X141301256Y-105226256D01*
X141313981Y-105214723D01*
X141327775Y-105204493D01*
X141342506Y-105195664D01*
X141358030Y-105188321D01*
X141374200Y-105182535D01*
X141390859Y-105178363D01*
X141407847Y-105175843D01*
X141425000Y-105175000D01*
X141775000Y-105175000D01*
X141792153Y-105175843D01*
X141792153Y-105175843D01*
G37*
D33*
X141600000Y-106125000D03*
D27*
G36*
X142292153Y-105175843D02*
G01*
X142309141Y-105178363D01*
X142325800Y-105182535D01*
X142341970Y-105188321D01*
X142357494Y-105195664D01*
X142372225Y-105204493D01*
X142386019Y-105214723D01*
X142398744Y-105226256D01*
X142410277Y-105238981D01*
X142420507Y-105252775D01*
X142429336Y-105267506D01*
X142436679Y-105283030D01*
X142442465Y-105299200D01*
X142446637Y-105315859D01*
X142449157Y-105332847D01*
X142450000Y-105350000D01*
X142450000Y-106900000D01*
X142449157Y-106917153D01*
X142446637Y-106934141D01*
X142442465Y-106950800D01*
X142436679Y-106966970D01*
X142429336Y-106982494D01*
X142420507Y-106997225D01*
X142410277Y-107011019D01*
X142398744Y-107023744D01*
X142386019Y-107035277D01*
X142372225Y-107045507D01*
X142357494Y-107054336D01*
X142341970Y-107061679D01*
X142325800Y-107067465D01*
X142309141Y-107071637D01*
X142292153Y-107074157D01*
X142275000Y-107075000D01*
X141925000Y-107075000D01*
X141907847Y-107074157D01*
X141890859Y-107071637D01*
X141874200Y-107067465D01*
X141858030Y-107061679D01*
X141842506Y-107054336D01*
X141827775Y-107045507D01*
X141813981Y-107035277D01*
X141801256Y-107023744D01*
X141789723Y-107011019D01*
X141779493Y-106997225D01*
X141770664Y-106982494D01*
X141763321Y-106966970D01*
X141757535Y-106950800D01*
X141753363Y-106934141D01*
X141750843Y-106917153D01*
X141750000Y-106900000D01*
X141750000Y-105350000D01*
X141750843Y-105332847D01*
X141753363Y-105315859D01*
X141757535Y-105299200D01*
X141763321Y-105283030D01*
X141770664Y-105267506D01*
X141779493Y-105252775D01*
X141789723Y-105238981D01*
X141801256Y-105226256D01*
X141813981Y-105214723D01*
X141827775Y-105204493D01*
X141842506Y-105195664D01*
X141858030Y-105188321D01*
X141874200Y-105182535D01*
X141890859Y-105178363D01*
X141907847Y-105175843D01*
X141925000Y-105175000D01*
X142275000Y-105175000D01*
X142292153Y-105175843D01*
X142292153Y-105175843D01*
G37*
D33*
X142100000Y-106125000D03*
D27*
G36*
X142792153Y-105175843D02*
G01*
X142809141Y-105178363D01*
X142825800Y-105182535D01*
X142841970Y-105188321D01*
X142857494Y-105195664D01*
X142872225Y-105204493D01*
X142886019Y-105214723D01*
X142898744Y-105226256D01*
X142910277Y-105238981D01*
X142920507Y-105252775D01*
X142929336Y-105267506D01*
X142936679Y-105283030D01*
X142942465Y-105299200D01*
X142946637Y-105315859D01*
X142949157Y-105332847D01*
X142950000Y-105350000D01*
X142950000Y-106900000D01*
X142949157Y-106917153D01*
X142946637Y-106934141D01*
X142942465Y-106950800D01*
X142936679Y-106966970D01*
X142929336Y-106982494D01*
X142920507Y-106997225D01*
X142910277Y-107011019D01*
X142898744Y-107023744D01*
X142886019Y-107035277D01*
X142872225Y-107045507D01*
X142857494Y-107054336D01*
X142841970Y-107061679D01*
X142825800Y-107067465D01*
X142809141Y-107071637D01*
X142792153Y-107074157D01*
X142775000Y-107075000D01*
X142425000Y-107075000D01*
X142407847Y-107074157D01*
X142390859Y-107071637D01*
X142374200Y-107067465D01*
X142358030Y-107061679D01*
X142342506Y-107054336D01*
X142327775Y-107045507D01*
X142313981Y-107035277D01*
X142301256Y-107023744D01*
X142289723Y-107011019D01*
X142279493Y-106997225D01*
X142270664Y-106982494D01*
X142263321Y-106966970D01*
X142257535Y-106950800D01*
X142253363Y-106934141D01*
X142250843Y-106917153D01*
X142250000Y-106900000D01*
X142250000Y-105350000D01*
X142250843Y-105332847D01*
X142253363Y-105315859D01*
X142257535Y-105299200D01*
X142263321Y-105283030D01*
X142270664Y-105267506D01*
X142279493Y-105252775D01*
X142289723Y-105238981D01*
X142301256Y-105226256D01*
X142313981Y-105214723D01*
X142327775Y-105204493D01*
X142342506Y-105195664D01*
X142358030Y-105188321D01*
X142374200Y-105182535D01*
X142390859Y-105178363D01*
X142407847Y-105175843D01*
X142425000Y-105175000D01*
X142775000Y-105175000D01*
X142792153Y-105175843D01*
X142792153Y-105175843D01*
G37*
D33*
X142600000Y-106125000D03*
D27*
G36*
X144817153Y-107200843D02*
G01*
X144834141Y-107203363D01*
X144850800Y-107207535D01*
X144866970Y-107213321D01*
X144882494Y-107220664D01*
X144897225Y-107229493D01*
X144911019Y-107239723D01*
X144923744Y-107251256D01*
X144935277Y-107263981D01*
X144945507Y-107277775D01*
X144954336Y-107292506D01*
X144961679Y-107308030D01*
X144967465Y-107324200D01*
X144971637Y-107340859D01*
X144974157Y-107357847D01*
X144975000Y-107375000D01*
X144975000Y-107725000D01*
X144974157Y-107742153D01*
X144971637Y-107759141D01*
X144967465Y-107775800D01*
X144961679Y-107791970D01*
X144954336Y-107807494D01*
X144945507Y-107822225D01*
X144935277Y-107836019D01*
X144923744Y-107848744D01*
X144911019Y-107860277D01*
X144897225Y-107870507D01*
X144882494Y-107879336D01*
X144866970Y-107886679D01*
X144850800Y-107892465D01*
X144834141Y-107896637D01*
X144817153Y-107899157D01*
X144800000Y-107900000D01*
X143250000Y-107900000D01*
X143232847Y-107899157D01*
X143215859Y-107896637D01*
X143199200Y-107892465D01*
X143183030Y-107886679D01*
X143167506Y-107879336D01*
X143152775Y-107870507D01*
X143138981Y-107860277D01*
X143126256Y-107848744D01*
X143114723Y-107836019D01*
X143104493Y-107822225D01*
X143095664Y-107807494D01*
X143088321Y-107791970D01*
X143082535Y-107775800D01*
X143078363Y-107759141D01*
X143075843Y-107742153D01*
X143075000Y-107725000D01*
X143075000Y-107375000D01*
X143075843Y-107357847D01*
X143078363Y-107340859D01*
X143082535Y-107324200D01*
X143088321Y-107308030D01*
X143095664Y-107292506D01*
X143104493Y-107277775D01*
X143114723Y-107263981D01*
X143126256Y-107251256D01*
X143138981Y-107239723D01*
X143152775Y-107229493D01*
X143167506Y-107220664D01*
X143183030Y-107213321D01*
X143199200Y-107207535D01*
X143215859Y-107203363D01*
X143232847Y-107200843D01*
X143250000Y-107200000D01*
X144800000Y-107200000D01*
X144817153Y-107200843D01*
X144817153Y-107200843D01*
G37*
D33*
X144025000Y-107550000D03*
D27*
G36*
X144817153Y-107700843D02*
G01*
X144834141Y-107703363D01*
X144850800Y-107707535D01*
X144866970Y-107713321D01*
X144882494Y-107720664D01*
X144897225Y-107729493D01*
X144911019Y-107739723D01*
X144923744Y-107751256D01*
X144935277Y-107763981D01*
X144945507Y-107777775D01*
X144954336Y-107792506D01*
X144961679Y-107808030D01*
X144967465Y-107824200D01*
X144971637Y-107840859D01*
X144974157Y-107857847D01*
X144975000Y-107875000D01*
X144975000Y-108225000D01*
X144974157Y-108242153D01*
X144971637Y-108259141D01*
X144967465Y-108275800D01*
X144961679Y-108291970D01*
X144954336Y-108307494D01*
X144945507Y-108322225D01*
X144935277Y-108336019D01*
X144923744Y-108348744D01*
X144911019Y-108360277D01*
X144897225Y-108370507D01*
X144882494Y-108379336D01*
X144866970Y-108386679D01*
X144850800Y-108392465D01*
X144834141Y-108396637D01*
X144817153Y-108399157D01*
X144800000Y-108400000D01*
X143250000Y-108400000D01*
X143232847Y-108399157D01*
X143215859Y-108396637D01*
X143199200Y-108392465D01*
X143183030Y-108386679D01*
X143167506Y-108379336D01*
X143152775Y-108370507D01*
X143138981Y-108360277D01*
X143126256Y-108348744D01*
X143114723Y-108336019D01*
X143104493Y-108322225D01*
X143095664Y-108307494D01*
X143088321Y-108291970D01*
X143082535Y-108275800D01*
X143078363Y-108259141D01*
X143075843Y-108242153D01*
X143075000Y-108225000D01*
X143075000Y-107875000D01*
X143075843Y-107857847D01*
X143078363Y-107840859D01*
X143082535Y-107824200D01*
X143088321Y-107808030D01*
X143095664Y-107792506D01*
X143104493Y-107777775D01*
X143114723Y-107763981D01*
X143126256Y-107751256D01*
X143138981Y-107739723D01*
X143152775Y-107729493D01*
X143167506Y-107720664D01*
X143183030Y-107713321D01*
X143199200Y-107707535D01*
X143215859Y-107703363D01*
X143232847Y-107700843D01*
X143250000Y-107700000D01*
X144800000Y-107700000D01*
X144817153Y-107700843D01*
X144817153Y-107700843D01*
G37*
D33*
X144025000Y-108050000D03*
D27*
G36*
X144817153Y-108200843D02*
G01*
X144834141Y-108203363D01*
X144850800Y-108207535D01*
X144866970Y-108213321D01*
X144882494Y-108220664D01*
X144897225Y-108229493D01*
X144911019Y-108239723D01*
X144923744Y-108251256D01*
X144935277Y-108263981D01*
X144945507Y-108277775D01*
X144954336Y-108292506D01*
X144961679Y-108308030D01*
X144967465Y-108324200D01*
X144971637Y-108340859D01*
X144974157Y-108357847D01*
X144975000Y-108375000D01*
X144975000Y-108725000D01*
X144974157Y-108742153D01*
X144971637Y-108759141D01*
X144967465Y-108775800D01*
X144961679Y-108791970D01*
X144954336Y-108807494D01*
X144945507Y-108822225D01*
X144935277Y-108836019D01*
X144923744Y-108848744D01*
X144911019Y-108860277D01*
X144897225Y-108870507D01*
X144882494Y-108879336D01*
X144866970Y-108886679D01*
X144850800Y-108892465D01*
X144834141Y-108896637D01*
X144817153Y-108899157D01*
X144800000Y-108900000D01*
X143250000Y-108900000D01*
X143232847Y-108899157D01*
X143215859Y-108896637D01*
X143199200Y-108892465D01*
X143183030Y-108886679D01*
X143167506Y-108879336D01*
X143152775Y-108870507D01*
X143138981Y-108860277D01*
X143126256Y-108848744D01*
X143114723Y-108836019D01*
X143104493Y-108822225D01*
X143095664Y-108807494D01*
X143088321Y-108791970D01*
X143082535Y-108775800D01*
X143078363Y-108759141D01*
X143075843Y-108742153D01*
X143075000Y-108725000D01*
X143075000Y-108375000D01*
X143075843Y-108357847D01*
X143078363Y-108340859D01*
X143082535Y-108324200D01*
X143088321Y-108308030D01*
X143095664Y-108292506D01*
X143104493Y-108277775D01*
X143114723Y-108263981D01*
X143126256Y-108251256D01*
X143138981Y-108239723D01*
X143152775Y-108229493D01*
X143167506Y-108220664D01*
X143183030Y-108213321D01*
X143199200Y-108207535D01*
X143215859Y-108203363D01*
X143232847Y-108200843D01*
X143250000Y-108200000D01*
X144800000Y-108200000D01*
X144817153Y-108200843D01*
X144817153Y-108200843D01*
G37*
D33*
X144025000Y-108550000D03*
D27*
G36*
X144817153Y-108700843D02*
G01*
X144834141Y-108703363D01*
X144850800Y-108707535D01*
X144866970Y-108713321D01*
X144882494Y-108720664D01*
X144897225Y-108729493D01*
X144911019Y-108739723D01*
X144923744Y-108751256D01*
X144935277Y-108763981D01*
X144945507Y-108777775D01*
X144954336Y-108792506D01*
X144961679Y-108808030D01*
X144967465Y-108824200D01*
X144971637Y-108840859D01*
X144974157Y-108857847D01*
X144975000Y-108875000D01*
X144975000Y-109225000D01*
X144974157Y-109242153D01*
X144971637Y-109259141D01*
X144967465Y-109275800D01*
X144961679Y-109291970D01*
X144954336Y-109307494D01*
X144945507Y-109322225D01*
X144935277Y-109336019D01*
X144923744Y-109348744D01*
X144911019Y-109360277D01*
X144897225Y-109370507D01*
X144882494Y-109379336D01*
X144866970Y-109386679D01*
X144850800Y-109392465D01*
X144834141Y-109396637D01*
X144817153Y-109399157D01*
X144800000Y-109400000D01*
X143250000Y-109400000D01*
X143232847Y-109399157D01*
X143215859Y-109396637D01*
X143199200Y-109392465D01*
X143183030Y-109386679D01*
X143167506Y-109379336D01*
X143152775Y-109370507D01*
X143138981Y-109360277D01*
X143126256Y-109348744D01*
X143114723Y-109336019D01*
X143104493Y-109322225D01*
X143095664Y-109307494D01*
X143088321Y-109291970D01*
X143082535Y-109275800D01*
X143078363Y-109259141D01*
X143075843Y-109242153D01*
X143075000Y-109225000D01*
X143075000Y-108875000D01*
X143075843Y-108857847D01*
X143078363Y-108840859D01*
X143082535Y-108824200D01*
X143088321Y-108808030D01*
X143095664Y-108792506D01*
X143104493Y-108777775D01*
X143114723Y-108763981D01*
X143126256Y-108751256D01*
X143138981Y-108739723D01*
X143152775Y-108729493D01*
X143167506Y-108720664D01*
X143183030Y-108713321D01*
X143199200Y-108707535D01*
X143215859Y-108703363D01*
X143232847Y-108700843D01*
X143250000Y-108700000D01*
X144800000Y-108700000D01*
X144817153Y-108700843D01*
X144817153Y-108700843D01*
G37*
D33*
X144025000Y-109050000D03*
D27*
G36*
X144817153Y-109200843D02*
G01*
X144834141Y-109203363D01*
X144850800Y-109207535D01*
X144866970Y-109213321D01*
X144882494Y-109220664D01*
X144897225Y-109229493D01*
X144911019Y-109239723D01*
X144923744Y-109251256D01*
X144935277Y-109263981D01*
X144945507Y-109277775D01*
X144954336Y-109292506D01*
X144961679Y-109308030D01*
X144967465Y-109324200D01*
X144971637Y-109340859D01*
X144974157Y-109357847D01*
X144975000Y-109375000D01*
X144975000Y-109725000D01*
X144974157Y-109742153D01*
X144971637Y-109759141D01*
X144967465Y-109775800D01*
X144961679Y-109791970D01*
X144954336Y-109807494D01*
X144945507Y-109822225D01*
X144935277Y-109836019D01*
X144923744Y-109848744D01*
X144911019Y-109860277D01*
X144897225Y-109870507D01*
X144882494Y-109879336D01*
X144866970Y-109886679D01*
X144850800Y-109892465D01*
X144834141Y-109896637D01*
X144817153Y-109899157D01*
X144800000Y-109900000D01*
X143250000Y-109900000D01*
X143232847Y-109899157D01*
X143215859Y-109896637D01*
X143199200Y-109892465D01*
X143183030Y-109886679D01*
X143167506Y-109879336D01*
X143152775Y-109870507D01*
X143138981Y-109860277D01*
X143126256Y-109848744D01*
X143114723Y-109836019D01*
X143104493Y-109822225D01*
X143095664Y-109807494D01*
X143088321Y-109791970D01*
X143082535Y-109775800D01*
X143078363Y-109759141D01*
X143075843Y-109742153D01*
X143075000Y-109725000D01*
X143075000Y-109375000D01*
X143075843Y-109357847D01*
X143078363Y-109340859D01*
X143082535Y-109324200D01*
X143088321Y-109308030D01*
X143095664Y-109292506D01*
X143104493Y-109277775D01*
X143114723Y-109263981D01*
X143126256Y-109251256D01*
X143138981Y-109239723D01*
X143152775Y-109229493D01*
X143167506Y-109220664D01*
X143183030Y-109213321D01*
X143199200Y-109207535D01*
X143215859Y-109203363D01*
X143232847Y-109200843D01*
X143250000Y-109200000D01*
X144800000Y-109200000D01*
X144817153Y-109200843D01*
X144817153Y-109200843D01*
G37*
D33*
X144025000Y-109550000D03*
D27*
G36*
X144817153Y-109700843D02*
G01*
X144834141Y-109703363D01*
X144850800Y-109707535D01*
X144866970Y-109713321D01*
X144882494Y-109720664D01*
X144897225Y-109729493D01*
X144911019Y-109739723D01*
X144923744Y-109751256D01*
X144935277Y-109763981D01*
X144945507Y-109777775D01*
X144954336Y-109792506D01*
X144961679Y-109808030D01*
X144967465Y-109824200D01*
X144971637Y-109840859D01*
X144974157Y-109857847D01*
X144975000Y-109875000D01*
X144975000Y-110225000D01*
X144974157Y-110242153D01*
X144971637Y-110259141D01*
X144967465Y-110275800D01*
X144961679Y-110291970D01*
X144954336Y-110307494D01*
X144945507Y-110322225D01*
X144935277Y-110336019D01*
X144923744Y-110348744D01*
X144911019Y-110360277D01*
X144897225Y-110370507D01*
X144882494Y-110379336D01*
X144866970Y-110386679D01*
X144850800Y-110392465D01*
X144834141Y-110396637D01*
X144817153Y-110399157D01*
X144800000Y-110400000D01*
X143250000Y-110400000D01*
X143232847Y-110399157D01*
X143215859Y-110396637D01*
X143199200Y-110392465D01*
X143183030Y-110386679D01*
X143167506Y-110379336D01*
X143152775Y-110370507D01*
X143138981Y-110360277D01*
X143126256Y-110348744D01*
X143114723Y-110336019D01*
X143104493Y-110322225D01*
X143095664Y-110307494D01*
X143088321Y-110291970D01*
X143082535Y-110275800D01*
X143078363Y-110259141D01*
X143075843Y-110242153D01*
X143075000Y-110225000D01*
X143075000Y-109875000D01*
X143075843Y-109857847D01*
X143078363Y-109840859D01*
X143082535Y-109824200D01*
X143088321Y-109808030D01*
X143095664Y-109792506D01*
X143104493Y-109777775D01*
X143114723Y-109763981D01*
X143126256Y-109751256D01*
X143138981Y-109739723D01*
X143152775Y-109729493D01*
X143167506Y-109720664D01*
X143183030Y-109713321D01*
X143199200Y-109707535D01*
X143215859Y-109703363D01*
X143232847Y-109700843D01*
X143250000Y-109700000D01*
X144800000Y-109700000D01*
X144817153Y-109700843D01*
X144817153Y-109700843D01*
G37*
D33*
X144025000Y-110050000D03*
D27*
G36*
X144817153Y-110200843D02*
G01*
X144834141Y-110203363D01*
X144850800Y-110207535D01*
X144866970Y-110213321D01*
X144882494Y-110220664D01*
X144897225Y-110229493D01*
X144911019Y-110239723D01*
X144923744Y-110251256D01*
X144935277Y-110263981D01*
X144945507Y-110277775D01*
X144954336Y-110292506D01*
X144961679Y-110308030D01*
X144967465Y-110324200D01*
X144971637Y-110340859D01*
X144974157Y-110357847D01*
X144975000Y-110375000D01*
X144975000Y-110725000D01*
X144974157Y-110742153D01*
X144971637Y-110759141D01*
X144967465Y-110775800D01*
X144961679Y-110791970D01*
X144954336Y-110807494D01*
X144945507Y-110822225D01*
X144935277Y-110836019D01*
X144923744Y-110848744D01*
X144911019Y-110860277D01*
X144897225Y-110870507D01*
X144882494Y-110879336D01*
X144866970Y-110886679D01*
X144850800Y-110892465D01*
X144834141Y-110896637D01*
X144817153Y-110899157D01*
X144800000Y-110900000D01*
X143250000Y-110900000D01*
X143232847Y-110899157D01*
X143215859Y-110896637D01*
X143199200Y-110892465D01*
X143183030Y-110886679D01*
X143167506Y-110879336D01*
X143152775Y-110870507D01*
X143138981Y-110860277D01*
X143126256Y-110848744D01*
X143114723Y-110836019D01*
X143104493Y-110822225D01*
X143095664Y-110807494D01*
X143088321Y-110791970D01*
X143082535Y-110775800D01*
X143078363Y-110759141D01*
X143075843Y-110742153D01*
X143075000Y-110725000D01*
X143075000Y-110375000D01*
X143075843Y-110357847D01*
X143078363Y-110340859D01*
X143082535Y-110324200D01*
X143088321Y-110308030D01*
X143095664Y-110292506D01*
X143104493Y-110277775D01*
X143114723Y-110263981D01*
X143126256Y-110251256D01*
X143138981Y-110239723D01*
X143152775Y-110229493D01*
X143167506Y-110220664D01*
X143183030Y-110213321D01*
X143199200Y-110207535D01*
X143215859Y-110203363D01*
X143232847Y-110200843D01*
X143250000Y-110200000D01*
X144800000Y-110200000D01*
X144817153Y-110200843D01*
X144817153Y-110200843D01*
G37*
D33*
X144025000Y-110550000D03*
D27*
G36*
X144817153Y-110700843D02*
G01*
X144834141Y-110703363D01*
X144850800Y-110707535D01*
X144866970Y-110713321D01*
X144882494Y-110720664D01*
X144897225Y-110729493D01*
X144911019Y-110739723D01*
X144923744Y-110751256D01*
X144935277Y-110763981D01*
X144945507Y-110777775D01*
X144954336Y-110792506D01*
X144961679Y-110808030D01*
X144967465Y-110824200D01*
X144971637Y-110840859D01*
X144974157Y-110857847D01*
X144975000Y-110875000D01*
X144975000Y-111225000D01*
X144974157Y-111242153D01*
X144971637Y-111259141D01*
X144967465Y-111275800D01*
X144961679Y-111291970D01*
X144954336Y-111307494D01*
X144945507Y-111322225D01*
X144935277Y-111336019D01*
X144923744Y-111348744D01*
X144911019Y-111360277D01*
X144897225Y-111370507D01*
X144882494Y-111379336D01*
X144866970Y-111386679D01*
X144850800Y-111392465D01*
X144834141Y-111396637D01*
X144817153Y-111399157D01*
X144800000Y-111400000D01*
X143250000Y-111400000D01*
X143232847Y-111399157D01*
X143215859Y-111396637D01*
X143199200Y-111392465D01*
X143183030Y-111386679D01*
X143167506Y-111379336D01*
X143152775Y-111370507D01*
X143138981Y-111360277D01*
X143126256Y-111348744D01*
X143114723Y-111336019D01*
X143104493Y-111322225D01*
X143095664Y-111307494D01*
X143088321Y-111291970D01*
X143082535Y-111275800D01*
X143078363Y-111259141D01*
X143075843Y-111242153D01*
X143075000Y-111225000D01*
X143075000Y-110875000D01*
X143075843Y-110857847D01*
X143078363Y-110840859D01*
X143082535Y-110824200D01*
X143088321Y-110808030D01*
X143095664Y-110792506D01*
X143104493Y-110777775D01*
X143114723Y-110763981D01*
X143126256Y-110751256D01*
X143138981Y-110739723D01*
X143152775Y-110729493D01*
X143167506Y-110720664D01*
X143183030Y-110713321D01*
X143199200Y-110707535D01*
X143215859Y-110703363D01*
X143232847Y-110700843D01*
X143250000Y-110700000D01*
X144800000Y-110700000D01*
X144817153Y-110700843D01*
X144817153Y-110700843D01*
G37*
D33*
X144025000Y-111050000D03*
D27*
G36*
X142792153Y-111525843D02*
G01*
X142809141Y-111528363D01*
X142825800Y-111532535D01*
X142841970Y-111538321D01*
X142857494Y-111545664D01*
X142872225Y-111554493D01*
X142886019Y-111564723D01*
X142898744Y-111576256D01*
X142910277Y-111588981D01*
X142920507Y-111602775D01*
X142929336Y-111617506D01*
X142936679Y-111633030D01*
X142942465Y-111649200D01*
X142946637Y-111665859D01*
X142949157Y-111682847D01*
X142950000Y-111700000D01*
X142950000Y-113250000D01*
X142949157Y-113267153D01*
X142946637Y-113284141D01*
X142942465Y-113300800D01*
X142936679Y-113316970D01*
X142929336Y-113332494D01*
X142920507Y-113347225D01*
X142910277Y-113361019D01*
X142898744Y-113373744D01*
X142886019Y-113385277D01*
X142872225Y-113395507D01*
X142857494Y-113404336D01*
X142841970Y-113411679D01*
X142825800Y-113417465D01*
X142809141Y-113421637D01*
X142792153Y-113424157D01*
X142775000Y-113425000D01*
X142425000Y-113425000D01*
X142407847Y-113424157D01*
X142390859Y-113421637D01*
X142374200Y-113417465D01*
X142358030Y-113411679D01*
X142342506Y-113404336D01*
X142327775Y-113395507D01*
X142313981Y-113385277D01*
X142301256Y-113373744D01*
X142289723Y-113361019D01*
X142279493Y-113347225D01*
X142270664Y-113332494D01*
X142263321Y-113316970D01*
X142257535Y-113300800D01*
X142253363Y-113284141D01*
X142250843Y-113267153D01*
X142250000Y-113250000D01*
X142250000Y-111700000D01*
X142250843Y-111682847D01*
X142253363Y-111665859D01*
X142257535Y-111649200D01*
X142263321Y-111633030D01*
X142270664Y-111617506D01*
X142279493Y-111602775D01*
X142289723Y-111588981D01*
X142301256Y-111576256D01*
X142313981Y-111564723D01*
X142327775Y-111554493D01*
X142342506Y-111545664D01*
X142358030Y-111538321D01*
X142374200Y-111532535D01*
X142390859Y-111528363D01*
X142407847Y-111525843D01*
X142425000Y-111525000D01*
X142775000Y-111525000D01*
X142792153Y-111525843D01*
X142792153Y-111525843D01*
G37*
D33*
X142600000Y-112475000D03*
D27*
G36*
X142292153Y-111525843D02*
G01*
X142309141Y-111528363D01*
X142325800Y-111532535D01*
X142341970Y-111538321D01*
X142357494Y-111545664D01*
X142372225Y-111554493D01*
X142386019Y-111564723D01*
X142398744Y-111576256D01*
X142410277Y-111588981D01*
X142420507Y-111602775D01*
X142429336Y-111617506D01*
X142436679Y-111633030D01*
X142442465Y-111649200D01*
X142446637Y-111665859D01*
X142449157Y-111682847D01*
X142450000Y-111700000D01*
X142450000Y-113250000D01*
X142449157Y-113267153D01*
X142446637Y-113284141D01*
X142442465Y-113300800D01*
X142436679Y-113316970D01*
X142429336Y-113332494D01*
X142420507Y-113347225D01*
X142410277Y-113361019D01*
X142398744Y-113373744D01*
X142386019Y-113385277D01*
X142372225Y-113395507D01*
X142357494Y-113404336D01*
X142341970Y-113411679D01*
X142325800Y-113417465D01*
X142309141Y-113421637D01*
X142292153Y-113424157D01*
X142275000Y-113425000D01*
X141925000Y-113425000D01*
X141907847Y-113424157D01*
X141890859Y-113421637D01*
X141874200Y-113417465D01*
X141858030Y-113411679D01*
X141842506Y-113404336D01*
X141827775Y-113395507D01*
X141813981Y-113385277D01*
X141801256Y-113373744D01*
X141789723Y-113361019D01*
X141779493Y-113347225D01*
X141770664Y-113332494D01*
X141763321Y-113316970D01*
X141757535Y-113300800D01*
X141753363Y-113284141D01*
X141750843Y-113267153D01*
X141750000Y-113250000D01*
X141750000Y-111700000D01*
X141750843Y-111682847D01*
X141753363Y-111665859D01*
X141757535Y-111649200D01*
X141763321Y-111633030D01*
X141770664Y-111617506D01*
X141779493Y-111602775D01*
X141789723Y-111588981D01*
X141801256Y-111576256D01*
X141813981Y-111564723D01*
X141827775Y-111554493D01*
X141842506Y-111545664D01*
X141858030Y-111538321D01*
X141874200Y-111532535D01*
X141890859Y-111528363D01*
X141907847Y-111525843D01*
X141925000Y-111525000D01*
X142275000Y-111525000D01*
X142292153Y-111525843D01*
X142292153Y-111525843D01*
G37*
D33*
X142100000Y-112475000D03*
D27*
G36*
X141792153Y-111525843D02*
G01*
X141809141Y-111528363D01*
X141825800Y-111532535D01*
X141841970Y-111538321D01*
X141857494Y-111545664D01*
X141872225Y-111554493D01*
X141886019Y-111564723D01*
X141898744Y-111576256D01*
X141910277Y-111588981D01*
X141920507Y-111602775D01*
X141929336Y-111617506D01*
X141936679Y-111633030D01*
X141942465Y-111649200D01*
X141946637Y-111665859D01*
X141949157Y-111682847D01*
X141950000Y-111700000D01*
X141950000Y-113250000D01*
X141949157Y-113267153D01*
X141946637Y-113284141D01*
X141942465Y-113300800D01*
X141936679Y-113316970D01*
X141929336Y-113332494D01*
X141920507Y-113347225D01*
X141910277Y-113361019D01*
X141898744Y-113373744D01*
X141886019Y-113385277D01*
X141872225Y-113395507D01*
X141857494Y-113404336D01*
X141841970Y-113411679D01*
X141825800Y-113417465D01*
X141809141Y-113421637D01*
X141792153Y-113424157D01*
X141775000Y-113425000D01*
X141425000Y-113425000D01*
X141407847Y-113424157D01*
X141390859Y-113421637D01*
X141374200Y-113417465D01*
X141358030Y-113411679D01*
X141342506Y-113404336D01*
X141327775Y-113395507D01*
X141313981Y-113385277D01*
X141301256Y-113373744D01*
X141289723Y-113361019D01*
X141279493Y-113347225D01*
X141270664Y-113332494D01*
X141263321Y-113316970D01*
X141257535Y-113300800D01*
X141253363Y-113284141D01*
X141250843Y-113267153D01*
X141250000Y-113250000D01*
X141250000Y-111700000D01*
X141250843Y-111682847D01*
X141253363Y-111665859D01*
X141257535Y-111649200D01*
X141263321Y-111633030D01*
X141270664Y-111617506D01*
X141279493Y-111602775D01*
X141289723Y-111588981D01*
X141301256Y-111576256D01*
X141313981Y-111564723D01*
X141327775Y-111554493D01*
X141342506Y-111545664D01*
X141358030Y-111538321D01*
X141374200Y-111532535D01*
X141390859Y-111528363D01*
X141407847Y-111525843D01*
X141425000Y-111525000D01*
X141775000Y-111525000D01*
X141792153Y-111525843D01*
X141792153Y-111525843D01*
G37*
D33*
X141600000Y-112475000D03*
D27*
G36*
X141292153Y-111525843D02*
G01*
X141309141Y-111528363D01*
X141325800Y-111532535D01*
X141341970Y-111538321D01*
X141357494Y-111545664D01*
X141372225Y-111554493D01*
X141386019Y-111564723D01*
X141398744Y-111576256D01*
X141410277Y-111588981D01*
X141420507Y-111602775D01*
X141429336Y-111617506D01*
X141436679Y-111633030D01*
X141442465Y-111649200D01*
X141446637Y-111665859D01*
X141449157Y-111682847D01*
X141450000Y-111700000D01*
X141450000Y-113250000D01*
X141449157Y-113267153D01*
X141446637Y-113284141D01*
X141442465Y-113300800D01*
X141436679Y-113316970D01*
X141429336Y-113332494D01*
X141420507Y-113347225D01*
X141410277Y-113361019D01*
X141398744Y-113373744D01*
X141386019Y-113385277D01*
X141372225Y-113395507D01*
X141357494Y-113404336D01*
X141341970Y-113411679D01*
X141325800Y-113417465D01*
X141309141Y-113421637D01*
X141292153Y-113424157D01*
X141275000Y-113425000D01*
X140925000Y-113425000D01*
X140907847Y-113424157D01*
X140890859Y-113421637D01*
X140874200Y-113417465D01*
X140858030Y-113411679D01*
X140842506Y-113404336D01*
X140827775Y-113395507D01*
X140813981Y-113385277D01*
X140801256Y-113373744D01*
X140789723Y-113361019D01*
X140779493Y-113347225D01*
X140770664Y-113332494D01*
X140763321Y-113316970D01*
X140757535Y-113300800D01*
X140753363Y-113284141D01*
X140750843Y-113267153D01*
X140750000Y-113250000D01*
X140750000Y-111700000D01*
X140750843Y-111682847D01*
X140753363Y-111665859D01*
X140757535Y-111649200D01*
X140763321Y-111633030D01*
X140770664Y-111617506D01*
X140779493Y-111602775D01*
X140789723Y-111588981D01*
X140801256Y-111576256D01*
X140813981Y-111564723D01*
X140827775Y-111554493D01*
X140842506Y-111545664D01*
X140858030Y-111538321D01*
X140874200Y-111532535D01*
X140890859Y-111528363D01*
X140907847Y-111525843D01*
X140925000Y-111525000D01*
X141275000Y-111525000D01*
X141292153Y-111525843D01*
X141292153Y-111525843D01*
G37*
D33*
X141100000Y-112475000D03*
D27*
G36*
X140792153Y-111525843D02*
G01*
X140809141Y-111528363D01*
X140825800Y-111532535D01*
X140841970Y-111538321D01*
X140857494Y-111545664D01*
X140872225Y-111554493D01*
X140886019Y-111564723D01*
X140898744Y-111576256D01*
X140910277Y-111588981D01*
X140920507Y-111602775D01*
X140929336Y-111617506D01*
X140936679Y-111633030D01*
X140942465Y-111649200D01*
X140946637Y-111665859D01*
X140949157Y-111682847D01*
X140950000Y-111700000D01*
X140950000Y-113250000D01*
X140949157Y-113267153D01*
X140946637Y-113284141D01*
X140942465Y-113300800D01*
X140936679Y-113316970D01*
X140929336Y-113332494D01*
X140920507Y-113347225D01*
X140910277Y-113361019D01*
X140898744Y-113373744D01*
X140886019Y-113385277D01*
X140872225Y-113395507D01*
X140857494Y-113404336D01*
X140841970Y-113411679D01*
X140825800Y-113417465D01*
X140809141Y-113421637D01*
X140792153Y-113424157D01*
X140775000Y-113425000D01*
X140425000Y-113425000D01*
X140407847Y-113424157D01*
X140390859Y-113421637D01*
X140374200Y-113417465D01*
X140358030Y-113411679D01*
X140342506Y-113404336D01*
X140327775Y-113395507D01*
X140313981Y-113385277D01*
X140301256Y-113373744D01*
X140289723Y-113361019D01*
X140279493Y-113347225D01*
X140270664Y-113332494D01*
X140263321Y-113316970D01*
X140257535Y-113300800D01*
X140253363Y-113284141D01*
X140250843Y-113267153D01*
X140250000Y-113250000D01*
X140250000Y-111700000D01*
X140250843Y-111682847D01*
X140253363Y-111665859D01*
X140257535Y-111649200D01*
X140263321Y-111633030D01*
X140270664Y-111617506D01*
X140279493Y-111602775D01*
X140289723Y-111588981D01*
X140301256Y-111576256D01*
X140313981Y-111564723D01*
X140327775Y-111554493D01*
X140342506Y-111545664D01*
X140358030Y-111538321D01*
X140374200Y-111532535D01*
X140390859Y-111528363D01*
X140407847Y-111525843D01*
X140425000Y-111525000D01*
X140775000Y-111525000D01*
X140792153Y-111525843D01*
X140792153Y-111525843D01*
G37*
D33*
X140600000Y-112475000D03*
D27*
G36*
X140292153Y-111525843D02*
G01*
X140309141Y-111528363D01*
X140325800Y-111532535D01*
X140341970Y-111538321D01*
X140357494Y-111545664D01*
X140372225Y-111554493D01*
X140386019Y-111564723D01*
X140398744Y-111576256D01*
X140410277Y-111588981D01*
X140420507Y-111602775D01*
X140429336Y-111617506D01*
X140436679Y-111633030D01*
X140442465Y-111649200D01*
X140446637Y-111665859D01*
X140449157Y-111682847D01*
X140450000Y-111700000D01*
X140450000Y-113250000D01*
X140449157Y-113267153D01*
X140446637Y-113284141D01*
X140442465Y-113300800D01*
X140436679Y-113316970D01*
X140429336Y-113332494D01*
X140420507Y-113347225D01*
X140410277Y-113361019D01*
X140398744Y-113373744D01*
X140386019Y-113385277D01*
X140372225Y-113395507D01*
X140357494Y-113404336D01*
X140341970Y-113411679D01*
X140325800Y-113417465D01*
X140309141Y-113421637D01*
X140292153Y-113424157D01*
X140275000Y-113425000D01*
X139925000Y-113425000D01*
X139907847Y-113424157D01*
X139890859Y-113421637D01*
X139874200Y-113417465D01*
X139858030Y-113411679D01*
X139842506Y-113404336D01*
X139827775Y-113395507D01*
X139813981Y-113385277D01*
X139801256Y-113373744D01*
X139789723Y-113361019D01*
X139779493Y-113347225D01*
X139770664Y-113332494D01*
X139763321Y-113316970D01*
X139757535Y-113300800D01*
X139753363Y-113284141D01*
X139750843Y-113267153D01*
X139750000Y-113250000D01*
X139750000Y-111700000D01*
X139750843Y-111682847D01*
X139753363Y-111665859D01*
X139757535Y-111649200D01*
X139763321Y-111633030D01*
X139770664Y-111617506D01*
X139779493Y-111602775D01*
X139789723Y-111588981D01*
X139801256Y-111576256D01*
X139813981Y-111564723D01*
X139827775Y-111554493D01*
X139842506Y-111545664D01*
X139858030Y-111538321D01*
X139874200Y-111532535D01*
X139890859Y-111528363D01*
X139907847Y-111525843D01*
X139925000Y-111525000D01*
X140275000Y-111525000D01*
X140292153Y-111525843D01*
X140292153Y-111525843D01*
G37*
D33*
X140100000Y-112475000D03*
D27*
G36*
X139792153Y-111525843D02*
G01*
X139809141Y-111528363D01*
X139825800Y-111532535D01*
X139841970Y-111538321D01*
X139857494Y-111545664D01*
X139872225Y-111554493D01*
X139886019Y-111564723D01*
X139898744Y-111576256D01*
X139910277Y-111588981D01*
X139920507Y-111602775D01*
X139929336Y-111617506D01*
X139936679Y-111633030D01*
X139942465Y-111649200D01*
X139946637Y-111665859D01*
X139949157Y-111682847D01*
X139950000Y-111700000D01*
X139950000Y-113250000D01*
X139949157Y-113267153D01*
X139946637Y-113284141D01*
X139942465Y-113300800D01*
X139936679Y-113316970D01*
X139929336Y-113332494D01*
X139920507Y-113347225D01*
X139910277Y-113361019D01*
X139898744Y-113373744D01*
X139886019Y-113385277D01*
X139872225Y-113395507D01*
X139857494Y-113404336D01*
X139841970Y-113411679D01*
X139825800Y-113417465D01*
X139809141Y-113421637D01*
X139792153Y-113424157D01*
X139775000Y-113425000D01*
X139425000Y-113425000D01*
X139407847Y-113424157D01*
X139390859Y-113421637D01*
X139374200Y-113417465D01*
X139358030Y-113411679D01*
X139342506Y-113404336D01*
X139327775Y-113395507D01*
X139313981Y-113385277D01*
X139301256Y-113373744D01*
X139289723Y-113361019D01*
X139279493Y-113347225D01*
X139270664Y-113332494D01*
X139263321Y-113316970D01*
X139257535Y-113300800D01*
X139253363Y-113284141D01*
X139250843Y-113267153D01*
X139250000Y-113250000D01*
X139250000Y-111700000D01*
X139250843Y-111682847D01*
X139253363Y-111665859D01*
X139257535Y-111649200D01*
X139263321Y-111633030D01*
X139270664Y-111617506D01*
X139279493Y-111602775D01*
X139289723Y-111588981D01*
X139301256Y-111576256D01*
X139313981Y-111564723D01*
X139327775Y-111554493D01*
X139342506Y-111545664D01*
X139358030Y-111538321D01*
X139374200Y-111532535D01*
X139390859Y-111528363D01*
X139407847Y-111525843D01*
X139425000Y-111525000D01*
X139775000Y-111525000D01*
X139792153Y-111525843D01*
X139792153Y-111525843D01*
G37*
D33*
X139600000Y-112475000D03*
D27*
G36*
X139292153Y-111525843D02*
G01*
X139309141Y-111528363D01*
X139325800Y-111532535D01*
X139341970Y-111538321D01*
X139357494Y-111545664D01*
X139372225Y-111554493D01*
X139386019Y-111564723D01*
X139398744Y-111576256D01*
X139410277Y-111588981D01*
X139420507Y-111602775D01*
X139429336Y-111617506D01*
X139436679Y-111633030D01*
X139442465Y-111649200D01*
X139446637Y-111665859D01*
X139449157Y-111682847D01*
X139450000Y-111700000D01*
X139450000Y-113250000D01*
X139449157Y-113267153D01*
X139446637Y-113284141D01*
X139442465Y-113300800D01*
X139436679Y-113316970D01*
X139429336Y-113332494D01*
X139420507Y-113347225D01*
X139410277Y-113361019D01*
X139398744Y-113373744D01*
X139386019Y-113385277D01*
X139372225Y-113395507D01*
X139357494Y-113404336D01*
X139341970Y-113411679D01*
X139325800Y-113417465D01*
X139309141Y-113421637D01*
X139292153Y-113424157D01*
X139275000Y-113425000D01*
X138925000Y-113425000D01*
X138907847Y-113424157D01*
X138890859Y-113421637D01*
X138874200Y-113417465D01*
X138858030Y-113411679D01*
X138842506Y-113404336D01*
X138827775Y-113395507D01*
X138813981Y-113385277D01*
X138801256Y-113373744D01*
X138789723Y-113361019D01*
X138779493Y-113347225D01*
X138770664Y-113332494D01*
X138763321Y-113316970D01*
X138757535Y-113300800D01*
X138753363Y-113284141D01*
X138750843Y-113267153D01*
X138750000Y-113250000D01*
X138750000Y-111700000D01*
X138750843Y-111682847D01*
X138753363Y-111665859D01*
X138757535Y-111649200D01*
X138763321Y-111633030D01*
X138770664Y-111617506D01*
X138779493Y-111602775D01*
X138789723Y-111588981D01*
X138801256Y-111576256D01*
X138813981Y-111564723D01*
X138827775Y-111554493D01*
X138842506Y-111545664D01*
X138858030Y-111538321D01*
X138874200Y-111532535D01*
X138890859Y-111528363D01*
X138907847Y-111525843D01*
X138925000Y-111525000D01*
X139275000Y-111525000D01*
X139292153Y-111525843D01*
X139292153Y-111525843D01*
G37*
D33*
X139100000Y-112475000D03*
D27*
G36*
X138467153Y-110700843D02*
G01*
X138484141Y-110703363D01*
X138500800Y-110707535D01*
X138516970Y-110713321D01*
X138532494Y-110720664D01*
X138547225Y-110729493D01*
X138561019Y-110739723D01*
X138573744Y-110751256D01*
X138585277Y-110763981D01*
X138595507Y-110777775D01*
X138604336Y-110792506D01*
X138611679Y-110808030D01*
X138617465Y-110824200D01*
X138621637Y-110840859D01*
X138624157Y-110857847D01*
X138625000Y-110875000D01*
X138625000Y-111225000D01*
X138624157Y-111242153D01*
X138621637Y-111259141D01*
X138617465Y-111275800D01*
X138611679Y-111291970D01*
X138604336Y-111307494D01*
X138595507Y-111322225D01*
X138585277Y-111336019D01*
X138573744Y-111348744D01*
X138561019Y-111360277D01*
X138547225Y-111370507D01*
X138532494Y-111379336D01*
X138516970Y-111386679D01*
X138500800Y-111392465D01*
X138484141Y-111396637D01*
X138467153Y-111399157D01*
X138450000Y-111400000D01*
X136900000Y-111400000D01*
X136882847Y-111399157D01*
X136865859Y-111396637D01*
X136849200Y-111392465D01*
X136833030Y-111386679D01*
X136817506Y-111379336D01*
X136802775Y-111370507D01*
X136788981Y-111360277D01*
X136776256Y-111348744D01*
X136764723Y-111336019D01*
X136754493Y-111322225D01*
X136745664Y-111307494D01*
X136738321Y-111291970D01*
X136732535Y-111275800D01*
X136728363Y-111259141D01*
X136725843Y-111242153D01*
X136725000Y-111225000D01*
X136725000Y-110875000D01*
X136725843Y-110857847D01*
X136728363Y-110840859D01*
X136732535Y-110824200D01*
X136738321Y-110808030D01*
X136745664Y-110792506D01*
X136754493Y-110777775D01*
X136764723Y-110763981D01*
X136776256Y-110751256D01*
X136788981Y-110739723D01*
X136802775Y-110729493D01*
X136817506Y-110720664D01*
X136833030Y-110713321D01*
X136849200Y-110707535D01*
X136865859Y-110703363D01*
X136882847Y-110700843D01*
X136900000Y-110700000D01*
X138450000Y-110700000D01*
X138467153Y-110700843D01*
X138467153Y-110700843D01*
G37*
D33*
X137675000Y-111050000D03*
D27*
G36*
X138467153Y-110200843D02*
G01*
X138484141Y-110203363D01*
X138500800Y-110207535D01*
X138516970Y-110213321D01*
X138532494Y-110220664D01*
X138547225Y-110229493D01*
X138561019Y-110239723D01*
X138573744Y-110251256D01*
X138585277Y-110263981D01*
X138595507Y-110277775D01*
X138604336Y-110292506D01*
X138611679Y-110308030D01*
X138617465Y-110324200D01*
X138621637Y-110340859D01*
X138624157Y-110357847D01*
X138625000Y-110375000D01*
X138625000Y-110725000D01*
X138624157Y-110742153D01*
X138621637Y-110759141D01*
X138617465Y-110775800D01*
X138611679Y-110791970D01*
X138604336Y-110807494D01*
X138595507Y-110822225D01*
X138585277Y-110836019D01*
X138573744Y-110848744D01*
X138561019Y-110860277D01*
X138547225Y-110870507D01*
X138532494Y-110879336D01*
X138516970Y-110886679D01*
X138500800Y-110892465D01*
X138484141Y-110896637D01*
X138467153Y-110899157D01*
X138450000Y-110900000D01*
X136900000Y-110900000D01*
X136882847Y-110899157D01*
X136865859Y-110896637D01*
X136849200Y-110892465D01*
X136833030Y-110886679D01*
X136817506Y-110879336D01*
X136802775Y-110870507D01*
X136788981Y-110860277D01*
X136776256Y-110848744D01*
X136764723Y-110836019D01*
X136754493Y-110822225D01*
X136745664Y-110807494D01*
X136738321Y-110791970D01*
X136732535Y-110775800D01*
X136728363Y-110759141D01*
X136725843Y-110742153D01*
X136725000Y-110725000D01*
X136725000Y-110375000D01*
X136725843Y-110357847D01*
X136728363Y-110340859D01*
X136732535Y-110324200D01*
X136738321Y-110308030D01*
X136745664Y-110292506D01*
X136754493Y-110277775D01*
X136764723Y-110263981D01*
X136776256Y-110251256D01*
X136788981Y-110239723D01*
X136802775Y-110229493D01*
X136817506Y-110220664D01*
X136833030Y-110213321D01*
X136849200Y-110207535D01*
X136865859Y-110203363D01*
X136882847Y-110200843D01*
X136900000Y-110200000D01*
X138450000Y-110200000D01*
X138467153Y-110200843D01*
X138467153Y-110200843D01*
G37*
D33*
X137675000Y-110550000D03*
D27*
G36*
X138467153Y-109700843D02*
G01*
X138484141Y-109703363D01*
X138500800Y-109707535D01*
X138516970Y-109713321D01*
X138532494Y-109720664D01*
X138547225Y-109729493D01*
X138561019Y-109739723D01*
X138573744Y-109751256D01*
X138585277Y-109763981D01*
X138595507Y-109777775D01*
X138604336Y-109792506D01*
X138611679Y-109808030D01*
X138617465Y-109824200D01*
X138621637Y-109840859D01*
X138624157Y-109857847D01*
X138625000Y-109875000D01*
X138625000Y-110225000D01*
X138624157Y-110242153D01*
X138621637Y-110259141D01*
X138617465Y-110275800D01*
X138611679Y-110291970D01*
X138604336Y-110307494D01*
X138595507Y-110322225D01*
X138585277Y-110336019D01*
X138573744Y-110348744D01*
X138561019Y-110360277D01*
X138547225Y-110370507D01*
X138532494Y-110379336D01*
X138516970Y-110386679D01*
X138500800Y-110392465D01*
X138484141Y-110396637D01*
X138467153Y-110399157D01*
X138450000Y-110400000D01*
X136900000Y-110400000D01*
X136882847Y-110399157D01*
X136865859Y-110396637D01*
X136849200Y-110392465D01*
X136833030Y-110386679D01*
X136817506Y-110379336D01*
X136802775Y-110370507D01*
X136788981Y-110360277D01*
X136776256Y-110348744D01*
X136764723Y-110336019D01*
X136754493Y-110322225D01*
X136745664Y-110307494D01*
X136738321Y-110291970D01*
X136732535Y-110275800D01*
X136728363Y-110259141D01*
X136725843Y-110242153D01*
X136725000Y-110225000D01*
X136725000Y-109875000D01*
X136725843Y-109857847D01*
X136728363Y-109840859D01*
X136732535Y-109824200D01*
X136738321Y-109808030D01*
X136745664Y-109792506D01*
X136754493Y-109777775D01*
X136764723Y-109763981D01*
X136776256Y-109751256D01*
X136788981Y-109739723D01*
X136802775Y-109729493D01*
X136817506Y-109720664D01*
X136833030Y-109713321D01*
X136849200Y-109707535D01*
X136865859Y-109703363D01*
X136882847Y-109700843D01*
X136900000Y-109700000D01*
X138450000Y-109700000D01*
X138467153Y-109700843D01*
X138467153Y-109700843D01*
G37*
D33*
X137675000Y-110050000D03*
D27*
G36*
X138467153Y-109200843D02*
G01*
X138484141Y-109203363D01*
X138500800Y-109207535D01*
X138516970Y-109213321D01*
X138532494Y-109220664D01*
X138547225Y-109229493D01*
X138561019Y-109239723D01*
X138573744Y-109251256D01*
X138585277Y-109263981D01*
X138595507Y-109277775D01*
X138604336Y-109292506D01*
X138611679Y-109308030D01*
X138617465Y-109324200D01*
X138621637Y-109340859D01*
X138624157Y-109357847D01*
X138625000Y-109375000D01*
X138625000Y-109725000D01*
X138624157Y-109742153D01*
X138621637Y-109759141D01*
X138617465Y-109775800D01*
X138611679Y-109791970D01*
X138604336Y-109807494D01*
X138595507Y-109822225D01*
X138585277Y-109836019D01*
X138573744Y-109848744D01*
X138561019Y-109860277D01*
X138547225Y-109870507D01*
X138532494Y-109879336D01*
X138516970Y-109886679D01*
X138500800Y-109892465D01*
X138484141Y-109896637D01*
X138467153Y-109899157D01*
X138450000Y-109900000D01*
X136900000Y-109900000D01*
X136882847Y-109899157D01*
X136865859Y-109896637D01*
X136849200Y-109892465D01*
X136833030Y-109886679D01*
X136817506Y-109879336D01*
X136802775Y-109870507D01*
X136788981Y-109860277D01*
X136776256Y-109848744D01*
X136764723Y-109836019D01*
X136754493Y-109822225D01*
X136745664Y-109807494D01*
X136738321Y-109791970D01*
X136732535Y-109775800D01*
X136728363Y-109759141D01*
X136725843Y-109742153D01*
X136725000Y-109725000D01*
X136725000Y-109375000D01*
X136725843Y-109357847D01*
X136728363Y-109340859D01*
X136732535Y-109324200D01*
X136738321Y-109308030D01*
X136745664Y-109292506D01*
X136754493Y-109277775D01*
X136764723Y-109263981D01*
X136776256Y-109251256D01*
X136788981Y-109239723D01*
X136802775Y-109229493D01*
X136817506Y-109220664D01*
X136833030Y-109213321D01*
X136849200Y-109207535D01*
X136865859Y-109203363D01*
X136882847Y-109200843D01*
X136900000Y-109200000D01*
X138450000Y-109200000D01*
X138467153Y-109200843D01*
X138467153Y-109200843D01*
G37*
D33*
X137675000Y-109550000D03*
D27*
G36*
X138467153Y-108700843D02*
G01*
X138484141Y-108703363D01*
X138500800Y-108707535D01*
X138516970Y-108713321D01*
X138532494Y-108720664D01*
X138547225Y-108729493D01*
X138561019Y-108739723D01*
X138573744Y-108751256D01*
X138585277Y-108763981D01*
X138595507Y-108777775D01*
X138604336Y-108792506D01*
X138611679Y-108808030D01*
X138617465Y-108824200D01*
X138621637Y-108840859D01*
X138624157Y-108857847D01*
X138625000Y-108875000D01*
X138625000Y-109225000D01*
X138624157Y-109242153D01*
X138621637Y-109259141D01*
X138617465Y-109275800D01*
X138611679Y-109291970D01*
X138604336Y-109307494D01*
X138595507Y-109322225D01*
X138585277Y-109336019D01*
X138573744Y-109348744D01*
X138561019Y-109360277D01*
X138547225Y-109370507D01*
X138532494Y-109379336D01*
X138516970Y-109386679D01*
X138500800Y-109392465D01*
X138484141Y-109396637D01*
X138467153Y-109399157D01*
X138450000Y-109400000D01*
X136900000Y-109400000D01*
X136882847Y-109399157D01*
X136865859Y-109396637D01*
X136849200Y-109392465D01*
X136833030Y-109386679D01*
X136817506Y-109379336D01*
X136802775Y-109370507D01*
X136788981Y-109360277D01*
X136776256Y-109348744D01*
X136764723Y-109336019D01*
X136754493Y-109322225D01*
X136745664Y-109307494D01*
X136738321Y-109291970D01*
X136732535Y-109275800D01*
X136728363Y-109259141D01*
X136725843Y-109242153D01*
X136725000Y-109225000D01*
X136725000Y-108875000D01*
X136725843Y-108857847D01*
X136728363Y-108840859D01*
X136732535Y-108824200D01*
X136738321Y-108808030D01*
X136745664Y-108792506D01*
X136754493Y-108777775D01*
X136764723Y-108763981D01*
X136776256Y-108751256D01*
X136788981Y-108739723D01*
X136802775Y-108729493D01*
X136817506Y-108720664D01*
X136833030Y-108713321D01*
X136849200Y-108707535D01*
X136865859Y-108703363D01*
X136882847Y-108700843D01*
X136900000Y-108700000D01*
X138450000Y-108700000D01*
X138467153Y-108700843D01*
X138467153Y-108700843D01*
G37*
D33*
X137675000Y-109050000D03*
D27*
G36*
X138467153Y-108200843D02*
G01*
X138484141Y-108203363D01*
X138500800Y-108207535D01*
X138516970Y-108213321D01*
X138532494Y-108220664D01*
X138547225Y-108229493D01*
X138561019Y-108239723D01*
X138573744Y-108251256D01*
X138585277Y-108263981D01*
X138595507Y-108277775D01*
X138604336Y-108292506D01*
X138611679Y-108308030D01*
X138617465Y-108324200D01*
X138621637Y-108340859D01*
X138624157Y-108357847D01*
X138625000Y-108375000D01*
X138625000Y-108725000D01*
X138624157Y-108742153D01*
X138621637Y-108759141D01*
X138617465Y-108775800D01*
X138611679Y-108791970D01*
X138604336Y-108807494D01*
X138595507Y-108822225D01*
X138585277Y-108836019D01*
X138573744Y-108848744D01*
X138561019Y-108860277D01*
X138547225Y-108870507D01*
X138532494Y-108879336D01*
X138516970Y-108886679D01*
X138500800Y-108892465D01*
X138484141Y-108896637D01*
X138467153Y-108899157D01*
X138450000Y-108900000D01*
X136900000Y-108900000D01*
X136882847Y-108899157D01*
X136865859Y-108896637D01*
X136849200Y-108892465D01*
X136833030Y-108886679D01*
X136817506Y-108879336D01*
X136802775Y-108870507D01*
X136788981Y-108860277D01*
X136776256Y-108848744D01*
X136764723Y-108836019D01*
X136754493Y-108822225D01*
X136745664Y-108807494D01*
X136738321Y-108791970D01*
X136732535Y-108775800D01*
X136728363Y-108759141D01*
X136725843Y-108742153D01*
X136725000Y-108725000D01*
X136725000Y-108375000D01*
X136725843Y-108357847D01*
X136728363Y-108340859D01*
X136732535Y-108324200D01*
X136738321Y-108308030D01*
X136745664Y-108292506D01*
X136754493Y-108277775D01*
X136764723Y-108263981D01*
X136776256Y-108251256D01*
X136788981Y-108239723D01*
X136802775Y-108229493D01*
X136817506Y-108220664D01*
X136833030Y-108213321D01*
X136849200Y-108207535D01*
X136865859Y-108203363D01*
X136882847Y-108200843D01*
X136900000Y-108200000D01*
X138450000Y-108200000D01*
X138467153Y-108200843D01*
X138467153Y-108200843D01*
G37*
D33*
X137675000Y-108550000D03*
D27*
G36*
X138467153Y-107700843D02*
G01*
X138484141Y-107703363D01*
X138500800Y-107707535D01*
X138516970Y-107713321D01*
X138532494Y-107720664D01*
X138547225Y-107729493D01*
X138561019Y-107739723D01*
X138573744Y-107751256D01*
X138585277Y-107763981D01*
X138595507Y-107777775D01*
X138604336Y-107792506D01*
X138611679Y-107808030D01*
X138617465Y-107824200D01*
X138621637Y-107840859D01*
X138624157Y-107857847D01*
X138625000Y-107875000D01*
X138625000Y-108225000D01*
X138624157Y-108242153D01*
X138621637Y-108259141D01*
X138617465Y-108275800D01*
X138611679Y-108291970D01*
X138604336Y-108307494D01*
X138595507Y-108322225D01*
X138585277Y-108336019D01*
X138573744Y-108348744D01*
X138561019Y-108360277D01*
X138547225Y-108370507D01*
X138532494Y-108379336D01*
X138516970Y-108386679D01*
X138500800Y-108392465D01*
X138484141Y-108396637D01*
X138467153Y-108399157D01*
X138450000Y-108400000D01*
X136900000Y-108400000D01*
X136882847Y-108399157D01*
X136865859Y-108396637D01*
X136849200Y-108392465D01*
X136833030Y-108386679D01*
X136817506Y-108379336D01*
X136802775Y-108370507D01*
X136788981Y-108360277D01*
X136776256Y-108348744D01*
X136764723Y-108336019D01*
X136754493Y-108322225D01*
X136745664Y-108307494D01*
X136738321Y-108291970D01*
X136732535Y-108275800D01*
X136728363Y-108259141D01*
X136725843Y-108242153D01*
X136725000Y-108225000D01*
X136725000Y-107875000D01*
X136725843Y-107857847D01*
X136728363Y-107840859D01*
X136732535Y-107824200D01*
X136738321Y-107808030D01*
X136745664Y-107792506D01*
X136754493Y-107777775D01*
X136764723Y-107763981D01*
X136776256Y-107751256D01*
X136788981Y-107739723D01*
X136802775Y-107729493D01*
X136817506Y-107720664D01*
X136833030Y-107713321D01*
X136849200Y-107707535D01*
X136865859Y-107703363D01*
X136882847Y-107700843D01*
X136900000Y-107700000D01*
X138450000Y-107700000D01*
X138467153Y-107700843D01*
X138467153Y-107700843D01*
G37*
D33*
X137675000Y-108050000D03*
D27*
G36*
X138467153Y-107200843D02*
G01*
X138484141Y-107203363D01*
X138500800Y-107207535D01*
X138516970Y-107213321D01*
X138532494Y-107220664D01*
X138547225Y-107229493D01*
X138561019Y-107239723D01*
X138573744Y-107251256D01*
X138585277Y-107263981D01*
X138595507Y-107277775D01*
X138604336Y-107292506D01*
X138611679Y-107308030D01*
X138617465Y-107324200D01*
X138621637Y-107340859D01*
X138624157Y-107357847D01*
X138625000Y-107375000D01*
X138625000Y-107725000D01*
X138624157Y-107742153D01*
X138621637Y-107759141D01*
X138617465Y-107775800D01*
X138611679Y-107791970D01*
X138604336Y-107807494D01*
X138595507Y-107822225D01*
X138585277Y-107836019D01*
X138573744Y-107848744D01*
X138561019Y-107860277D01*
X138547225Y-107870507D01*
X138532494Y-107879336D01*
X138516970Y-107886679D01*
X138500800Y-107892465D01*
X138484141Y-107896637D01*
X138467153Y-107899157D01*
X138450000Y-107900000D01*
X136900000Y-107900000D01*
X136882847Y-107899157D01*
X136865859Y-107896637D01*
X136849200Y-107892465D01*
X136833030Y-107886679D01*
X136817506Y-107879336D01*
X136802775Y-107870507D01*
X136788981Y-107860277D01*
X136776256Y-107848744D01*
X136764723Y-107836019D01*
X136754493Y-107822225D01*
X136745664Y-107807494D01*
X136738321Y-107791970D01*
X136732535Y-107775800D01*
X136728363Y-107759141D01*
X136725843Y-107742153D01*
X136725000Y-107725000D01*
X136725000Y-107375000D01*
X136725843Y-107357847D01*
X136728363Y-107340859D01*
X136732535Y-107324200D01*
X136738321Y-107308030D01*
X136745664Y-107292506D01*
X136754493Y-107277775D01*
X136764723Y-107263981D01*
X136776256Y-107251256D01*
X136788981Y-107239723D01*
X136802775Y-107229493D01*
X136817506Y-107220664D01*
X136833030Y-107213321D01*
X136849200Y-107207535D01*
X136865859Y-107203363D01*
X136882847Y-107200843D01*
X136900000Y-107200000D01*
X138450000Y-107200000D01*
X138467153Y-107200843D01*
X138467153Y-107200843D01*
G37*
D33*
X137675000Y-107550000D03*
D34*
X119700000Y-112300000D03*
D35*
X119700000Y-114300000D03*
D36*
X119700000Y-117530000D03*
D37*
X119700000Y-118800000D03*
D38*
X119700000Y-106635000D03*
D39*
X119700000Y-109175000D03*
D40*
X159000000Y-112750000D03*
X157700000Y-112750000D03*
X158350000Y-114750000D03*
D41*
X162667000Y-108500000D03*
D27*
G36*
X162042000Y-107014016D02*
G01*
X163292000Y-107896368D01*
X163292000Y-109103632D01*
X162042000Y-109985984D01*
X162042000Y-107014016D01*
X162042000Y-107014016D01*
G37*
D42*
X158520000Y-107000000D03*
D43*
X158666500Y-108500000D03*
D42*
X158520000Y-110000000D03*
D44*
X161333500Y-108500000D03*
D24*
X159923800Y-108500000D03*
D27*
G36*
X160623800Y-109984131D02*
G01*
X159223800Y-109004131D01*
X159223800Y-107995869D01*
X160623800Y-107015869D01*
X160623800Y-109984131D01*
X160623800Y-109984131D01*
G37*
D45*
X133550000Y-119250000D03*
X133550000Y-119650000D03*
X133550000Y-120050000D03*
X133550000Y-120450000D03*
X133550000Y-120850000D03*
X133550000Y-121250000D03*
X133550000Y-121650000D03*
D46*
X134300000Y-122400000D03*
X134700000Y-122400000D03*
X135100000Y-122400000D03*
X135500000Y-122400000D03*
X135900000Y-122400000D03*
X136300000Y-122400000D03*
X136700000Y-122400000D03*
D45*
X137450000Y-121650000D03*
X137450000Y-121250000D03*
X137450000Y-120850000D03*
X137450000Y-120450000D03*
X137450000Y-120050000D03*
X137450000Y-119650000D03*
X137450000Y-119250000D03*
D46*
X136700000Y-118500000D03*
X136300000Y-118500000D03*
X135900000Y-118500000D03*
X135500000Y-118500000D03*
X135100000Y-118500000D03*
X134700000Y-118500000D03*
X134300000Y-118500000D03*
D47*
X136100000Y-121050000D03*
X136100000Y-119850000D03*
X134900000Y-121050000D03*
X134900000Y-119850000D03*
D48*
X125700000Y-107550000D03*
X125700000Y-108350000D03*
X125700000Y-109150000D03*
X125700000Y-109950000D03*
X125700000Y-110750000D03*
X125700000Y-111550000D03*
X125700000Y-112350000D03*
X125700000Y-113150000D03*
D49*
X127150000Y-114600000D03*
X127950000Y-114600000D03*
X128750000Y-114600000D03*
X129550000Y-114600000D03*
X130350000Y-114600000D03*
X131150000Y-114600000D03*
X131950000Y-114600000D03*
X132750000Y-114600000D03*
D48*
X134200000Y-113150000D03*
X134200000Y-112350000D03*
X134200000Y-111550000D03*
X134200000Y-110750000D03*
X134200000Y-109950000D03*
X134200000Y-109150000D03*
X134200000Y-108350000D03*
X134200000Y-107550000D03*
D49*
X132750000Y-106100000D03*
X131950000Y-106100000D03*
X131150000Y-106100000D03*
X130350000Y-106100000D03*
X129550000Y-106100000D03*
X128750000Y-106100000D03*
X127950000Y-106100000D03*
X127150000Y-106100000D03*
D50*
X148300000Y-106095000D03*
X148300000Y-107365000D03*
X148300000Y-108635000D03*
X148300000Y-109905000D03*
X153700000Y-109905000D03*
X153700000Y-108635000D03*
X153700000Y-107365000D03*
X153700000Y-106095000D03*
D51*
X167600000Y-113050000D03*
X167600000Y-114950000D03*
X169600000Y-114000000D03*
D52*
X164750000Y-120750000D03*
D53*
X158450000Y-120750000D03*
X158450000Y-123050000D03*
X158450000Y-118450000D03*
D54*
X168000000Y-119700000D03*
X168000000Y-121800000D03*
D55*
X148050000Y-118975000D03*
X148050000Y-119625000D03*
X148050000Y-120275000D03*
X148050000Y-120925000D03*
X148050000Y-121575000D03*
X148050000Y-122225000D03*
X148050000Y-122875000D03*
X148050000Y-123525000D03*
X153950000Y-123525000D03*
X153950000Y-122875000D03*
X153950000Y-122225000D03*
X153950000Y-121575000D03*
X153950000Y-120925000D03*
X153950000Y-120275000D03*
X153950000Y-119625000D03*
X153950000Y-118975000D03*
M02*
